<svg xmlns="http://www.w3.org/2000/svg" height="100" width="100"><path d="M26.365 10.774a2.596 2.596 0 00-2.325 2.596v11.249h-8.654a2.596 2.596 0 00-.27 0 2.596 2.596 0 00-2.326 2.596v50.19A2.596 2.596 0 0015.386 80h69.228a2.596 2.596 0 002.596-2.596v-50.19a2.596 2.596 0 00-2.596-2.596H75.96v-11.25a2.596 2.596 0 00-2.596-2.595H57.788a2.596 2.596 0 00-.27 0 2.596 2.596 0 00-2.326 2.596v11.249H44.808v-11.25a2.596 2.596 0 00-2.596-2.595H26.636a2.596 2.596 0 00-.27 0zm2.867 5.192h10.384v8.653H29.232zm31.152 0h10.384v8.653H60.384zM17.982 29.81h64.036V74.81H17.982z" style="line-height:normal;-inkscape-font-specification:Sans;text-indent:0;text-align:start;text-decoration-line:none;text-transform:none;marker:none" color="#000" font-weight="400" font-family="Sans" overflow="visible" stroke-width="6"/></svg>