<svg xmlns="http://www.w3.org/2000/svg" height="100" width="100"><path overflow="visible" d="M58 21c12.406 0 21.403 10.06 22.062 21.062C87.574 44.602 93 51.655 93 60c0 10.47-8.53 19-19 19H26C14.957 79 7 71.423 7 62c0-7.41 4.845-14.589 12.187-16.594.478-5.789 3.32-10.247 7.282-12.625 3.823-2.294 8.517-2.693 12.75-1.187C42.822 25.688 49.416 21 58 21zm0 4c-7.768 0-13.533 4.503-16.219 9.875a2 2 0 01-2.687.906 11.04 11.04 0 00-10.563.406C25.364 38.087 23 41.611 23 47a2 2 0 01-1.656 1.969C15.335 49.977 11 55.973 11 61.999 11 69.237 16.706 75 26 75h48c8.308 0 15-6.692 15-15 0-7.03-4.819-12.887-11.313-14.531a2 2 0 01-1.5-1.969C76.277 34.114 68.695 25 58 25z" style="text-indent:0;text-transform:none" color="#000" stroke="#000" stroke-width="2.4"/></svg>