<?xml version="1.0" encoding="UTF-8" standalone="no"?>
<svg
   xmlns:dc="http://purl.org/dc/elements/1.1/"
   xmlns:cc="http://creativecommons.org/ns#"
   xmlns:rdf="http://www.w3.org/1999/02/22-rdf-syntax-ns#"
   xmlns:svg="http://www.w3.org/2000/svg"
   xmlns="http://www.w3.org/2000/svg"
   xmlns:xlink="http://www.w3.org/1999/xlink"
   id="svg8"
   version="1.1"
   viewBox="0 0 142.78873 39.880543"
   height="39.880543mm"
   width="142.78873mm">
  <defs
     id="defs2">
    <linearGradient
       id="linearGradient907">
      <stop
         id="stop903"
         offset="0"
         style="stop-color:#fe496e;stop-opacity:1;" />
      <stop
         id="stop905"
         offset="1"
         style="stop-color:#fd63a8;stop-opacity:1" />
    </linearGradient>
    <linearGradient
       gradientUnits="userSpaceOnUse"
       y2="180.83076"
       x2="174.8131"
       y1="180.83076"
       x1="52.043884"
       id="linearGradient909"
       xlink:href="#linearGradient907" />
  </defs>
  <metadata
     id="metadata5">
    <rdf:RDF>
      <cc:Work
         rdf:about="">
        <dc:format>image/svg+xml</dc:format>
        <dc:type
           rdf:resource="http://purl.org/dc/dcmitype/StillImage" />
        <dc:title></dc:title>
      </cc:Work>
    </rdf:RDF>
  </metadata>
  <g
     transform="translate(-40.893466,-160.953)"
     id="layer1">
    <path
       id="path78"
       d="m 64.577031,184.26832 h -1.693333 c -0.175684,3.48462 -4.620921,4.68308 -7.112,2.67639 -1.791437,-1.44305 -1.693334,-3.47912 -1.693334,-5.55506 0,-2.4997 -0.367241,-5.09016 1.862667,-6.80391 0.380373,-0.29232 0.811962,-0.50468 1.27,-0.64676 0.558766,-0.17332 1.114417,-0.17469 1.693333,-0.16933 1.304036,0.0121 2.652946,0.69855 3.280834,1.86267 0.174836,0.32419 0.308864,0.65633 0.390398,1.016 0.03624,0.15951 0.02362,0.42401 0.166962,0.53153 0.12463,0.0935 0.334942,0.0608 0.479806,0.0611 h 1.185334 c -0.117856,-1.12166 -0.471001,-2.25285 -1.20413,-3.13266 -1.931585,-2.31791 -5.786196,-2.60027 -8.19387,-0.87254 -2.171793,1.55846 -2.736232,4.2973 -2.881021,6.7992 -0.02481,0.42876 -0.105164,0.83448 -0.07996,1.27 0.153848,2.65854 0.625331,5.81965 3.130313,7.33307 3.142852,1.89882 7.92099,0.7979 9.144,-2.84573 0.170434,-0.50766 0.254,-0.98933 0.254,-1.524 m 43.434,0 h -1.69333 c 0.0261,0.51689 0.14808,1.03344 0.31047,1.524 0.99162,2.99576 3.99711,3.96206 6.8862,3.64769 2.02581,-0.22039 4.1777,-1.18237 4.79306,-3.30903 0.143,-0.4942 0.20701,-1.01109 0.20227,-1.524 -0.003,-0.36508 -0.0698,-0.74625 -0.15757,-1.10066 -0.65083,-2.62772 -3.84996,-3.2098 -6.10776,-3.77944 -1.67065,-0.42155 -3.51867,-0.90382 -3.71831,-2.90923 -0.1872,-1.88085 1.44272,-2.80346 3.04097,-3.08093 2.31318,-0.40158 4.57183,0.91506 4.826,3.33493 0.365,0 1.28829,0.16832 1.58047,-0.0611 0.21616,-0.16984 -0.0222,-0.81339 -0.0729,-1.03954 -0.24207,-1.07785 -0.93803,-2.16536 -1.84624,-2.794 -2.86953,-1.98611 -8.39598,-1.26053 -9.16043,2.62467 -0.0935,0.47473 -0.0959,0.96258 -0.0165,1.43933 0.0851,0.51046 0.15519,0.96884 0.3904,1.43934 1.36482,2.72965 5.23858,2.5008 7.68587,3.57716 1.37753,0.60588 2.17001,1.84404 1.71924,3.3655 -0.25408,0.85734 -1.02701,1.50741 -1.80391,1.88147 -1.58589,0.7636 -3.89593,0.64778 -5.334,-0.39743 -0.974,-0.70798 -1.31081,-1.71111 -1.524,-2.8387 m -18.796,-11.76867 v 6.18067 h -0.08467 c -0.241469,-0.76615 -0.997034,-1.43578 -1.693333,-1.7968 -2.275163,-1.17974 -5.249079,-0.33545 -6.415871,1.96613 -1.000844,1.97426 -1.091776,4.48606 -0.55736,6.604 0.248496,0.98493 0.662093,1.97214 1.392258,2.70231 1.911943,1.91185 6.174571,1.77554 7.274306,-1.00898 h 0.08467 v 1.94734 h 1.524 v -16.59467 h -1.524 m 79.07868,0.0847 v 0.33866 h 1.016 v 2.87867 h 0.42333 v -2.032 l -0.0128,-0.83409 1.02878,-0.0126 v -0.33866 h -2.45533 m 3.13267,0 v 3.21733 h 0.42333 v -2.70933 h 0.0847 l 0.93133,2.70933 h 0.508 l 0.93133,-2.70933 h 0.0847 v 2.70933 h 0.42333 v -3.21733 h -0.84666 l -0.84667,2.45533 -0.55541,-1.60867 -0.32522,-0.86071 -0.8127,0.0141 m -99.991339,3.84293 c -0.549402,0.0953 -1.113705,0.23275 -1.608667,0.49623 -2.334006,1.24266 -2.794,3.84125 -2.794,6.24417 0,1.90898 0.501396,3.95859 2.032,5.23054 1.257216,1.0447 3.10388,1.21911 4.656667,0.91719 2.367449,-0.46033 3.553206,-2.59368 3.899408,-4.79306 0.396663,-2.52019 0.01693,-5.9668 -2.375408,-7.41773 -0.574887,-0.34866 -1.207262,-0.53264 -1.862667,-0.65854 -0.589534,-0.11329 -1.354666,-0.12167 -1.947333,-0.0188 m 32.511999,8.85707 h -1.60867 c -0.26458,2.51883 -3.487585,3.56548 -5.418662,2.08136 -1.371092,-1.05368 -1.354667,-2.37685 -1.354667,-3.94403 h 8.466669 c 0,-1.56261 0.031,-3.1728 -0.79494,-4.572 -0.47015,-0.79646 -1.08915,-1.48675 -1.9144,-1.92617 -1.919135,-1.02175 -4.552014,-0.63474 -6.004302,0.99484 -1.184232,1.32884 -1.372023,3.14333 -1.524,4.826 -0.02582,0.28676 0.06968,0.56125 0.07764,0.84666 0.0519,1.86843 0.58547,3.89535 2.201333,5.02124 1.874605,1.30607 4.962739,1.08907 6.596969,-0.54093 0.77614,-0.77419 1.08001,-1.7449 1.27703,-2.78697 m 26.83934,-0.16934 h -1.524 c -0.0208,0.4136 -0.13462,0.81484 -0.31988,1.18534 -1.40953,2.81914 -5.95799,1.94767 -6.2771,-1.18534 -0.076,-0.74693 -0.007,-1.53509 -0.007,-2.286 0,-1.42604 -0.17653,-2.83396 0.85369,-3.97933 1.23529,-1.37321 3.62517,-1.47168 4.89661,-0.0847 0.47117,0.51401 0.69749,1.18153 0.76903,1.86267 h 1.524 c -0.0146,-3.47286 -3.9558,-5.15256 -6.858,-3.78883 -1.89366,0.88984 -2.82296,3.13927 -2.87867,5.1435 -0.0654,2.355 0.0703,5.15891 2.20134,6.6487 2.86757,2.00465 7.55768,0.19482 7.62,-3.51604 m 12.446,0.16934 c -0.35899,0 -1.20142,-0.15714 -1.49606,0.0611 -0.19389,0.14435 -0.22522,0.64744 -0.31496,0.8702 -0.21929,0.54415 -0.63924,1.04233 -1.15232,1.3335 -1.81186,1.0276 -4.19523,0.3882 -5.14096,-1.50283 -0.39768,-0.79494 -0.2777,-1.7653 -0.2777,-2.62467 h 6.18066 1.60867 c 0.18288,0 0.49276,0.0566 0.64939,-0.0611 0.1524,-0.11472 0.11261,-0.36584 0.11261,-0.53154 8.5e-4,-0.42875 -0.0804,-0.84133 -0.0847,-1.27 -0.0203,-2.20201 -1.57903,-4.59257 -3.81,-5.04706 -1.66454,-0.33918 -3.50858,-0.029 -4.72254,1.24409 -1.60663,1.6847 -1.78782,4.32511 -1.54982,6.51231 0.1342,1.23376 0.45144,2.4704 1.22767,3.47133 2.44035,3.14681 8.55921,1.73355 8.77003,-2.45533 m 4.74133,-6.51934 h -0.0847 v -2.11667 l -1.46304,0.11286 -0.061,0.90314 v 2.37066 9.05934 h 1.524 v -5.588 c 0,-1.29811 -0.0686,-2.61578 0.53171,-3.81 0.85344,-1.69867 3.57886,-2.78596 5.04952,-1.18534 0.86106,0.93709 0.76877,2.2943 0.76877,3.47134 v 7.112 h 1.524 v -6.858 c 0,-1.44916 0.12531,-2.92515 -0.61383,-4.23334 -1.51807,-2.68833 -6.1341,-1.90203 -7.1755,0.762 m 20.828,6.51934 h -1.524 c -0.12277,0.65007 -0.29972,1.28033 -0.76877,1.77563 -1.31234,1.38336 -3.73973,1.25196 -5.06646,-0.0164 -1.03716,-0.99238 -1.02277,-2.29734 -1.02277,-3.62187 h 6.18067 1.60866 c 0.18288,0 0.49276,0.0566 0.6494,-0.0611 0.1524,-0.11472 0.1126,-0.36584 0.1126,-0.53154 8.5e-4,-0.49115 -0.0246,-0.9536 -0.0779,-1.43933 -0.23791,-2.19058 -1.49352,-4.40986 -3.81677,-4.87773 -0.5969,-0.12023 -1.25561,-0.18305 -1.86267,-0.0988 -0.45974,0.0638 -0.93049,0.14571 -1.35467,0.34104 -2.68393,1.2363 -3.20294,4.2821 -3.05054,6.9215 0.0779,1.34408 0.31242,2.77995 1.13877,3.89467 2.05655,2.77715 7.11962,2.42815 8.53017,-0.84667 0.19727,-0.45982 0.32258,-0.93878 0.32427,-1.43933 m -96.943336,-7.51654 c 1.671828,-0.23216 3.47362,0.60892 4.026408,2.2672 0.282448,0.84752 0.122259,1.90949 0.122259,2.794 0,1.64059 0.220726,3.30006 -1.185333,4.46854 -0.250106,0.20786 -0.544576,0.37431 -0.846667,0.49386 -0.393192,0.15562 -0.850307,0.23808 -1.27,0.27991 -1.634575,0.16264 -3.387259,-0.72399 -3.861731,-2.36364 -0.252392,-0.87215 -0.117602,-1.89238 -0.117602,-2.794 0,-1.62348 -0.200999,-3.23181 1.185333,-4.38387 0.228431,-0.18982 0.49022,-0.33858 0.762,-0.45627 0.379899,-0.16442 0.776986,-0.249 1.185333,-0.30573 m 13.292667,0 c 0.4191,-0.0582 0.861314,0.0273 1.27,0.11997 0.357547,0.0811 0.695706,0.21167 1.016,0.3904 1.856486,1.03573 1.778,3.14012 1.778,4.97417 0,0.65439 0.04149,1.3075 -0.119973,1.94733 -0.34671,1.37414 -1.450086,2.63644 -2.928027,2.78697 -1.221147,0.12438 -2.584958,-0.0497 -3.464306,-1.00897 -0.918887,-1.00245 -0.853694,-2.37219 -0.853694,-3.64067 0,-1.95012 -0.258995,-4.24163 1.862667,-5.21402 0.462364,-0.21192 0.9409,-0.28592 1.439333,-0.35518 m 17.187329,4.21454 h -6.773329 c 0,-1.01194 -0.08086,-2.01075 0.547963,-2.87867 1.261448,-1.741 4.281086,-1.79358 5.597396,-0.0847 0.67945,0.88206 0.62797,1.91178 0.62797,2.96334 m 39.37001,0 h -6.858 c 0,-1.01947 -0.0511,-2.00339 0.56642,-2.87867 1.15146,-1.63085 4.05638,-1.83871 5.41189,-0.33164 0.8128,0.90373 0.87969,2.05605 0.87969,3.21031 m 25.56933,0 h -6.85797 c 0,-1.12175 0.0246,-2.22978 0.79502,-3.1303 1.35043,-1.5792 4.30784,-1.43154 5.49656,0.25163 0.6096,0.86428 0.56642,1.8741 0.56642,2.87867 z"
       style="fill:url(#linearGradient909);fill-opacity:1;stroke:none;stroke-width:0.0846667" />
  </g>
</svg>
