<svg id="Layer_1" data-name="Layer 1" xmlns="http://www.w3.org/2000/svg" xmlns:xlink="http://www.w3.org/1999/xlink" viewBox="0 0 825.4333 747.3333">
  <defs>
    <linearGradient id="linear-gradient" x1="249.9639" y1="401.0394" x2="575.4694" y2="75.5338" gradientUnits="userSpaceOnUse">
      <stop offset="0" stop-color="#f71c9d"/>
      <stop offset="1" stop-color="#fc8926"/>
    </linearGradient>
  </defs>
  <title>logo_full_color_rgb</title>
  <g>
    <g id="logoMark">
      <polygon id="logoMark_PathItem_" data-name="logoMark &lt;PathItem&gt;" points="412.716 357.43 619.079 238.287 619.079 357.43 412.716 476.573 206.354 357.43 206.354 119.143 412.716 0 619.079 119.143 412.716 238.287 309.535 178.715 309.535 297.858 412.716 357.43" style="fill: url(#linear-gradient)"/>
      <polygon id="logoMark_PathItem_2" data-name="logoMark &lt;PathItem&gt;" points="515.898 178.715 412.716 238.287 309.535 178.715 412.716 119.143 515.898 178.715" style="fill: #fff;opacity: 0.6"/>
    </g>
    <g id="type">
      <path id="type_CompoundPathItem_" data-name="type &lt;CompoundPathItem&gt;" d="M81.7951,703.2557q-35.2211,0-58.5064-23.2887Q-.0039,656.68,0,621.0072q0-35.6691,23.2887-58.9606Q46.5755,538.76,81.7951,538.7579a82.0981,82.0981,0,0,1,34.535,7.2705,72.4946,72.4946,0,0,1,26.6969,20.6757,76.2718,76.2718,0,0,1,14.8821,31.1278h-26.356a49.2452,49.2452,0,0,0-18.8578-24.879q-13.18-8.9742-30.9-8.9751-23.8571,0-39.5344,16.1314-15.6767,16.1363-15.6772,41.0114,0,24.8784,15.6772,40.8971t39.5344,16.0181q18.1746,0,31.5811-9.656,13.4037-9.6555,18.6311-26.47h26.5836q-6.135,27.9468-27.0378,44.6462Q110.646,703.2567,81.7951,703.2557Z" style="fill: #383838"/>
      <path id="type_CompoundPathItem_2" data-name="type &lt;CompoundPathItem&gt;" d="M287.3005,684.9654q-18.7435,18.2913-46.9183,18.29t-46.9183-18.29q-18.7435-18.2868-18.7445-46.01a64.7383,64.7383,0,0,1,8.5209-32.9447,60.1767,60.1767,0,0,1,23.63-23.062,71.8651,71.8651,0,0,1,67.0255,0,60.2076,60.2076,0,0,1,23.63,23.062,64.7373,64.7373,0,0,1,8.5209,32.9447Q306.0459,666.6791,287.3005,684.9654Zm-46.9183-5.7936a41.4434,41.4434,0,0,0,20.6766-5.1127,36.3741,36.3741,0,0,0,14.2-14.3136,42.0777,42.0777,0,0,0,5.1118-20.79q0-17.4932-11.2463-28.8547-11.2472-11.36-28.7423-11.3606-17.4975,0-28.7414,11.3606-11.2473,11.3625-11.2463,28.8547,0,17.499,11.2463,28.8557Q222.8881,679.1752,240.3822,679.1718Z" style="fill: #383838"/>
      <path id="type_CompoundPathItem_3" data-name="type &lt;CompoundPathItem&gt;" d="M428.0534,536.1448h25.22v166.77H434.188l-3.1816-13.8594q-17.7222,16.8162-43.3958,16.8133-27.7234,0-45.7823-18.29-18.0636-18.2869-18.0636-46.01,0-27.7176,18.0636-46.0088,18.0622-18.2869,45.7823-18.29,23.3976,0,40.4428,14.3136ZM361.027,670.311q11.3582,11.4748,28.6281,11.4739,17.2641,0,28.7414-11.4739,11.47-11.4705,11.4739-28.7424a40.9214,40.9214,0,0,0-5.2251-20.5623,37.7654,37.7654,0,0,0-14.4279-14.4278,43.0721,43.0721,0,0,0-41.1247,0,36.9361,36.9361,0,0,0-14.3135,14.4278,41.62,41.62,0,0,0-5.1127,20.5623Q349.6665,658.8386,361.027,670.311Z" style="fill: #383838"/>
      <path id="type_CompoundPathItem_4" data-name="type &lt;CompoundPathItem&gt;" d="M488.7158,563.0688V537.1671h26.1284v25.9017Zm.4542,141.7776V582.1542h25.22V704.8464Z" style="fill: #383838"/>
      <path id="type_CompoundPathItem_5" data-name="type &lt;CompoundPathItem&gt;" d="M650.7129,577.61H667.3V684.17q0,19.5429-7.3849,33.74a51.379,51.379,0,0,1-21.2432,21.8117q-13.8617,7.61-32.7181,7.6115-23.4035,0-39.3068-11.4739-15.9057-11.4749-20.6756-31.9219h25.22a27.5182,27.5182,0,0,0,13.0641,15.45,42.8883,42.8883,0,0,0,21.4709,5.4527q16.3595,0,26.5835-9.9969,10.2245-10,10.2245-27.2644v-5.4537q-17.0409,14.5431-40.6705,14.5412-25.4488,0-43.0558-17.6084-17.61-17.6042-17.6084-43.2826,0-25.6722,17.6084-43.3968,17.6055-17.7222,43.0558-17.7217,27.0365,0,44.7605,18.8578Zm-45.8955,95.6544a39.6814,39.6814,0,0,0,14.9954-2.84,36.5385,36.5385,0,0,0,12.0424-7.7258,34.4722,34.4722,0,0,0,7.8381-11.9281,39.7092,39.7092,0,0,0,2.8406-14.9954q0-16.3595-10.6787-27.0377-10.6827-10.6768-27.0378-10.6788-16.36,0-27.1511,10.7921-10.7949,10.7949-10.7921,26.9244,0,16.1349,10.7921,26.81Q588.4555,673.2678,604.8174,673.2639Z" style="fill: #383838"/>
      <path id="type_CompoundPathItem_6" data-name="type &lt;CompoundPathItem&gt;" d="M805.8928,577.61h19.5405V700.3017h-20.449l-2.5-14.9954q-17.7222,17.9513-44.3053,17.9494-27.4929,0-45.7822-18.4045-18.2912-18.4036-18.29-46.0089t18.29-45.8956q18.2868-18.2868,45.7822-18.29,27.0365,0,44.76,18.176Zm-74.637,90.0884q11.4707,11.4748,28.8547,11.4739,17.3823,0,28.6281-11.4739,11.2473-11.4705,11.2472-28.8556,0-17.3823-11.2472-28.7414T759.9972,598.74a40.9113,40.9113,0,0,0-20.5623,5.2251,37.7389,37.7389,0,0,0-14.4279,14.4279,40.8824,40.8824,0,0,0-5.2251,20.5623Q719.7819,656.2255,731.2558,667.6979Z" style="fill: #383838"/>
    </g>
  </g>
</svg>
