<svg data-v-7da0f500="" xmlns="http://www.w3.org/2000/svg" xmlns:xlink="http://www.w3.org/1999/xlink" viewBox="0 0 130.9 24.6" class=""><defs data-v-7da0f500=""><path data-v-7da0f500="" id="a" d="M0 0h130.9v24.6H0z"></path></defs><clipPath data-v-7da0f500="" id="b"><use data-v-7da0f500="" xlink:href="#a" overflow="visible"></use></clipPath><g data-v-7da0f500="" clip-path="url(#b)"><g data-v-7da0f500="" fill="#50C8EF"><path data-v-7da0f500="" d="M10.6 15.866c-1.2 1.1-2.9 1.7-4.5 1.6H0V.066h6.1c1.7-.1 3.3.5 4.5 1.6 1.9 1.9 1.8 4.5 1.8 7s.1 5.3-1.8 7.2zm-1.8-12.3c-.8-.8-1.8-1.2-3-1.2H2.6v12.7h3.2c1.1.1 2.2-.4 3-1.2.9-1 .9-2.9.9-5.3.1-2.3 0-4-.9-5z"></path><path data-v-7da0f500="" d="M17.5 17.466V.066h11.2v2.4h-8.5v5.1h7.3v2.4h-7.2v5.2h8.5v2.4l-11.3-.1z"></path><path data-v-7da0f500="" d="M33.5 17.466V.066h11.2v2.4h-8.5v5.1h7.3v2.4h-7.3v5.2h8.5v2.4l-11.2-.1z"></path><path data-v-7da0f500="" d="M56.2 10.666h-3.9v6.9h-2.6V.066h6.6c3.4 0 5.6 2.2 5.6 5.3s-2.3 5.3-5.7 5.3zm-.2-8.2h-3.8v5.8H56c1.5.2 2.9-.9 3.1-2.5v-.4c.1-1.5-1.1-2.8-2.6-2.9-.3-.1-.4-.1-.5 0z"></path></g><g data-v-7da0f500="" fill="#231F20"><path data-v-7da0f500="" d="M95.395 15.9c-2.6 2.4-6.6 2.4-9.2 0-1.7-1.7-1.7-3.7-1.7-7s0-5.3 1.7-7c1.2-1.2 2.9-1.9 4.6-1.8 1.7 0 3.4.6 4.6 1.8 1.7 1.7 1.6 3.7 1.6 7s.1 5.3-1.6 7zm-2-12.4c-.7-.7-1.6-1.1-2.6-1.1s-1.9.4-2.6 1.1c-.9.9-1 1.9-1 5.4 0 3.5.2 4.5 1 5.4.7.7 1.6 1.1 2.6 1 1 0 1.9-.4 2.6-1 .9-.9 1-1.9 1-5.4s-.1-4.5-1-5.4z"></path><path data-v-7da0f500="" d="M112.795 15.9c-1.2 1.1-2.9 1.7-4.5 1.6h-6.1V.1h6.1c1.7-.1 3.3.5 4.5 1.6 1.9 1.9 1.8 4.5 1.8 7 0 2.6.1 5.3-1.8 7.2zm-1.8-12.2c-.8-.8-1.8-1.2-3-1.2h-3.2v12.7h3.2c1.1.1 2.2-.4 3-1.2.9-1 .9-2.9.9-5.3 0-2.3 0-4-.9-5z"></path><path data-v-7da0f500="" d="M119.695 17.6V.2h11.2v2.4h-8.5v5.1h7.3v2.4h-7.3v5.2h8.5v2.4l-11.2-.1z"></path><path data-v-7da0f500="" d="M74.195 0c-1.7 0-3.4.6-4.6 1.8-1.7 1.7-1.7 3.6-1.7 7h2.6c0-3.5.2-4.5 1-5.4.7-.7 1.6-1.1 2.6-1 1.8 0 3.3 1.3 3.5 3h2.7c-.2-3.2-2.9-5.5-6.1-5.4z"></path><path data-v-7da0f500="" d="M77.695 12.4c-.3 1.7-1.7 3-3.5 3v2.3c3.2.1 5.8-2.2 6.2-5.4l-2.7.1z"></path></g><path data-v-7da0f500="" fill="#231F20" d="M69.587 22.797c0-1 .8-1.8 1.8-1.8s1.8.8 1.8 1.8-.8 1.8-1.8 1.8-1.8-.8-1.8-1.8zm-14 0c0-1 .8-1.8 1.8-1.8.3 0 .6.1.9.3l2.3-2.3.6.6-2.3 2.3c.5.8.2 1.9-.6 2.4s-1.9.2-2.4-.6c-.2-.2-.3-.6-.3-.9zm10.9-4.2c-.6.5-1.3.7-2.1.7-1.9 0-3.5-1.6-3.5-3.5s1.6-3.5 3.5-3.5 3.5 1.6 3.5 3.5c0 .8-.3 1.6-.8 2.2l2.3 2.3-.6.6-2.3-2.3zm-4.7-2.8c0 1.4 1.2 2.6 2.6 2.6 1.4 0 2.6-1.2 2.6-2.6 0-1.4-1.2-2.6-2.6-2.6-1.4 0-2.6 1.2-2.6 2.6z"></path></g></svg>