<?xml version="1.0" encoding="UTF-8" standalone="no"?>
<svg
   xmlns:dc="http://purl.org/dc/elements/1.1/"
   xmlns:cc="http://creativecommons.org/ns#"
   xmlns:rdf="http://www.w3.org/1999/02/22-rdf-syntax-ns#"
   xmlns:svg="http://www.w3.org/2000/svg"
   xmlns="http://www.w3.org/2000/svg"
   id="svg1208"
   preserveAspectRatio="xMidYMid meet"
   viewBox="0 0 10770 2910"
   height="291px"
   width="1077px"
   version="1.0">
  <metadata
     id="metadata1214">
    <rdf:RDF>
      <cc:Work
         rdf:about="">
        <dc:format>image/svg+xml</dc:format>
        <dc:type
           rdf:resource="http://purl.org/dc/dcmitype/StillImage" />
        <dc:title></dc:title>
      </cc:Work>
    </rdf:RDF>
  </metadata>
  <defs
     id="defs1212" />
  <g
     stroke="none"
     fill="#3a3667"
     id="layer101">
    <path
       id="path1147"
       d="M0 1455 l0 -1455 5385 0 5385 0 0 1455 0 1455 -5385 0 -5385 0 0 -1455z" />
  </g>
  <g
     stroke="none"
     fill="#6a678c"
     id="layer102">
    <path
       id="path1150"
       d="M0 1455 l0 -1455 3033 1 c1667 1 3009 5 2981 9 -121 18 -235 78 -311 164 -81 91 -107 182 -118 408 l-7 138 106 0 106 0 0 -67 c0 -116 19 -252 41 -304 24 -54 82 -113 138 -137 22 -10 64 -16 111 -16 141 1 254 79 291 202 l12 42 108 0 109 0 -6 -32 c-19 -106 -68 -200 -145 -273 -65 -62 -137 -99 -231 -120 -56 -12 11 -13 567 -13 387 0 610 4 578 9 -200 33 -351 173 -394 364 -20 85 -20 618 0 695 43 174 161 292 346 346 237 69 527 -51 612 -253 32 -78 42 -182 42 -443 0 -374 -21 -461 -137 -572 -88 -84 -176 -123 -312 -138 -36 -4 149 -8 410 -9 l475 -1 -3 715 -2 715 257 2 c142 1 281 1 308 0 114 -6 263 -75 328 -152 41 -48 75 -121 99 -208 19 -69 21 -105 22 -352 0 -298 -7 -353 -59 -463 -61 -129 -188 -221 -340 -246 -31 -5 118 -9 388 -10 l437 -1 0 720 0 720 460 0 460 0 0 -100 0 -100 -350 0 -350 0 0 -215 0 -215 300 0 300 0 0 -95 0 -95 -300 0 -300 0 0 -215 0 -215 350 0 349 0 4 -97 c1 -54 4 558 5 1360 l2 1457 -5385 0 -5385 0 0 -1455z m4774 541 c63 -26 100 -108 76 -171 -11 -28 -8 -32 80 -120 49 -50 90 -95 90 -101 0 -6 -8 -18 -18 -27 -17 -15 -23 -11 -111 77 l-93 93 -40 -14 c-134 -46 -242 121 -145 226 44 48 103 61 161 37z m1173 -6 c85 -51 84 -190 -2 -246 -14 -9 -46 -17 -75 -17 -108 -2 -178 110 -130 208 35 70 138 97 207 55z m-340 -420 l-93 -95 31 -60 c91 -181 -30 -388 -236 -403 -57 -4 -75 -1 -128 23 -186 84 -229 317 -84 461 81 81 218 104 320 53 l52 -25 93 93 92 93 23 -22 24 -22 -94 -96z m668 -162 c77 -25 142 -67 197 -126 56 -61 81 -103 107 -179 34 -102 34 -103 -53 -103 -121 0 -130 4 -156 68 -41 97 -131 169 -227 180 l-43 5 0 94 0 94 58 -6 c31 -4 84 -16 117 -27z" />
    <path
       id="path1152"
       d="M5199 1483 c-76 -39 -112 -93 -117 -177 -5 -69 10 -109 57 -159 85 -93 239 -88 320 9 73 90 65 210 -20 291 -72 68 -152 80 -240 36z" />
    <path
       id="path1154"
       d="M7369 1237 c-91 -34 -157 -99 -179 -175 -19 -64 -30 -341 -21 -504 12 -220 44 -283 175 -344 128 -60 302 -8 371 110 39 67 47 149 43 443 l-3 268 -28 58 c-31 62 -67 95 -140 127 -61 27 -169 35 -218 17z" />
    <path
       id="path1156"
       d="M8610 725 l0 -527 188 4 c174 3 190 5 232 27 98 51 143 116 161 232 17 112 7 529 -15 597 -21 65 -68 119 -138 158 -53 29 -55 29 -240 32 l-188 4 0 -527z" />
  </g>
  <g
     stroke="none"
     fill="#9d9bb3"
     id="layer103">
    <path
       id="path1159"
       d="M0 1455 l0 -1455 3023 1 c2597 0 3013 3 2958 14 -195 43 -343 183 -380 361 -5 28 -13 117 -17 198 l-7 146 105 0 105 0 11 -153 c12 -166 21 -207 55 -258 30 -45 106 -95 163 -107 58 -13 161 1 212 27 54 28 118 101 139 160 l18 51 108 0 109 0 -7 -33 c-24 -122 -62 -196 -139 -270 -54 -53 -145 -102 -222 -121 -53 -13 3 -14 551 -14 531 0 602 1 549 13 -173 37 -315 169 -360 332 -17 60 -19 106 -19 378 0 292 1 314 22 380 40 127 105 202 234 270 160 84 336 84 506 0 138 -68 220 -180 244 -333 17 -111 7 -641 -14 -710 -50 -171 -212 -299 -412 -325 -16 -2 171 -5 418 -6 l447 -1 0 720 0 720 273 0 c311 0 374 -7 475 -55 130 -61 209 -163 249 -322 26 -101 26 -598 0 -693 -56 -203 -176 -319 -372 -360 -24 -4 136 -8 388 -9 l427 -1 0 720 0 720 460 0 460 0 0 -100 0 -100 -350 0 -350 0 0 -215 0 -215 300 0 300 0 0 -95 0 -95 -300 0 -300 0 0 -210 0 -210 350 0 349 0 4 -102 c1 -57 4 553 5 1355 l2 1457 -5385 0 -5385 0 0 -1455z m4787 535 c18 -10 39 -30 48 -44 21 -32 29 -94 17 -126 -9 -23 -3 -33 84 -120 l95 -96 -26 -24 -26 -24 -92 92 -93 93 -45 -12 c-39 -11 -50 -10 -91 9 -51 22 -88 77 -88 129 0 102 131 176 217 123z m1160 0 c47 -28 66 -72 61 -137 -6 -64 -40 -107 -100 -125 -99 -29 -203 65 -184 167 8 39 49 93 80 105 38 16 110 11 143 -10z m-339 -417 l-92 -92 27 -54 c75 -147 23 -309 -123 -385 -61 -32 -70 -34 -141 -30 -87 5 -144 32 -197 93 -56 63 -67 92 -67 185 0 99 17 142 81 206 84 85 227 107 327 51 l45 -24 93 93 93 94 23 -22 24 -22 -93 -93z m615 -148 c37 -8 94 -28 128 -46 113 -61 220 -204 247 -331 l10 -48 -108 0 -107 0 -22 59 c-36 99 -126 174 -226 188 l-45 6 0 93 0 94 28 0 c15 0 57 -7 95 -15z" />
    <path
       id="path1161"
       d="M5227 1496 c-122 -44 -181 -176 -128 -291 53 -117 208 -161 311 -90 116 80 130 228 31 326 -65 65 -134 83 -214 55z" />
    <path
       id="path1163"
       d="M7389 1243 c-45 -7 -132 -66 -161 -108 -46 -66 -58 -149 -58 -416 0 -255 9 -332 45 -395 89 -153 326 -179 458 -49 73 73 79 101 84 390 5 272 -3 370 -37 440 -24 49 -83 96 -150 120 -44 16 -141 25 -181 18z" />
    <path
       id="path1165"
       d="M8610 725 l0 -527 183 4 c165 3 187 5 234 27 71 32 127 95 150 168 15 50 18 96 18 318 0 225 -3 269 -19 329 -22 81 -70 136 -151 177 -47 22 -63 24 -232 27 l-183 4 0 -527z" />
  </g>
  <g
     stroke="none"
     fill="#52c8ef"
     id="layer104">
    <path
       id="path1168"
       d="M0 1455 l0 -1455 3008 1 c2647 0 3000 2 2952 15 -92 24 -178 72 -240 134 -102 102 -133 201 -134 430 l-1 145 105 0 105 0 6 -145 c7 -163 11 -186 46 -252 47 -88 140 -133 258 -126 126 8 229 85 261 195 l15 53 110 0 109 0 0 -30 c0 -45 -36 -145 -74 -204 -60 -93 -158 -165 -270 -197 -60 -17 -49 -18 529 -17 493 0 582 2 538 12 -88 22 -164 66 -234 135 -123 124 -142 201 -142 571 0 292 9 362 59 464 73 149 264 255 459 256 182 0 374 -102 448 -239 51 -92 60 -166 60 -476 1 -383 -17 -460 -133 -576 -65 -65 -132 -103 -234 -129 l-71 -19 433 0 432 -1 0 720 0 720 290 0 c318 0 359 -5 465 -55 120 -57 200 -159 242 -305 16 -57 18 -105 18 -370 l0 -305 -27 -78 c-33 -91 -64 -144 -118 -196 -47 -46 -138 -96 -211 -115 -50 -14 -20 -15 364 -15 l417 -1 0 720 0 720 460 0 460 0 0 -100 0 -100 -350 0 -350 0 0 -210 0 -210 300 0 300 0 0 -105 0 -105 -300 0 -300 0 0 -205 0 -205 350 0 349 0 4 -102 c1 -57 4 553 5 1355 l2 1457 -567 -1 c-313 0 -557 -4 -543 -8 76 -24 150 -92 195 -181 23 -45 255 -624 255 -636 0 -2 -40 -4 -89 -4 l-89 0 -32 103 c-18 56 -42 142 -55 190 l-22 89 -12 -60 c-6 -32 -31 -117 -55 -188 l-43 -129 -103 -3 c-95 -3 -102 -1 -96 15 4 10 55 134 113 277 l107 259 -25 46 c-28 53 -79 91 -123 91 -26 0 -36 8 -63 50 -18 27 -33 54 -33 60 0 5 15 14 33 19 20 6 -1752 10 -4745 10 l-4778 1 0 -1455z m7884 1164 c27 -21 58 -73 81 -138 7 -20 29 -80 49 -134 35 -95 35 -98 14 -95 -17 2 -27 21 -53 97 -17 52 -34 91 -36 85 -3 -5 -19 -48 -35 -96 -25 -76 -32 -88 -51 -88 -13 0 -23 3 -23 8 0 4 20 60 45 125 44 116 45 120 29 152 -21 45 -49 69 -73 62 -23 -6 -38 22 -19 35 21 13 44 9 72 -13z m829 5 c56 -19 113 -79 123 -128 17 -94 -25 -151 -155 -206 -94 -39 -118 -63 -87 -86 26 -18 73 -18 148 2 33 8 62 14 63 12 2 -2 6 -28 10 -59 l7 -57 -38 -13 c-23 -8 -80 -14 -139 -14 -88 0 -105 3 -145 25 -62 35 -90 80 -90 144 0 88 41 133 162 177 64 24 92 48 82 73 -12 32 -112 34 -201 3 -42 -14 -42 -14 -47 12 -3 14 -7 42 -8 61 -3 34 -1 36 47 52 65 22 205 24 268 2z m397 -194 l0 -200 26 -10 c58 -22 124 -5 143 37 7 14 11 92 11 198 l0 175 91 0 90 0 -3 -229 c-3 -252 -4 -255 -71 -305 -61 -46 -193 -28 -252 34 -16 17 -32 30 -37 30 -4 0 -5 -20 -2 -44 l7 -45 -59 5 c-33 3 -74 7 -91 10 l-33 5 0 269 0 270 90 0 90 0 0 -200z m1250 70 c0 -71 3 -130 8 -130 4 0 40 59 81 130 l73 130 115 0 c89 0 113 -3 107 -12 -4 -7 -52 -77 -106 -155 -54 -78 -98 -146 -98 -152 0 -5 45 -57 100 -115 55 -58 100 -108 100 -111 0 -3 -49 -5 -109 -5 l-108 0 -79 108 -79 107 -5 -297 -5 -297 -92 145 -93 146 0 319 0 319 95 0 95 0 0 -130z m-2635 -4 c54 -23 83 -98 65 -167 -20 -74 -75 -105 -136 -76 l-34 17 0 -85 c0 -78 -2 -85 -20 -85 -19 0 -20 7 -20 194 l0 194 28 10 c39 15 78 14 117 -2z m-1802 -490 c77 -32 112 -114 82 -191 -21 -56 -63 -87 -124 -92 -86 -8 -150 47 -158 134 -6 65 20 111 77 141 51 25 78 27 123 8z m-1128 -16 c18 -11 40 -36 49 -54 18 -38 21 -103 6 -126 -7 -12 12 -37 86 -110 l95 -96 -26 -24 -26 -24 -92 92 c-92 92 -93 92 -126 81 -91 -32 -191 39 -191 136 0 111 130 183 225 125z m885 -305 l24 -26 -92 -92 -93 -93 27 -48 c35 -63 43 -154 20 -224 -23 -69 -91 -143 -158 -172 -240 -105 -489 150 -375 383 34 69 102 130 169 153 68 22 172 15 224 -15 l37 -22 91 90 c50 50 93 91 97 91 3 0 16 -11 29 -25z m542 -256 c181 -38 335 -191 378 -377 7 -29 11 -55 9 -56 -2 -2 -53 -1 -112 3 l-108 6 -24 59 c-40 99 -120 164 -222 181 l-43 7 0 94 0 94 35 0 c18 0 58 -5 87 -11z" />
  </g>
  <g
     stroke="none"
     fill="#d2d8e2"
     id="layer105">
    <path
       id="path1171"
       d="M0 2175 l0 -735 288 0 c256 0 298 -2 367 -20 183 -47 292 -161 342 -356 26 -101 26 -596 0 -698 -46 -182 -171 -308 -345 -350 -52 -13 -17 -14 366 -15 l422 -1 0 720 0 720 465 0 465 0 0 -100 0 -100 -350 0 -350 0 0 -215 0 -215 295 0 295 0 0 -95 0 -95 -300 0 -300 0 0 -210 0 -210 350 0 350 0 0 -100 0 -100 195 0 195 0 0 720 0 720 463 -2 462 -3 0 -95 0 -95 -347 -3 -348 -2 0 -215 0 -215 300 0 300 0 0 -95 0 -95 -300 0 -300 0 0 -210 0 -210 348 -2 347 -3 3 -97 3 -98 199 0 200 0 2 717 3 718 108 3 107 3 0 -286 0 -285 195 0 c106 0 218 -5 247 -11 265 -56 411 -323 319 -584 -44 -124 -161 -227 -295 -259 -55 -13 -1 -14 594 -14 591 -1 650 1 600 14 -92 24 -178 72 -240 134 -102 102 -133 201 -134 430 l-1 145 105 0 105 0 6 -145 c7 -163 11 -186 46 -252 47 -88 140 -133 258 -126 126 8 229 85 261 195 l15 53 110 0 109 0 0 -30 c0 -45 -36 -145 -74 -204 -60 -93 -158 -165 -270 -197 -60 -17 -49 -18 529 -17 493 0 582 2 538 12 -88 22 -164 66 -234 135 -123 124 -142 201 -142 571 0 292 9 362 59 464 73 149 264 255 459 256 182 0 374 -102 448 -239 51 -92 60 -166 60 -476 1 -383 -17 -460 -133 -576 -65 -65 -132 -103 -234 -129 l-71 -19 433 0 432 -1 0 720 0 720 290 0 c318 0 359 -5 465 -55 120 -57 200 -159 242 -305 16 -57 18 -105 18 -370 l0 -305 -27 -78 c-33 -91 -64 -144 -118 -196 -47 -46 -138 -96 -211 -115 -50 -14 -20 -15 364 -15 l417 -1 0 720 0 720 460 0 460 0 0 -100 0 -100 -350 0 -350 0 0 -210 0 -210 300 0 300 0 0 -105 0 -105 -300 0 -300 0 0 -205 0 -205 350 0 349 0 4 -102 c1 -57 4 553 5 1355 l2 1457 -567 -1 c-313 0 -557 -4 -543 -8 76 -24 150 -92 195 -181 23 -45 255 -624 255 -636 0 -2 -40 -4 -89 -4 l-89 0 -32 103 c-18 56 -42 142 -55 190 l-22 89 -12 -60 c-6 -32 -31 -117 -55 -188 l-43 -129 -103 -3 c-95 -3 -102 -1 -96 15 4 10 55 134 113 277 l107 259 -25 46 c-28 53 -79 91 -123 91 -26 0 -36 8 -63 50 -18 27 -33 54 -33 60 0 5 15 14 33 19 20 6 -1752 10 -4745 10 l-4778 1 0 -735z m7884 444 c27 -21 58 -73 81 -138 7 -20 29 -80 49 -134 35 -95 35 -98 14 -95 -17 2 -27 21 -53 97 -17 52 -34 91 -36 85 -3 -5 -19 -48 -35 -96 -25 -76 -32 -88 -51 -88 -13 0 -23 3 -23 8 0 4 20 60 45 125 44 116 45 120 29 152 -21 45 -49 69 -73 62 -23 -6 -38 22 -19 35 21 13 44 9 72 -13z m829 5 c56 -19 113 -79 123 -128 17 -94 -25 -151 -155 -206 -94 -39 -118 -63 -87 -86 26 -18 73 -18 148 2 33 8 62 14 63 12 2 -2 6 -28 10 -59 l7 -57 -38 -13 c-23 -8 -80 -14 -139 -14 -88 0 -105 3 -145 25 -62 35 -90 80 -90 144 0 88 41 133 162 177 64 24 92 48 82 73 -12 32 -112 34 -201 3 -42 -14 -42 -14 -47 12 -3 14 -7 42 -8 61 -3 34 -1 36 47 52 65 22 205 24 268 2z m397 -194 l0 -200 26 -10 c58 -22 124 -5 143 37 7 14 11 92 11 198 l0 175 91 0 90 0 -3 -229 c-3 -252 -4 -255 -71 -305 -61 -46 -193 -28 -252 34 -16 17 -32 30 -37 30 -4 0 -5 -20 -2 -44 l7 -45 -59 5 c-33 3 -74 7 -91 10 l-33 5 0 269 0 270 90 0 90 0 0 -200z m1250 70 c0 -71 3 -130 8 -130 4 0 40 59 81 130 l73 130 115 0 c89 0 113 -3 107 -12 -4 -7 -52 -77 -106 -155 -54 -78 -98 -146 -98 -152 0 -5 45 -57 100 -115 55 -58 100 -108 100 -111 0 -3 -49 -5 -109 -5 l-108 0 -79 108 -79 107 -5 -297 -5 -297 -92 145 -93 146 0 319 0 319 95 0 95 0 0 -130z m-2635 -4 c54 -23 83 -98 65 -167 -20 -74 -75 -105 -136 -76 l-34 17 0 -85 c0 -78 -2 -85 -20 -85 -19 0 -20 7 -20 194 l0 194 28 10 c39 15 78 14 117 -2z m-1802 -490 c77 -32 112 -114 82 -191 -21 -56 -63 -87 -124 -92 -86 -8 -150 47 -158 134 -6 65 20 111 77 141 51 25 78 27 123 8z m-1128 -16 c18 -11 40 -36 49 -54 18 -38 21 -103 6 -126 -7 -12 12 -37 86 -110 l95 -96 -26 -24 -26 -24 -92 92 c-92 92 -93 92 -126 81 -91 -32 -191 39 -191 136 0 111 130 183 225 125z m885 -305 l24 -26 -92 -92 -93 -93 27 -48 c35 -63 43 -154 20 -224 -23 -69 -91 -143 -158 -172 -240 -105 -489 150 -375 383 34 69 102 130 169 153 68 22 172 15 224 -15 l37 -22 91 90 c50 50 93 91 97 91 3 0 16 -11 29 -25z m542 -256 c181 -38 335 -191 378 -377 7 -29 11 -55 9 -56 -2 -2 -53 -1 -112 3 l-108 6 -24 59 c-40 99 -120 164 -222 181 l-43 7 0 94 0 94 35 0 c18 0 58 -5 87 -11z" />
    <path
       id="path1173"
       d="M7627 2463 c-12 -12 -8 -158 5 -171 20 -20 75 -14 98 10 30 32 28 117 -3 146 -23 21 -85 31 -100 15z" />
    <path
       id="path1175"
       d="M5255 1500 c-109 -24 -186 -128 -172 -232 8 -58 51 -124 102 -154 84 -49 175 -41 245 22 51 46 70 90 70 162 0 51 -5 67 -32 108 -49 73 -136 111 -213 94z" />
    <path
       id="path1177"
       d="M8620 726 l0 -526 153 0 c173 0 226 11 304 63 69 46 100 112 113 242 19 201 8 467 -25 566 -21 61 -71 113 -145 148 -51 24 -67 26 -227 29 l-173 4 0 -526z" />
    <path
       id="path1179"
       d="M210 715 l0 -527 178 4 c165 3 181 5 232 29 77 36 123 83 150 154 20 52 24 83 28 235 8 335 -20 493 -99 552 -91 68 -109 73 -306 76 l-183 4 0 -527z" />
    <path
       id="path1181"
       d="M7335 1217 c-65 -31 -120 -93 -141 -159 -21 -68 -32 -474 -15 -596 16 -125 60 -191 161 -243 69 -35 176 -33 252 4 74 36 123 91 145 164 15 50 18 98 18 333 0 235 -3 283 -18 332 -36 117 -125 179 -267 185 -74 4 -92 1 -135 -20z" />
    <path
       id="path1183"
       d="M4290 435 l0 -235 198 0 c226 0 252 7 313 79 63 73 76 169 35 256 -28 60 -56 87 -116 114 -40 18 -65 21 -237 21 l-193 0 0 -235z" />
  </g>
  <g
     stroke="none"
     fill="#b5e7f8"
     id="layer106">
    <path
       id="path1186"
       d="M0 2175 l0 -735 293 -1 c160 0 301 -2 312 -4 110 -18 235 -83 291 -151 19 -23 34 -46 34 -53 0 -6 4 -11 9 -11 8 0 18 -20 26 -50 1 -3 7 -17 13 -33 12 -27 15 -43 30 -122 9 -50 9 -548 0 -595 -17 -90 -22 -109 -50 -168 -51 -108 -187 -219 -292 -236 -16 -3 -31 -8 -34 -11 -3 -3 175 -5 396 -5 l402 0 0 720 0 720 470 0 470 0 0 -100 0 -100 -350 0 -350 0 0 -215 0 -215 295 0 295 0 0 -95 0 -95 -300 0 -300 0 0 -210 0 -210 350 0 350 0 0 -100 0 -100 195 0 195 0 0 720 0 720 463 -2 462 -3 0 -95 0 -95 -347 -3 -348 -2 0 -215 0 -216 300 3 300 3 0 -100 0 -100 -300 3 -300 3 0 -211 0 -210 348 -2 347 -3 3 -97 3 -98 199 0 200 0 2 717 3 718 108 3 107 3 0 -280 0 -279 198 -5 c108 -2 206 -7 217 -10 11 -3 34 -8 50 -12 36 -8 139 -56 143 -67 2 -4 8 -8 14 -8 13 0 88 -75 88 -88 0 -6 3 -12 7 -14 8 -3 47 -75 49 -90 1 -4 2 -9 4 -10 8 -11 13 -55 16 -129 3 -88 -7 -139 -44 -221 -21 -49 -108 -148 -128 -148 -8 0 -14 -4 -14 -9 0 -11 -86 -48 -131 -56 -18 -3 -35 -8 -38 -11 -2 -2 283 -4 635 -3 568 0 633 2 587 14 -123 33 -246 121 -300 213 -51 86 -65 154 -71 334 l-5 168 110 0 110 0 6 -147 c3 -87 12 -169 21 -198 19 -62 63 -117 124 -153 41 -24 57 -27 132 -27 69 0 94 4 132 23 84 41 134 105 164 210 2 9 34 12 114 12 l110 0 0 -33 c0 -42 -32 -136 -65 -192 -53 -91 -187 -189 -292 -214 -24 -6 175 -9 537 -10 l575 0 -65 22 c-177 60 -287 178 -327 347 -15 63 -18 121 -18 355 1 306 8 363 61 467 55 108 196 209 332 237 75 16 198 14 266 -4 138 -36 272 -136 320 -239 45 -96 51 -150 51 -471 0 -320 -6 -369 -56 -466 -58 -114 -191 -209 -334 -239 -24 -4 136 -8 388 -9 l427 -1 0 720 0 720 303 0 c332 0 354 -3 471 -62 119 -60 200 -175 231 -330 21 -106 21 -562 0 -661 -39 -186 -150 -313 -319 -367 l-61 -19 408 0 407 -1 0 720 0 720 460 0 460 0 0 -100 0 -100 -345 0 -345 0 0 -210 0 -210 298 -2 297 -3 0 -100 0 -100 -297 -3 -298 -2 0 -205 0 -205 345 0 344 0 4 -102 c1 -57 4 553 5 1355 l2 1457 -552 0 -553 -1 46 -24 c100 -52 138 -118 289 -505 62 -157 114 -289 117 -293 2 -4 -39 -6 -93 -5 l-98 3 -29 90 c-15 50 -39 130 -51 178 l-23 89 -7 -43 c-4 -24 -27 -105 -52 -181 l-45 -138 -109 0 -109 0 69 168 c38 92 89 216 114 276 l45 109 -19 37 c-26 51 -73 89 -120 96 -33 5 -44 14 -75 61 -20 30 -35 56 -33 58 2 2 15 8 28 14 17 6 -1607 10 -4742 10 l-4768 1 0 -735z m8735 445 c27 -13 59 -40 76 -63 24 -33 29 -50 29 -99 0 -54 -3 -62 -37 -99 -26 -26 -64 -50 -117 -72 -84 -35 -109 -58 -89 -78 16 -16 97 -13 158 5 27 9 51 14 52 12 7 -6 22 -119 18 -126 -10 -16 -112 -34 -187 -34 -66 0 -86 5 -135 30 -92 47 -127 135 -87 220 21 43 56 68 152 109 58 24 78 37 80 53 7 45 -79 51 -191 15 -27 -8 -50 -13 -52 -12 -1 2 -6 32 -10 65 l-7 62 44 15 c62 23 83 26 175 22 60 -2 95 -9 128 -25z m-847 4 c12 -8 32 -34 44 -57 26 -51 118 -297 118 -315 0 -8 -9 -12 -22 -10 -19 2 -28 19 -54 96 l-32 93 -32 -96 c-32 -90 -35 -95 -62 -95 -15 0 -28 2 -28 5 0 2 20 59 45 126 49 130 51 158 14 198 -12 12 -32 21 -49 21 -25 0 -30 4 -30 25 0 22 4 25 33 25 18 0 43 -7 55 -16z m1230 -191 l2 -202 36 -10 c50 -14 92 -3 112 27 14 22 18 58 20 209 l4 183 94 0 95 0 -3 -222 c-3 -195 -5 -228 -22 -261 -55 -110 -216 -125 -318 -29 l-28 26 0 -44 0 -43 -67 6 c-38 4 -80 7 -95 7 l-28 0 0 273 c0 151 3 277 7 281 4 4 48 5 98 4 l90 -3 3 -202z m1242 77 c0 -71 3 -130 8 -130 4 0 41 59 82 130 l74 130 118 0 c65 0 118 -3 118 -6 0 -3 -46 -72 -103 -152 -56 -81 -107 -153 -111 -161 -6 -9 11 -33 55 -80 35 -36 84 -87 109 -113 l44 -48 -119 1 -120 0 -77 107 -78 106 0 -304 0 -303 -95 148 -95 149 0 328 0 328 95 0 95 0 0 -130z m-2612 -25 c41 -34 55 -75 50 -137 -4 -42 -11 -57 -37 -80 -32 -29 -81 -37 -111 -18 -13 8 -16 -3 -20 -73 -5 -76 -7 -82 -27 -85 l-23 -3 0 200 c0 228 -3 220 87 221 40 0 58 -5 81 -25z m-2971 -484 c66 -30 99 -100 80 -170 -9 -33 -7 -36 82 -125 50 -50 91 -96 91 -101 0 -5 -10 -19 -22 -32 l-22 -24 -97 97 c-86 86 -99 95 -117 85 -52 -28 -129 -6 -176 49 -21 26 -26 42 -26 86 0 48 4 58 36 94 53 59 104 71 171 41z m1167 -4 c70 -40 95 -124 58 -197 -47 -95 -174 -108 -251 -26 -37 39 -41 128 -9 176 46 68 131 88 202 47z m-262 -304 c10 -9 18 -21 18 -27 0 -6 -40 -51 -88 -99 l-88 -88 28 -56 c72 -143 6 -331 -139 -395 -213 -94 -452 95 -405 319 39 186 236 288 405 210 l55 -25 88 89 c49 49 93 89 98 89 5 0 18 -7 28 -17z m569 -269 c177 -53 311 -194 350 -371 7 -29 10 -56 6 -59 -3 -3 -55 -3 -116 1 -84 6 -111 11 -111 21 0 30 -46 111 -85 150 -42 41 -97 67 -167 79 l-38 6 0 94 0 95 53 0 c29 0 78 -7 108 -16z" />
    <path
       id="path1188"
       d="M210 718 l0 -523 187 5 c181 5 190 6 238 32 91 50 121 90 153 208 6 23 5 469 -2 520 -17 136 -56 194 -165 247 -54 27 -63 28 -233 31 l-178 4 0 -524z" />
    <path
       id="path1190"
       d="M4290 435 l0 -236 198 1 c225 2 241 5 308 77 80 85 76 239 -7 323 -59 59 -86 65 -301 68 l-198 3 0 -236z" />
  </g>
  <g
     stroke="none"
     fill="#ffffff"
     id="layer107">
    <path
       id="path1193"
       d="M0 2175 l0 -735 308 0 c291 -1 310 -2 373 -23 194 -66 288 -180 326 -397 21 -117 13 -589 -10 -669 -50 -171 -146 -273 -307 -328 l-65 -22 403 -1 402 0 0 720 0 720 470 0 470 0 0 -100 0 -100 -350 0 -350 0 0 -210 0 -210 295 0 295 0 0 -105 0 -105 -300 0 -300 0 0 -205 0 -205 350 0 350 0 0 -100 0 -100 195 0 195 0 0 720 0 720 465 0 465 0 0 -100 0 -100 -350 0 -350 0 0 -210 0 -210 300 0 300 0 0 -105 0 -105 -300 0 -300 0 0 -205 0 -205 350 0 350 0 0 -100 0 -100 200 0 200 0 0 720 0 720 110 0 110 0 0 -279 0 -279 208 -5 c227 -6 270 -14 371 -67 77 -41 134 -103 173 -187 25 -53 32 -82 36 -157 11 -224 -106 -396 -309 -450 -49 -13 9 -15 586 -15 568 0 634 2 588 14 -123 33 -246 121 -300 213 -51 86 -65 154 -71 334 l-5 168 110 0 110 0 6 -147 c3 -87 12 -169 21 -198 19 -62 63 -117 124 -153 41 -24 57 -27 132 -27 69 0 94 4 132 23 84 41 134 105 164 210 2 9 34 12 114 12 l110 0 0 -33 c0 -42 -32 -136 -65 -192 -53 -91 -187 -189 -292 -214 -24 -6 175 -9 537 -10 l575 0 -65 22 c-177 60 -287 178 -327 347 -15 63 -18 121 -18 355 1 306 8 363 61 467 55 108 196 209 332 237 75 16 198 14 266 -4 138 -36 272 -136 320 -239 45 -96 51 -150 51 -471 0 -320 -6 -369 -56 -466 -58 -114 -191 -209 -334 -239 -24 -4 136 -8 388 -9 l427 -1 0 720 0 720 303 0 c332 0 354 -3 471 -62 119 -60 200 -175 231 -330 21 -106 21 -562 0 -661 -39 -186 -150 -313 -319 -367 l-61 -19 408 0 407 -1 0 720 0 720 460 0 460 0 0 -100 0 -100 -345 0 -345 0 0 -210 0 -210 298 -2 297 -3 0 -100 0 -100 -297 -3 -298 -2 0 -205 0 -205 345 0 344 0 4 -102 c1 -57 4 553 5 1355 l2 1457 -552 0 -553 -1 46 -24 c100 -52 138 -118 289 -505 62 -157 114 -289 117 -293 2 -4 -39 -6 -93 -5 l-98 3 -29 90 c-15 50 -39 130 -51 178 l-23 89 -7 -43 c-4 -24 -27 -105 -52 -181 l-45 -138 -109 0 -109 0 69 168 c38 92 89 216 114 276 l45 109 -19 37 c-26 51 -73 89 -120 96 -33 5 -44 14 -75 61 -20 30 -35 56 -33 58 2 2 15 8 28 14 17 6 -1607 10 -4742 10 l-4768 1 0 -735z m8735 445 c27 -13 59 -40 76 -63 24 -33 29 -50 29 -99 0 -54 -3 -62 -37 -99 -26 -26 -64 -50 -117 -72 -84 -35 -109 -58 -89 -78 16 -16 97 -13 158 5 27 9 51 14 52 12 7 -6 22 -119 18 -126 -10 -16 -112 -34 -187 -34 -66 0 -86 5 -135 30 -92 47 -127 135 -87 220 21 43 56 68 152 109 58 24 78 37 80 53 7 45 -79 51 -191 15 -27 -8 -50 -13 -52 -12 -1 2 -6 32 -10 65 l-7 62 44 15 c62 23 83 26 175 22 60 -2 95 -9 128 -25z m-847 4 c12 -8 32 -34 44 -57 26 -51 118 -297 118 -315 0 -8 -9 -12 -22 -10 -19 2 -28 19 -54 96 l-32 93 -32 -96 c-32 -90 -35 -95 -62 -95 -15 0 -28 2 -28 5 0 2 20 59 45 126 49 130 51 158 14 198 -12 12 -32 21 -49 21 -25 0 -30 4 -30 25 0 22 4 25 33 25 18 0 43 -7 55 -16z m1230 -191 l2 -202 36 -10 c50 -14 92 -3 112 27 14 22 18 58 20 209 l4 183 94 0 95 0 -3 -222 c-3 -195 -5 -228 -22 -261 -55 -110 -216 -125 -318 -29 l-28 26 0 -44 0 -43 -67 6 c-38 4 -80 7 -95 7 l-28 0 0 273 c0 151 3 277 7 281 4 4 48 5 98 4 l90 -3 3 -202z m1242 77 c0 -71 3 -130 8 -130 4 0 41 59 82 130 l74 130 118 0 c65 0 118 -3 118 -6 0 -3 -46 -72 -103 -152 -56 -81 -107 -153 -111 -161 -6 -9 11 -33 55 -80 35 -36 84 -87 109 -113 l44 -48 -119 1 -120 0 -77 107 -78 106 0 -304 0 -303 -95 148 -95 149 0 328 0 328 95 0 95 0 0 -130z m-2612 -25 c41 -34 55 -75 50 -137 -4 -42 -11 -57 -37 -80 -32 -29 -81 -37 -111 -18 -13 8 -16 -3 -20 -73 -5 -76 -7 -82 -27 -85 l-23 -3 0 200 c0 228 -3 220 87 221 40 0 58 -5 81 -25z m-2971 -484 c66 -30 99 -100 80 -170 -9 -33 -7 -36 82 -125 50 -50 91 -96 91 -101 0 -5 -10 -19 -22 -32 l-22 -24 -97 97 c-86 86 -99 95 -117 85 -52 -28 -129 -6 -176 49 -21 26 -26 42 -26 86 0 48 4 58 36 94 53 59 104 71 171 41z m1167 -4 c70 -40 95 -124 58 -197 -47 -95 -174 -108 -251 -26 -37 39 -41 128 -9 176 46 68 131 88 202 47z m-262 -304 c10 -9 18 -21 18 -27 0 -6 -40 -51 -88 -99 l-88 -88 28 -56 c72 -143 6 -331 -139 -395 -213 -94 -452 95 -405 319 39 186 236 288 405 210 l55 -25 88 89 c49 49 93 89 98 89 5 0 18 -7 28 -17z m569 -269 c177 -53 311 -194 350 -371 7 -29 10 -56 6 -59 -3 -3 -55 -3 -116 1 -84 6 -111 11 -111 21 0 30 -46 111 -85 150 -42 41 -97 67 -167 79 l-38 6 0 94 0 95 53 0 c29 0 78 -7 108 -16z" />
    <path
       id="path1195"
       d="M7637 2463 c-4 -3 -7 -43 -7 -89 l0 -82 30 -7 c61 -13 100 42 86 120 -4 19 -17 41 -29 50 -22 15 -68 20 -80 8z" />
    <path
       id="path1197"
       d="M5220 1489 c-66 -27 -118 -90 -134 -165 -16 -72 43 -182 118 -221 52 -27 133 -23 189 10 127 75 144 231 35 334 -18 17 -46 37 -61 42 -35 13 -113 13 -147 0z" />
    <path
       id="path1199"
       d="M220 721 l0 -521 173 0 c169 0 173 1 233 29 78 37 126 93 150 174 15 53 17 97 16 297 -3 322 -17 389 -98 460 -74 65 -110 74 -301 78 l-173 4 0 -521z" />
    <path
       id="path1201"
       d="M7357 1226 c-85 -31 -138 -91 -164 -187 -25 -94 -26 -568 -1 -649 50 -160 234 -240 390 -168 67 31 130 92 147 145 21 64 33 337 23 512 -8 136 -13 167 -35 214 -53 115 -228 180 -360 133z" />
    <path
       id="path1203"
       d="M8620 720 l0 -522 168 4 c195 6 236 17 311 84 79 71 84 95 89 393 6 388 -15 458 -158 533 -42 21 -59 23 -227 26 l-183 3 0 -521z" />
    <path
       id="path1205"
       d="M4290 434 l0 -235 203 3 c201 3 202 3 250 31 72 43 101 94 105 187 5 92 -14 138 -78 192 -59 51 -95 58 -299 58 l-181 0 0 -236z" />
  </g>
</svg>
