<svg version="1.1" id="Layer_1" xmlns="http://www.w3.org/2000/svg" x="0" y="0" width="270" height="100" xml:space="preserve"><style>.st0{fill:#fff}.st1{fill:#00adff}</style><path class="st0" d="M0 71h270v28.96H0z"/><path class="st1" d="M0 0h270v71.15H0z"/><path class="st0" d="M116.45 51.5c-.63 2.16-1.83 3.95-3.56 5.31-.55.42-1.18.78-1.94 1.12-.3.13-.6.22-.9.29-.14.41-.38.79-.71 1.13-.87.84-1.83 1.5-2.96 2.03-2.02.93-4.17 1.21-6.6.86-2.38-.35-4.72-1.2-7.36-2.67-3.68-2.06-7.11-4.77-10.49-8.28-.6-.62-1.16-1.27-1.68-1.88a5.718 5.718 0 01-3.16-.98c-2.55 1.28-4.94 2.93-7.14 4.91-5.13 4.64-8.77 10.32-10.83 16.88-.08.26-.16.52-.22.78-.92 3.19-1.39 6.52-1.43 9.88-.02 2.15.18 6.54 1.76 11.79.67 2.18 1.51 4.28 2.49 6.26l.11.23c.12.25.17.52.14.8H10v-5.63c2.76-8.24 6.83-16.07 12.16-23.33.06-.09.12-.18.19-.27.33-.44.66-.88 1-1.31-.64-.08-1.23-.33-1.73-.75-.8-.67-1.21-1.67-1.14-2.73.08-1.42 1.03-2.56 2.48-2.96l.76-.2c-.1-.25-.16-.51-.2-.78-.22-1.87 1.04-3.45 2.93-3.69.12-.01.23-.03.34-.04-.02-.29-.01-.59.05-.9.1-.6.37-1.15.77-1.59-.51-.51-.86-1.19-.95-1.97-.2-1.55.82-3.06 2.37-3.5.42-.12.78-.14 1.1-.15l1.21-.01c-.16-.46-.22-.97-.16-1.49.2-1.7 1.68-2.97 3.37-2.86.28.01.56.04.83.06-.06-.44-.04-.9.09-1.36a3.211 3.211 0 012.61-2.39c.13-.44.35-.85.65-1.2.64-.76 1.59-1.17 2.64-1.13.92.04 1.85.12 2.75.19l.07.01c.02-.19.05-.38.1-.57.38-1.49 1.74-2.5 3.27-2.41.67.04 1.34.1 1.98.16.39.04.76.08 1.13.11l1.08.11c.11-.4.28-.77.53-1.1.6-.82 1.54-1.3 2.59-1.33h.01c.53 0 1.01.06 1.42.1l.64.07c2.05.2 4.1.41 6.15.61.75.07 1.49.15 2.23.23 1.18.13 2.36.26 3.54.37.67.07 1.32.13 1.97.18a8.43 8.43 0 01-.65-2.26c-.25-1.88.12-3.72 1.13-5.63.28-.53.61-1.02.94-1.46.62-.81 1.55-1.2 2.5-1.08.95.13 1.75.76 2.13 1.7.55 1.37 1.46 2.64 2.79 3.87.6.57 1.2 1.15 1.79 1.72 2.45-5.48 4.89-10.96 7.32-16.44 1.26-2.81 2.51-5.62 3.76-8.44.56-1.26 1.14-2.25 1.82-3.14.26-.34.56-.65.91-.93.75-.54 1.55-.63 2.22-.3s1.09 1 1.12 1.81c.05.62.02 1.28-.07 1.92-.22 1.61-.67 3.1-1.19 4.74-.58 1.8-1.18 3.69-1.89 5.98-.35 1.11-.7 2.22-1.04 3.33l-3.43 10.94c.96.4 1.81 1.03 2.54 1.88.85.99 1.35 2.03 1.49 3.12 4.44.27 8.3.89 11.83 1.91 2.28.67 4.1 1.42 5.73 2.38 1.39.81 2.41 1.77 3.12 2.95h.01c1.15 1.89 1.41 4.11.74 6.42z"/><path class="st0" d="M112.99 48.73c-.03-.17-.06-.33-.11-.49-.22-.84-.73-1.56-1.44-2.14-.11-.1-.24-.19-.36-.27-.08-.06-.16-.12-.25-.17-.57-.35-1.16-.66-1.77-.94-.4-.18-.8-.35-1.21-.51h-.01c-.63-.23-1.26-.45-1.9-.64-.36-.1-.73-.21-1.08-.31-2.54-.68-5.14-1.11-7.78-1.33-1.7-.13-3.42-.22-5.14-.29-.97-.04-1.93 0-2.89.03-.13 0-.26.11-.37.19-.42.27-.8.6-1.25.83-1.24.64-2.45.61-3.56-.02-.19-.12-.38-.25-.57-.39-.11-.08-.21-.16-.3-.25-.14-.11-.26-.23-.38-.36-.63-.64-1.07-1.4-1.26-2.33a.747.747 0 00-.13-.35c-.61-.77-1.23-1.53-1.91-2.25a29.3 29.3 0 00-2.11-2.06c-.18-.16-.36-.32-.52-.49-.08-.08-.17-.17-.23-.24-.25-.27-.49-.54-.72-.8-.16-.18-.32-.36-.49-.53-.1-.12-.2-.25-.4-.33.02.1.05.19.08.29.01.04.02.09.03.14 0 .02.01.04.02.07.01.02.02.05.02.06.09.22.17.42.26.62s.19.39.3.58c.32.56.7 1.09 1.12 1.58.14.16.28.33.43.48.3.32.62.61.95.91.27.23.54.42.8.64.36.29.45.68.21.97-.02.05-.06.08-.1.1-.03.03-.06.06-.1.08h-.01c-.15.06-.32.08-.49.01h-.01c-.05-.01-.08-.04-.12-.06-.05-.03-.09-.05-.12-.08-.54-.41-1.04-.83-1.51-1.28l-.46-.46c-.99-1.06-1.79-2.25-2.33-3.66 0-.02-.01-.04-.03-.07a.565.565 0 00-.09-.17c-.01-.03-.04-.09-.06-.13-.12.63-.08 1.14.07 1.64.5 1.59 1.36 2.86 2.73 3.74.1.06.19.12.3.18.1.06.21.12.31.17.07.04.15.07.21.12.07.05.12.09.17.14.2.17.3.39.29.68-.01.46-.29.76-.71.92-.18.08-.37.14-.55.19-.46.13-.92.25-1.38.37-.46.12-.92.23-1.38.35-.85.22-1.71.44-2.58.62-.29.08-.58.15-.86.2-4.18.9-8.22 2.25-12.11 4.03-5.19 2.36-9.89 5.47-14.24 9.15-2.65 2.23-5.25 4.51-7.71 6.95-.23.22-.46.45-.68.68-.23.22-.44.44-.67.67-1.76 1.81-3.47 3.69-5.08 5.61-.25.3-.5.59-.74.89l-.64.79c-.01.01-.02.03-.03.04-.41.51-.81 1.03-1.21 1.54-.16.21-.31.42-.47.63-.08.1-.16.21-.24.31-.04.04-.07.09-.1.14l-.12.18h-.01c-.07.1-.15.21-.23.3 1.05 3.59 2.89 5.77 3.95 6.84 6.24 6.27 15.45 4.34 16.11 4.19 2.93-.66 5.12-1.96 6.44-2.9h.01v-.14c-.01-.37-.02-.74-.02-1.1.03-3.44.46-6.78 1.3-10.03a41.75 41.75 0 013.1-8.31c.2-.39.39-.78.59-1.16.43-.77.85-1.52 1.3-2.26.34-.56.7-1.1 1.07-1.63.36-.55.75-1.07 1.14-1.59.52-.69 1.07-1.37 1.63-2.03.68-.78 1.38-1.55 2.1-2.28.72-.74 1.46-1.43 2.24-2.12a45.367 45.367 0 013.66-2.84c.43-.29.86-.57 1.3-.85.59-.37 1.11-.9 1.66-1.36.48-.4.96-.8 1.45-1.19.17-.13.34-.25.53-.36.58-.34 1.02-.31 1.37.13.04.04.07.08.1.13.01.02.03.05.05.08 0 .02.02.05.03.07.03.05.05.09.07.12.02.04.04.08.07.12.04.08.09.15.13.23.1.16.2.31.3.45.17.25.36.47.59.69v.01c.18.17.37.33.56.45.06.04.12.07.19.11.09.05.18.09.26.13.61.26 1.27.29 1.96.11.13-.02.28-.08.41-.12.43-.18.84-.47 1.25-.71.37-.21.79-.2 1.11.04H84c.04.04.1.09.14.15.04.06.09.11.12.18.1.23.13.51.02.74-.1.22-.28.42-.47.56-.13.12-.29.22-.45.33-.17.11-.33.21-.52.34.48.53.92 1.05 1.39 1.54.72.75 1.45 1.48 2.22 2.18.75.71 1.53 1.39 2.33 2.04 1.21.96 2.46 1.86 3.79 2.69a22.552 22.552 0 001.67.98c.11.06.22.12.34.18 1.55.83 3.17 1.48 4.91 1.83 1.65.34 3.27.34 4.87-.28.84-.33 1.6-.81 2.25-1.44.04-.03.07-.08.11-.16.02 0 .02-.02.03-.03.01-.02.02-.03.03-.05h.01v-.01l-.31.03c-.31.03-.58.05-.84.07-2.31.19-4.49-.28-6.56-1.29-.88-.44-1.7-.95-2.45-1.54-.5-.39-.98-.82-1.43-1.27a18.6 18.6 0 01-1.89-2.17c-.2-.27-.33-.57-.23-.91.04-.19.13-.34.26-.46a.74.74 0 01.21-.15c.08-.05.16-.08.26-.1.4-.09.7.08.95.36.22.27.44.55.66.82.22.26.45.52.69.79 1.53 1.65 3.3 2.89 5.42 3.55.14.05.3.09.46.14.15.04.31.08.47.11.28.06.57.11.86.16a9.299 9.299 0 003.98-.25c.42-.11.8-.14 1.18.11.34.21.71.15 1.05 0 .33-.15.68-.34.95-.57.51-.4.95-.85 1.31-1.36.28-.37.52-.79.7-1.21.08-.17.14-.34.21-.52.06-.17.12-.36.16-.54.06-.22.1-.44.13-.65.06-.44.06-.85 0-1.25zm-5.7-1.17c-.11.06-.21.09-.32.09-.05 0-.1-.01-.16-.03-.01 0-.03-.01-.05-.02-.03 0-.04-.02-.07-.03l-.1-.07c-.22-.17-.42-.38-.66-.54-.29-.18-.59-.35-.9-.47-.34-.12-.67-.15-.99-.11-.19.02-.36.07-.53.15l-.18.09a.99.99 0 00-.17.11c-.04.03-.08.05-.11.08-.07.06-.14.12-.21.19v.01c-.12.14-.24.29-.33.47-.06.11-.1.22-.13.34-.01.01-.01.01-.01.02-.01.03-.01.05-.01.08-.02.11-.03.22-.01.33-.01.07 0 .13.03.2-.01.02 0 .05.01.07.01.07.04.14.08.21.01.06.04.11.09.16.03.05.06.1.1.14a.4.4 0 00.11.12c.05.05.11.1.17.14l.01.01c.13.08.27.14.43.18.1.02.19.03.28.03.07 0 .14-.01.2-.02.08-.01.15-.04.21-.09a.21.21 0 00.11-.08c.19-.17.29-.47.25-.87-.14.02-.25.04-.35.04-.06 0-.12-.01-.17-.03-.03 0-.06-.01-.09-.03-.01.01-.01.01-.01 0-.05-.02-.1-.04-.14-.08-.04-.03-.07-.05-.08-.09 0 0-.02-.01-.01-.01-.02-.02-.04-.06-.07-.09a.442.442 0 01-.06-.16.689.689 0 01.01-.32c.03-.1.1-.2.19-.28.04-.04.1-.08.16-.11.67-.35 1.45-.08 1.77.6.32.66.19 1.44-.22 2.01-.06.08-.12.16-.18.22-.08.1-.17.18-.27.26-.03.02-.05.04-.08.06-.05.03-.1.07-.15.09-.06.04-.13.07-.19.1-.16.07-.34.12-.53.14-.11.01-.21.01-.31.01-.11 0-.21-.01-.32-.02-.1-.01-.2-.02-.29-.05-.1-.02-.19-.04-.28-.08-.1-.04-.19-.08-.27-.12-.17-.09-.34-.2-.49-.34s-.3-.29-.43-.47c-.19-.26-.33-.54-.41-.81l-.03-.1c-.01-.03-.02-.06-.02-.1v-.01a.508.508 0 01-.03-.17c-.04-.2-.04-.41-.01-.61 0-.06.01-.13.03-.19 0-.02 0-.03.01-.05.01-.09.03-.18.06-.26.03-.11.08-.23.13-.35.06-.13.12-.26.19-.37.06-.08.11-.17.17-.24a.36.36 0 01.07-.1l.17-.2c.08-.09.17-.18.26-.25.04-.04.1-.09.15-.12.05-.05.11-.09.16-.12.03-.03.07-.05.11-.07.34-.22.72-.36 1.11-.43.08-.02.17-.03.26-.04.63-.07 1.29.04 1.93.35.12.06.25.13.37.21.24.16.47.33.7.5.11.09.23.18.34.27.08.06.15.16.2.26.03.04.04.08.06.13.02.04.04.1.05.14v.01c.05.24-.09.45-.31.58z"/><path d="M56.4 99.96H14.12c.78-3.77 2-8.22 3.95-13.04a75.017 75.017 0 017.55-14.12c.19.34.37.68.58 1.01 0 0 0 .01.01.02v.01h.01c3.39 5.56 9.51 9.39 16.31 9.91 4.36.33 7.88-.77 9.89-1.58.03-.01.04-.02.06-.03.01 0 .01-.01.01-.01.06-.02.1-.04.16-.06a85.825 85.825 0 003.75 17.89z" fill-rule="evenodd" clip-rule="evenodd" fill="#00adff"/><path d="M114.11 46.23c-.63-1.02-1.51-1.77-2.53-2.37-1.68-.99-3.49-1.67-5.36-2.21-3.78-1.09-7.67-1.63-11.61-1.86-.49-.02-.98-.06-1.52-.11.38-1.43-.12-2.57-1-3.59-.89-1.04-2-1.64-3.4-1.77.06-.22.11-.37.16-.53l3.55-11.34c.43-1.37.86-2.74 1.3-4.11.62-2 1.24-4 1.89-5.98.46-1.48.91-2.95 1.13-4.48.07-.53.09-1.08.05-1.61-.01-.39-.27-.49-.59-.26-.24.19-.44.4-.63.65-.66.86-1.17 1.8-1.62 2.79-1.24 2.81-2.5 5.63-3.75 8.44-2.53 5.7-5.07 11.41-7.61 17.11-.07.14-.18.29-.17.44.01.52-.36.76-.63 1.13-.3-.34-.56-.67-.85-.95-.85-.83-1.7-1.66-2.56-2.46-1.37-1.28-2.49-2.71-3.2-4.47-.32-.78-1.2-.91-1.72-.23-.29.38-.56.8-.79 1.22-.75 1.43-1.17 2.95-.94 4.6.17 1.26.71 2.36 1.41 3.39.12.2.27.38.41.57-.41.21-1.29.38-1.72.34-1.08-.1-2.17-.18-3.26-.29-1.92-.19-3.84-.41-5.77-.61l-6.47-.63c-.51-.06-1.03-.13-1.55-.13-1.09-.01-1.83 1.05-1.49 2.09.05.15.11.29.18.47-.12.01-.21.03-.3.02-.92-.09-1.84-.18-2.78-.27-1.01-.09-2.02-.21-3.05-.27-.74-.04-1.37.46-1.54 1.16-.19.71.1 1.43.73 1.81.12.06.25.12.45.23-.88-.07-1.69-.13-2.48-.17-1.1-.09-2.21-.2-3.32-.25-1.1-.04-1.85.87-1.62 1.95.02.14.06.28.11.47-.36-.04-.68-.08-.99-.13-.81-.07-1.51.41-1.71 1.18-.26.98.34 1.84 1.41 2.01 2.75.44 5.51.88 8.27 1.32.2.03.39.08.62.13-.42.43-.52.5-.78.46-.65-.09-1.3-.19-1.97-.27-2.65-.3-5.3-.59-7.95-.88-.75-.08-1.49-.18-2.25-.22-.82-.04-1.49.58-1.59 1.37-.1.84.41 1.58 1.23 1.76.18.03.36.06.53.08.52.06 1.04.1 1.56.16 2.22.24 4.45.49 6.67.75.07 0 .15.04.29.1-.32.26-.58.46-.86.71-.48-.61-1.1-.72-1.77-.66-.04.01-.07 0-.11.01-3.41.03-6.81.05-10.21.08-.24.01-.47.02-.7.09-.73.2-1.25.94-1.15 1.67.09.82.72 1.4 1.54 1.42.31.01.62 0 .92 0 2.6-.02 5.2-.06 7.79-.09.19 0 .38.01.55.02 0 .05.01.09.01.14-.11.02-.21.06-.33.06-.2.03-.42 0-.63.04-1.69.24-3.38.48-5.05.72-1.14.17-2.27.32-3.4.51-.67.12-1.14.62-1.24 1.26-.13.69.15 1.29.73 1.66.11.07.22.14.4.26-.58.08-1.06.13-1.54.2-.47.06-.95.13-1.43.18-.96.12-1.57.89-1.46 1.8.11.89.92 1.49 1.86 1.37.32-.03.64-.1.95-.13.46-.06.92-.1 1.39-.14-.68.27-1.36.47-2.04.66-1.32.36-2.64.71-3.95 1.07-.75.2-1.2.74-1.24 1.44-.08 1.11.9 1.91 2.04 1.63.94-.23 1.87-.5 2.8-.76.13-.03.27-.05.51-.09-.16.21-.26.36-.37.49-.9 1.14-1.8 2.26-2.68 3.4-.25.33-.51.67-.76 1.01-5.77 7.81-10.14 16.34-12.91 25.67-.22.75-.39 1.53-.6 2.28h4.09l.01-.01c.04-.17.08-.34.13-.51.57-2.05 1.09-4.13 1.74-6.15 1.29-4.13 2.97-8.07 5.08-11.84 1.02-1.82 2.22-3.51 3.4-5.23.48-.69.97-1.39 1.48-2.08.07-.1.16-.2.22-.3h.01v-.01c.02-.01.02-.02.03-.04.03-.04.06-.09.1-.13.03-.05.06-.1.1-.14.08-.1.16-.21.24-.31.16-.21.31-.42.47-.63.4-.51.8-1.03 1.21-1.54.01-.01.02-.03.03-.04l.64-.79c.24-.3.49-.59.74-.89 1.61-1.92 3.32-3.8 5.08-5.61.23-.23.44-.45.67-.67.22-.23.44-.46.67-.68h.01c2.46-2.44 5.06-4.72 7.71-6.95 4.35-3.68 9.05-6.79 14.24-9.15 3.89-1.78 7.93-3.13 12.11-4.03.28-.05.57-.12.86-.2.87-.19 1.72-.41 2.58-.62.46-.12.92-.23 1.38-.35.46-.12.92-.24 1.38-.37.18-.05.37-.11.55-.19.42-.16.7-.46.71-.92a.803.803 0 00-.29-.68c-.05-.05-.1-.09-.17-.14-.06-.05-.14-.09-.21-.13-.1-.05-.21-.11-.31-.16-.11-.06-.2-.12-.3-.18-1.37-.88-2.23-2.15-2.73-3.74-.15-.5-.19-1.01-.07-1.64.02.04.05.1.06.13.05.07.08.13.09.17.02.03.03.05.03.07.54 1.41 1.34 2.6 2.33 3.66l.46.46c.47.45.97.87 1.51 1.28.03.03.07.05.12.08.04.02.07.05.12.06h.01c.17.07.34.05.49-.01h.01c.04-.02.07-.05.1-.08.04-.02.08-.05.1-.1.24-.29.15-.68-.21-.97-.26-.22-.53-.41-.8-.64-.33-.3-.65-.59-.95-.91-.15-.15-.29-.32-.43-.48-.42-.49-.8-1.02-1.12-1.58-.11-.19-.21-.38-.3-.58-.08-.2-.17-.4-.25-.62-.01-.01-.02-.04-.03-.06-.01-.03-.02-.05-.02-.07-.01-.05-.02-.1-.03-.14-.03-.1-.06-.19-.08-.29.2.08.3.21.4.33.17.17.33.35.49.53.23.26.47.53.72.8.06.07.15.16.23.24.16.17.34.33.52.49a29.3 29.3 0 012.11 2.06c.68.72 1.3 1.48 1.91 2.25.08.1.11.23.13.35.19.93.63 1.69 1.26 2.33.12.13.24.25.38.36.09.09.19.18.3.26.19.15.38.27.57.38 1.11.63 2.32.66 3.56.02.45-.23.83-.56 1.25-.83.11-.08.24-.19.37-.19.96-.03 1.92-.07 2.89-.03 1.72.07 3.44.16 5.14.29 2.64.22 5.24.65 7.78 1.33l1.08.3c.64.2 1.27.41 1.9.65h.01c.41.16.81.33 1.21.51.61.28 1.2.59 1.77.94.09.05.17.11.25.17.12.08.25.17.36.27.71.58 1.22 1.3 1.44 2.14.05.16.08.32.11.49.06.4.06.81 0 1.25-.03.21-.07.43-.13.65-.04.18-.1.37-.16.54-.07.18-.13.35-.21.52-.18.42-.42.84-.7 1.21-.36.51-.8.96-1.31 1.36-.27.23-.62.42-.95.57-.34.15-.71.21-1.05 0-.38-.25-.76-.22-1.18-.11a9.299 9.299 0 01-3.98.25c-.29-.05-.58-.1-.86-.16-.16-.03-.32-.07-.47-.11-.16-.05-.32-.09-.46-.14-2.12-.66-3.89-1.9-5.42-3.55-.24-.27-.47-.53-.69-.79-.22-.27-.44-.55-.66-.82-.25-.28-.55-.45-.95-.36-.1.02-.18.05-.26.1a.74.74 0 00-.21.15c-.13.12-.22.27-.26.46-.1.34.03.64.23.91.58.77 1.2 1.5 1.89 2.17.45.45.93.88 1.43 1.27.75.59 1.57 1.1 2.45 1.54 2.07 1.01 4.25 1.48 6.56 1.29.26-.02.53-.04.84-.07.1 0 .2-.01.3-.02h.01c-.01.02-.02.03-.04.05-.01.01-.01.03-.03.03-.04.08-.07.13-.11.16-.65.63-1.41 1.11-2.25 1.44-1.6.62-3.22.62-4.87.28-1.74-.35-3.36-1-4.91-1.83-.12-.06-.23-.12-.34-.18s-.22-.13-.33-.19c-.46-.25-.9-.52-1.34-.79-1.33-.83-2.58-1.73-3.79-2.69-.8-.65-1.58-1.33-2.33-2.04-.77-.7-1.5-1.43-2.22-2.18-.47-.49-.91-1.01-1.39-1.54.19-.13.35-.23.52-.34.16-.11.32-.21.45-.33.19-.14.37-.34.47-.56.11-.23.08-.51-.02-.74-.03-.07-.08-.12-.12-.18-.04-.06-.1-.11-.14-.15h-.01c-.32-.24-.74-.25-1.11-.04-.41.24-.82.53-1.25.71-.13.04-.28.1-.41.12-.69.18-1.35.15-1.96-.11-.08-.04-.17-.08-.26-.13-.07-.04-.13-.07-.19-.11a4.704 4.704 0 01-1.15-1.15c-.1-.14-.2-.29-.3-.45-.04-.08-.09-.15-.13-.23-.03-.04-.05-.08-.07-.12a.666.666 0 01-.06-.12.161.161 0 00-.04-.07.922.922 0 01-.05-.08.642.642 0 00-.1-.13c-.35-.44-.79-.47-1.37-.13-.19.11-.36.23-.53.36-.49.39-.97.79-1.45 1.19-.55.46-1.07.99-1.66 1.36-.44.28-.87.56-1.3.85a45.367 45.367 0 00-3.66 2.84c-.78.69-1.52 1.38-2.24 2.12-.72.73-1.42 1.5-2.1 2.28-.56.66-1.11 1.34-1.63 2.03-.39.52-.78 1.04-1.14 1.59-.37.53-.73 1.07-1.07 1.63-.45.74-.87 1.49-1.3 2.26-.2.38-.39.77-.59 1.16a41.75 41.75 0 00-3.1 8.31c-.84 3.25-1.27 6.59-1.3 10.03 0 .36 0 .73.01 1.1v.14c.01.71.04 1.43.07 2.14.06 1.43.21 2.85.49 4.26.75 3.86 1.88 7.61 3.27 11.28 0 0 0 .01.01.01h3.73c-.8-1.63-1.76-3.83-2.59-6.53-1.82-6.02-1.85-10.89-1.83-12.29.03-4.24.76-7.74 1.43-10.14.1-.37.2-.71.3-1.02 2.16-6.91 5.94-12.77 11.3-17.62a34.39 34.39 0 017.99-5.41c.33-.16.57-.16.88.09.83.68 1.8 1 2.89.94.34-.02.55.1.76.36.59.7 1.19 1.4 1.82 2.05 3 3.12 6.31 5.85 10.09 7.97 2.13 1.19 4.36 2.12 6.79 2.47 1.93.29 3.82.13 5.63-.71.92-.43 1.75-.98 2.47-1.69.51-.51.48-1.12-.08-1.57-.05-.05-.11-.07-.19-.12.07-.04.08-.04.09-.04.08 0 .15.02.21.04.72.25 1.43.2 2.11-.09.56-.25 1.1-.54 1.57-.9 1.48-1.16 2.47-2.66 2.99-4.45.5-1.76.4-3.47-.57-5.07zm-62.62-.19c-.09.02-.19.03-.31.01-.46-.08-.92-.15-1.39-.23-.47-.07-.93-.14-1.4-.22-.15-.03-.29-.09-.45-.13.02-.01.03-.02.05-.03 1.29.1 2.58.19 3.95.3-.16.16-.3.26-.45.3zm40.3-29.89c.55-1.23 1.1-2.46 1.65-3.68.55-1.22 1.1-2.45 1.66-3.67.04-.1.09-.19.14-.28.09-.2.19-.39.34-.56.06-.07.13-.14.21-.2l.13.05-.06.33c-.04.26-.09.52-.15.77-.01.07-.03.13-.05.2-.1.42-.21.83-.33 1.25-.11.41-.23.82-.36 1.23-.2.64-.41 1.26-.62 1.89-.09.26-.18.52-.26.77-.07.21-.15.41-.22.61-.09.27-.19.54-.28.81-.12.35-.24.71-.37 1.09-.04.12-.09.25-.14.38v.01c-.12-.06-.24-.12-.36-.17-.35-.17-.69-.32-1.04-.49.04-.15.07-.25.11-.34zm-2.64 6.25c.18-.42.36-.85.54-1.28.17-.43.35-.86.53-1.29L91 18v-.02h.01c.01-.03.03-.06.05-.09.02-.04.04-.07.06-.12.02-.03.04-.06.06-.1.41.19.8.38 1.22.58.09.04.18.09.28.13-.34 1.01-.68 2-1.01 3-.34 1-.67 1.99-1.02 3v.01c-.02-.01-.03-.02-.04-.03-.12-.08-.21-.13-.28-.19-.35-.34-.67-.7-1.03-1.02-.2-.19-.28-.36-.22-.59.02-.05.04-.1.07-.16zm-2.96 7.19c.37-.92.75-1.82 1.12-2.73.38-.9.75-1.82 1.14-2.76.58.58 1.08 1.06 1.56 1.56.08.08.12.27.09.37-.42 1.3-.85 2.58-1.31 3.94l-1.28-.18c-.43-.06-.87-.13-1.32-.19v-.01zm-2 4.85c.25-.6.49-1.2.74-1.8.13-.3.25-.6.38-.9.12-.31.24-.61.37-.92.88.13 1.74.26 2.69.41-.35 1.07-.68 2.07-1.01 3.07l-.36-.03c-.12-.02-.24-.03-.35-.04-.07-.01-.15-.01-.23-.01-.04-.01-.08-.01-.12-.01-.1-.01-.2-.02-.29-.02-.08 0-.15.01-.22.01-.13 0-.25.02-.38.03-.26.04-.52.09-.79.14-.14.03-.28.05-.43.08v-.01zm4.14 5.98l-.16.16c-.11.12-.23.24-.35.34a3.752 3.752 0 01-.65.48c-.12.07-.25.13-.38.19-.17.08-.36.14-.55.19-.31.08-.61.1-.9.06a2.617 2.617 0 01-.86-.31c-.11-.06-.21-.13-.31-.2-.1-.06-.2-.13-.29-.22-.09-.07-.18-.15-.27-.23v-.01c-.09-.08-.17-.16-.25-.25l-.22-.28c-.07-.1-.14-.2-.18-.31a1.25 1.25 0 01-.16-.33c-.06-.11-.1-.22-.14-.34-.01-.04-.02-.07-.02-.11a.353.353 0 01-.03-.14c0-.03-.01-.05-.01-.07-.05-.28-.03-.55.02-.82.03-.17.07-.34.11-.5v-.01c.01-.07.06-.14.11-.2.03-.04.06-.07.09-.08.03-.02.06-.03.09-.04.02 0 .03-.01.05-.01l.32-.06c.13-.02.25-.04.38-.05.16-.02.32-.04.48-.04.18-.02.39-.02.58-.01.1.01.2.02.3.04.08.01.16.02.24.04.12.02.25.05.38.09-.34.18-.62.37-.84.57-.09.08-.17.16-.24.24-.19.23-.3.46-.36.71.01.01.01.01 0 .02-.04.27-.01.55.1.84.06.14.13.27.22.38l.03.06c.06.07.1.12.17.18v.01c.02.02.05.04.08.07.03.03.05.05.09.05.37.28.86.37 1.38.25.6-.15 1.01-.53 1.19-1.09.04-.11.07-.22.09-.35.01-.06.02-.12.03-.19.01-.21.01-.44-.02-.68.06.02.12.05.17.09.02 0 .03.01.04.03.01.01.02.01.03.02.03.01.06.04.09.08.02.01.04.03.06.06.06.07.1.14.15.21.02.03.04.05.06.08.11.17.2.3.27.42.3.48.22.52-.21.97zm2.95-1.5c-.02.07-.05.14-.09.22-.01.04-.03.08-.04.12-.02.09-.04.18-.06.29-.01.04-.02.1-.03.15h-1.29c-.24-.6-.53-1.12-.86-1.56-.1-.12-.2-.24-.31-.36-.1-.12-.22-.22-.33-.33-.06-.06-.13-.12-.2-.17a4.738 4.738 0 00-1.65-.85l-.12-.03c-.07-.02-.14-.04-.21-.05-.07-.02-.14-.04-.21-.05a6.78 6.78 0 00-.65-.09c-.23-.02-.45-.03-.69-.03-.19 0-.37.01-.57.02.12-.12.24-.21.37-.29.1-.06.19-.11.28-.16.1-.05.2-.09.29-.12.2-.07.4-.11.6-.14a3.956 3.956 0 011.18.04c.06.01.12.03.18.06s.11.05.17.09c.1.07.2.17.28.3.24.39.63.52 1.08.39.19-.06.37-.07.55-.05.08.01.16.03.25.06.08.02.16.05.24.08.12.06.24.12.36.19.11.06.22.14.32.22.04.02.08.05.11.08a2.875 2.875 0 01.62.66c.12.17.22.35.31.55a1.35 1.35 0 01.14.55c0 .07-.01.14-.02.21z"/><path d="M105.03 46.49c.32.11.62.29.9.47.24.15.44.36.67.54.22.17.46.2.7.06.22-.13.36-.34.3-.58-.05-.2-.16-.42-.31-.54-.45-.35-.9-.72-1.41-.97-1.78-.87-3.8-.16-4.58 1.59-.41.92-.32 1.83.27 2.65.58.8 1.39 1.16 2.39 1.06 1.31-.13 2.19-1.68 1.63-2.87-.32-.68-1.11-.95-1.78-.6-.29.15-.42.42-.36.71.07.3.3.48.62.49.1 0 .21-.02.35-.04.08.79-.36 1.19-1.05 1.03-.87-.2-1.3-1.2-.87-2 .5-.94 1.53-1.36 2.53-1z" fill="#050000"/><path class="st0" d="M90.1 26.03a.476.476 0 00-.09-.38c-.48-.5-.98-.98-1.56-1.56-.77 1.87-1.5 3.65-2.26 5.49.92.13 1.76.26 2.61.38.45-1.35.88-2.63 1.3-3.93zM87.67 38.46c.15 1.24-.33 2.07-1.29 2.3-.86.21-1.65-.19-1.96-1-.36-.91.08-1.72 1.34-2.38-.97-.29-1.85-.16-2.73 0-.12.02-.27.2-.3.33-.12.54-.23 1.08-.06 1.64.3.98.95 1.67 1.81 2.18.54.32 1.13.41 1.76.26.78-.2 1.4-.63 1.93-1.2.69-.74.74-.57.09-1.55-.14-.23-.28-.48-.59-.58zM90.33 24.17c.08.08.19.13.33.22.68-2.03 1.34-4 2.02-6.01-.53-.25-1.01-.47-1.5-.7-.08.14-.14.23-.18.32-.26.61-.51 1.22-.77 1.83-.36.86-.71 1.72-1.08 2.57-.14.31-.09.52.16.75.35.32.67.68 1.02 1.02zM93.59 15.67c.74-2.17 1.52-4.32 2.07-6.55.11-.43.18-.87.26-1.3-.05-.02-.09-.04-.14-.05-.35.27-.51.67-.68 1.05-1.12 2.44-2.21 4.89-3.32 7.34-.04.09-.06.2-.11.34.47.22.91.43 1.41.66.19-.55.35-1.02.51-1.49zM87.36 34.3c.33-1 .66-2 1.02-3.07-.95-.14-1.81-.27-2.69-.4-.51 1.23-.99 2.41-1.49 3.62.58-.09 1.09-.22 1.59-.24.51-.03 1.02.05 1.57.09z"/><path class="st0" d="M89.44 36.46c-.34-.15-.68-.21-1.05-.1-.44.13-.84.01-1.08-.38-.22-.35-.53-.47-.89-.5-.3-.02-.61-.04-.91 0-.54.08-1.05.25-1.55.71 2.83-.18 4.79.91 5.81 3.5h1.28c.05-.22.06-.41.14-.57.17-.34.11-.67-.03-.98-.36-.76-.94-1.33-1.72-1.68zM47.93 45.47c.15.04.3.1.46.13.93.16 1.86.3 2.79.46.3.05.5-.08.76-.32-1.37-.1-2.67-.2-3.96-.3-.01.01-.03.02-.05.03z"/><g><path d="M86.75 86.58c0 1.05-.34 2.03-1 2.84-.84 1.08-2.16 1.61-3.56 1.61s-2.75-.55-3.59-1.61c-.63-.8-1-1.84-1-2.84v-7.02l2.16-.02v7c0 .56.17 1.09.48 1.55.45.59 1.2.94 1.95.94.73 0 1.47-.34 1.92-.95.34-.45.48-.95.48-1.53v-7h2.16v7.03zM93.77 85.1c-.09-.3-.38-.61-.66-.75-.25-.14-.56-.22-.91-.22-.38 0-.7.06-.92.19-.23.16-.28.3-.28.39 0 .08.03.14.05.19.13.16.47.3.89.42s.91.25 1.33.36c.7.22 1.11.31 1.66.77.69.53 1.05 1.25.98 2.11-.06.8-.5 1.48-1.2 1.94-.67.42-1.48.55-2.34.55-1.16 0-2.14-.3-2.92-1.13-.39-.44-.86-1.38-.89-1.81l2.02-.5c0 .25.16.72.39.95.38.41.89.48 1.41.48.39 0 .94-.08 1.19-.28.16-.14.19-.23.22-.39 0-.16-.03-.27-.14-.38-.2-.2-.59-.33-.88-.41-.45-.13-.89-.23-1.36-.36-.77-.2-1.23-.41-1.67-.75-.58-.44-.88-1.13-.88-1.72 0-1.06.66-1.91 1.55-2.3.66-.28 1.27-.34 1.84-.33.58 0 1.22.13 1.8.42.83.42 1.47 1.16 1.8 2.05l-2.08.51zM99.81 88.33c.34.47.92.72 1.53.72.63 0 1.19-.25 1.55-.72.06-.09.09-.19.16-.27l2.11.92c-.14.23-.31.47-.5.69-.84.94-2.06 1.42-3.31 1.36s-2.45-.47-3.23-1.41a4.552 4.552 0 01-1.03-3.05c.03-1.17.33-2.2 1.03-3.05.78-.92 1.98-1.41 3.23-1.41s2.45.47 3.23 1.41c.7.84 1.03 1.92 1.03 3.05 0 .19-.02.39-.03.58h-6.2c.06.45.18.86.43 1.18zm0-3.5c-.16.2-.27.44-.34.69h3.75c-.08-.25-.19-.48-.33-.69-.36-.48-.92-.72-1.55-.72-.6.01-1.18.24-1.53.72z"/><path class="st1" d="M110.19 80.03c0-.8.48-1.33 1.33-1.33h3.01c2.5 0 4.35 1.63 4.35 4.06 0 2.48-1.92 4.03-4.25 4.03h-1.89v2.79c0 .85-.54 1.33-1.27 1.33s-1.27-.48-1.27-1.33v-9.55zm2.55 4.52h1.73c1.07 0 1.75-.78 1.75-1.8s-.68-1.8-1.75-1.8h-1.73v3.6zM118.92 80.45a1.68 1.68 0 01-.12-.63c0-.71.63-1.22 1.31-1.22.58 0 .94.37 1.16.83l2.63 7.07 2.63-7.07c.22-.46.58-.83 1.16-.83.68 0 1.31.51 1.31 1.22 0 .24-.03.41-.12.63l-3.72 9.47c-.22.54-.51.99-1.26.99s-1.04-.44-1.26-.99l-3.72-9.47zM136.86 80.2c0 .66-.44 1.26-1.14 1.26s-1.24-.51-2.26-.51c-.73 0-1.39.39-1.39 1.11 0 1.75 5.68.63 5.68 5.01 0 2.43-2.01 3.94-4.35 3.94-1.31 0-4.13-.31-4.13-1.9 0-.66.44-1.21 1.14-1.21.8 0 1.75.66 2.86.66 1.12 0 1.73-.63 1.73-1.46 0-2-5.68-.8-5.68-4.74 0-2.38 1.95-3.86 4.22-3.86.94 0 3.32.35 3.32 1.7zM143.18 84.8c.63 0 .97.48.97 1.09 0 .58-.34 1.05-.97 1.05h-3.62c-.63 0-.97-.48-.97-1.05 0-.61.34-1.09.97-1.09h3.62zM152.6 80.2c0 .66-.44 1.26-1.14 1.26s-1.24-.51-2.26-.51c-.73 0-1.39.39-1.39 1.11 0 1.75 5.68.63 5.68 5.01 0 2.43-2 3.94-4.35 3.94-1.31 0-4.13-.31-4.13-1.9 0-.66.44-1.21 1.14-1.21.8 0 1.75.66 2.86.66 1.12 0 1.73-.63 1.73-1.46 0-2-5.68-.8-5.68-4.74 0-2.38 1.96-3.86 4.22-3.86.94 0 3.32.35 3.32 1.7zM155.1 83.9h-.54c-.66 0-1.07-.41-1.07-1.07 0-.61.46-1.07 1.07-1.07h.54V80.3c0-.82.51-1.36 1.22-1.36s1.22.54 1.22 1.36v1.46h.7c.63 0 1.17.29 1.17 1.07 0 .77-.54 1.07-1.17 1.07h-.7v5.64c0 .82-.51 1.36-1.22 1.36s-1.22-.54-1.22-1.36V83.9zM166.37 90.91c-.63 0-1.04-.34-1.12-.9-.48.66-1.21 1-2.36 1-1.92 0-3.35-1.22-3.35-3.3v-4.69c0-.82.51-1.36 1.22-1.36s1.22.54 1.22 1.36v4.27c0 1.14.71 1.68 1.6 1.68 1 0 1.56-.73 1.56-1.68v-4.27c0-.82.51-1.36 1.22-1.36s1.22.54 1.22 1.36v6.53c.01.81-.5 1.36-1.21 1.36zM177.35 89.55c0 .82-.51 1.36-1.22 1.36-.68 0-1.07-.37-1.22-1.02-.46.75-1.41 1.12-2.24 1.12-2.46 0-4.03-2.29-4.03-4.61 0-2.38 1.31-4.84 3.94-4.84.85 0 1.68.29 2.33.85v-3.33c0-.82.51-1.36 1.22-1.36s1.22.54 1.22 1.36v10.47zm-4.37-5.75c-1.27 0-1.9 1.34-1.9 2.5 0 1.14.63 2.46 1.9 2.46 1.34 0 1.92-1.36 1.92-2.55 0-1.19-.61-2.41-1.92-2.41zM181.31 79.33c0 .76-.61 1.41-1.38 1.41-.73 0-1.38-.66-1.38-1.41 0-.7.65-1.34 1.38-1.34.74 0 1.38.63 1.38 1.34zm-2.6 3.69c0-.82.51-1.36 1.22-1.36s1.22.54 1.22 1.36v6.53c0 .82-.51 1.36-1.22 1.36s-1.22-.54-1.22-1.36v-6.53zM190.93 86.3c0 2.55-1.75 4.71-4.39 4.71s-4.39-2.16-4.39-4.71c0-2.48 1.8-4.74 4.39-4.74s4.39 2.26 4.39 4.74zm-6.32 0c0 1.17.61 2.46 1.94 2.46s1.94-1.29 1.94-2.46-.59-2.5-1.94-2.5-1.94 1.33-1.94 2.5z"/><path d="M199.33 82.37h2.25v1.64h-2.25v6.8h-2.13v-6.8h-1.75v-1.64h1.75c.03-.64.17-1.52.78-2.17.89-.91 2.22-.98 3.59-.84v1.83c-.39-.06-.86-.08-1.23-.02-.84.12-1.01.57-1.01 1.2zM203.39 89.63c-.72-.88-1.03-1.89-1.03-3.05 0-1.19.36-2.23 1.03-3.05.78-.92 2-1.41 3.23-1.41 1.25 0 2.45.47 3.23 1.41.75.89 1.05 1.91 1.05 3.05 0 1.2-.33 2.16-1.05 3.05-.8.94-1.97 1.41-3.23 1.41-1.25 0-2.45-.49-3.23-1.41zm5.26-3.05c0-.64-.13-1.3-.48-1.77-.34-.47-.92-.7-1.55-.7s-1.2.23-1.55.7c-.36.47-.47 1.13-.47 1.77s.11 1.28.47 1.75c.34.47.92.72 1.55.72s1.2-.25 1.55-.72c.36-.46.48-1.1.48-1.75zM218.28 82.38v1.97c-.44-.17-1.02-.27-1.63-.22s-1.05.27-1.34.58c-.38.41-.55.97-.55 1.59v4.5h-2.14v-8.44h1.88v1.16c.22-.38.52-.7.91-.94.45-.28.97-.41 1.47-.44.45-.02.93.05 1.4.24zM225.83 82.37h2.25v1.64h-2.25v6.8h-2.13v-6.8h-1.75v-1.64h1.75c.03-.64.17-1.52.78-2.17.89-.91 2.22-.98 3.59-.84v1.83c-.39-.06-.86-.08-1.23-.02-.84.12-1.01.57-1.01 1.2zM234.98 82.38v1.97c-.44-.17-1.02-.27-1.63-.22s-1.05.27-1.34.58c-.38.41-.55.97-.55 1.59v4.5h-2.14v-8.44h1.88v1.16c.22-.38.52-.7.91-.94.45-.28.97-.41 1.47-.44.45-.02.93.05 1.4.24zM238.5 88.33c.34.47.92.72 1.53.72.63 0 1.19-.25 1.55-.72.06-.09.09-.19.16-.27l2.11.92c-.14.23-.31.47-.5.69-.84.94-2.06 1.42-3.31 1.36s-2.45-.47-3.23-1.41a4.552 4.552 0 01-1.03-3.05c.03-1.17.33-2.2 1.03-3.05.78-.92 1.98-1.41 3.23-1.41s2.45.47 3.23 1.41c.7.84 1.03 1.92 1.03 3.05 0 .19-.02.39-.03.58h-6.2c.05.45.18.86.43 1.18zm0-3.5c-.16.2-.27.44-.34.69h3.75c-.08-.25-.19-.48-.33-.69-.36-.48-.92-.72-1.55-.72-.61.01-1.19.24-1.53.72zM248.28 88.33c.34.47.92.72 1.53.72.63 0 1.19-.25 1.55-.72.06-.09.09-.19.16-.27l2.11.92c-.14.23-.31.47-.5.69-.84.94-2.06 1.42-3.31 1.36s-2.45-.47-3.23-1.41a4.552 4.552 0 01-1.03-3.05c.03-1.17.33-2.2 1.03-3.05.78-.92 1.98-1.41 3.23-1.41s2.45.47 3.23 1.41c.7.84 1.03 1.92 1.03 3.05 0 .19-.02.39-.03.58h-6.2c.05.45.18.86.43 1.18zm0-3.5c-.16.2-.27.44-.34.69h3.75c-.08-.25-.19-.48-.33-.69-.36-.48-.92-.72-1.55-.72-.61.01-1.19.24-1.53.72zM258.7 79.55v8.44h-2.13v-8.44h2.13zm0 9.38v1.88h-2.13v-1.88h2.13z"/></g><g><path class="st0" d="M144.13 18.48c0 .92-.2 1.88-.64 2.75-.91 1.75-2.75 2.88-4.69 2.88h-3.58V12.85h3.58c1.94 0 3.78 1.11 4.69 2.88.44.85.64 1.81.64 2.75zm-1.55 0c-.02-.73-.14-1.44-.45-2.06a3.855 3.855 0 00-3.41-2.13h-1.97v8.38l1.97-.02c1.41-.02 2.77-.81 3.41-2.11.31-.63.45-1.35.45-2.06zM146.37 22.94c-.72-.89-.98-1.95-.98-3.06 0-1.14.3-2.22.98-3.08.72-.89 1.89-1.38 3.11-1.38s2.38.45 3.13 1.38c.72.91.98 1.97.98 3.08 0 1.14-.28 2.17-.98 3.06-.77.94-1.88 1.39-3.13 1.39-1.22 0-2.36-.46-3.11-1.39zm5.6-3.06c0-.78-.14-1.58-.58-2.16s-1.16-.86-1.92-.86-1.48.28-1.91.86c-.44.58-.58 1.38-.58 2.16s.14 1.56.58 2.14c.42.58 1.14.88 1.91.88s1.48-.3 1.92-.88.58-1.36.58-2.14zM166.16 15.66l-3.77 9.91c-.33.86-.72 1.48-1.22 1.86s-1.05.42-1.67.42h-.19v-1.47l.27.03c.3.03.63 0 .84-.14.28-.2.55-.72.98-1.92l-3.5-8.69h1.53l2.69 6.75 2.52-6.75h1.52zM167.61 22.94c-.72-.89-.98-1.95-.98-3.06 0-1.14.3-2.22.98-3.08.72-.89 1.89-1.38 3.11-1.38s2.38.45 3.13 1.38c.72.91.98 1.97.98 3.08 0 1.14-.28 2.17-.98 3.06-.77.94-1.88 1.39-3.13 1.39-1.22 0-2.36-.46-3.11-1.39zm5.61-3.06c0-.78-.14-1.58-.58-2.16s-1.16-.86-1.92-.86-1.48.28-1.91.86c-.44.58-.58 1.38-.58 2.16s.14 1.56.58 2.14c.42.58 1.14.88 1.91.88s1.48-.3 1.92-.88.58-1.36.58-2.14zM183.74 15.66v8.44h-1.34v-.84c-.05.06-.11.11-.17.17-.63.58-1.48.84-2.27.88-.86.05-1.77-.22-2.42-.77-1.13-.91-1.31-2.19-1.3-3.7v-4.17h1.53v4.17c0 1.08.13 2 .83 2.55.39.33.92.47 1.52.47.48-.03.94-.19 1.28-.48.38-.3.63-.77.72-1.3.08-.33.09-.7.09-1.11v-4.3h1.53zM200.02 15.66l-2.58 8.44h-1.5l-1.75-5.98-1.81 5.98h-1.42l-2.58-8.45 1.5.02 1.83 5.98 1.84-5.98h1.31l1.83 5.98 1.83-5.98h1.5zM201.57 22.94c-.72-.89-.98-1.95-.98-3.06 0-1.14.3-2.22.98-3.08.72-.89 1.89-1.38 3.11-1.38s2.38.45 3.13 1.38c.72.91.98 1.97.98 3.08 0 1.14-.28 2.17-.98 3.06-.77.94-1.88 1.39-3.13 1.39-1.22 0-2.36-.46-3.11-1.39zm5.61-3.06c0-.78-.14-1.58-.58-2.16s-1.16-.86-1.92-.86-1.48.28-1.91.86c-.44.58-.58 1.38-.58 2.16s.14 1.56.58 2.14c.42.58 1.14.88 1.91.88s1.48-.3 1.92-.88.58-1.36.58-2.14zM215.66 15.63v1.42c-.39-.16-.86-.22-1.36-.2-.66.03-1.2.25-1.56.63-.64.61-.72 1.42-.72 2.44v4.19h-1.52v-8.44h1.34v1.23c.19-.33.44-.61.78-.86.52-.41 1.16-.58 1.8-.59.41-.04.83.03 1.24.18zM218.68 24.1h-1.53V12.87h1.53v6.02h1.41l2.19-3.22H224l-2.61 3.84 3.02 4.59h-1.72l-2.61-3.98h-1.41v3.98zM239.6 15.66l-2.58 8.44h-1.5l-1.75-5.98-1.81 5.98h-1.42l-2.58-8.45 1.5.02 1.83 5.98 1.84-5.98h1.31l1.83 5.98 1.83-5.98h1.5zM242.52 12.77v1.52H241v-1.52h1.52zm0 2.89v8.44H241v-8.44h1.52zM247.29 20.76c0 .69-.02 1.14.19 1.47.19.34.56.56.95.61.44.03.95.02 1.39-.06v1.33c-.59.16-1.48.19-2.06.06-.75-.17-1.33-.53-1.64-1.16s-.34-1.31-.34-2.16V16.9h-1.84v-1.23h1.84v-2.34h1.52v2.34h2.53v1.23h-2.53v3.86zM259.19 19.93v4.17h-1.53v-4.17c0-1.08-.14-2-.83-2.56-.39-.31-.92-.47-1.52-.45-.5.03-.94.19-1.28.47-.38.31-.63.78-.72 1.31-.11.48-.11 1.08-.11 1.7v3.7h-1.52V12.85h1.34v3.66c.05-.06.11-.11.17-.17.63-.58 1.48-.84 2.27-.88.84-.05 1.77.22 2.42.77 1.14.9 1.33 2.18 1.31 3.7zM168.54 40.52c-.91-1.14-1.27-2.59-1.27-4.05s.36-2.92 1.27-4.05c.94-1.22 2.44-1.81 4.02-1.81 1.59.02 3.08.61 4.03 1.81.94 1.17 1.23 2.59 1.25 4.05 0 1.5-.33 2.89-1.25 4.05-.97 1.22-2.44 1.81-4.03 1.81s-3.1-.59-4.02-1.81zm6.82-.92c.66-.86.86-2 .88-3.13 0-1.11-.22-2.28-.88-3.13-.63-.86-1.7-1.3-2.81-1.28-1.09-.02-2.19.42-2.81 1.28-.67.84-.86 2.02-.88 3.13 0 1.13.2 2.27.88 3.13.63.86 1.72 1.31 2.81 1.3 1.11 0 2.19-.44 2.81-1.3zM187.5 37.88c0 1.11-.25 2.2-.95 3.09-.7.88-1.77 1.36-2.92 1.36-1 0-1.91-.31-2.56-.95v4.47h-1.52V33.66h1.34v.88c.69-.7 1.69-1.11 2.73-1.11 1.14 0 2.23.47 2.92 1.34.68.86.96 1.99.96 3.11zm-1.61 0c0-.83-.16-1.63-.56-2.17-.44-.63-1.14-.91-1.94-.91-.73 0-1.42.27-1.84.81-.47.56-.66 1.41-.66 2.27 0 .84.19 1.7.66 2.27.45.53 1.13.81 1.89.81.73 0 1.47-.3 1.91-.92.4-.55.54-1.35.54-2.16zM190.94 40.02c.44.58 1.16.88 1.91.88.77 0 1.47-.3 1.91-.88.09-.14.16-.27.23-.39l1.5.64c-.14.25-.3.48-.47.7-.78.92-1.95 1.39-3.17 1.36s-2.38-.47-3.11-1.39c-.72-.89-1-1.98-.98-3.06.03-1.13.28-2.2.98-3.08.75-.91 1.89-1.38 3.11-1.38 1.23 0 2.36.45 3.13 1.38.69.88.97 1.98.97 3.08 0 .14-.02.28-.02.42h-6.55c.05.64.2 1.25.56 1.72zm0-4.28c-.28.38-.44.84-.52 1.33h4.84c-.08-.48-.23-.95-.52-1.33-.44-.59-1.14-.89-1.91-.88-.73-.01-1.45.29-1.89.88zM206.13 37.93v4.17h-1.53v-4.17c0-1.08-.13-2-.83-2.56-.39-.31-.91-.47-1.52-.45-.48.03-.94.19-1.28.47-.38.31-.61.78-.72 1.31-.08.33-.09.7-.09 1.11v4.3h-1.53v-8.44h1.36v.83l.16-.16c.64-.58 1.48-.84 2.27-.88.86-.05 1.77.22 2.42.77 1.12.9 1.3 2.18 1.29 3.7zM214.61 34.1c-.28-.69-.64-1.22-1.25-1.59-.44-.27-1.02-.45-1.59-.45s-1.14.11-1.55.34c-.5.28-.8.78-.8 1.28 0 .33.13.64.34.88.3.3.86.53 1.47.7l2 .59c.88.25 1.52.56 2.03 1.06.61.58.97 1.36.97 2.2 0 .95-.53 1.92-1.34 2.48s-1.86.73-2.95.73c-1.47 0-2.75-.44-3.63-1.55-.5-.64-.77-1.39-.94-2.09l1.53-.42c.11.59.31 1.14.63 1.55.55.77 1.53 1.08 2.45 1.08.7 0 1.53-.17 2.02-.53.45-.34.63-.84.63-1.3 0-.41-.16-.78-.45-1.06-.33-.31-.77-.52-1.3-.67l-2.08-.61c-.78-.23-1.53-.52-2.09-1.03-.61-.53-.88-1.33-.88-2.05 0-1.11.73-2.11 1.69-2.58.75-.38 1.52-.45 2.27-.45.78.02 1.63.17 2.33.58.94.52 1.63 1.41 2.03 2.5l-1.54.41zM218.32 40.94c-.72-.89-.98-1.95-.98-3.06 0-1.14.3-2.22.98-3.08.72-.89 1.89-1.38 3.11-1.38s2.38.45 3.13 1.38c.72.91.98 1.97.98 3.08 0 1.14-.28 2.17-.98 3.06-.77.94-1.88 1.39-3.13 1.39-1.22 0-2.36-.46-3.11-1.39zm5.61-3.06c0-.78-.14-1.58-.58-2.16s-1.16-.86-1.92-.86-1.48.28-1.91.86c-.44.58-.58 1.38-.58 2.16s.14 1.56.58 2.14c.42.58 1.14.88 1.91.88s1.48-.3 1.92-.88.58-1.36.58-2.14zM234.44 33.66v8.44h-1.34v-.84c-.05.06-.11.11-.17.17-.63.58-1.48.84-2.27.88-.86.05-1.77-.22-2.42-.77-1.13-.91-1.31-2.19-1.3-3.7v-4.17h1.53v4.17c0 1.08.13 2 .83 2.55.39.33.92.47 1.52.47.48-.03.94-.19 1.28-.48.38-.3.63-.77.72-1.3.08-.33.09-.7.09-1.11v-4.3h1.53zM241.79 33.63v1.42c-.39-.16-.86-.22-1.36-.2-.66.03-1.2.25-1.56.63-.64.61-.72 1.42-.72 2.44v4.19h-1.52v-8.44h1.34v1.23c.19-.33.44-.61.78-.86.52-.41 1.16-.58 1.8-.59.41-.04.83.03 1.24.18zM248.82 36.15c-.08-.14-.16-.28-.25-.41-.44-.59-1.16-.89-1.91-.88-.77-.02-1.47.28-1.91.88-.44.58-.58 1.36-.59 2.14.02.78.16 1.56.59 2.14s1.14.88 1.91.88c.75 0 1.47-.3 1.91-.88.09-.13.16-.25.23-.39l1.42.61c-.13.25-.27.48-.45.7-.75.92-1.91 1.41-3.11 1.38-1.22.03-2.36-.45-3.11-1.38-.7-.88-.98-1.97-.98-3.06 0-1.11.28-2.19.98-3.08.77-.94 1.91-1.38 3.11-1.38 1.22 0 2.36.47 3.11 1.38.19.23.34.48.45.73l-1.4.62zM253.35 40.02c.44.58 1.16.88 1.91.88.77 0 1.47-.3 1.91-.88.09-.14.16-.27.23-.39l1.5.64c-.14.25-.3.48-.47.7-.78.92-1.95 1.39-3.17 1.36s-2.38-.47-3.11-1.39c-.72-.89-1-1.98-.98-3.06.03-1.13.28-2.2.98-3.08.75-.91 1.89-1.38 3.11-1.38 1.23 0 2.36.45 3.13 1.38.69.88.97 1.98.97 3.08 0 .14-.02.28-.02.42h-6.55c.04.64.2 1.25.56 1.72zm0-4.28c-.28.38-.44.84-.52 1.33h4.84c-.08-.48-.23-.95-.52-1.33-.44-.59-1.14-.89-1.91-.88-.74-.01-1.45.29-1.89.88zM197.38 55.88c0 1.11-.25 2.2-.95 3.09-.7.88-1.77 1.36-2.92 1.36-1 0-1.91-.31-2.56-.95v4.47h-1.52V51.66h1.34v.88c.69-.7 1.69-1.11 2.73-1.11 1.14 0 2.23.47 2.92 1.34.68.86.96 1.99.96 3.11zm-1.61 0c0-.83-.16-1.63-.56-2.17-.44-.63-1.14-.91-1.94-.91-.73 0-1.42.27-1.84.81-.47.56-.66 1.41-.66 2.27 0 .84.19 1.7.66 2.27.45.53 1.13.81 1.89.81.73 0 1.47-.3 1.91-.92.4-.55.54-1.35.54-2.16zM204.25 51.63v1.42c-.39-.16-.86-.22-1.36-.2-.66.03-1.2.25-1.56.63-.64.61-.72 1.42-.72 2.44v4.19h-1.52v-8.44h1.34v1.23c.19-.33.44-.61.78-.86.52-.41 1.16-.58 1.8-.59.42-.04.84.02 1.24.18zM206.02 58.94c-.72-.89-.98-1.95-.98-3.06 0-1.14.3-2.22.98-3.08.72-.89 1.89-1.38 3.11-1.38s2.38.45 3.13 1.38c.72.91.98 1.97.98 3.08 0 1.14-.28 2.17-.98 3.06-.77.94-1.88 1.39-3.13 1.39-1.22 0-2.36-.46-3.11-1.39zm5.61-3.06c0-.78-.14-1.58-.58-2.16s-1.16-.86-1.92-.86-1.48.28-1.91.86c-.44.58-.58 1.38-.58 2.16s.14 1.56.58 2.14c.42.58 1.14.88 1.91.88s1.48-.3 1.92-.88.58-1.36.58-2.14zM214.13 62.54c.28 0 .66-.06.89-.34.33-.34.38-.83.38-1.77v-8.77h1.52v8.77c0 1.19-.09 2.02-.67 2.7-.48.63-1.23.95-2.11.95v-1.54zm1.27-13.63v1.52h1.52v-1.52h-1.52zM220.97 58.02c.44.58 1.16.88 1.91.88.77 0 1.47-.3 1.91-.88.09-.14.16-.27.23-.39l1.5.64c-.14.25-.3.48-.47.7-.78.92-1.95 1.39-3.17 1.36s-2.38-.47-3.11-1.39c-.72-.89-1-1.98-.98-3.06.03-1.13.28-2.2.98-3.08.75-.91 1.89-1.38 3.11-1.38 1.23 0 2.36.45 3.13 1.38.69.88.97 1.98.97 3.08 0 .14-.02.28-.02.42h-6.55c.05.64.2 1.25.56 1.72zm0-4.28c-.28.38-.44.84-.52 1.33h4.84c-.08-.48-.23-.95-.52-1.33-.44-.59-1.14-.89-1.91-.88-.73-.01-1.45.29-1.89.88zM234.47 54.15c-.08-.14-.16-.28-.25-.41-.44-.59-1.16-.89-1.91-.88-.77-.02-1.47.28-1.91.88-.44.58-.58 1.36-.59 2.14.02.78.16 1.56.59 2.14s1.14.88 1.91.88c.75 0 1.47-.3 1.91-.88.09-.13.16-.25.23-.39l1.42.61c-.13.25-.27.48-.45.7-.75.92-1.91 1.41-3.11 1.38-1.22.03-2.36-.45-3.11-1.38-.7-.88-.98-1.97-.98-3.06 0-1.11.28-2.19.98-3.08.77-.94 1.91-1.38 3.11-1.38 1.22 0 2.36.47 3.11 1.38.19.23.34.48.45.73l-1.4.62zM239.94 56.76c0 .69-.02 1.14.19 1.47.19.34.56.56.95.61.44.03.95.02 1.39-.06v1.33c-.59.16-1.48.19-2.06.06-.75-.17-1.33-.53-1.64-1.16s-.34-1.31-.34-2.16V52.9h-1.84v-1.23h1.84v-2.34h1.52v2.34h2.53v1.23h-2.53v3.86zM249.49 54.24c-.16-.45-.5-.89-.94-1.11-.33-.17-.73-.27-1.14-.27-.44 0-.84.08-1.16.23-.34.19-.53.45-.53.72 0 .2.06.38.19.52.2.19.5.33 1.03.48.41.13.94.27 1.53.42.64.19 1.13.33 1.64.77.66.52.97 1.17.91 1.95-.06.75-.48 1.41-1.13 1.81-.66.42-1.5.56-2.34.56-1.13 0-2.13-.31-2.86-1.11-.45-.5-.81-1.34-.89-1.88l1.45-.36c.05.41.23.94.53 1.25.45.5 1.11.64 1.75.64.53 0 1.19-.09 1.53-.36.25-.19.38-.41.41-.69a.85.85 0 00-.3-.72c-.25-.23-.59-.36-1.13-.52-.42-.13-.89-.23-1.44-.39-.67-.19-1.19-.36-1.66-.73-.53-.42-.78-1.06-.78-1.63 0-.94.63-1.73 1.44-2.09.63-.28 1.23-.34 1.81-.33.59 0 1.22.13 1.78.42.83.41 1.5 1.19 1.77 2.03l-1.47.39zM258.13 54.15c-.52.56-1.17.92-1.47 1.45-.3.48-.27.8-.27 1.44h-1.61c0-.77.08-1.39.41-2 .44-.84 1.16-1.08 1.89-1.86.41-.45.52-.92.52-1.45 0-.44-.11-.8-.33-1.06-.36-.44-.92-.59-1.5-.59-.55 0-1.05.14-1.36.44-.34.3-.48.73-.47 1.2h-1.59c.08-.92.47-1.83 1.16-2.36.61-.48 1.42-.72 2.22-.72 1.08 0 2.11.3 2.75 1.06.48.53.72 1.25.72 2-.01.96-.43 1.79-1.07 2.45zm-3.34 4.15h1.61v1.8h-1.61v-1.8z"/></g></svg>