<?xml version="1.0" encoding="UTF-8" standalone="no"?>
<svg
   xmlns:dc="http://purl.org/dc/elements/1.1/"
   xmlns:cc="http://creativecommons.org/ns#"
   xmlns:rdf="http://www.w3.org/1999/02/22-rdf-syntax-ns#"
   xmlns:svg="http://www.w3.org/2000/svg"
   xmlns="http://www.w3.org/2000/svg"
   xmlns:sodipodi="http://sodipodi.sourceforge.net/DTD/sodipodi-0.dtd"
   xmlns:inkscape="http://www.inkscape.org/namespaces/inkscape"
   inkscape:version="1.0 (4035a4f, 2020-05-01)"
   height="231.25029"
   width="446.17703"
   sodipodi:docname="pvs-studio.svg"
   xml:space="preserve"
   viewBox="0 0 446.17703 231.25029"
   y="0px"
   x="0px"
   id="Слой_1"
   version="1.1"><metadata
   id="metadata63"><rdf:RDF><cc:Work
       rdf:about=""><dc:format>image/svg+xml</dc:format><dc:type
         rdf:resource="http://purl.org/dc/dcmitype/StillImage" /><dc:title></dc:title></cc:Work></rdf:RDF></metadata><defs
   id="defs61" /><sodipodi:namedview
   inkscape:current-layer="Слой_1"
   inkscape:window-maximized="0"
   inkscape:window-y="23"
   inkscape:window-x="0"
   inkscape:cy="132.95586"
   inkscape:cx="222.71077"
   inkscape:zoom="1.1027013"
   fit-margin-bottom="0"
   fit-margin-right="0"
   fit-margin-left="0"
   fit-margin-top="0"
   showgrid="false"
   id="namedview59"
   inkscape:window-height="629"
   inkscape:window-width="1328"
   inkscape:pageshadow="2"
   inkscape:pageopacity="0"
   guidetolerance="10"
   gridtolerance="10"
   objecttolerance="10"
   borderopacity="1"
   bordercolor="#666666"
   pagecolor="#ffffff" />
<style
   id="style10"
   type="text/css">
	.st0{fill:#009FEE;}
	.st1{fill:#FFFFFF;}
	.st2{fill-rule:evenodd;clip-rule:evenodd;fill:#009FEE;}
	.st3{fill:#070100;}
</style>



<g
   transform="matrix(0.86241939,0,0,0.86241939,46.977501,15.87199)"
   id="g90"><g
     id="g32"
     transform="translate(-11.78923,-19.044142)">
	<path
   class="st0"
   d="m 200.51,199.66 c 0,1.64 -0.3,3.13 -0.9,4.44 -0.6,1.32 -1.41,2.43 -2.42,3.34 -1.02,0.91 -2.21,1.61 -3.57,2.11 -1.36,0.49 -2.8,0.74 -4.33,0.74 h -4.98 v 7.63 c 0,1.14 -0.32,2.01 -0.96,2.6 -0.64,0.6 -1.44,0.9 -2.4,0.9 -0.96,0 -1.76,-0.3 -2.4,-0.9 -0.64,-0.6 -0.96,-1.46 -0.96,-2.6 v -25.48 c 0,-1.05 0.3,-1.89 0.9,-2.54 0.6,-0.64 1.46,-0.96 2.6,-0.96 h 7.94 c 1.64,0 3.17,0.25 4.58,0.76 1.41,0.51 2.62,1.23 3.63,2.18 1.02,0.94 1.82,2.07 2.4,3.39 0.58,1.31 0.87,2.77 0.87,4.39 z m -7,-0.05 c 0,-1.35 -0.41,-2.47 -1.23,-3.39 -0.82,-0.91 -1.95,-1.37 -3.39,-1.37 h -4.58 v 9.51 h 4.58 c 1.44,0 2.56,-0.46 3.39,-1.37 0.82,-0.9 1.23,-2.03 1.23,-3.38 z"
   id="path12" />
	<path
   class="st0"
   d="m 227.24,191.63 c 0,0.6 -0.1,1.15 -0.31,1.66 l -9.82,25.26 c -0.3,0.72 -0.68,1.33 -1.15,1.84 -0.46,0.51 -1.19,0.76 -2.18,0.76 -0.99,0 -1.71,-0.26 -2.18,-0.76 -0.46,-0.51 -0.84,-1.12 -1.14,-1.84 l -9.82,-25.26 c -0.21,-0.51 -0.31,-1.06 -0.31,-1.66 0,-0.96 0.35,-1.73 1.06,-2.33 0.7,-0.6 1.5,-0.9 2.4,-0.9 0.78,0 1.41,0.22 1.88,0.65 0.48,0.43 0.87,0.95 1.17,1.55 l 6.95,18.93 6.95,-18.93 c 0.3,-0.6 0.69,-1.11 1.17,-1.55 0.48,-0.43 1.11,-0.65 1.88,-0.65 0.9,0 1.7,0.3 2.4,0.9 0.7,0.59 1.05,1.37 1.05,2.33 z"
   id="path14" />
	<path
   class="st0"
   d="m 250.3,211.01 c 0,1.61 -0.31,3.07 -0.92,4.35 -0.61,1.29 -1.44,2.38 -2.49,3.27 -1.05,0.9 -2.27,1.59 -3.66,2.06 -1.39,0.48 -2.87,0.72 -4.42,0.72 -0.87,0 -1.92,-0.07 -3.16,-0.2 -1.24,-0.13 -2.44,-0.38 -3.59,-0.74 -1.15,-0.36 -2.13,-0.87 -2.94,-1.52 -0.81,-0.66 -1.21,-1.51 -1.21,-2.56 0,-0.87 0.27,-1.62 0.81,-2.24 0.54,-0.63 1.27,-0.94 2.2,-0.94 0.54,0 1.09,0.09 1.66,0.27 0.57,0.18 1.17,0.38 1.79,0.61 0.63,0.22 1.29,0.43 1.97,0.61 0.69,0.18 1.39,0.27 2.11,0.27 1.53,0 2.67,-0.37 3.43,-1.1 0.76,-0.73 1.14,-1.65 1.14,-2.76 0,-0.9 -0.37,-1.59 -1.1,-2.06 -0.73,-0.48 -1.66,-0.89 -2.78,-1.23 -1.12,-0.34 -2.33,-0.7 -3.61,-1.05 -1.29,-0.36 -2.49,-0.85 -3.61,-1.48 -1.12,-0.63 -2.05,-1.46 -2.78,-2.51 -0.73,-1.05 -1.1,-2.44 -1.1,-4.17 0,-1.55 0.3,-2.97 0.9,-4.24 0.6,-1.27 1.41,-2.34 2.42,-3.21 1.02,-0.87 2.2,-1.54 3.54,-2.02 1.35,-0.48 2.77,-0.72 4.26,-0.72 0.63,0 1.44,0.07 2.44,0.2 1,0.13 1.97,0.37 2.92,0.72 0.94,0.34 1.75,0.8 2.42,1.37 0.67,0.57 1.01,1.3 1.01,2.2 0,0.87 -0.27,1.64 -0.81,2.31 -0.54,0.67 -1.27,1.01 -2.2,1.01 -0.45,0 -0.89,-0.07 -1.32,-0.2 -0.43,-0.13 -0.88,-0.29 -1.35,-0.47 -0.46,-0.18 -0.97,-0.34 -1.5,-0.47 -0.54,-0.13 -1.14,-0.2 -1.79,-0.2 -0.96,0 -1.81,0.25 -2.56,0.74 -0.75,0.49 -1.12,1.22 -1.12,2.18 0,0.78 0.37,1.38 1.1,1.79 0.73,0.42 1.66,0.8 2.78,1.14 1.12,0.34 2.33,0.71 3.61,1.1 1.28,0.39 2.49,0.94 3.61,1.66 1.12,0.72 2.05,1.68 2.78,2.87 0.76,1.17 1.12,2.72 1.12,4.64 z"
   id="path16" />
	<path
   class="st0"
   d="m 267.21,207.91 c 0,0.78 -0.22,1.43 -0.65,1.97 -0.43,0.54 -1.07,0.81 -1.91,0.81 h -9.55 c -0.84,0 -1.47,-0.27 -1.91,-0.81 -0.43,-0.54 -0.65,-1.2 -0.65,-1.97 0,-0.81 0.22,-1.49 0.65,-2.04 0.43,-0.55 1.07,-0.83 1.91,-0.83 h 9.55 c 0.84,0 1.47,0.28 1.91,0.83 0.44,0.55 0.65,1.23 0.65,2.04 z"
   id="path18" />
	<path
   class="st0"
   d="m 291.84,211.01 c 0,1.61 -0.31,3.07 -0.92,4.35 -0.61,1.29 -1.44,2.38 -2.49,3.27 -1.05,0.9 -2.27,1.59 -3.66,2.06 -1.39,0.48 -2.87,0.72 -4.42,0.72 -0.87,0 -1.92,-0.07 -3.16,-0.2 -1.24,-0.13 -2.44,-0.38 -3.59,-0.74 -1.15,-0.36 -2.13,-0.87 -2.94,-1.52 -0.81,-0.66 -1.21,-1.51 -1.21,-2.56 0,-0.87 0.27,-1.62 0.81,-2.24 0.54,-0.63 1.27,-0.94 2.2,-0.94 0.54,0 1.09,0.09 1.66,0.27 0.57,0.18 1.17,0.38 1.79,0.61 0.63,0.22 1.29,0.43 1.97,0.61 0.69,0.18 1.39,0.27 2.11,0.27 1.53,0 2.67,-0.37 3.43,-1.1 0.76,-0.73 1.14,-1.65 1.14,-2.76 0,-0.9 -0.37,-1.59 -1.1,-2.06 -0.73,-0.48 -1.66,-0.89 -2.78,-1.23 -1.12,-0.34 -2.33,-0.7 -3.61,-1.05 -1.29,-0.36 -2.49,-0.85 -3.61,-1.48 -1.12,-0.63 -2.05,-1.46 -2.78,-2.51 -0.73,-1.05 -1.1,-2.44 -1.1,-4.17 0,-1.55 0.3,-2.97 0.9,-4.24 0.6,-1.27 1.41,-2.34 2.42,-3.21 1.02,-0.87 2.2,-1.54 3.54,-2.02 1.35,-0.48 2.77,-0.72 4.26,-0.72 0.63,0 1.44,0.07 2.44,0.2 1,0.13 1.97,0.37 2.92,0.72 0.94,0.34 1.75,0.8 2.42,1.37 0.67,0.57 1.01,1.3 1.01,2.2 0,0.87 -0.27,1.64 -0.81,2.31 -0.54,0.67 -1.27,1.01 -2.2,1.01 -0.45,0 -0.89,-0.07 -1.32,-0.2 -0.43,-0.13 -0.88,-0.29 -1.35,-0.47 -0.46,-0.18 -0.97,-0.34 -1.5,-0.47 -0.54,-0.13 -1.14,-0.2 -1.79,-0.2 -0.96,0 -1.81,0.25 -2.56,0.74 -0.75,0.49 -1.12,1.22 -1.12,2.18 0,0.78 0.37,1.38 1.1,1.79 0.73,0.42 1.66,0.8 2.78,1.14 1.12,0.34 2.33,0.71 3.61,1.1 1.28,0.39 2.49,0.94 3.61,1.66 1.12,0.72 2.05,1.68 2.78,2.87 0.76,1.17 1.12,2.72 1.12,4.64 z"
   id="path20" />
	<path
   class="st0"
   d="m 307.5,199.84 c 0,1.02 -0.31,1.74 -0.92,2.18 -0.61,0.43 -1.34,0.65 -2.18,0.65 h -1.84 v 15.16 c 0,1.08 -0.3,1.94 -0.9,2.6 -0.6,0.66 -1.38,0.99 -2.33,0.99 -0.96,0 -1.74,-0.33 -2.33,-0.99 -0.6,-0.66 -0.9,-1.52 -0.9,-2.6 v -15.16 h -1.43 c -0.87,0 -1.56,-0.25 -2.06,-0.76 -0.51,-0.51 -0.76,-1.2 -0.76,-2.06 0,-0.81 0.27,-1.48 0.81,-2.02 0.54,-0.54 1.21,-0.81 2.02,-0.81 h 1.43 v -3.86 c 0,-1.08 0.3,-1.94 0.9,-2.6 0.6,-0.66 1.38,-0.99 2.33,-0.99 0.96,0 1.73,0.33 2.33,0.99 0.6,0.66 0.9,1.53 0.9,2.6 v 3.86 h 1.84 c 0.84,0 1.56,0.21 2.18,0.63 0.6,0.41 0.91,1.14 0.91,2.19 z"
   id="path22" />
	<path
   class="st0"
   d="m 328.18,220.43 c -0.6,0.66 -1.37,0.99 -2.33,0.99 -0.84,0 -1.51,-0.25 -2.02,-0.76 -0.51,-0.51 -0.82,-1.14 -0.94,-1.88 -0.63,0.87 -1.44,1.53 -2.44,1.97 -1,0.45 -2.27,0.67 -3.79,0.67 -1.26,0 -2.43,-0.19 -3.52,-0.58 -1.09,-0.39 -2.03,-0.96 -2.8,-1.7 -0.78,-0.75 -1.39,-1.66 -1.84,-2.74 -0.45,-1.08 -0.67,-2.3 -0.67,-3.68 v -12.65 c 0,-1.08 0.3,-1.94 0.9,-2.6 0.6,-0.66 1.37,-0.99 2.33,-0.99 0.96,0 1.74,0.33 2.33,0.99 0.6,0.66 0.9,1.52 0.9,2.6 v 11.53 c 0,1.52 0.41,2.65 1.23,3.36 0.82,0.71 1.82,1.08 2.98,1.08 1.35,0 2.37,-0.43 3.07,-1.28 0.7,-0.85 1.06,-1.91 1.06,-3.16 v -11.53 c 0,-1.08 0.3,-1.94 0.9,-2.6 0.6,-0.66 1.37,-0.99 2.33,-0.99 0.96,0 1.73,0.33 2.33,0.99 0.6,0.66 0.9,1.52 0.9,2.6 v 17.76 c -0.01,1.07 -0.31,1.94 -0.91,2.6 z"
   id="path24" />
	<path
   class="st0"
   d="m 354.83,217.83 c 0,1.08 -0.3,1.94 -0.9,2.6 -0.6,0.66 -1.38,0.99 -2.33,0.99 -0.9,0 -1.61,-0.28 -2.13,-0.83 -0.52,-0.55 -0.89,-1.26 -1.1,-2.13 -0.6,0.99 -1.46,1.73 -2.58,2.22 -1.12,0.49 -2.24,0.74 -3.34,0.74 -1.61,0 -3.08,-0.34 -4.4,-1.03 -1.32,-0.69 -2.44,-1.61 -3.36,-2.76 -0.93,-1.15 -1.64,-2.45 -2.13,-3.9 -0.49,-1.45 -0.74,-2.94 -0.74,-4.46 0,-1.55 0.22,-3.1 0.65,-4.64 0.43,-1.54 1.08,-2.91 1.95,-4.1 0.87,-1.2 1.95,-2.17 3.25,-2.92 1.3,-0.75 2.82,-1.12 4.55,-1.12 2.33,0 4.38,0.75 6.15,2.24 V 192 c 0,-1.08 0.3,-1.94 0.9,-2.6 0.6,-0.66 1.37,-0.99 2.33,-0.99 0.96,0 1.73,0.33 2.33,0.99 0.6,0.66 0.9,1.52 0.9,2.6 z m -6.46,-9.07 c 0,-0.78 -0.11,-1.55 -0.31,-2.31 -0.21,-0.76 -0.52,-1.44 -0.94,-2.04 -0.42,-0.6 -0.95,-1.08 -1.59,-1.46 -0.64,-0.37 -1.38,-0.56 -2.22,-0.56 -0.84,0 -1.57,0.2 -2.2,0.61 -0.63,0.4 -1.15,0.92 -1.57,1.55 -0.42,0.63 -0.73,1.34 -0.94,2.13 -0.21,0.79 -0.31,1.56 -0.31,2.31 0,0.78 0.1,1.55 0.31,2.31 0.21,0.76 0.52,1.46 0.94,2.09 0.42,0.63 0.94,1.14 1.57,1.52 0.63,0.39 1.36,0.58 2.2,0.58 0.9,0 1.66,-0.2 2.29,-0.61 0.63,-0.4 1.15,-0.93 1.57,-1.57 0.42,-0.64 0.73,-1.37 0.92,-2.18 0.18,-0.8 0.28,-1.59 0.28,-2.37 z"
   id="path26" />
	<path
   class="st0"
   d="m 365.28,190.6 c 0,1.02 -0.35,1.89 -1.05,2.62 -0.7,0.73 -1.56,1.1 -2.58,1.1 -0.48,0 -0.94,-0.1 -1.37,-0.31 -0.43,-0.21 -0.82,-0.48 -1.17,-0.81 -0.34,-0.33 -0.61,-0.72 -0.81,-1.17 -0.2,-0.45 -0.29,-0.93 -0.29,-1.44 0,-0.45 0.1,-0.89 0.29,-1.32 0.19,-0.43 0.46,-0.81 0.81,-1.14 0.34,-0.33 0.73,-0.59 1.17,-0.78 0.43,-0.19 0.89,-0.29 1.37,-0.29 0.48,0 0.93,0.1 1.37,0.29 0.43,0.2 0.82,0.46 1.17,0.78 0.34,0.33 0.61,0.7 0.81,1.12 0.18,0.42 0.28,0.87 0.28,1.35 z m -0.41,27.23 c 0,1.08 -0.3,1.94 -0.9,2.6 -0.6,0.66 -1.38,0.99 -2.33,0.99 -0.96,0 -1.74,-0.33 -2.33,-0.99 -0.6,-0.66 -0.9,-1.52 -0.9,-2.6 v -17.76 c 0,-1.08 0.3,-1.94 0.9,-2.6 0.6,-0.66 1.38,-0.99 2.33,-0.99 0.96,0 1.73,0.33 2.33,0.99 0.6,0.66 0.9,1.52 0.9,2.6 z"
   id="path28" />
	<path
   class="st0"
   d="m 390.67,208.99 c 0,1.68 -0.28,3.27 -0.83,4.78 -0.55,1.51 -1.34,2.83 -2.36,3.97 -1.02,1.14 -2.24,2.03 -3.66,2.69 -1.42,0.66 -3,0.99 -4.73,0.99 -1.73,0 -3.31,-0.33 -4.73,-0.99 -1.42,-0.66 -2.64,-1.55 -3.66,-2.69 -1.02,-1.14 -1.8,-2.46 -2.35,-3.97 -0.55,-1.51 -0.83,-3.1 -0.83,-4.78 0,-1.64 0.28,-3.22 0.85,-4.73 0.57,-1.51 1.36,-2.84 2.38,-3.99 1.02,-1.15 2.24,-2.07 3.66,-2.76 1.42,-0.69 2.98,-1.03 4.69,-1.03 1.71,0 3.27,0.34 4.69,1.03 1.42,0.69 2.64,1.61 3.66,2.76 1.02,1.15 1.81,2.48 2.38,3.99 0.55,1.51 0.84,3.08 0.84,4.73 z m -6.46,0 c 0,-0.75 -0.1,-1.52 -0.29,-2.31 -0.19,-0.79 -0.5,-1.5 -0.92,-2.13 -0.42,-0.63 -0.95,-1.14 -1.59,-1.55 -0.64,-0.4 -1.41,-0.61 -2.31,-0.61 -0.9,0 -1.67,0.2 -2.31,0.61 -0.64,0.4 -1.17,0.92 -1.59,1.55 -0.42,0.63 -0.73,1.34 -0.92,2.13 -0.2,0.79 -0.29,1.56 -0.29,2.31 0,0.78 0.1,1.56 0.31,2.33 0.21,0.78 0.52,1.47 0.94,2.09 0.42,0.61 0.95,1.11 1.59,1.5 0.64,0.39 1.4,0.58 2.27,0.58 0.87,0 1.62,-0.19 2.27,-0.58 0.64,-0.39 1.17,-0.89 1.59,-1.5 0.42,-0.61 0.73,-1.31 0.94,-2.09 0.2,-0.78 0.31,-1.55 0.31,-2.33 z"
   id="path30" />
</g><path
     class="st1"
     d="m 269.02077,98.405858 c -3.61,-2.24 -7.55,-3.75 -11.6,-4.96 -6.88,-2.05 -13.91,-3.31 -21.06,-3.88 -4.07,-0.33 -8.15,-0.55 -12.23,-0.71 -2.29,-0.09 -4.59,0.01 -6.88,0.08 -0.29,0.01 -0.59,0.27 -0.87,0.45 -0.99,0.66 -1.92,1.44 -2.97,1.98 -3.45,1.77 -6.75,1.39 -9.81,-0.97 -2.33,-1.8 -4,-4.05 -4.61,-6.99 -0.06,-0.29 -0.14,-0.6 -0.31,-0.82 -2.87,-3.72 -6.02,-7.15 -9.56,-10.25 -1.69,-1.48 -3.11,-3.26 -4.64,-4.91 -0.26,-0.28 -0.49,-0.57 -0.97,-0.77 0.13,0.45 0.22,0.91 0.38,1.35 1.47,3.99 4.09,7.13 7.27,9.87 0.61,0.53 1.26,1.01 1.89,1.52 0.86,0.7 1.06,1.63 0.5,2.33 -0.54,0.68 -1.42,0.75 -2.27,0.11 -4.49,-3.41 -8.16,-7.47 -10.19,-12.83 -0.08,-0.21 -0.21,-0.41 -0.45,-0.89 -0.28,1.52 -0.18,2.73 0.18,3.91 1.33,4.31 3.86,7.65 7.93,9.71 0.96,0.48 1.61,1.14 1.6,2.25 -0.02,1.11 -0.7,1.79 -1.68,2.19 -0.43,0.18 -0.88,0.33 -1.33,0.45 -2.18,0.58 -4.35,1.17 -6.54,1.71 -2.72,0.67 -5.44,1.36 -8.18,1.95 -9.95,2.13 -19.53,5.34 -28.78,9.56 -12.33,5.630002 -23.52,13.010002 -33.85,21.760002 -6.28,5.32 -12.45,10.74 -18.31,16.51 -8.83,8.71 -16.97,18.01 -24.28,28.01 2.49,8.53 6.88,13.71 9.38,16.23 14.83,14.92 36.72,10.34 38.27,9.99 7,-1.59 12.2,-4.69 15.32,-6.91 -0.02,-0.99 -0.04,-1.98 -0.03,-2.97 0.14,-15.32 3.66,-29.83 10.46,-43.56 3.69,-7.44 8.24,-14.31 13.63,-20.62 6.4,-7.5 13.74,-13.94 22.09,-19.210002 1.43,-0.9 2.63,-2.15 3.94,-3.23 1.15,-0.95 2.29,-1.9 3.46,-2.84 0.4,-0.32 0.83,-0.6 1.26,-0.86 1.61,-0.97 2.81,-0.63 3.69,1 0.4,0.75 0.84,1.48 1.33,2.18 0.42,0.59 0.9,1.14 1.41,1.65 2.31,2.26 5.03,2.76 8.01,1.62 1.06,-0.41 2.01,-1.09 3,-1.67 0.88,-0.51 1.89,-0.49 2.64,0.1 0.72,0.57 1.1,1.66 0.7,2.53 -0.23,0.510002 -0.67,0.980002 -1.12,1.340002 -0.68,0.55 -1.45,1 -2.32,1.57 1.15,1.28 2.19,2.51 3.3,3.67 6.84,7.15 14.36,13.45 23.01,18.33 4.17,2.36 8.54,4.26 13.26,5.21 3.91,0.78 7.79,0.79 11.57,-0.67 2.01,-0.78 3.79,-1.94 5.35,-3.41 0.12,-0.11 0.19,-0.26 0.43,-0.58 -1.04,0.08 -1.89,0.15 -2.74,0.22 -5.49,0.46 -10.68,-0.66 -15.59,-3.07 -5.6,-2.75 -9.98,-6.92 -13.69,-11.85 -0.48,-0.64 -0.79,-1.33 -0.56,-2.14 0.25,-0.89 0.83,-1.47 1.74,-1.69 0.94,-0.22 1.67,0.16 2.25,0.85 1.07,1.27 2.07,2.61 3.19,3.82 4.16,4.47 9.07,7.71 15.11,9.04 3.85,0.85 7.69,0.85 11.5,-0.2 0.99,-0.27 1.89,-0.34 2.82,0.24 0.78,0.49 1.67,0.37 2.46,0 0.81,-0.37 1.62,-0.8 2.3,-1.35 2.8,-2.25 4.69,-5.13 5.63,-8.62 1.36,-5.09 -0.7,-9.3 -4.84,-11.860002 z m -8.4,4.520002 c -0.57,0.34 -1.15,0.27 -1.67,-0.13 -0.54,-0.42 -1.02,-0.92 -1.58,-1.28 -0.68,-0.43 -1.39,-0.84 -2.14,-1.12 -2.37,-0.850002 -4.8,0.13 -5.99,2.34 -1.03,1.92 -0.01,4.27 2.07,4.76 1.63,0.38 2.68,-0.58 2.5,-2.44 -0.33,0.04 -0.59,0.1 -0.83,0.09 -0.77,-0.02 -1.32,-0.46 -1.48,-1.16 -0.16,-0.69 0.16,-1.33 0.84,-1.69 1.59,-0.82 3.45,-0.19 4.22,1.43 1.34,2.82 -0.74,6.51 -3.86,6.82 -2.36,0.23 -4.28,-0.63 -5.67,-2.53 -1.42,-1.94 -1.63,-4.1 -0.65,-6.29 1.85,-4.170002 6.65,-5.860002 10.88,-3.780002 1.21,0.59 2.28,1.47 3.35,2.310002 0.36,0.29 0.62,0.82 0.73,1.28 0.14,0.59 -0.2,1.08 -0.72,1.39 z"
     id="path34" /><path
     class="st2"
     d="m 139.66077,227.45586 c -33.49,0 -66.98,0 -100.47,0 1.85,-8.96 4.75,-19.54 9.39,-31.01 5.57,-13.75 12.09,-24.95 17.93,-33.54 0.44,0.81 0.87,1.61 1.36,2.39 8.06,13.27 22.64,22.39 38.84,23.64 10.33,0.77 18.71,-1.82 23.5,-3.77 0.19,-0.08 0.35,-0.15 0.52,-0.22 0.69,6.82 1.8,14.36 3.53,22.44 1.6,7.34 3.46,14.05 5.4,20.07 z"
     id="path36" /><g
     id="g56"
     transform="translate(-11.78923,-19.044142)">
	<path
   d="m 288.6,118.81 c -1.48,-2.42 -3.58,-4.22 -6.01,-5.64 -4,-2.34 -8.29,-3.97 -12.72,-5.25 -9.02,-2.61 -18.24,-3.87 -27.59,-4.41 -1.18,-0.07 -2.36,-0.17 -3.62,-0.25 0.89,-3.4 -0.3,-6.12 -2.39,-8.56 -2.1,-2.46 -4.78,-3.9 -8.07,-4.19 0.15,-0.54 0.25,-0.91 0.37,-1.26 2.81,-8.98 5.64,-17.97 8.45,-26.95 2.52,-8.01 5.01,-16.02 7.57,-24.01 1.11,-3.5 2.19,-7 2.69,-10.63 0.17,-1.26 0.2,-2.56 0.13,-3.82 -0.05,-0.94 -0.66,-1.18 -1.4,-0.62 -0.57,0.44 -1.08,0.98 -1.51,1.55 -1.56,2.04 -2.79,4.29 -3.84,6.63 -9.02,20.24 -18.03,40.48 -27.03,60.71 -0.15,0.34 -0.4,0.71 -0.39,1.06 0.03,1.23 -0.86,1.82 -1.5,2.69 -0.72,-0.82 -1.33,-1.6 -2.04,-2.29 -2,-1.97 -4.02,-3.92 -6.07,-5.84 -3.25,-3.03 -5.92,-6.44 -7.6,-10.6 -0.76,-1.88 -2.83,-2.17 -4.07,-0.57 -0.71,0.91 -1.33,1.9 -1.87,2.91 -1.82,3.42 -2.79,7.03 -2.27,10.95 0.42,2.98 1.7,5.6 3.36,8.06 0.3,0.45 0.64,0.89 0.96,1.33 -0.96,0.5 -3.04,0.91 -4.05,0.82 -2.59,-0.24 -5.18,-0.44 -7.76,-0.71 -4.58,-0.45 -9.15,-0.98 -13.71,-1.43 -5.13,-0.52 -10.26,-1.03 -15.38,-1.51 -1.23,-0.13 -2.47,-0.32 -3.7,-0.32 -2.59,-0.02 -4.36,2.51 -3.53,4.98 0.12,0.35 0.27,0.69 0.42,1.11 -0.29,0.03 -0.49,0.07 -0.69,0.05 -2.2,-0.2 -4.41,-0.42 -6.61,-0.64 -2.41,-0.22 -4.83,-0.5 -7.25,-0.64 -1.78,-0.1 -3.26,1.09 -3.68,2.76 -0.44,1.7 0.25,3.4 1.75,4.29 0.29,0.17 0.61,0.3 1.08,0.56 -2.1,-0.15 -4,-0.29 -5.9,-0.42 -2.62,-0.2 -5.27,-0.45 -7.89,-0.57 -2.62,-0.1 -4.39,2.07 -3.87,4.64 0.07,0.32 0.15,0.64 0.27,1.11 -0.86,-0.1 -1.61,-0.22 -2.36,-0.3 -1.92,-0.19 -3.57,0.96 -4.05,2.79 -0.61,2.3 0.82,4.37 3.35,4.78 6.54,1.04 13.1,2.09 19.67,3.13 0.47,0.08 0.94,0.2 1.46,0.32 -0.99,1.03 -1.24,1.18 -1.85,1.09 -1.55,-0.22 -3.11,-0.45 -4.68,-0.64 -6.29,-0.71 -12.6,-1.4 -18.89,-2.09 -1.78,-0.2 -3.55,-0.44 -5.33,-0.54 -1.97,-0.1 -3.57,1.36 -3.8,3.25 -0.24,2 0.98,3.75 2.93,4.19 0.42,0.08 0.84,0.15 1.26,0.2 1.23,0.12 2.47,0.22 3.68,0.35 5.3,0.59 10.58,1.19 15.86,1.8 0.19,0.02 0.35,0.12 0.69,0.25 -0.74,0.61 -1.36,1.09 -2.04,1.67 -1.14,-1.46 -2.61,-1.7 -4.21,-1.55 -0.08,0.02 -0.17,0 -0.25,0.02 -8.11,0.05 -16.2,0.12 -24.29,0.18 -0.56,0.02 -1.11,0.07 -1.65,0.2 -1.73,0.49 -2.94,2.25 -2.74,3.99 0.24,1.95 1.73,3.33 3.68,3.38 0.72,0.02 1.45,0 2.17,0 6.19,-0.07 12.36,-0.15 18.54,-0.22 0.44,0 0.86,0.03 1.3,0.05 0,0.1 0.02,0.2 0.02,0.32 -0.25,0.05 -0.5,0.15 -0.77,0.17 -0.5,0.05 -1.01,0 -1.51,0.07 -4,0.57 -8.01,1.14 -11.99,1.72 -2.71,0.4 -5.4,0.77 -8.07,1.23 -1.6,0.27 -2.71,1.48 -2.96,2.98 -0.29,1.63 0.35,3.06 1.73,3.95 0.27,0.17 0.52,0.34 0.96,0.62 -1.38,0.19 -2.51,0.32 -3.65,0.47 -1.13,0.13 -2.27,0.29 -3.42,0.42 -2.27,0.3 -3.72,2.1 -3.45,4.26 0.27,2.14 2.17,3.57 4.41,3.3 0.76,-0.1 1.51,-0.25 2.27,-0.34 1.09,-0.13 2.19,-0.24 3.28,-0.34 -1.6,0.67 -3.23,1.13 -4.86,1.56 -3.13,0.86 -6.26,1.68 -9.37,2.54 -1.78,0.5 -2.84,1.78 -2.94,3.43 -0.17,2.66 2.15,4.54 4.84,3.89 2.24,-0.54 4.44,-1.19 6.66,-1.78 0.32,-0.08 0.64,-0.13 1.21,-0.25 -0.39,0.52 -0.62,0.86 -0.87,1.18 -2.74,3.5 -5.55,6.91 -8.19,10.48 -13.71,18.57 -24.09,38.84 -30.67,61 -0.52,1.8 -0.94,3.62 -1.43,5.43 h 9.72 c 0,-0.02 0,-0.02 0.02,-0.03 0.1,-0.4 0.2,-0.81 0.32,-1.21 1.36,-4.88 2.59,-9.79 4.12,-14.62 3.06,-9.79 7.07,-19.18 12.08,-28.13 2.42,-4.32 5.28,-8.36 8.07,-12.43 1.35,-1.95 2.71,-3.87 4.14,-5.77 7.15,-9.67 15.09,-18.71 23.67,-27.19 5.85,-5.77 12.05,-11.19 18.32,-16.5 10.33,-8.75 21.52,-16.13 33.85,-21.75 9.25,-4.22 18.84,-7.44 28.78,-9.57 2.74,-0.59 5.45,-1.28 8.18,-1.95 2.19,-0.54 4.37,-1.13 6.54,-1.7 0.45,-0.12 0.89,-0.27 1.33,-0.45 0.98,-0.4 1.67,-1.08 1.68,-2.19 0.02,-1.11 -0.64,-1.77 -1.6,-2.25 -4.07,-2.05 -6.61,-5.4 -7.92,-9.71 -0.37,-1.18 -0.47,-2.39 -0.19,-3.9 0.24,0.47 0.37,0.67 0.45,0.89 2.02,5.35 5.7,9.42 10.19,12.82 0.84,0.66 1.73,0.57 2.27,-0.1 0.56,-0.71 0.35,-1.63 -0.5,-2.32 -0.62,-0.52 -1.28,-0.99 -1.88,-1.53 -3.18,-2.74 -5.8,-5.89 -7.27,-9.87 -0.17,-0.44 -0.27,-0.89 -0.39,-1.35 0.47,0.2 0.71,0.49 0.96,0.77 1.55,1.65 2.96,3.43 4.64,4.91 3.55,3.1 6.7,6.53 9.57,10.25 0.17,0.22 0.25,0.54 0.3,0.82 0.61,2.94 2.29,5.2 4.61,7 3.06,2.36 6.36,2.73 9.82,0.96 1.04,-0.54 1.97,-1.33 2.96,-1.99 0.27,-0.17 0.57,-0.44 0.86,-0.44 2.3,-0.07 4.59,-0.17 6.9,-0.08 4.07,0.17 8.16,0.39 12.23,0.71 7.15,0.59 14.18,1.83 21.05,3.89 4.05,1.21 7.99,2.73 11.61,4.96 4.14,2.57 6.21,6.76 4.83,11.83 -0.94,3.48 -2.83,6.38 -5.64,8.63 -0.67,0.54 -1.5,0.98 -2.29,1.35 -0.79,0.37 -1.68,0.49 -2.47,0 -0.93,-0.59 -1.82,-0.52 -2.81,-0.25 -3.82,1.06 -7.65,1.06 -11.51,0.2 -6.04,-1.33 -10.95,-4.56 -15.11,-9.03 -1.13,-1.21 -2.14,-2.54 -3.2,-3.82 -0.59,-0.69 -1.31,-1.08 -2.25,-0.86 -0.91,0.22 -1.5,0.79 -1.75,1.68 -0.22,0.82 0.08,1.51 0.57,2.15 3.7,4.93 8.09,9.1 13.69,11.84 4.91,2.41 10.09,3.53 15.58,3.08 0.86,-0.08 1.72,-0.15 2.74,-0.22 -0.24,0.32 -0.3,0.47 -0.42,0.57 -1.56,1.48 -3.35,2.64 -5.35,3.41 -3.79,1.46 -7.65,1.46 -11.57,0.67 -4.73,-0.94 -9.08,-2.84 -13.26,-5.22 -8.65,-4.88 -16.17,-11.17 -23.01,-18.32 -1.11,-1.16 -2.15,-2.39 -3.3,-3.67 0.86,-0.59 1.63,-1.03 2.32,-1.58 0.44,-0.35 0.87,-0.82 1.11,-1.33 0.4,-0.87 0.03,-1.97 -0.69,-2.54 -0.76,-0.59 -1.77,-0.61 -2.64,-0.1 -0.99,0.57 -1.93,1.26 -2.99,1.68 -2.98,1.13 -5.7,0.64 -8.01,-1.63 -0.52,-0.5 -0.99,-1.04 -1.41,-1.63 -0.49,-0.71 -0.93,-1.43 -1.33,-2.19 -0.89,-1.63 -2.09,-1.97 -3.7,-0.99 -0.44,0.25 -0.86,0.54 -1.26,0.86 -1.16,0.94 -2.3,1.88 -3.45,2.84 -1.31,1.08 -2.52,2.34 -3.94,3.23 -8.36,5.27 -15.7,11.71 -22.1,19.21 -5.38,6.31 -9.94,13.17 -13.63,20.62 -6.8,13.73 -10.31,28.23 -10.46,43.55 0,0.89 0,1.78 0.02,2.69 0.03,1.78 0.12,3.57 0.19,5.35 0.13,3.4 0.5,6.78 1.16,10.13 1.78,9.17 4.47,18.08 7.79,26.82 0,0.02 0.02,0.02 0.02,0.03 2.95,0 5.9,-0.01 8.85,-0.01 -1.9,-3.85 -4.18,-9.09 -6.13,-15.5 -4.34,-14.32 -4.41,-25.91 -4.38,-29.22 0.11,-11.61 2.35,-20.87 4.12,-26.53 5.13,-16.42 14.11,-30.35 26.87,-41.87 5.72,-5.16 12.03,-9.49 18.99,-12.85 0.77,-0.39 1.33,-0.39 2.05,0.2 1.99,1.61 4.31,2.41 6.88,2.24 0.82,-0.05 1.31,0.25 1.82,0.86 1.4,1.67 2.83,3.31 4.32,4.88 7.13,7.42 14.97,13.91 23.99,18.94 5.05,2.83 10.35,5.03 16.12,5.87 4.61,0.66 9.1,0.3 13.37,-1.68 2.19,-1.03 4.16,-2.36 5.89,-4.04 1.21,-1.19 1.13,-2.66 -0.2,-3.73 -0.12,-0.1 -0.25,-0.17 -0.44,-0.27 0.15,-0.08 0.18,-0.12 0.22,-0.12 0.17,0.03 0.34,0.07 0.5,0.12 1.68,0.59 3.4,0.47 5,-0.24 1.31,-0.57 2.62,-1.26 3.75,-2.14 3.5,-2.73 5.84,-6.29 7.07,-10.55 1.21,-4.17 0.98,-8.24 -1.34,-12.04 z m -149.54,-0.42 c -2.21,-0.39 -4.43,-0.72 -6.64,-1.09 -0.37,-0.06 -0.72,-0.2 -1.09,-0.3 0.05,-0.02 0.09,-0.04 0.14,-0.06 3.07,0.23 6.14,0.46 9.41,0.7 -0.62,0.57 -1.09,0.88 -1.82,0.75 z m 96.5,-71.07 c 2.62,-5.82 5.23,-11.65 7.88,-17.45 0.41,-0.9 0.8,-1.85 1.63,-2.48 0.11,0.04 0.22,0.09 0.33,0.13 -0.21,1.03 -0.37,2.07 -0.62,3.1 -1.3,5.3 -3.15,10.42 -4.92,15.57 -0.38,1.12 -0.77,2.24 -1.21,3.52 -1.18,-0.55 -2.24,-1.05 -3.34,-1.57 0.1,-0.35 0.15,-0.6 0.25,-0.82 z m -6.29,14.86 c 0.9,-2.02 1.72,-4.07 2.58,-6.11 0.61,-1.45 1.21,-2.9 1.83,-4.35 0.1,-0.23 0.24,-0.44 0.43,-0.78 1.17,0.55 2.31,1.08 3.57,1.66 -1.6,4.78 -3.18,9.47 -4.8,14.29 -0.33,-0.22 -0.59,-0.35 -0.78,-0.53 -0.82,-0.8 -1.6,-1.65 -2.45,-2.42 -0.61,-0.52 -0.71,-1.02 -0.38,-1.76 z m -1.65,4.04 c 1.38,1.37 2.57,2.51 3.71,3.7 0.19,0.2 0.3,0.64 0.22,0.89 -0.99,3.07 -2.02,6.13 -3.1,9.36 -2.02,-0.29 -4.01,-0.58 -6.19,-0.9 1.79,-4.38 3.52,-8.6 5.36,-13.05 z m -6.57,15.97 c 2.1,0.31 4.14,0.62 6.4,0.96 -0.85,2.56 -1.63,4.93 -2.42,7.3 -1.3,-0.09 -2.52,-0.29 -3.73,-0.23 -1.21,0.05 -2.4,0.35 -3.79,0.58 1.18,-2.88 2.33,-5.68 3.54,-8.61 z m 5.91,23.2 c -1.27,1.36 -2.75,2.39 -4.6,2.85 -1.49,0.38 -2.9,0.15 -4.18,-0.61 -2.04,-1.2 -3.58,-2.84 -4.3,-5.17 -0.41,-1.32 -0.15,-2.61 0.14,-3.89 0.07,-0.31 0.43,-0.73 0.71,-0.78 2.08,-0.37 4.18,-0.68 6.49,0 -3,1.57 -4.03,3.5 -3.19,5.66 0.75,1.91 2.62,2.86 4.67,2.37 2.3,-0.55 3.44,-2.53 3.07,-5.47 0.73,0.24 1.07,0.83 1.42,1.36 1.54,2.32 1.42,1.91 -0.23,3.68 z m 7.19,-3.43 c -0.19,0.37 -0.21,0.82 -0.34,1.35 -1.05,0 -2.02,0 -3.05,0 -2.42,-6.15 -7.06,-8.77 -13.8,-8.33 1.18,-1.1 2.4,-1.51 3.68,-1.69 0.71,-0.1 1.45,-0.07 2.17,-0.01 0.87,0.07 1.61,0.35 2.13,1.19 0.57,0.92 1.5,1.22 2.56,0.91 0.87,-0.26 1.69,-0.13 2.48,0.23 1.86,0.83 3.24,2.17 4.09,4.03 0.35,0.74 0.5,1.51 0.08,2.32 z"
   id="path38" />
	<path
   class="st3"
   d="m 267.02,119.44 c 0.75,0.27 1.47,0.68 2.14,1.12 0.57,0.36 1.05,0.87 1.58,1.28 0.52,0.4 1.09,0.48 1.67,0.13 0.51,-0.31 0.85,-0.8 0.71,-1.39 -0.11,-0.47 -0.37,-1 -0.73,-1.28 -1.07,-0.84 -2.14,-1.72 -3.35,-2.31 -4.23,-2.08 -9.03,-0.39 -10.88,3.78 -0.98,2.2 -0.77,4.35 0.65,6.29 1.39,1.9 3.31,2.76 5.67,2.53 3.12,-0.31 5.2,-4 3.86,-6.82 -0.77,-1.62 -2.63,-2.26 -4.22,-1.43 -0.69,0.36 -1.01,1 -0.84,1.69 0.17,0.7 0.71,1.14 1.48,1.16 0.25,0.01 0.5,-0.05 0.83,-0.09 0.18,1.87 -0.87,2.83 -2.5,2.44 -2.07,-0.49 -3.1,-2.84 -2.07,-4.76 1.19,-2.22 3.63,-3.2 6,-2.34 z"
   id="path40" />
	<path
   class="st1"
   d="m 231.54,70.81 c 0.08,-0.25 -0.03,-0.7 -0.22,-0.89 -1.14,-1.19 -2.33,-2.34 -3.71,-3.7 -1.83,4.46 -3.57,8.67 -5.37,13.05 2.19,0.32 4.18,0.61 6.19,0.9 1.09,-3.23 2.12,-6.28 3.11,-9.36 z"
   id="path42" />
	<path
   class="st1"
   d="m 225.77,100.35 c 0.36,2.94 -0.77,4.92 -3.07,5.47 -2.05,0.49 -3.92,-0.46 -4.67,-2.37 -0.84,-2.16 0.19,-4.09 3.19,-5.66 -2.31,-0.68 -4.41,-0.37 -6.49,0 -0.28,0.05 -0.64,0.47 -0.71,0.78 -0.3,1.28 -0.55,2.57 -0.14,3.89 0.72,2.33 2.26,3.97 4.3,5.17 1.29,0.76 2.69,0.98 4.18,0.61 1.84,-0.46 3.32,-1.49 4.6,-2.85 1.65,-1.77 1.76,-1.36 0.22,-3.68 -0.34,-0.53 -0.68,-1.12 -1.41,-1.36 z"
   id="path44" />
	<path
   class="st1"
   d="m 232.09,66.37 c 0.19,0.19 0.45,0.31 0.78,0.53 1.62,-4.82 3.19,-9.52 4.8,-14.29 -1.26,-0.59 -2.39,-1.12 -3.57,-1.66 -0.19,0.34 -0.33,0.55 -0.43,0.78 -0.62,1.45 -1.22,2.9 -1.83,4.35 -0.85,2.04 -1.68,4.09 -2.58,6.11 -0.33,0.74 -0.22,1.24 0.37,1.78 0.86,0.75 1.64,1.6 2.46,2.4 z"
   id="path46" />
	<path
   class="st1"
   d="m 239.85,46.17 c 1.77,-5.15 3.62,-10.27 4.92,-15.57 0.25,-1.02 0.42,-2.06 0.62,-3.1 -0.11,-0.04 -0.22,-0.09 -0.33,-0.13 -0.82,0.63 -1.22,1.59 -1.63,2.48 -2.65,5.81 -5.26,11.63 -7.88,17.45 -0.1,0.22 -0.15,0.47 -0.26,0.8 1.11,0.52 2.16,1.02 3.34,1.57 0.45,-1.26 0.84,-2.38 1.22,-3.5 z"
   id="path48" />
	<path
   class="st1"
   d="m 225.03,90.45 c 0.79,-2.38 1.57,-4.75 2.42,-7.3 -2.26,-0.34 -4.3,-0.64 -6.4,-0.96 -1.2,2.93 -2.36,5.73 -3.54,8.6 1.39,-0.22 2.58,-0.52 3.79,-0.58 1.21,-0.04 2.43,0.15 3.73,0.24 z"
   id="path50" />
	<path
   class="st1"
   d="m 229.98,95.6 c -0.8,-0.36 -1.61,-0.49 -2.48,-0.23 -1.06,0.32 -1.99,0.01 -2.56,-0.91 -0.52,-0.84 -1.26,-1.12 -2.13,-1.19 -0.72,-0.06 -1.46,-0.09 -2.17,0.01 -1.28,0.19 -2.5,0.59 -3.68,1.69 6.74,-0.44 11.38,2.17 13.8,8.33 1.03,0 2,0 3.05,0 0.13,-0.53 0.15,-0.98 0.34,-1.35 0.42,-0.81 0.27,-1.59 -0.08,-2.34 -0.85,-1.84 -2.23,-3.18 -4.09,-4.01 z"
   id="path52" />
	<path
   class="st1"
   d="m 131.34,117 c 0.36,0.1 0.72,0.24 1.09,0.3 2.21,0.37 4.43,0.7 6.64,1.09 0.72,0.13 1.2,-0.18 1.82,-0.75 -3.26,-0.24 -6.33,-0.47 -9.41,-0.7 -0.05,0.02 -0.1,0.04 -0.14,0.06 z"
   id="path54" />
</g></g>
</svg>
