<?xml version="1.0" encoding="UTF-8"?>
<svg fill="none" version="1.1" viewBox="0 0 497 280" xmlns="http://www.w3.org/2000/svg"><mask id="a" x="50" y="0" width="246" height="95" mask-type="alpha" maskUnits="userSpaceOnUse"><path d="m97.8 0a47 47 0 1 0 37.6 75.4 47 47 0 0 0 75.3 0 47 47 0 0 0 84.6-28.3 47 47 0 0 0-84.6-28.3 47 47 0 0 0-75.3 0 47 47 0 0 0-37.6-18.8zm-28.2 47.1a28.2 28.2 0 1 0 56.5 0 28.2 28.2 0 0 0-56.5 0zm150 1.5a50.7 50.7 0 0 0 0-3 28.2 28.2 0 1 1 0 3zm-18.8-3a28.2 28.2 0 1 0-56.4 3 28.2 28.2 0 0 0 56.4-3z" clip-rule="evenodd" fill="#1e961b" fill-rule="evenodd"/></mask><g transform="matrix(1.44 0 0 1.44 -.947 .096)"><g mask="url(#a)"><g filter="url(#b)"><path d="m69.6 47.1a28.2 28.2 0 1 0 56.5 0 28.2 28.2 0 0 0-56.5 0zm28.2-47.1a47 47 0 1 0 0 94.1 47 47 0 0 0 0-94.1z" clip-rule="evenodd" fill="url(#c)" fill-rule="evenodd"/></g><path d="m220 47.1a28.2 28.2 0 1 0 56.5 0 28.2 28.2 0 0 0-56.4 0zm28.4-47.1a47 47 0 1 0 0 94.1 47 47 0 0 0 0-94.1z" clip-rule="evenodd" fill="url(#d)" fill-rule="evenodd"/><path d="m145 47.1a28.2 28.2 0 1 0 56.5 0 28.2 28.2 0 0 0-56.5 0zm28.1-47.1a47 47 0 1 0 0 94.1 47 47 0 0 0 0-94.1z" clip-rule="evenodd" fill="#1e961b" fill-rule="evenodd"/><path d="m173 75.4a28.2 28.2 0 0 1-28.2-28.4 47 47 0 1 0-94 0h18.8a28.2 28.2 0 1 1 56.4 0 47 47 0 1 0 94 0 28.2 28.2 0 1 1 56.5 0h18.8a47 47 0 1 0-94 0 28.2 28.2 0 0 1-28.3 28.4z" fill="#f2f8ff"/><path d="m173 75.4a28.2 28.2 0 0 1-28.2-28.4 47 47 0 1 0-94 0h18.8a28.2 28.2 0 1 1 56.4 0 47 47 0 1 0 94 0 28.2 28.2 0 1 1 56.5 0h18.8a47 47 0 1 0-94 0 28.2 28.2 0 0 1-28.3 28.4z" fill="#2ed02a"/></g><path d="m4.5 159c-2.4 0-4.4 2.1-3.7 4.4 2.7 8.8 11.4 14.2 23.7 14.2 14.6 0 24-7.5 24-19.6 0-9.3-5.3-14.7-19-17.7l-7.1-1.6c-9-2-12.4-5.4-12.4-10.6 0-6.7 6.3-10.6 14.4-10.6 7 0 12 2.9 14 7.8 0.8 2 2.5 3.7 4.6 3.7 2.4 0 4.4-2 3.8-4.3-2.4-8.7-11-14.6-22.2-14.6-13.5 0-23 7.6-23 18.4 0 9.2 5.7 15.2 18.7 18l7.3 1.6c9 2 12.6 5.6 12.6 11.1 0 6.4-6.4 11-15.3 11-7.6 0-13.4-2.8-15.7-7.7-1-1.9-2.6-3.5-4.7-3.5z" fill="#0974d7"/><path d="m4.5 159c-2.4 0-4.4 2.1-3.7 4.4 2.7 8.8 11.4 14.2 23.7 14.2 14.6 0 24-7.5 24-19.6 0-9.3-5.3-14.7-19-17.7l-7.1-1.6c-9-2-12.4-5.4-12.4-10.6 0-6.7 6.3-10.6 14.4-10.6 7 0 12 2.9 14 7.8 0.8 2 2.5 3.7 4.6 3.7 2.4 0 4.4-2 3.8-4.3-2.4-8.7-11-14.6-22.2-14.6-13.5 0-23 7.6-23 18.4 0 9.2 5.7 15.2 18.7 18l7.3 1.6c9 2 12.6 5.6 12.6 11.1 0 6.4-6.4 11-15.3 11-7.6 0-13.4-2.8-15.7-7.7-1-1.9-2.6-3.5-4.7-3.5z" fill="#f2f8ff"/><path d="m4.5 159c-2.4 0-4.4 2.1-3.7 4.4 2.7 8.8 11.4 14.2 23.7 14.2 14.6 0 24-7.5 24-19.6 0-9.3-5.3-14.7-19-17.7l-7.1-1.6c-9-2-12.4-5.4-12.4-10.6 0-6.7 6.3-10.6 14.4-10.6 7 0 12 2.9 14 7.8 0.8 2 2.5 3.7 4.6 3.7 2.4 0 4.4-2 3.8-4.3-2.4-8.7-11-14.6-22.2-14.6-13.5 0-23 7.6-23 18.4 0 9.2 5.7 15.2 18.7 18l7.3 1.6c9 2 12.6 5.6 12.6 11.1 0 6.4-6.4 11-15.3 11-7.6 0-13.4-2.8-15.7-7.7-1-1.9-2.6-3.5-4.7-3.5z" fill="#29343d"/><path d="m75.7 136c7.4 0 12.3 5.6 12.5 13.5h-25.5c0.5-7.9 5.6-13.5 13-13.5zm15.3 27.6c-1.8 0-3.3 1.2-4.3 2.6-2 3-5.7 4.8-10.3 4.8-8.5 0-13.8-6-13.8-15v-0.4h33.7v-3c0-14.2-7.8-23.5-20.5-23.5-13 0-21.2 10-21.2 24.6 0 14.8 8.1 24.2 21.6 24.2 8.3 0 15-4 18-9.9 1.2-2.2-0.7-4.4-3.2-4.4z" fill="#0974d7"/><path d="m75.7 136c7.4 0 12.3 5.6 12.5 13.5h-25.5c0.5-7.9 5.6-13.5 13-13.5zm15.3 27.6c-1.8 0-3.3 1.2-4.3 2.6-2 3-5.7 4.8-10.3 4.8-8.5 0-13.8-6-13.8-15v-0.4h33.7v-3c0-14.2-7.8-23.5-20.5-23.5-13 0-21.2 10-21.2 24.6 0 14.8 8.1 24.2 21.6 24.2 8.3 0 15-4 18-9.9 1.2-2.2-0.7-4.4-3.2-4.4z" fill="#f2f8ff"/><path d="m75.7 136c7.4 0 12.3 5.6 12.5 13.5h-25.5c0.5-7.9 5.6-13.5 13-13.5zm15.3 27.6c-1.8 0-3.3 1.2-4.3 2.6-2 3-5.7 4.8-10.3 4.8-8.5 0-13.8-6-13.8-15v-0.4h33.7v-3c0-14.2-7.8-23.5-20.5-23.5-13 0-21.2 10-21.2 24.6 0 14.8 8.1 24.2 21.6 24.2 8.3 0 15-4 18-9.9 1.2-2.2-0.7-4.4-3.2-4.4z" fill="#29343d"/><path d="m104 173a4 4 0 1 0 7.8 0v-25.6c0-6.5 4.6-11.4 10.8-11.4 5.8 0 9.6 3.7 9.6 9.4v27.6a4 4 0 1 0 7.9 0v-26c0-6.4 4.4-11 10.6-11s9.7 3.8 9.7 10.2v26.8a4 4 0 1 0 7.9 0v-28.6c0-9.3-6-15.4-15.3-15.4-6.6 0-12.1 3.4-14.7 9h-0.2c-2-5.7-6.8-9-13.2-9a14 14 0 0 0-13.3 8.4h-0.2v-3.8a3.7 3.7 0 0 0-7.4 0z" fill="#0974d7"/><path d="m104 173a4 4 0 1 0 7.8 0v-25.6c0-6.5 4.6-11.4 10.8-11.4 5.8 0 9.6 3.7 9.6 9.4v27.6a4 4 0 1 0 7.9 0v-26c0-6.4 4.4-11 10.6-11s9.7 3.8 9.7 10.2v26.8a4 4 0 1 0 7.9 0v-28.6c0-9.3-6-15.4-15.3-15.4-6.6 0-12.1 3.4-14.7 9h-0.2c-2-5.7-6.8-9-13.2-9a14 14 0 0 0-13.3 8.4h-0.2v-3.8a3.7 3.7 0 0 0-7.4 0z" fill="#f2f8ff"/><path d="m104 173a4 4 0 1 0 7.8 0v-25.6c0-6.5 4.6-11.4 10.8-11.4 5.8 0 9.6 3.7 9.6 9.4v27.6a4 4 0 1 0 7.9 0v-26c0-6.4 4.4-11 10.6-11s9.7 3.8 9.7 10.2v26.8a4 4 0 1 0 7.9 0v-28.6c0-9.3-6-15.4-15.3-15.4-6.6 0-12.1 3.4-14.7 9h-0.2c-2-5.7-6.8-9-13.2-9a14 14 0 0 0-13.3 8.4h-0.2v-3.8a3.7 3.7 0 0 0-7.4 0z" fill="#29343d"/><path d="m198 170c-8 0-13.3-6.5-13.3-17 0-10.6 5.2-17.3 13.3-17.3 8.2 0 13.7 6.9 13.7 17.2 0 10.4-5.5 17.2-13.7 17.2zm0.3 24.4c13 0 21.2-7.5 21.2-18.7v-42.4a3.75 3.75 0 0 0-7.5 0v4.2h-0.1a17 17 0 0 0-15.3-8.8c-12.1 0-20 9.5-20 24.2 0 14.6 7.9 24.1 19.8 24.1a17 17 0 0 0 15-8.5h0.3v7.5c0 7-5 11.7-13 11.7-4.7 0-8.5-1.7-10.7-4.5-1.1-1.5-2.7-2.7-4.5-2.7-2.6 0-4.7 2.5-3.3 4.8 3.1 5.4 10 9 18.1 9z" fill="#0974d7"/><path d="m198 170c-8 0-13.3-6.5-13.3-17 0-10.6 5.2-17.3 13.3-17.3 8.2 0 13.7 6.9 13.7 17.2 0 10.4-5.5 17.2-13.7 17.2zm0.3 24.4c13 0 21.2-7.5 21.2-18.7v-42.4a3.75 3.75 0 0 0-7.5 0v4.2h-0.1a17 17 0 0 0-15.3-8.8c-12.1 0-20 9.5-20 24.2 0 14.6 7.9 24.1 19.8 24.1a17 17 0 0 0 15-8.5h0.3v7.5c0 7-5 11.7-13 11.7-4.7 0-8.5-1.7-10.7-4.5-1.1-1.5-2.7-2.7-4.5-2.7-2.6 0-4.7 2.5-3.3 4.8 3.1 5.4 10 9 18.1 9z" fill="#f2f8ff"/><path d="m198 170c-8 0-13.3-6.5-13.3-17 0-10.6 5.2-17.3 13.3-17.3 8.2 0 13.7 6.9 13.7 17.2 0 10.4-5.5 17.2-13.7 17.2zm0.3 24.4c13 0 21.2-7.5 21.2-18.7v-42.4a3.75 3.75 0 0 0-7.5 0v4.2h-0.1a17 17 0 0 0-15.3-8.8c-12.1 0-20 9.5-20 24.2 0 14.6 7.9 24.1 19.8 24.1a17 17 0 0 0 15-8.5h0.3v7.5c0 7-5 11.7-13 11.7-4.7 0-8.5-1.7-10.7-4.5-1.1-1.5-2.7-2.7-4.5-2.7-2.6 0-4.7 2.5-3.3 4.8 3.1 5.4 10 9 18.1 9z" fill="#29343d"/><path d="m230 173a4 4 0 1 0 7.8 0v-25.4c0-6.6 4-11 10.1-11 2 0 4.2-1.8 4.2-3.8v-0.5c0-1.7-1.2-3.2-2.9-3.3h-0.3c-5.5 0-9.8 3.4-11.3 8.6h-0.2v-4a3.7 3.7 0 0 0-7.4 0z" fill="#0974d7"/><path d="m230 173a4 4 0 1 0 7.8 0v-25.4c0-6.6 4-11 10.1-11 2 0 4.2-1.8 4.2-3.8v-0.5c0-1.7-1.2-3.2-2.9-3.3h-0.3c-5.5 0-9.8 3.4-11.3 8.6h-0.2v-4a3.7 3.7 0 0 0-7.4 0z" fill="#f2f8ff"/><path d="m230 173a4 4 0 1 0 7.8 0v-25.4c0-6.6 4-11 10.1-11 2 0 4.2-1.8 4.2-3.8v-0.5c0-1.7-1.2-3.2-2.9-3.3h-0.3c-5.5 0-9.8 3.4-11.3 8.6h-0.2v-4a3.7 3.7 0 0 0-7.4 0z" fill="#29343d"/><path d="m275 136c7.4 0 12.3 5.6 12.5 13.5h-25.5c0.5-7.9 5.6-13.5 13-13.5zm15.3 27.6c-1.7 0-3.2 1.2-4.3 2.6-2 3-5.7 4.8-10.3 4.8-8.5 0-13.8-6-13.8-15v-0.4h33.7v-3c0-14.2-7.8-23.5-20.5-23.5-13 0-21.2 10-21.2 24.6 0 14.8 8.1 24.2 21.6 24.2 8.3 0 15-4 18-9.9 1.2-2.2-0.7-4.4-3.2-4.4z" fill="#0974d7"/><path d="m275 136c7.4 0 12.3 5.6 12.5 13.5h-25.5c0.5-7.9 5.6-13.5 13-13.5zm15.3 27.6c-1.7 0-3.2 1.2-4.3 2.6-2 3-5.7 4.8-10.3 4.8-8.5 0-13.8-6-13.8-15v-0.4h33.7v-3c0-14.2-7.8-23.5-20.5-23.5-13 0-21.2 10-21.2 24.6 0 14.8 8.1 24.2 21.6 24.2 8.3 0 15-4 18-9.9 1.2-2.2-0.7-4.4-3.2-4.4z" fill="#f2f8ff"/><path d="m275 136c7.4 0 12.3 5.6 12.5 13.5h-25.5c0.5-7.9 5.6-13.5 13-13.5zm15.3 27.6c-1.7 0-3.2 1.2-4.3 2.6-2 3-5.7 4.8-10.3 4.8-8.5 0-13.8-6-13.8-15v-0.4h33.7v-3c0-14.2-7.8-23.5-20.5-23.5-13 0-21.2 10-21.2 24.6 0 14.8 8.1 24.2 21.6 24.2 8.3 0 15-4 18-9.9 1.2-2.2-0.7-4.4-3.2-4.4z" fill="#29343d"/><path d="m326 129a17 17 0 0 0-15.2 8.8h-0.2v-4.2a3.7 3.7 0 1 0-7.4 0v55.1a4 4 0 1 0 7.8 0v-19.4h0.2c2.8 5.2 8.2 8.5 15 8.5 11.8 0 19.9-9.6 19.9-24.4s-8.1-24.4-20.1-24.4zm-1.5 41.8c-8 0-13.5-6.9-13.5-17.4s5.4-17.4 13.5-17.4c8.3 0 13.6 6.8 13.6 17.4 0 10.7-5.3 17.4-13.6 17.4z" fill="#0974d7"/><path d="m326 129a17 17 0 0 0-15.2 8.8h-0.2v-4.2a3.7 3.7 0 1 0-7.4 0v55.1a4 4 0 1 0 7.8 0v-19.4h0.2c2.8 5.2 8.2 8.5 15 8.5 11.8 0 19.9-9.6 19.9-24.4s-8.1-24.4-20.1-24.4zm-1.5 41.8c-8 0-13.5-6.9-13.5-17.4s5.4-17.4 13.5-17.4c8.3 0 13.6 6.8 13.6 17.4 0 10.7-5.3 17.4-13.6 17.4z" fill="#f2f8ff"/><path d="m326 129a17 17 0 0 0-15.2 8.8h-0.2v-4.2a3.7 3.7 0 1 0-7.4 0v55.1a4 4 0 1 0 7.8 0v-19.4h0.2c2.8 5.2 8.2 8.5 15 8.5 11.8 0 19.9-9.6 19.9-24.4s-8.1-24.4-20.1-24.4zm-1.5 41.8c-8 0-13.5-6.9-13.5-17.4s5.4-17.4 13.5-17.4c8.3 0 13.6 6.8 13.6 17.4 0 10.7-5.3 17.4-13.6 17.4z" fill="#29343d"/></g><defs><linearGradient id="c" x1="75.6" x2="165" y1="20" y2="58.2" gradientUnits="userSpaceOnUse"><stop stop-color="#2ED02A" offset=".3"/><stop stop-color="#1E961B" offset=".6"/></linearGradient><linearGradient id="d" x1="291" x2="199" y1="28.2" y2="64.5" gradientUnits="userSpaceOnUse"><stop stop-color="#2ED02A" offset=".3"/><stop stop-color="#1E961B" offset=".8"/></linearGradient><filter id="b" x="42.8" y="-4" width="102" height="102" color-interpolation-filters="sRGB" filterUnits="userSpaceOnUse"><feFlood flood-opacity="0" result="BackgroundImageFix"/><feColorMatrix in="SourceAlpha" values="0 0 0 0 0 0 0 0 0 0 0 0 0 0 0 0 0 0 127 0"/><feOffset dx="-4"/><feGaussianBlur stdDeviation="2"/><feColorMatrix values="0 0 0 0 0 0 0 0 0 0 0 0 0 0 0 0 0 0 0.23 0"/><feBlend in2="BackgroundImageFix" result="effect1_dropShadow"/><feBlend in="SourceGraphic" in2="effect1_dropShadow" result="shape"/></filter></defs></svg>
