<?xml version="1.0" encoding="UTF-8"?>
<svg xmlns="http://www.w3.org/2000/svg" id="Layer_1" data-name="Layer 1" viewBox="0 0 64 64"><title>Icons8 RSL Colored Part 6</title><path d="M61.86,22.36,51,34,38.19,47.73A4,4,0,0,1,35.26,49H3a2,2,0,0,1-2-2V21a2,2,0,0,1,2-2H60.4A2,2,0,0,1,61.86,22.36Z" style="fill:#85cbf8;"/><path d="M61.86,22.36,51,34H1V21a2,2,0,0,1,2-2H60.4A2,2,0,0,1,61.86,22.36Z" style="fill:#9fddff;"/><path d="M11.51,43.33A13.44,13.44,0,0,1,8.64,43,11.84,11.84,0,0,1,6,42.1a1,1,0,0,1-.53-1.15l.79-3a1,1,0,0,1,1.4-.64,10.62,10.62,0,0,0,1.74.65,7.43,7.43,0,0,0,2,.26A2.36,2.36,0,0,0,12.55,38c.08,0,.15-.09.15-.35a.53.53,0,0,0-.22-.34,6,6,0,0,0-1.75-.86A10.07,10.07,0,0,1,6.9,34.12,5.07,5.07,0,0,1,5.54,30.5a5.27,5.27,0,0,1,1.9-4.34,7.56,7.56,0,0,1,4.85-1.45,12.29,12.29,0,0,1,2.86.33,9.46,9.46,0,0,1,2.37.88A1,1,0,0,1,18,27l-.67,3a1,1,0,0,1-1.41.68,8.58,8.58,0,0,0-1.65-.59,7.39,7.39,0,0,0-1.81-.22,2,2,0,0,0-.95.18s0,.06,0,.15a.6.6,0,0,0,0,.2l.07.07a2.22,2.22,0,0,0,.49.29q.44.21,1.11.48c.69.28,1.36.59,2,.9a7.92,7.92,0,0,1,1.77,1.22A4.89,4.89,0,0,1,18.17,35l3.47-9.33a1,1,0,0,1,.94-.65h4.34a1,1,0,0,1,.94.65l4,10.75V26a1,1,0,0,1,1-1h4.63a12.93,12.93,0,0,1,3,.34,7.62,7.62,0,0,1,2.55,1.1,5.49,5.49,0,0,1,1.76,2,6,6,0,0,1,.63,2.8A5.69,5.69,0,0,1,44.79,34,6,6,0,0,1,43,36a8.36,8.36,0,0,1-2.61,1.2,11.6,11.6,0,0,1-2.54.38V42a1,1,0,0,1-1,1h-8a1,1,0,0,1-1-.69l-.7-2.15-.59.2a5.61,5.61,0,0,1-3.48,0l-.79-.25-.69,2.16a1,1,0,0,1-1,.7H16.6a1,1,0,0,1-.82-.43,1,1,0,0,1-.14-.29,7.52,7.52,0,0,1-1.23.55A8.75,8.75,0,0,1,11.51,43.33Zm12.4-8.14a3.6,3.6,0,0,0,1.66,0l-.82-2.72Zm13.9-2.62a2.64,2.64,0,0,0,1.43-.41,1,1,0,0,0,.43-.92c0-.4,0-1.14-1.86-1.21Z" style="fill:#fff7f0;"/><path d="M63.15,19.8A3,3,0,0,0,60.4,18H3a3,3,0,0,0-3,3V47a3,3,0,0,0,3,3H35.26a5,5,0,0,0,3.66-1.59L62.59,23A3,3,0,0,0,63.15,19.8Zm-2,1.88L37.45,47a3,3,0,0,1-2.19,1H3a1,1,0,0,1-1-1V21a1,1,0,0,1,1-1H60.4a1,1,0,0,1,.73,1.68Z" style="fill:#8d6c9f;"/><path d="M37.51,29h-.7v4.55h.65A3.87,3.87,0,0,0,39.84,33a2,2,0,0,0,.82-1.71Q40.66,29,37.51,29Z" style="fill:#8d6c9f;"/><path d="M22.68,35.8l.09,0a4.61,4.61,0,0,0,4,0l-2-6.77Z" style="fill:#8d6c9f;"/><path d="M43.64,25.61a8.66,8.66,0,0,0-2.88-1.25A13.94,13.94,0,0,0,37.48,24H32.86a2,2,0,0,0-2,2v4.85L28.79,25.3A2,2,0,0,0,26.92,24H22.58a2,2,0,0,0-1.87,1.3l-2.82,7.57-.27-.26a8.4,8.4,0,0,0-1.09-.85,2,2,0,0,0,1.8-1.55l.67-3A2,2,0,0,0,18,25a10.47,10.47,0,0,0-2.62-1,13.27,13.27,0,0,0-3.09-.36,8.53,8.53,0,0,0-5.48,1.67A6.26,6.26,0,0,0,4.54,30.5a6,6,0,0,0,1.63,4.3,9.55,9.55,0,0,0,2.94,2,8.81,8.81,0,0,1-1-.42,2,2,0,0,0-2.81,1.29l-.79,3A2,2,0,0,0,5.52,43a12.85,12.85,0,0,0,2.91,1,14.45,14.45,0,0,0,3.08.34,9.78,9.78,0,0,0,3.24-.51l.59-.23A2,2,0,0,0,16.6,44h4.07a2,2,0,0,0,1.91-1.39L23,41.44a6.61,6.61,0,0,0,3.56,0l.39,1.2A2,2,0,0,0,28.82,44h8a2,2,0,0,0,2-2V38.53a12.08,12.08,0,0,0,1.8-.34,9.32,9.32,0,0,0,2.93-1.34,7,7,0,0,0,2.13-2.37,6.69,6.69,0,0,0,.8-3.25A7,7,0,0,0,45.72,28,6.48,6.48,0,0,0,43.64,25.61Zm.28,7.9a5,5,0,0,1-1.53,1.7,7.3,7.3,0,0,1-2.3,1,10.87,10.87,0,0,1-2.87.36h-.41V42h-8l-1-3.11-1.55.52a4.61,4.61,0,0,1-2.86,0l-1.74-.55-1,3.11H16.6L17,40.95s.19-.49-.27-.53h-.06c-.3,0-.39.19-.67.43a5.9,5.9,0,0,1-1.93,1.08,7.76,7.76,0,0,1-2.58.4A12.39,12.39,0,0,1,8.86,42,10.8,10.8,0,0,1,6.4,41.2l.79-3a11.58,11.58,0,0,0,1.9.71,8.34,8.34,0,0,0,2.29.3,3.31,3.31,0,0,0,1.66-.37,1.29,1.29,0,0,0,.65-1.22,1.44,1.44,0,0,0-.57-1.1,7.09,7.09,0,0,0-2.06-1,9.2,9.2,0,0,1-3.45-2A4.08,4.08,0,0,1,6.54,30.5a4.3,4.3,0,0,1,1.53-3.57,6.58,6.58,0,0,1,4.23-1.23,11.21,11.21,0,0,1,2.63.3,8.45,8.45,0,0,1,2.12.78l-.67,3a9.63,9.63,0,0,0-1.84-.66,8.37,8.37,0,0,0-2.06-.25,3,3,0,0,0-1.43.3,1.07,1.07,0,0,0-.54,1,1.55,1.55,0,0,0,.1.58,1.2,1.2,0,0,0,.35.46,3.22,3.22,0,0,0,.71.43q.46.22,1.16.51,1,.41,1.9.87a6.9,6.9,0,0,1,1.54,1.06,3.91,3.91,0,0,1,1,1.37c.17.43,0,1,.64,1.2l.18,0a.81.81,0,0,0,.72-.59L22.58,26h4.34l5.94,15.95V26h4.63a11.89,11.89,0,0,1,2.81.31,6.64,6.64,0,0,1,2.22,1A4.47,4.47,0,0,1,44,28.89a5,5,0,0,1,.52,2.34A4.69,4.69,0,0,1,43.91,33.51Z" style="fill:#8d6c9f;"/><path d="M7,16a1,1,0,0,0,1-1V13a1,1,0,0,0-2,0v2A1,1,0,0,0,7,16Z" style="fill:#8d6c9f;"/><path d="M2,16a1,1,0,0,0,1-1V13a1,1,0,0,0-2,0v2A1,1,0,0,0,2,16Z" style="fill:#8d6c9f;"/><path d="M22,16a1,1,0,0,0,1-1V13a1,1,0,0,0-2,0v2A1,1,0,0,0,22,16Z" style="fill:#8d6c9f;"/><path d="M27,16a1,1,0,0,0,1-1V13a1,1,0,0,0-2,0v2A1,1,0,0,0,27,16Z" style="fill:#8d6c9f;"/><path d="M32,16a1,1,0,0,0,1-1V13a1,1,0,0,0-2,0v2A1,1,0,0,0,32,16Z" style="fill:#8d6c9f;"/><path d="M37,16a1,1,0,0,0,1-1V13a1,1,0,0,0-2,0v2A1,1,0,0,0,37,16Z" style="fill:#8d6c9f;"/><path d="M42,16a1,1,0,0,0,1-1V13a1,1,0,0,0-2,0v2A1,1,0,0,0,42,16Z" style="fill:#8d6c9f;"/><path d="M47,16a1,1,0,0,0,1-1V13a1,1,0,0,0-2,0v2A1,1,0,0,0,47,16Z" style="fill:#8d6c9f;"/><path d="M52,16a1,1,0,0,0,1-1V13a1,1,0,0,0-2,0v2A1,1,0,0,0,52,16Z" style="fill:#8d6c9f;"/><path d="M57,16a1,1,0,0,0,1-1V13a1,1,0,0,0-2,0v2A1,1,0,0,0,57,16Z" style="fill:#8d6c9f;"/><path d="M62,16a1,1,0,0,0,1-1V13a1,1,0,0,0-2,0v2A1,1,0,0,0,62,16Z" style="fill:#8d6c9f;"/><path d="M12,16a1,1,0,0,0,1-1V13a1,1,0,0,0-2,0v2A1,1,0,0,0,12,16Z" style="fill:#8d6c9f;"/><path d="M17,16a1,1,0,0,0,1-1V13a1,1,0,0,0-2,0v2A1,1,0,0,0,17,16Z" style="fill:#8d6c9f;"/></svg>