<svg xmlns="http://www.w3.org/2000/svg"  viewBox="0 0 64 64" width="64px" height="64px"><path fill="#f98cb3" d="M55,57H9c-1.105,0-2-0.895-2-2V9c0-1.105,0.895-2,2-2h46c1.105,0,2,0.895,2,2v46 C57,56.105,56.105,57,55,57z"/><path fill="#ed7899" d="M54,57H10c-1.657,0-3-1.343-3-3V36c0-2.209,1.791-4,4-4h42c2.209,0,4,1.791,4,4v18 C57,55.657,55.657,57,54,57z"/><path fill="#d8688b" d="M49,51H15c-1.105,0-2-0.895-2-2V15c0-1.105,0.895-2,2-2h34c1.105,0,2,0.895,2,2v34 C51,50.105,50.105,51,49,51z"/><path fill="#8d6c9f" d="M50,12H14c-1.103,0-2,0.897-2,2v36c0,1.103,0.897,2,2,2h3c0.552,0,1-0.448,1-1s-0.448-1-1-1h-3V14 h36v36h-3c-0.552,0-1,0.448-1,1s0.448,1,1,1h3c1.103,0,2-0.897,2-2V14C52,12.897,51.103,12,50,12z"/><path fill="#8d6c9f" d="M55,6H9C7.346,6,6,7.346,6,9v46c0,1.654,1.346,3,3,3h46c1.654,0,3-1.346,3-3V9 C58,7.346,56.654,6,55,6z M56,55c0,0.551-0.449,1-1,1H9c-0.551,0-1-0.449-1-1V9c0-0.551,0.449-1,1-1h46c0.551,0,1,0.449,1,1V55z"/><path fill="#8d6c9f" d="M27 48c-.552 0-1 .448-1 1v2c0 .552.448 1 1 1s1-.448 1-1v-2C28 48.448 27.552 48 27 48zM32 48c-.552 0-1 .448-1 1v2c0 .552.448 1 1 1s1-.448 1-1v-2C33 48.448 32.552 48 32 48zM37 48c-.552 0-1 .448-1 1v2c0 .552.448 1 1 1s1-.448 1-1v-2C38 48.448 37.552 48 37 48zM42 48c-.552 0-1 .448-1 1v2c0 .552.448 1 1 1s1-.448 1-1v-2C43 48.448 42.552 48 42 48zM22 48c-.552 0-1 .448-1 1v2c0 .552.448 1 1 1s1-.448 1-1v-2C23 48.448 22.552 48 22 48z"/><path fill="#f9efde" d="M40 40c-1.103 0-2-.897-2-2V25c0-.552-.448-1-1-1s-1 .448-1 1v13c0 2.206 1.794 4 4 4 .552 0 1-.448 1-1S40.552 40 40 40zM29 30h-5v-6h7c.552 0 1-.448 1-1s-.448-1-1-1h-8c-.552 0-1 .448-1 1v18c0 .552.448 1 1 1s1-.448 1-1v-9h5c.552 0 1-.448 1-1S29.552 30 29 30z"/></svg>