<svg xmlns="http://www.w3.org/2000/svg" width="64" height="64"><path fill="#7bbeeb" d="M30.499 4.454a3.15 3.15 0 013.001 0L56.499 17c.929.505 1.501 1.441 1.501 2.454v25.09c0 1.013-.572 1.95-1.501 2.456L33.5 59.546a3.15 3.15 0 01-3.001 0L7.5 47c-.928-.506-1.5-1.441-1.5-2.454v-25.09c0-1.013.572-1.95 1.501-2.456L30.499 4.454z"/><path fill="#8d6c9f" d="M31.999 60.924a4.134 4.134 0 01-1.979-.5L7.021 47.878C5.774 47.198 5 45.922 5 44.546v-25.09c0-1.377.775-2.655 2.023-3.334L30.02 3.576a4.174 4.174 0 013.96 0l22.998 12.546C58.225 16.8 59 18.077 59 19.454v25.09c0 1.377-.775 2.654-2.022 3.334L33.979 60.424a4.14 4.14 0 01-1.98.5zM30.978 5.332L7.98 17.878c-.605.329-.98.934-.98 1.578v25.09c0 .644.375 1.247.978 1.576l23 12.546c.63.344 1.413.344 2.044 0l22.999-12.546c.604-.329.979-.934.979-1.578v-25.09c0-.644-.375-1.247-.979-1.575l-23-12.547a2.151 2.151 0 00-2.043 0z"/><path fill="#ace3ff" d="M56.039 17.846l-23-12.547a2.19 2.19 0 00-2.079 0L7.962 17.845c-.616.337-1 .954-1 1.611v25.09c0 .48.208.936.559 1.279l49.068-27.514a1.914 1.914 0 00-.55-.465z"/><path fill="#85cbf8" d="M56.408 45.888c.393-.349.63-.832.63-1.344v-25.09c0-.58-.31-1.117-.803-1.468L31.443 32.152l24.965 13.736z"/><path fill="#fff" d="M31.443 32.152l17.034-9.733c-3.337-5.633-9.46-9.425-16.477-9.425-10.574 0-19.158 8.584-19.158 19.158 0 10.574 8.584 19.158 19.158 19.158 7.13 0 13.343-3.911 16.641-9.695l-17.198-9.463z"/><path fill="#8d6c9f" d="M42.17 16.931a1 1 0 01-.533-.154 18.028 18.028 0 00-3.251-1.621 1 1 0 11.707-1.871 20.054 20.054 0 013.612 1.801c.467.295.606.913.312 1.38-.191.3-.515.465-.847.465z"/><path fill="#e3f2ff" d="M12.842 32.152c0 10.574 8.584 19.158 19.158 19.158 6.716 0 12.616-3.472 16.036-8.709-1.826-1.546-4.549-1.547-6.356.115a14.234 14.234 0 01-9.679 3.78c-7.909 0-14.343-6.434-14.343-14.343 0-3.325 1.166-6.567 3.282-9.128 1.561-1.888 1.42-4.6-.212-6.342-4.776 3.483-7.886 9.111-7.886 15.469z"/><path fill="#8d6c9f" d="M32 52.311c-11.115 0-20.158-9.043-20.158-20.158S20.885 11.994 32 11.994c1.059 0 2.124.084 3.164.249a.999.999 0 01.831 1.144.994.994 0 01-1.144.831 18.352 18.352 0 00-2.852-.224c-10.013 0-18.158 8.146-18.158 18.158S21.987 50.311 32 50.311c6.157 0 11.908-3.164 15.245-8.322l-16.284-8.96a1 1 0 01-.014-1.744l16.127-9.216a18.303 18.303 0 00-2.644-3.125.999.999 0 111.373-1.453 20.33 20.33 0 013.533 4.419.997.997 0 01-.365 1.378l-15.485 8.849 15.637 8.604c.234.129.407.347.48.604.072.258.038.534-.095.767C45.922 48.402 39.212 52.311 32 52.311z"/><path fill="#8d6c9f" d="M16.978 36.275a1 1 0 01-.241-1.971l1.941-.482a1 1 0 01.483 1.941l-1.941.482a.96.96 0 01-.242.03zm2.178 4.993a1 1 0 01-.539-1.843l1.686-1.076a1 1 0 011.076 1.686l-1.686 1.076a.997.997 0 01-.537.157zm3.633 4.061a.998.998 0 01-.782-1.622l1.245-1.565a1 1 0 111.565 1.244l-1.245 1.565a.996.996 0 01-.783.378zm4.865 2.55a1.001 1.001 0 01-.959-1.285l.569-1.917a.999.999 0 111.917.57l-.569 1.917a1 1 0 01-.958.715z"/></svg>