<svg xmlns="http://www.w3.org/2000/svg" viewBox="0 0 64 64" width="64px" height="64px"><path fill="#7bbeeb" d="M30.499,4.454c0.929-0.507,2.073-0.507,3.001,0C38.091,6.958,51.906,14.495,56.499,17 C57.428,17.505,58,18.441,58,19.454c0,5.008,0,20.082,0,25.09c0,1.013-0.572,1.95-1.501,2.456 C51.908,49.505,38.092,57.042,33.5,59.546c-0.929,0.507-2.073,0.507-3.001,0C25.908,57.042,12.092,49.505,7.5,47 C6.572,46.494,6,45.559,6,44.546c0-5.008,0-20.082,0-25.09c0-1.013,0.572-1.95,1.501-2.456 C12.091,14.495,25.909,6.958,30.499,4.454z"/><path fill="#8d6c9f" d="M31.999,60.924c-0.685,0-1.369-0.167-1.979-0.5L7.021,47.878C5.774,47.198,5,45.922,5,44.546v-25.09 c0-1.377,0.775-2.655,2.023-3.334L30.02,3.576c1.222-0.666,2.739-0.666,3.96,0l22.998,12.546C58.225,16.8,59,18.077,59,19.454 v25.09c0,1.377-0.775,2.654-2.022,3.334L33.979,60.424C33.368,60.757,32.684,60.924,31.999,60.924z M30.978,5.332L7.98,17.878 C7.375,18.207,7,18.812,7,19.456v25.09c0,0.644,0.375,1.247,0.978,1.576l23,12.546c0.63,0.344,1.413,0.344,2.044,0l22.999-12.546 C56.625,45.793,57,45.188,57,44.544v-25.09c0-0.644-0.375-1.247-0.979-1.575l-23-12.547C32.391,4.988,31.608,4.988,30.978,5.332 L30.978,5.332z"/><path fill="#ace3ff" d="M56.039,17.846l-23-12.547c-0.64-0.35-1.437-0.35-2.079,0L7.962,17.845 c-0.616,0.337-1,0.954-1,1.611v25.09c0,0.48,0.208,0.936,0.559,1.279l49.068-27.514C56.437,18.13,56.26,17.966,56.039,17.846z"/><path fill="#85cbf8" d="M56.408,45.888c0.393-0.349,0.63-0.832,0.63-1.344v-25.09c0-0.58-0.31-1.117-0.803-1.468 L31.443,32.152L56.408,45.888z"/><path fill="#fff" d="M31.443,32.152l17.034-9.733c-3.337-5.633-9.46-9.425-16.477-9.425 c-10.574,0-19.158,8.584-19.158,19.158c0,10.574,8.584,19.158,19.158,19.158c7.13,0,13.343-3.911,16.641-9.695L31.443,32.152z"/><path fill="#8d6c9f" d="M42.17,16.931c-0.183,0-0.367-0.05-0.533-0.154c-1.026-0.648-2.12-1.194-3.251-1.621 c-0.517-0.195-0.777-0.772-0.582-1.289s0.772-0.776,1.289-0.582c1.257,0.475,2.472,1.081,3.612,1.801 c0.467,0.295,0.606,0.913,0.312,1.38C42.826,16.766,42.502,16.931,42.17,16.931z"/><path fill="#e3f2ff" d="M12.842,32.152c0,10.574,8.584,19.158,19.158,19.158c6.716,0,12.616-3.472,16.036-8.709 c-1.826-1.546-4.549-1.547-6.356,0.115c-0.607,0.56-1.27,1.071-1.964,1.519c-2.3,1.479-4.968,2.261-7.715,2.261 c-7.909,0-14.343-6.434-14.343-14.343c0-3.325,1.166-6.567,3.282-9.128c1.561-1.888,1.42-4.6-0.212-6.342 C15.952,20.166,12.842,25.794,12.842,32.152z"/><path fill="#8d6c9f" d="M32,52.311c-11.115,0-20.158-9.043-20.158-20.158S20.885,11.994,32,11.994 c1.059,0,2.124,0.084,3.164,0.249c0.546,0.086,0.918,0.599,0.831,1.144c-0.086,0.546-0.596,0.923-1.144,0.831 c-0.938-0.148-1.897-0.224-2.852-0.224c-10.013,0-18.158,8.146-18.158,18.158S21.987,50.311,32,50.311 c6.157,0,11.908-3.164,15.245-8.322l-16.284-8.96c-0.317-0.174-0.515-0.506-0.518-0.868c-0.003-0.361,0.19-0.696,0.504-0.876 l16.127-9.216c-0.761-1.136-1.647-2.184-2.644-3.125c-0.401-0.379-0.42-1.012-0.04-1.413c0.378-0.401,1.011-0.42,1.413-0.04 c1.379,1.302,2.567,2.789,3.533,4.419c0.137,0.23,0.175,0.506,0.106,0.766c-0.068,0.259-0.238,0.479-0.471,0.612l-15.485,8.849 l15.637,8.604c0.234,0.129,0.407,0.347,0.48,0.604c0.072,0.258,0.038,0.534-0.095,0.767C45.922,48.402,39.212,52.311,32,52.311z"/><g><path fill="#8d6c9f" d="M16.978 36.275c-.448 0-.856-.304-.97-.759-.133-.536.193-1.078.729-1.212l1.941-.482c.535-.13 1.078.193 1.212.729.133.536-.193 1.078-.729 1.212l-1.941.482C17.139 36.266 17.058 36.275 16.978 36.275zM19.156 41.268c-.33 0-.653-.163-.844-.462-.297-.466-.161-1.084.305-1.381l1.686-1.076c.466-.297 1.085-.16 1.381.305.297.466.161 1.084-.305 1.381l-1.686 1.076C19.527 41.217 19.34 41.268 19.156 41.268zM22.789 45.329c-.218 0-.438-.071-.622-.217-.432-.344-.504-.974-.16-1.405l1.245-1.565c.343-.434.973-.503 1.405-.161.432.344.504.974.16 1.405l-1.245 1.565C23.375 45.2 23.083 45.329 22.789 45.329zM27.654 47.879c-.094 0-.19-.013-.285-.041-.529-.157-.831-.714-.674-1.244l.569-1.917c.157-.528.714-.834 1.243-.674.529.157.831.714.674 1.244l-.569 1.917C28.483 47.598 28.085 47.879 27.654 47.879z"/></g></svg>