<svg id="logo" xmlns="http://www.w3.org/2000/svg" viewBox="0 0 24 24"><defs><style>.cls-1{fill:#2e3032;}</style></defs><title>cobol</title><path class="cls-1" d="M5.92,12.67a1.52,1.52,0,0,1-.51,1.09,1.77,1.77,0,0,1-1.21.4,1.63,1.63,0,0,1-1.3-.56,2.3,2.3,0,0,1-.47-1.52v-.26a2.72,2.72,0,0,1,.22-1.09A1.67,1.67,0,0,1,3.27,10a1.75,1.75,0,0,1,.94-.25,1.72,1.72,0,0,1,1.19.4,1.61,1.61,0,0,1,.53,1.11H5.05a.93.93,0,0,0-.23-.6.84.84,0,0,0-.61-.19.75.75,0,0,0-.66.32,1.86,1.86,0,0,0-.22,1v.32a1.86,1.86,0,0,0,.21,1,.73.73,0,0,0,.66.32.84.84,0,0,0,.61-.18A.83.83,0,0,0,5,12.67ZM10,12.05a2.48,2.48,0,0,1-.22,1.11,1.77,1.77,0,0,1-3.19,0,2.57,2.57,0,0,1-.23-1.09v-.21a2.53,2.53,0,0,1,.23-1.12A1.68,1.68,0,0,1,7.24,10a1.7,1.7,0,0,1,.95-.26,1.66,1.66,0,0,1,1,.26,1.64,1.64,0,0,1,.65.73A2.83,2.83,0,0,1,10,11.86Zm-.89-.19a1.81,1.81,0,0,0-.24-1,.78.78,0,0,0-.69-.35.79.79,0,0,0-.68.34,1.81,1.81,0,0,0-.25,1v.21a1.82,1.82,0,0,0,.25,1,.84.84,0,0,0,1.37,0,1.78,1.78,0,0,0,.24-1Zm1.53,2.24V9.82h1.5a1.89,1.89,0,0,1,1.18.3,1,1,0,0,1,.41.87,1,1,0,0,1-.17.56.9.9,0,0,1-.44.35.89.89,0,0,1,.52.33,1,1,0,0,1,.18.61,1.1,1.1,0,0,1-.39.93,1.74,1.74,0,0,1-1.12.33Zm.89-1.87v1.16h.75a.72.72,0,0,0,.49-.15.49.49,0,0,0,.17-.41.53.53,0,0,0-.46-.6h-1Zm0-.62h.65c.44,0,.67-.19.67-.53a.51.51,0,0,0-.17-.42.92.92,0,0,0-.54-.13h-.61Zm6.47.44a2.62,2.62,0,0,1-.22,1.11,1.76,1.76,0,0,1-.64.74,1.92,1.92,0,0,1-1.91,0,1.74,1.74,0,0,1-.64-.73,2.43,2.43,0,0,1-.23-1.09v-.21a2.59,2.59,0,0,1,.22-1.11,1.67,1.67,0,0,1,.65-.74,1.85,1.85,0,0,1,1.9,0,1.59,1.59,0,0,1,.64.74,2.44,2.44,0,0,1,.23,1.1Zm-.89-.19a1.81,1.81,0,0,0-.24-1,.85.85,0,0,0-1.19-.19.81.81,0,0,0-.19.18,1.8,1.8,0,0,0-.24,1v.21a1.81,1.81,0,0,0,.24,1,.85.85,0,0,0,1.18.21,1,1,0,0,0,.2-.2,1.78,1.78,0,0,0,.24-1Zm2.41,1.53H21.4v.71H18.65V9.82h.88Z"/></svg>