<?xml version="1.0" encoding="iso-8859-1"?>
<!-- Generator: Adobe Illustrator 19.0.0, SVG Export Plug-In . SVG Version: 6.00 Build 0)  -->
<svg version="1.1" id="Capa_1" xmlns="http://www.w3.org/2000/svg" xmlns:xlink="http://www.w3.org/1999/xlink" x="0px" y="0px"
	 viewBox="0 0 512 512" style="enable-background:new 0 0 512 512;" xml:space="preserve">
<path style="fill:#CCEFFF;" d="M512,512H0V0h512V512z"/>
<path style="fill:#ACE3FC;" d="M512,512H256V0h256V512z"/>
<path style="fill:#57565C;" d="M482,482H30V30h452V482z"/>
<path style="fill:#3E3D42;" d="M482,482H256V30h226V482z"/>
<path style="fill:#CCEFFF;" d="M129.24,265.6c0-50.433,38.857-84.96,84-84.96c41.524,0,60.638,26.16,66.24,37.2l-25.439,17.52
	c-2.243-4.8-12.443-25.44-41.761-25.44c-23.683,0-49.44,19.413-49.44,56.64c0,31.273,20.758,57.6,49.92,57.6
	c29.338,0,40.08-21.278,42-25.92l27.121,15.6c-2.723,6.401-21.45,39.6-70.08,39.6C165.598,353.44,129.24,311.167,129.24,265.6z"/>
<g>
	<path style="fill:#ACE3FC;" d="M308.758,352v-94.56h-16.56v-24.48h16.56v-7.68c0-31.947,16.242-50.88,42-50.88
		c10.238,0,20.559,2.483,30.961,7.44l-6.48,24.24c-2.4-1.279-10.822-4.56-17.52-4.56c-11.201,0-16.801,7.522-16.801,22.56v8.88
		h30.721v24.48h-30.721V352H308.758z"/>
	<path style="fill:#ACE3FC;" d="M256,234.011l23.48-16.171c-3.12-6.149-10.44-16.985-23.48-25.382V234.011z"/>
	<path style="fill:#ACE3FC;" d="M256,298.953v42.804c16.629-10.221,24.225-24.023,25.881-27.917L256,298.953z"/>
</g>
<g>
</g>
<g>
</g>
<g>
</g>
<g>
</g>
<g>
</g>
<g>
</g>
<g>
</g>
<g>
</g>
<g>
</g>
<g>
</g>
<g>
</g>
<g>
</g>
<g>
</g>
<g>
</g>
<g>
</g>
</svg>
