<svg xmlns="http://www.w3.org/2000/svg" viewBox="0 0 16.933 16.933" height="64" width="64"><g transform="translate(-41.732 -51.36) scale(.36735)"><rect ry="6.111" rx="6.111" y="140.975" x="114.762" height="43.775" width="43.775" fill="#85cbf8" stroke="#8d6c9f" stroke-width="1.833" stroke-linecap="round"/><path d="M120.873 140.975a6.097 6.097 0 00-6.11 6.11v.41h43.773v-.41a6.097 6.097 0 00-6.11-6.11z" fill="#ace3ff" stroke-width="1.833" stroke-linecap="round"/><rect width="43.775" height="43.775" x="114.762" y="140.975" rx="6.111" ry="6.111" fill="none" stroke="#8d6c9f" stroke-width="1.833" stroke-linecap="round"/><g fill="#8d6c9f" stroke-width=".6" stroke-linecap="round"><path d="M117.149 145.788h2.017v2.793h-2.017zM121.259 145.788h2.017v2.793h-2.017zM125.366 145.788h2.017v2.793h-2.017zM129.476 145.788h2.017v2.793h-2.017zM133.586 145.788h2.017v2.793h-2.017zM137.696 145.788h2.017v2.793h-2.017zM141.806 145.788h2.017v2.793h-2.017zM145.913 145.788h2.016v2.793h-2.016zM150.023 145.788h2.016v2.793h-2.016zM154.133 145.788h2.016v2.793h-2.016z"/></g><g aria-label="C#" style="line-height:1.25" font-weight="400" font-size="21.609" font-family="Envy Code R VS" fill="#fff" stroke-width=".54"><path d="M131.269 158.684q-.539 0-1.003.2-.464.19-.802.538-.337.338-.538.792-.19.453-.19.97v6.669q0 .517.19.97.2.454.538.802.338.338.802.538.464.19 1.003.19.443 0 .833-.116.39-.126.707-.348.327-.222.56-.528.242-.306.368-.675h1.668q-.148.718-.517 1.33-.37.612-.918 1.055-.538.443-1.224.696-.686.253-1.477.253-.887 0-1.657-.327-.76-.327-1.33-.886-.57-.57-.896-1.33-.317-.76-.317-1.624v-6.669q0-.865.317-1.625.327-.76.897-1.318.57-.57 1.329-.897.77-.327 1.657-.327.79 0 1.477.253.696.253 1.234.707.538.443.908 1.055.369.612.517 1.319h-1.668q-.126-.359-.369-.665-.232-.306-.548-.528-.317-.221-.718-.348-.39-.126-.833-.126z" style="-inkscape-font-specification:'Envy Code R VS, Normal';font-variant-ligatures:normal;font-variant-caps:normal;font-variant-numeric:normal;font-variant-east-asian:normal"/><path d="M141.756 163.685l-.348 1.667h1.667l.348-1.667zm-3.334 0l.359-1.667h1.667l.707-3.334h1.667l-.707 3.334h1.667l.707-3.334h1.667l-.707 3.334h1.667l-.358 1.667h-1.668l-.348 1.667h1.667l-.358 1.667h-1.667l-.707 3.334h-1.667l.706-3.334h-1.667l-.707 3.334h-1.667l.707-3.334h-1.667l.359-1.667h1.667l.348-1.667z" style="-inkscape-font-specification:'Envy Code R VS, Bold';font-variant-ligatures:normal;font-variant-caps:normal;font-variant-numeric:normal;font-variant-east-asian:normal" font-weight="700"/></g></g></svg>