<svg xmlns="http://www.w3.org/2000/svg"  viewBox="0 0 64 64" width="64px" height="64px"><path fill="#7bbeeb" d="M5.015,7.244l5.466,45.246c0.194,1.603,1.337,2.935,2.9,3.379l17.535,4.977 c0.709,0.201,1.46,0.206,2.172,0.013l18.442-4.996c1.614-0.437,2.789-1.817,2.955-3.471l4.549-45.187C59.153,6.024,58.22,5,57.025,5 H7.019C5.809,5,4.87,6.051,5.015,7.244z"/><path fill="#ace3ff" d="M57.025,5H32v56c0.366,0.002,0.732-0.045,1.088-0.141l18.442-4.996 c1.614-0.437,2.789-1.817,2.955-3.471l4.549-45.187C59.153,6.024,58.22,5,57.025,5z"/><path fill="#8d6c9f" d="M32.025,62c-0.465,0-0.931-0.064-1.383-0.192l-17.535-4.977c-1.955-0.555-3.376-2.211-3.62-4.221 L4.021,7.364c-0.103-0.85,0.165-1.705,0.733-2.347C5.328,4.371,6.153,4,7.02,4h50.006c0.854,0,1.672,0.362,2.244,0.995 c0.567,0.628,0.845,1.47,0.76,2.311L55.48,52.493c-0.208,2.052-1.69,3.794-3.69,4.334l-18.44,4.996 C32.916,61.941,32.471,62,32.025,62z M7.02,6C6.721,6,6.448,6.122,6.252,6.344C6.06,6.561,5.973,6.838,6.008,7.124l0,0l5.466,45.246 c0.146,1.207,1.002,2.203,2.18,2.537l17.536,4.977c0.535,0.151,1.1,0.155,1.637,0.01l18.441-4.996 c1.205-0.326,2.099-1.373,2.223-2.605l4.549-45.188c0.028-0.283-0.062-0.556-0.253-0.769C57.59,6.119,57.319,6,57.025,6H7.02z"/><path fill="#8d6c9f" d="M7 12c-.553 0-1-.447-1-1V9c0-.553.447-1 1-1s1 .447 1 1v2C8 11.553 7.553 12 7 12zM12 12c-.553 0-1-.447-1-1V9c0-.553.447-1 1-1s1 .447 1 1v2C13 11.553 12.553 12 12 12zM17 12c-.553 0-1-.447-1-1V9c0-.553.447-1 1-1s1 .447 1 1v2C18 11.553 17.553 12 17 12zM22 12c-.553 0-1-.447-1-1V9c0-.553.447-1 1-1s1 .447 1 1v2C23 11.553 22.553 12 22 12zM27 12c-.553 0-1-.447-1-1V9c0-.553.447-1 1-1s1 .447 1 1v2C28 11.553 27.553 12 27 12zM32 12c-.553 0-1-.447-1-1V9c0-.553.447-1 1-1s1 .447 1 1v2C33 11.553 32.553 12 32 12zM37 12c-.553 0-1-.447-1-1V9c0-.553.447-1 1-1s1 .447 1 1v2C38 11.553 37.553 12 37 12zM42 12c-.553 0-1-.447-1-1V9c0-.553.447-1 1-1s1 .447 1 1v2C43 11.553 42.553 12 42 12zM47 12c-.553 0-1-.447-1-1V9c0-.553.447-1 1-1s1 .447 1 1v2C48 11.553 47.553 12 47 12zM52 12c-.553 0-1-.447-1-1V9c0-.553.447-1 1-1s1 .447 1 1v2C53 11.553 52.553 12 52 12zM57 12c-.553 0-1-.447-1-1V9c0-.553.447-1 1-1s1 .447 1 1v2C58 11.553 57.553 12 57 12zM39.999 54.806c-.44 0-.844-.293-.964-.738-.145-.533.17-1.082.703-1.227l2-.542c.534-.146 1.083.17 1.227.703.145.533-.17 1.082-.703 1.227l-2 .542C40.174 54.795 40.086 54.806 39.999 54.806zM32.024 57.003l-5.298-1.504c-.531-.15-.84-.704-.688-1.235.15-.531.701-.842 1.235-.688l4.763 1.352 3.702-1.002c.534-.148 1.083.17 1.227.703.145.533-.17 1.083-.703 1.227L32.024 57.003z"/><path fill="#fff8f8" d="M15.5 30l1.238 2.262L19 33.5l-2.262 1.238L15.5 37l-1.238-2.262L12 33.5l2.262-1.238L15.5 30zM47.502 47l.876 1.61L50 49.502l-1.622.876L47.502 52l-.892-1.622L45 49.502l1.61-.892L47.502 47zM52.504 23l.531.962L54 24.498l-.966.529L52.504 26l-.538-.973L51 24.498l.966-.536L52.504 23z"/><path fill="#faefde" d="M47.018,17H17c-0.614,0-1.083,0.548-0.987,1.155L16.776,23h24.598l-0.709,6H25v6h14.956l-0.901,7.625 l-6.961,2.122l-6.147-2.082l-0.444-2.821C25.426,39.358,25.007,39,24.515,39h-4.049c-0.614,0-1.083,0.549-0.988,1.156l1.014,6.439 c0.057,0.362,0.31,0.663,0.658,0.78l10.553,3.574C31.804,50.983,31.908,51,32.013,51c0.095,0,0.19-0.014,0.282-0.042l11.643-3.548 c0.374-0.114,0.646-0.439,0.691-0.827l2.891-24.465l0.475-4.019C48.064,17.514,47.607,17,47.018,17z"/><path fill="#8d6c9f" d="M32.014,52c-0.211,0-0.421-0.034-0.624-0.102l-10.56-3.576c-0.701-0.236-1.209-0.838-1.325-1.57 l-1.015-6.441c-0.091-0.578,0.075-1.165,0.455-1.61c0.381-0.445,0.935-0.7,1.521-0.7h4.05c0.991,0,1.822,0.711,1.976,1.69 l0.35,2.222l5.27,1.784l6.029-1.837L38.831,36H25c-0.553,0-1-0.447-1-1v-6c0-0.553,0.447-1,1-1h14.776l0.473-4H16.775 c-0.492,0-0.911-0.358-0.988-0.845l-0.763-4.846c-0.091-0.577,0.075-1.164,0.455-1.609C15.86,16.255,16.414,16,17,16h30.019 c0.566,0,1.106,0.243,1.483,0.666c0.375,0.423,0.553,0.988,0.486,1.551l-3.365,28.482c-0.093,0.782-0.639,1.437-1.393,1.666 l-11.643,3.55C32.402,51.972,32.209,52,32.014,52z M20.466,40l1.015,6.439l10.543,3.563l11.623-3.55L47,18H17l0.63,4h23.744 c0.286,0,0.558,0.122,0.747,0.336c0.19,0.213,0.279,0.498,0.246,0.781l-0.709,6C41.599,29.621,41.172,30,40.665,30H26v4h13.956 c0.285,0,0.558,0.122,0.747,0.336c0.19,0.213,0.279,0.498,0.246,0.781l-0.9,7.625c-0.047,0.395-0.322,0.724-0.701,0.839 l-6.961,2.122c-0.201,0.062-0.415,0.059-0.612-0.009l-6.147-2.082c-0.353-0.119-0.609-0.424-0.668-0.792L24.515,40H20.466z"/></svg>