<svg xmlns="http://www.w3.org/2000/svg"  viewBox="0 0 64 64" width="64px" height="64px"><path fill="#ed7899" d="M32 4A28 28 0 1 0 32 60A28 28 0 1 0 32 4Z"/><path fill="#8d6c9f" d="M32,61C16.01,61,3,47.99,3,32S16.01,3,32,3s29,13.01,29,29S47.99,61,32,61z M32,5 C17.112,5,5,17.112,5,32s12.112,27,27,27s27-12.112,27-27S46.888,5,32,5z"/><path fill="#8d6c9f" d="M52.787 25.786c-.414 0-.802-.259-.944-.673-.182-.521.095-1.091.617-1.271l1.89-.655c.522-.185 1.092.095 1.271.617.182.521-.095 1.091-.617 1.271l-1.89.655C53.006 25.769 52.896 25.786 52.787 25.786zM53.82 30.183c-.496 0-.927-.368-.991-.873-.069-.548.317-1.049.865-1.119l1.983-.253c.552-.062 1.05.318 1.119.865.069.548-.317 1.049-.865 1.119l-1.983.253C53.905 30.18 53.862 30.183 53.82 30.183zM55.922 34.854c-.025 0-.052-.001-.078-.003l-1.993-.153c-.551-.042-.963-.523-.921-1.073.042-.552.504-.969 1.074-.921l1.993.153c.551.042.963.523.921 1.074C56.878 34.456 56.439 34.854 55.922 34.854zM55.047 39.705c-.092 0-.186-.013-.279-.04l-1.921-.559c-.53-.154-.835-.709-.681-1.239.153-.529.703-.837 1.239-.681l1.921.559c.53.154.835.709.681 1.239C55.88 39.421 55.48 39.705 55.047 39.705zM53.191 44.272c-.158 0-.319-.038-.469-.117l-1.766-.94c-.488-.26-.673-.865-.413-1.353.259-.487.866-.671 1.353-.413l1.766.94c.488.26.673.865.413 1.353C53.896 44.08 53.549 44.272 53.191 44.272zM50.437 48.359c-.226 0-.452-.076-.64-.231l-1.536-1.28c-.424-.354-.481-.984-.128-1.409.354-.423.982-.481 1.409-.128l1.536 1.28c.424.354.481.984.128 1.409C51.008 48.237 50.724 48.359 50.437 48.359z"/><g><path fill="#fff8ee" d="M20 24.83l-1.805-7.831L14 21.274 17.488 28C18.159 26.812 19.008 25.746 20 24.83zM24.702 22.075L26 13c-.168.08-5 2.497-5 2.497L21.669 24C22.572 23.162 23.59 22.498 24.702 22.075zM29.639 21.709c.538 0 1.08.054 1.623.133L37 12.014 29.94 12 27 22C27.849 21.812 28.73 21.709 29.639 21.709zM38.205 24L49 14.821 41.311 12 34 22.238C35.496 22.578 36.941 23.188 38.205 24zM17 29.851L13.175 25 11 29.418 15.943 33C16.143 31.89 16.501 30.834 17 29.851zM18.018 43L15 43.536 16.572 46 19 44.735C18.637 44.183 18.303 43.609 18.018 43zM17.074 40.02L12 39l1.276 3L18 41.913C17.615 41.304 17.309 40.67 17.074 40.02zM15.749 36.057c0-.189.023-.373.035-.559L11.365 33 11 36.406 16 38C15.844 37.363 15.749 36.714 15.749 36.057z"/><path fill="#fff8ee" d="M20.87,45.607l0.436,0.339L21.379,46c0.004-0.007,0.008-0.018,0.013-0.025 c0.279-0.588,1.132-2.376,5.658-2.376c1.127,0,2.005,0.144,2.698,0.319l1.581-0.38l-2.849-6.025l-1.548,0.333l-0.933-2.113 L41,25.569l-0.049-0.066l-0.307-0.357C38.204,22.627,34.174,21,30.381,21C22.316,21,16,27.205,16,35.124 C16.001,39.099,17.765,42.911,20.87,45.607z"/><path fill="#f7a1c8" d="M31.001,43.923C30.396,43.6,28.977,43,26.723,43c-3.344,0-5.053,1.378-5.599,1.925 c-0.129,0.129-0.226,0.283-0.3,0.456L18,52c0,0,3.05-1,6-1c4.561,0,6.999,1,6.999,1L33,48.528L31.001,43.923z"/><path fill="#fff8ee" d="M26 35.977L26.918 38 45 34.204 42.65 25 26 35.977zM28 38l8.223 17c1.238-.507 4.036-1.873 4.777-4.073-.425-1.029-2.324-5.384-4.811-7.559-.645-.563-1.092-.887-1.501-1.182-.616-.446-1.198-.867-2.189-1.91C30.681 38.355 29.366 38.044 28 38z"/><path fill="#8d6c9f" d="M20.999 40.36c-.371 0-.728-.207-.9-.563C19.369 38.295 19 36.681 19 35c0-3.007 1.19-5.814 3.352-7.905.398-.383 1.031-.373 1.414.023.384.397.373 1.03-.023 1.414C21.974 30.242 21 32.54 21 35c0 1.376.302 2.696.897 3.924.241.497.034 1.095-.463 1.336C21.294 40.328 21.146 40.36 20.999 40.36zM26.107 26.786c-.39 0-.76-.229-.921-.61-.215-.509.022-1.096.531-1.311C27.075 24.291 28.517 24 30 24c.553 0 1 .447 1 1s-.447 1-1 1c-1.215 0-2.394.238-3.503.707C26.37 26.761 26.237 26.786 26.107 26.786z"/><path fill="#8d6c9f" d="M49.984,14.646c-0.062-0.35-0.306-0.641-0.64-0.763l-7.689-2.821 c-0.425-0.157-0.897-0.01-1.158,0.357l-6.46,9.047c-0.239-0.058-0.475-0.122-0.716-0.169l4.542-7.779 c0.181-0.309,0.183-0.69,0.005-1.001s-0.509-0.502-0.866-0.503L29.941,11c-0.001,0-0.001,0-0.002,0 c-0.443,0-0.834,0.292-0.959,0.718l-2.585,8.794c-0.158,0.04-0.32,0.073-0.476,0.118l1.071-7.488 c0.052-0.364-0.101-0.729-0.396-0.946c-0.298-0.218-0.688-0.256-1.022-0.099c-0.169,0.08-5.019,2.506-5.019,2.506 c-0.364,0.183-0.582,0.567-0.55,0.973l0.575,7.308l-1.408-6.109c-0.082-0.355-0.352-0.639-0.703-0.738 c-0.353-0.097-0.73,0.001-0.985,0.263l-4.195,4.275c-0.303,0.309-0.373,0.776-0.174,1.16l2.379,4.589l-1.532-1.942 c-0.212-0.271-0.56-0.41-0.89-0.375c-0.342,0.036-0.641,0.244-0.793,0.553l-2.175,4.418c-0.215,0.437-0.084,0.965,0.311,1.251 l4.662,3.379c-0.01,0.109-0.008,0.223-0.016,0.333l-3.202-1.81c-0.292-0.167-0.649-0.173-0.949-0.02 c-0.3,0.154-0.501,0.448-0.537,0.783l-0.365,3.405c-0.051,0.472,0.237,0.915,0.69,1.06l3.047,0.972l-1.546-0.311 c-0.36-0.068-0.737,0.062-0.973,0.349c-0.234,0.288-0.29,0.682-0.145,1.023l1.276,3c0.157,0.369,0.52,0.608,0.92,0.608 c0.006,0,0.013,0,0.019,0l0.878-0.016c-0.032,0.048-0.065,0.095-0.089,0.149c-0.134,0.306-0.106,0.658,0.073,0.939l1.571,2.465 C15.918,46.835,16.24,47,16.572,47c0.155,0,0.313-0.036,0.461-0.113l2.422-1.261c0.041,0.041,0.084,0.08,0.125,0.121l-2.501,5.861 c-0.154,0.361-0.082,0.778,0.183,1.068c0.265,0.289,0.674,0.396,1.049,0.274C18.34,52.94,21.252,52,24,52 c4.269,0,6.6,0.917,6.619,0.925C30.743,52.976,30.872,53,30.999,53c0.348,0,0.684-0.183,0.866-0.501l1.107-1.922l2.35,4.858 c0.172,0.355,0.528,0.564,0.9,0.564c0.127,0,0.255-0.023,0.379-0.074c1.634-0.669,4.5-2.167,5.346-4.68 c0.077-0.229,0.069-0.478-0.022-0.701c-0.529-1.281-2.458-5.64-5.078-7.931c-0.686-0.6-1.158-0.939-1.583-1.246 c-0.601-0.436-1.119-0.812-2.039-1.78c-0.627-0.663-1.208-1.147-1.768-1.519l13.748-2.886c0.268-0.056,0.5-0.219,0.644-0.45 c0.145-0.231,0.188-0.512,0.12-0.775l-2.35-9.204c-0.08-0.313-0.307-0.569-0.608-0.686c-0.3-0.115-0.64-0.081-0.911,0.098 l-0.626,0.413l-0.111-0.128c-0.32-0.33-0.666-0.644-1.033-0.944l9.318-7.923C49.919,15.353,50.047,14.996,49.984,14.646z M30.688,13.002l4.572,0.009l-4.104,7.03C30.897,20.027,30.638,20,30.381,20c-0.604,0-1.197,0.04-1.781,0.104L30.688,13.002z M24.74,14.745l-0.956,6.685c-0.433,0.198-0.854,0.413-1.263,0.648L22.05,16.09C22.713,15.758,23.81,15.21,24.74,14.745z M12.27,29.104l1.103-2.239l2.505,3.177c-0.159,0.45-0.295,0.909-0.411,1.378L12.27,29.104z M12.081,35.7l0.116-1.081l2.865,1.619 c0.011,0.14,0.009,0.281,0.023,0.42L12.081,35.7z M13.933,40.987l-0.27-0.633l2.545,0.511c0.011,0.026,0.021,0.053,0.032,0.08 L13.933,40.987z M15.222,21.457l2.409-2.455l1.357,5.888c-0.435,0.47-0.844,0.963-1.216,1.486L15.222,21.457z M16.922,44.689 l-0.274-0.431l1.378-0.245c0.018,0.024,0.041,0.046,0.059,0.07L16.922,44.689z M17,35.124C17,27.765,22.878,22,30.381,22 c3.484,0,7.162,1.466,9.395,3.697l-14.326,9.445c-0.41,0.271-0.563,0.8-0.359,1.248l0.918,2.022C26.172,38.776,26.532,39,26.918,39 c0.067,0,0.137-0.007,0.205-0.021l0.217-0.046l1.581,3.269C28.289,42.085,27.566,42,26.724,42c-3.349,0-5.252,1.271-6.076,2.005 C18.322,41.585,17.001,38.413,17,35.124z M30.538,50.798C29.419,50.479,27.205,50,24,50c-1.545,0-3.099,0.254-4.278,0.513 l2.021-4.737c0.027-0.064,0.058-0.112,0.088-0.144C22.214,45.249,23.698,44,26.724,44c1.55,0,2.649,0.311,3.299,0.57l0.02-0.05 l1.877,3.88L30.538,50.798z M31.773,40.964c1.048,1.104,1.692,1.571,2.329,2.033c0.381,0.274,0.813,0.586,1.429,1.123 c2.104,1.84,3.804,5.471,4.387,6.815c-0.613,1.269-2.156,2.219-3.22,2.75L29.79,39.403C30.364,39.683,31.008,40.155,31.773,40.964z M42.028,26.607l1.744,6.832l-16.275,3.417l-0.233-0.515L42.028,26.607z M38.625,22.331c-0.807-0.483-1.669-0.903-2.573-1.246 l5.63-7.884l5.365,1.969L38.625,22.331z"/></g></svg>