<svg xmlns="http://www.w3.org/2000/svg" width="64" height="64"><path fill="#85cbf8" d="M1.322 33h42.776s3.029.093 4.974-2c0 0-3.869-4.675.995-12 0 0 5.969 4 3.979 9 0 0 4.09-3.186 8.953 1 0 0-2.166 6.046-9.948 5 0 0-7.561 22.958-31.878 20.865C-3.144 52.773 1.322 33 1.322 33z"/><path fill="#7bbeeb" d="M48.067 39.846c-1.356-1.033-3.269-.759-4.328.576-3.504 4.415-9.267 9.099-18.103 9.544-.147.007-.53.009-1.012.006a3.277 3.277 0 00-3.287 2.993 1.82 1.82 0 001.777 1.976c1.279.025 2.698.026 3.089.003 11.217-.659 18.227-6.959 22.259-12.479a1.893 1.893 0 00-.395-2.619z"/><path fill="#8d6c9f" d="M43.893 42.801a.996.996 0 01-.646-.237l-1.525-1.294a1.001 1.001 0 011.294-1.526l1.525 1.294a1.001 1.001 0 01-.648 1.763zM40.166 46.457a.993.993 0 01-.777-.371l-1.259-1.554a1 1 0 111.553-1.259l1.259 1.554a1 1 0 01-.776 1.63zM35.774 49.321a1 1 0 01-.892-.546l-.907-1.783a1 1 0 011.783-.907l.907 1.783a1 1 0 01-.891 1.453zM30.86 51.172c-.445 0-.851-.299-.968-.75l-.5-1.937a1 1 0 111.936-.5l.5 1.937a1 1 0 01-.968 1.25zM25.683 51.947a1 1 0 01-.998-.949L24.584 49a1 1 0 111.997-.101l.102 1.998a1 1 0 01-.948 1.049l-.052.001z"/><path fill="#8d6c9f" d="M24.235 56c-1.019 0-2.066-.044-3.148-.138-8.257-.71-14.214-3.493-17.706-8.268C-1.438 41.003.271 33.113.346 32.78c.104-.456.509-.78.976-.78h42.776c.051.003 2.092.034 3.672-1.167-.984-1.751-2.624-6.23 1.463-12.387a.996.996 0 011.389-.277c.235.158 5.043 3.441 4.832 8.022 2.086-.649 5.117-.6 8.196 2.05.314.27.429.706.289 1.095-.024.065-2.389 6.366-10.229 5.739C52.165 38.928 44.172 56 24.235 56zM2.17 34c-.272 2.043-.624 7.71 2.838 12.43 3.138 4.278 8.605 6.781 16.251 7.439 1.012.087 1.999.128 2.952.129C45.163 54 52.032 33.899 52.102 33.686a.995.995 0 011.083-.678c5.463.732 7.812-2.342 8.575-3.721-3.882-2.871-6.968-.599-7.104-.496a1.004 1.004 0 01-1.212.001 1 1 0 01-.326-1.164c1.254-3.152-1.375-5.945-2.788-7.159-3.527 6.092-.519 9.852-.486 9.891a1 1 0 01-.038 1.318c-2.229 2.398-5.59 2.325-5.737 2.319L2.17 34z"/><circle cx="12.5" cy="41.5" r="2.5" fill="#8d6c9f"/><path fill="#85cbf8" d="M3 25h8v8H3zM11 25h8v8h-8zM19 25h8v8h-8zM27 25h8v8h-8zM11 17h8v8h-8zM19 17h8v8h-8zM27 17h8v8h-8zM27 9h8v8h-8zM35 25h8v8h-8z"/><path fill="#8d6c9f" d="M43 24h-7V9c0-.55-.45-1-1-1h-8c-.55 0-1 .45-1 1v7H11c-.55 0-1 .45-1 1v7H3c-.55 0-1 .45-1 1v8c0 .55.45 1 1 1h40c.55 0 1-.45 1-1v-8c0-.55-.45-1-1-1zm-33 8H4v-6h6v6zm8 0h-6v-6h6v6zm8 0h-6v-6h6v6zm0-8h-6v-3a1 1 0 00-2 0v3h-6v-6h14v6zm8 8h-6v-6h3c.55 0 1-.45 1-1s-.45-1-1-1h-3v-6h6v14zm0-16h-6v-6h6v6zm8 16h-6v-6h6v6z"/></svg>