<svg xmlns="http://www.w3.org/2000/svg" width="64" height="64"><path fill="#8b8e98" d="M31 3a28 28 0 100 56 28 28 0 100-56z"/><path fill="#7e8189" d="M31 54a23 23 0 1123-23 23 23 0 01-23 23z"/><path fill="#faefde" d="M36.08 43.35A11 11 0 0139 50v5.25c0 .55.23 2.13.9 2.31L31 59.18l-9-1.61c.72-.16 1-1.77 1-2.32V52c-7.79 1.69-9.4-4.3-9.4-4.3-1.28-3.23-3.11-4.1-3.11-4.1-2.54-1.73.19-1.7.19-1.7A5.89 5.89 0 0115 44.79c2.5 4.27 6.44 3.92 8 3.21.26-1.81 2.1-3.93 2.9-4.63-6.22-.71-12.76-3.11-12.76-13.84A10.83 10.83 0 0116 22a10.09 10.09 0 01.28-7.41s2.35-.75 7.7 2.87a26.61 26.61 0 0114 0c5.34-3.62 7.69-2.87 7.69-2.87A10.09 10.09 0 0146 22a10.83 10.83 0 012.87 7.51c-.01 10.78-6.55 13.15-12.79 13.84z"/><path fill="#8d6c9f" d="M31 2a29 29 0 00-9.54 56.38 1 1 0 00.55.19A29 29 0 1031 2zm-7.3 55a6.22 6.22 0 00.3-1.74v-.54V52a1 1 0 00-1.21-1c-6.72 1.46-8.17-3.38-8.23-3.58v-.11a9.44 9.44 0 00-3-4.24 5.37 5.37 0 012.56 2.2c2.64 4.53 7 4.65 9.3 3.62a1 1 0 00.58-.77 8.62 8.62 0 012.56-4 1 1 0 00-.56-1.74c-5.87-.67-11.87-2.72-11.87-12.84a9.82 9.82 0 012.62-6.84 1 1 0 00.25-1.06 8.84 8.84 0 010-6.09c.85 0 2.92.39 6.42 2.76a1 1 0 00.83.14 25.56 25.56 0 0113.48 0 1 1 0 00.83-.14c3.51-2.38 5.59-2.74 6.41-2.77a8.87 8.87 0 01.07 6.1 1 1 0 00.19 1.05 9.82 9.82 0 012.61 6.84c0 10.13-6 12.17-11.89 12.82a1 1 0 00-.54 1.75A10.2 10.2 0 0138 50v5.25a6.28 6.28 0 00.29 1.75 26.86 26.86 0 01-14.59 0zm16.5-.6a4.13 4.13 0 01-.2-1.13V50a11.66 11.66 0 00-2-5.91c5.55-.94 11.89-3.82 11.89-14.56a11.76 11.76 0 00-2.74-7.73 11.44 11.44 0 00-.48-7.56 1 1 0 00-.62-.58c-.28-.09-2.85-.76-8.18 2.74a27.61 27.61 0 00-13.66 0c-5.33-3.5-7.9-2.83-8.18-2.74a1 1 0 00-.62.58 11.42 11.42 0 00-.48 7.56 11.75 11.75 0 00-2.74 7.73c0 10.65 6.23 13.58 11.73 14.56a9.51 9.51 0 00-1.74 3.16c-1.42.4-4.34.41-6.29-2.94a6.9 6.9 0 00-5.15-3.4c-.54 0-1.9.09-2.22 1.13s.91 2 1.46 2.4l.13.07c.06 0 1.52.8 2.6 3.53.23.71 2.22 6.1 9.35 5.15v2.06a4 4 0 01-.21 1.13 27 27 0 1118.41 0z"/><path fill="#8d6c9f" d="M31 37a1 1 0 00-1 1v2a1 1 0 002 0v-2a1 1 0 00-1-1zm4.6 2.53a1 1 0 001.93-.53L37 37.08a1 1 0 00-1.93.52zm-13.85-5.01a1 1 0 00-1.37.37l-1 1.73a1 1 0 001.73 1l1-1.73a1 1 0 00-.36-1.37zm19.13 3.1a1 1 0 101.73-1l-1-1.73a1 1 0 00-1.73 1zm-14.67-1.25a1 1 0 00-1.22.71L24.47 39a1 1 0 101.93.52l.52-1.93a1 1 0 00-.71-1.22zM41.35 9.46a22.71 22.71 0 00-2.3-1 1 1 0 00-.7 1.87 21.1 21.1 0 012.1.92 1 1 0 00.45.11 1 1 0 00.45-1.89zm-6.7-2.17a23.08 23.08 0 00-15 2.72 1 1 0 00.5 1.87 1 1 0 00.49-.13 21.1 21.1 0 0113.7-2.48 1 1 0 10.32-2z"/></svg>