<?xml version="1.0" encoding="UTF-8" standalone="no"?>
<svg
   xmlns:dc="http://purl.org/dc/elements/1.1/"
   xmlns:cc="http://creativecommons.org/ns#"
   xmlns:rdf="http://www.w3.org/1999/02/22-rdf-syntax-ns#"
   xmlns:svg="http://www.w3.org/2000/svg"
   xmlns="http://www.w3.org/2000/svg"
   xmlns:sodipodi="http://sodipodi.sourceforge.net/DTD/sodipodi-0.dtd"
   xmlns:inkscape="http://www.inkscape.org/namespaces/inkscape"
   inkscape:version="1.0 (4035a4f, 2020-05-01)"
   height="64"
   width="64"
   sodipodi:docname="go.svg"
   xml:space="preserve"
   viewBox="0 0 64.000002 64.000003"
   y="0px"
   x="0px"
   id="Layer_1"
   version="1.1"><metadata
   id="metadata2753"><rdf:RDF><cc:Work
       rdf:about=""><dc:format>image/svg+xml</dc:format><dc:type
         rdf:resource="http://purl.org/dc/dcmitype/StillImage" /><dc:title></dc:title></cc:Work></rdf:RDF></metadata><defs
   id="defs2751" /><sodipodi:namedview
   inkscape:current-layer="Layer_1"
   inkscape:window-maximized="0"
   inkscape:window-y="23"
   inkscape:window-x="0"
   inkscape:cy="38.349998"
   inkscape:cx="147.58439"
   inkscape:zoom="1.3339825"
   showgrid="false"
   id="namedview2749"
   inkscape:window-height="855"
   inkscape:window-width="1440"
   inkscape:pageshadow="2"
   inkscape:pageopacity="0"
   guidetolerance="10"
   gridtolerance="10"
   objecttolerance="10"
   borderopacity="1"
   bordercolor="#666666"
   pagecolor="#ffffff" />
<style
   id="style2707"
   type="text/css">
	.st0{fill:#00ACD7;}
</style>
<g
   transform="matrix(0.29922832,0,0,0.29922832,1.2710834,20.52973)"
   id="g2746">
	<g
   id="g2715">
		<g
   id="g2713">
			<g
   id="g2711">
				<path
   id="path2709"
   d="M 15.5,23.2 C 15.1,23.2 15,23 15.2,22.7 L 17.3,20 c 0.2,-0.3 0.7,-0.5 1.1,-0.5 h 35.7 c 0.4,0 0.5,0.3 0.3,0.6 l -1.7,2.6 c -0.2,0.3 -0.7,0.6 -1,0.6 z"
   class="st0" />
			</g>
		</g>
	</g>
	<g
   id="g2723">
		<g
   id="g2721">
			<g
   id="g2719">
				<path
   id="path2717"
   d="M 0.4,32.4 C 0,32.4 -0.1,32.2 0.1,31.9 l 2.1,-2.7 c 0.2,-0.3 0.7,-0.5 1.1,-0.5 h 45.6 c 0.4,0 0.6,0.3 0.5,0.6 l -0.8,2.4 c -0.1,0.4 -0.5,0.6 -0.9,0.6 z"
   class="st0" />
			</g>
		</g>
	</g>
	<g
   id="g2731">
		<g
   id="g2729">
			<g
   id="g2727">
				<path
   id="path2725"
   d="m 24.6,41.6 c -0.4,0 -0.5,-0.3 -0.3,-0.6 l 1.4,-2.5 c 0.2,-0.3 0.6,-0.6 1,-0.6 h 20 c 0.4,0 0.6,0.3 0.6,0.7 L 47.1,41 c 0,0.4 -0.4,0.7 -0.7,0.7 z"
   class="st0" />
			</g>
		</g>
	</g>
	<g
   id="g2744">
		<g
   id="CXHf1q_3_">
			<g
   id="g2741">
				<g
   id="g2735">
					<path
   id="path2733"
   d="m 128.4,21.4 c -6.3,1.6 -10.6,2.8 -16.8,4.4 -1.5,0.4 -1.6,0.5 -2.9,-1 -1.5,-1.7 -2.6,-2.8 -4.7,-3.8 -6.3,-3.1 -12.4,-2.2 -18.1,1.5 -6.8,4.4 -10.3,10.9 -10.2,19 0.1,8 5.6,14.6 13.5,15.7 6.8,0.9 12.5,-1.5 17,-6.6 0.9,-1.1 1.7,-2.3 2.7,-3.7 -3.6,0 -8.1,0 -19.3,0 -2.1,0 -2.6,-1.3 -1.9,-3 1.3,-3.1 3.7,-8.3 5.1,-10.9 0.3,-0.6 1,-1.6 2.5,-1.6 5.1,0 23.9,0 36.4,0 -0.2,2.7 -0.2,5.4 -0.6,8.1 -1.1,7.2 -3.8,13.8 -8.2,19.6 -7.2,9.5 -16.6,15.4 -28.5,17 C 84.6,77.4 75.5,75.5 67.5,69.5 60.1,63.9 55.9,56.5 54.8,47.3 53.5,36.4 56.7,26.6 63.3,18 70.4,8.7 79.8,2.8 91.3,0.7 c 9.4,-1.7 18.4,-0.6 26.5,4.9 5.3,3.5 9.1,8.3 11.6,14.1 0.6,0.9 0.2,1.4 -1,1.7 z"
   class="st0" />
				</g>
				<g
   id="g2739">
					<path
   id="path2737"
   d="m 161.5,76.7 c -9.1,-0.2 -17.4,-2.8 -24.4,-8.8 -5.9,-5.1 -9.6,-11.6 -10.8,-19.3 -1.8,-11.3 1.3,-21.3 8.1,-30.2 7.3,-9.6 16.1,-14.6 28,-16.7 10.2,-1.8 19.8,-0.8 28.5,5.1 7.9,5.4 12.8,12.7 14.1,22.3 1.7,13.5 -2.2,24.5 -11.5,33.9 -6.6,6.7 -14.7,10.9 -24,12.8 -2.7,0.5 -5.4,0.6 -8,0.9 z M 185.3,36.3 C 185.2,35 185.2,34 185,33 183.2,23.1 174.1,17.5 164.6,19.7 c -9.3,2.1 -15.3,8 -17.5,17.4 -1.8,7.8 2,15.7 9.2,18.9 5.5,2.4 11,2.1 16.3,-0.6 7.9,-4.1 12.2,-10.5 12.7,-19.1 z"
   class="st0" />
				</g>
			</g>
		</g>
	</g>
</g>
</svg>
