<svg xmlns="http://www.w3.org/2000/svg" width="64" height="64"><path fill="#f6d397" d="M51 7H13c-3.31 0-6 2.69-6 6v38c0 3.31 2.69 6 6 6h38c3.31 0 6-2.69 6-6V13c0-3.31-2.69-6-6-6zm-5.12 45c-2.76 0-4.85-1.11-6.2-3.29l1.76-1.21c.84 1.25 2.1 2.6 4.34 2.6 2.57 0 3.72-1.59 3.72-3.17 0-2.25-1.71-3.02-3.53-3.83l-1.07-.47c-3.33-1.45-4.57-3-4.57-5.71 0-2.87 2.13-4.8 5.3-4.8 2.16 0 3.63.67 4.74 2.22l-1.69 1.11c-.8-1.03-1.77-1.5-3.05-1.5-1.77 0-3.06 1.21-3.06 2.88 0 2 1.4 2.77 3.24 3.59l1.08.47c3.87 1.7 5.11 3.15 5.11 5.99 0 3.77-3.16 5.12-6.12 5.12zm-18.61 0c-2.66 0-4.78-1.53-5.92-3.25l2.02-1.2c.95 1.21 2.19 1.84 3.63 1.84 2.24 0 3.33-1.24 3.33-3.79V32.12H33V46.3c0 4.71-3.11 5.7-5.73 5.7z"/><path fill="#f9e3ae" d="M11 7h42a4 4 0 014 4 3 3 0 01-3 3H10a3 3 0 01-3-3 4 4 0 014-4z"/><path fill="#8d6c9f" d="M51.424 58H12.577A6.585 6.585 0 016 51.423V12.577A6.585 6.585 0 0112.577 6h38.847A6.583 6.583 0 0158 12.576v38.849A6.583 6.583 0 0151.424 58zM12.577 8A4.582 4.582 0 008 12.577v38.846A4.582 4.582 0 0012.577 56h38.847A4.581 4.581 0 0056 51.424V12.576A4.581 4.581 0 0051.424 8H12.577z"/><path fill="#8d6c9f" d="M47.69 39.06l-1.07-.47c-1.88-.83-2.05-1.13-2.05-1.76 0-.55.4-.88 1.06-.88.74 0 1.26.22 1.89 1.36.13.25.36.43.63.49.27.07.56.02.79-.13l3.35-2.2c.44-.29.58-.86.32-1.32-1.53-2.75-3.75-4.03-6.98-4.03-4.23 0-7.3 2.86-7.3 6.8 0 4.43 2.92 6.3 5.76 7.54l1.07.47c2.11.94 2.34 1.24 2.34 2 0 .97-.94 1.17-1.72 1.17-1.55 0-2.3-1.05-3.18-2.52a1 1 0 00-1.42-.32l-3.38 2.31c-.41.28-.56.82-.34 1.27 1.68 3.37 4.59 5.16 8.42 5.16 4.93 0 8.12-2.8 8.12-7.12 0-4.21-2.42-6.12-6.31-7.82zM45.88 52c-2.76 0-4.85-1.11-6.2-3.29l1.76-1.21c.84 1.25 2.1 2.6 4.34 2.6 2.57 0 3.72-1.59 3.72-3.17 0-2.25-1.71-3.02-3.53-3.83l-1.07-.47c-3.33-1.45-4.57-3-4.57-5.71 0-2.87 2.13-4.8 5.3-4.8 2.16 0 3.63.67 4.74 2.22l-1.69 1.11c-.8-1.03-1.77-1.5-3.05-1.5-1.77 0-3.06 1.21-3.06 2.88 0 2 1.4 2.77 3.24 3.59l1.08.47c3.87 1.7 5.11 3.15 5.11 5.99 0 3.77-3.16 5.12-6.12 5.12z"/><path fill="#a183b5" d="M52 46.88c0 3.77-3.16 5.12-6.12 5.12-2.76 0-4.85-1.11-6.2-3.29l1.76-1.21c.84 1.25 2.1 2.6 4.34 2.6 2.57 0 3.72-1.59 3.72-3.17 0-2.25-1.71-3.02-3.53-3.83l-1.07-.47c-3.33-1.45-4.57-3-4.57-5.71 0-2.87 2.13-4.8 5.3-4.8 2.16 0 3.63.67 4.74 2.22l-1.69 1.11c-.8-1.03-1.77-1.5-3.05-1.5-1.77 0-3.06 1.21-3.06 2.88 0 2 1.4 2.77 3.24 3.59l1.08.47c3.87 1.7 5.11 3.15 5.11 5.99z"/><path fill="#8d6c9f" d="M34 30.12h-4.67c-.55 0-1 .45-1 1V45.6c0 1.79-.53 1.79-1.33 1.79-1 0-1.83-.56-2.46-1.68-.14-.24-.36-.41-.62-.48-.26-.06-.54-.02-.77.11l-3.66 2.19a1 1 0 00-.39 1.29c1.14 2.39 3.97 5.18 8.17 5.18 4.84 0 7.73-2.88 7.73-7.7V31.12c0-.55-.45-1-1-1zM33 46.3c0 4.71-3.11 5.7-5.73 5.7-2.66 0-4.78-1.53-5.92-3.25l2.02-1.2c.95 1.21 2.19 1.84 3.63 1.84 2.24 0 3.33-1.24 3.33-3.79V32.12H33V46.3z"/><path fill="#a183b5" d="M33 32.12V46.3c0 4.71-3.11 5.7-5.73 5.7-2.66 0-4.78-1.53-5.92-3.25l2.02-1.2c.95 1.21 2.19 1.84 3.63 1.84 2.24 0 3.33-1.24 3.33-3.79V32.12H33z"/><path fill="#8d6c9f" d="M17 12a1 1 0 00-1 1v2a1 1 0 002 0v-2a1 1 0 00-1-1zm-5 0a1 1 0 00-1 1v2a1 1 0 002 0v-2a1 1 0 00-1-1zm20 0a1 1 0 00-1 1v2a1 1 0 002 0v-2a1 1 0 00-1-1zm5 0a1 1 0 00-1 1v2a1 1 0 002 0v-2a1 1 0 00-1-1zm5 0a1 1 0 00-1 1v2a1 1 0 002 0v-2a1 1 0 00-1-1zm5 0a1 1 0 00-1 1v2a1 1 0 002 0v-2a1 1 0 00-1-1zm5 0a1 1 0 00-1 1v2a1 1 0 002 0v-2a1 1 0 00-1-1zm-30 0a1 1 0 00-1 1v2a1 1 0 002 0v-2a1 1 0 00-1-1zm5 0a1 1 0 00-1 1v2a1 1 0 002 0v-2a1 1 0 00-1-1z"/></svg>