<svg xmlns="http://www.w3.org/2000/svg" viewBox="0 0 64 64" width="64px" height="64px"><path fill="#f6d397" d="M51,7H13c-3.31,0-6,2.69-6,6v38c0,3.31,2.69,6,6,6h38c3.31,0,6-2.69,6-6V13C57,9.69,54.31,7,51,7z M45.88,52c-2.76,0-4.85-1.11-6.2-3.29l1.76-1.21c0.84,1.25,2.1,2.6,4.34,2.6c2.57,0,3.72-1.59,3.72-3.17	c0-2.25-1.71-3.02-3.53-3.83l-1.07-0.47c-3.33-1.45-4.57-3-4.57-5.71c0-2.87,2.13-4.8,5.3-4.8c2.16,0,3.63,0.67,4.74,2.22	l-1.69,1.11c-0.8-1.03-1.77-1.5-3.05-1.5c-1.77,0-3.06,1.21-3.06,2.88c0,2,1.4,2.77,3.24,3.59l1.08,0.47	c3.87,1.7,5.11,3.15,5.11,5.99C52,50.65,48.84,52,45.88,52z M27.27,52c-2.66,0-4.78-1.53-5.92-3.25l2.02-1.2	c0.95,1.21,2.19,1.84,3.63,1.84c2.24,0,3.33-1.24,3.33-3.79V32.12H33V46.3C33,51.01,29.89,52,27.27,52z"/><path fill="#f9e3ae" d="M11,7h42c2.209,0,4,1.791,4,4l0,0c0,1.657-1.343,3-3,3H10c-1.657,0-3-1.343-3-3l0,0	C7,8.791,8.791,7,11,7z"/><path fill="#8d6c9f" d="M51.424,58H12.577C8.951,58,6,55.049,6,51.423V12.577C6,8.951,8.951,6,12.577,6h38.847	C55.05,6,58,8.95,58,12.576v38.849C58,55.05,55.05,58,51.424,58z M12.577,8C10.053,8,8,10.053,8,12.577v38.846	C8,53.947,10.053,56,12.577,56h38.847C53.947,56,56,53.947,56,51.424V12.576C56,10.053,53.947,8,51.424,8H12.577z"/><path fill="#8d6c9f" d="M47.69,39.06l-1.07-0.47c-1.88-0.83-2.05-1.13-2.05-1.76c0-0.55,0.4-0.88,1.06-0.88	c0.74,0,1.26,0.22,1.89,1.36c0.13,0.25,0.36,0.43,0.63,0.49c0.27,0.07,0.56,0.02,0.79-0.13l3.35-2.2c0.44-0.29,0.58-0.86,0.32-1.32	c-1.53-2.75-3.75-4.03-6.98-4.03c-4.23,0-7.3,2.86-7.3,6.8c0,4.43,2.92,6.3,5.76,7.54l1.07,0.47c2.11,0.94,2.34,1.24,2.34,2	c0,0.97-0.94,1.17-1.72,1.17c-1.55,0-2.3-1.05-3.18-2.52c-0.14-0.24-0.38-0.41-0.65-0.47c-0.26-0.06-0.55,0-0.77,0.15l-3.38,2.31	c-0.41,0.28-0.56,0.82-0.34,1.27c1.68,3.37,4.59,5.16,8.42,5.16c4.93,0,8.12-2.8,8.12-7.12C54,42.67,51.58,40.76,47.69,39.06z M45.88,52c-2.76,0-4.85-1.11-6.2-3.29l1.76-1.21c0.84,1.25,2.1,2.6,4.34,2.6c2.57,0,3.72-1.59,3.72-3.17	c0-2.25-1.71-3.02-3.53-3.83l-1.07-0.47c-3.33-1.45-4.57-3-4.57-5.71c0-2.87,2.13-4.8,5.3-4.8c2.16,0,3.63,0.67,4.74,2.22	l-1.69,1.11c-0.8-1.03-1.77-1.5-3.05-1.5c-1.77,0-3.06,1.21-3.06,2.88c0,2,1.4,2.77,3.24,3.59l1.08,0.47	c3.87,1.7,5.11,3.15,5.11,5.99C52,50.65,48.84,52,45.88,52z"/><path fill="#a183b5" d="M52,46.88c0,3.77-3.16,5.12-6.12,5.12c-2.76,0-4.85-1.11-6.2-3.29l1.76-1.21	c0.84,1.25,2.1,2.6,4.34,2.6c2.57,0,3.72-1.59,3.72-3.17c0-2.25-1.71-3.02-3.53-3.83l-1.07-0.47c-3.33-1.45-4.57-3-4.57-5.71	c0-2.87,2.13-4.8,5.3-4.8c2.16,0,3.63,0.67,4.74,2.22l-1.69,1.11c-0.8-1.03-1.77-1.5-3.05-1.5c-1.77,0-3.06,1.21-3.06,2.88	c0,2,1.4,2.77,3.24,3.59l1.08,0.47C50.76,42.59,52,44.04,52,46.88z"/><path fill="#8d6c9f" d="M34,30.12h-4.67c-0.55,0-1,0.45-1,1V45.6c0,1.79-0.53,1.79-1.33,1.79c-1,0-1.83-0.56-2.46-1.68	c-0.14-0.24-0.36-0.41-0.62-0.48c-0.26-0.06-0.54-0.02-0.77,0.11l-3.66,2.19c-0.45,0.27-0.61,0.83-0.39,1.29	c1.14,2.39,3.97,5.18,8.17,5.18c4.84,0,7.73-2.88,7.73-7.7V31.12C35,30.57,34.55,30.12,34,30.12z M33,46.3c0,4.71-3.11,5.7-5.73,5.7	c-2.66,0-4.78-1.53-5.92-3.25l2.02-1.2c0.95,1.21,2.19,1.84,3.63,1.84c2.24,0,3.33-1.24,3.33-3.79V32.12H33V46.3z"/><path fill="#a183b5" d="M33,32.12V46.3c0,4.71-3.11,5.7-5.73,5.7c-2.66,0-4.78-1.53-5.92-3.25l2.02-1.2	c0.95,1.21,2.19,1.84,3.63,1.84c2.24,0,3.33-1.24,3.33-3.79V32.12H33z"/><path fill="#8d6c9f" d="M17,12c-0.552,0-1,0.448-1,1v2c0,0.552,0.448,1,1,1s1-0.448,1-1v-2C18,12.448,17.552,12,17,12z M12,12c-0.552,0-1,0.448-1,1v2c0,0.552,0.448,1,1,1s1-0.448,1-1v-2C13,12.448,12.552,12,12,12z M32,12c-0.552,0-1,0.448-1,1v2	c0,0.552,0.448,1,1,1s1-0.448,1-1v-2C33,12.448,32.552,12,32,12z M37,12c-0.552,0-1,0.448-1,1v2c0,0.552,0.448,1,1,1s1-0.448,1-1v-2	C38,12.448,37.552,12,37,12z M42,12c-0.552,0-1,0.448-1,1v2c0,0.552,0.448,1,1,1s1-0.448,1-1v-2C43,12.448,42.552,12,42,12z M47,12	c-0.552,0-1,0.448-1,1v2c0,0.552,0.448,1,1,1s1-0.448,1-1v-2C48,12.448,47.552,12,47,12z M52,12c-0.552,0-1,0.448-1,1v2	c0,0.552,0.448,1,1,1s1-0.448,1-1v-2C53,12.448,52.552,12,52,12z M22,12c-0.552,0-1,0.448-1,1v2c0,0.552,0.448,1,1,1s1-0.448,1-1v-2	C23,12.448,22.552,12,22,12z M27,12c-0.552,0-1,0.448-1,1v2c0,0.552,0.448,1,1,1s1-0.448,1-1v-2C28,12.448,27.552,12,27,12z"/></svg>