<svg xmlns="http://www.w3.org/2000/svg" width="64" height="64"><path fill="#fff7f0" d="M3.19 27.748a28 28 0 1055.62 6.504 28 28 0 10-55.62-6.504z"/><path fill="#faefde" d="M31 53a22.38 22.38 0 01-2.59-.15A22 22 0 0131 9a22.38 22.38 0 012.59.15A22 22 0 0131 53z"/><path fill="#8d6c9f" d="M53.75 13a29 29 0 10-45.5 36 28.81 28.81 0 0019.38 10.8 29.53 29.53 0 003.43.2 29 29 0 0022.69-47zm4.07 21.12a27 27 0 01-53.64-6.26A27 27 0 0130.95 4a27.39 27.39 0 013.19.19 27 27 0 0123.68 29.95z"/><path fill="#8d6c9f" d="M10 29.55l2 .23h.12a1 1 0 00.11-2l-2-.23a1 1 0 10-.23 2zm3.19 4.19a1 1 0 00-1.13-.84l-2 .29a1 1 0 00.14 2h.15l2-.29a1 1 0 00.84-1.16zm2.07-13.53a1 1 0 101.19-1.6l-1.6-1.19a1 1 0 10-1.2 1.58zM13.2 37.86l-1.84.79a1 1 0 10.79 1.84L14 39.7a1 1 0 10-.79-1.84zM11.15 24l1.86.74a1 1 0 00.74-1.86l-1.86-.74a1 1 0 00-.74 1.86zm38.32-4.46a1 1 0 00-.35 1.37 20.89 20.89 0 011.06 2 1 1 0 101.82-.8 23.06 23.06 0 00-1.16-2.23 1 1 0 00-1.37-.34zm2.05 7.33a21.1 21.1 0 01-.31 10.73 1 1 0 00.68 1.24 1 1 0 00.28 0 1 1 0 001-.72 23.1 23.1 0 00.34-11.75 1 1 0 00-1.95.45z"/><path fill="#ed7899" d="M29.81 22.6a4.92 4.92 0 00-.48 4 1 1 0 101.92-.6 3 3 0 01.29-2.4c1.41-2.45 6-4.06 7.61-4.47a1 1 0 00-.49-1.94c-.27.06-6.73 1.72-8.85 5.41zm1.73 10.51a1 1 0 001.38-.29 3.55 3.55 0 00-.3-4.53 1 1 0 10-1.51 1.31 1.56 1.56 0 01.14 2.12 1 1 0 00.29 1.39z"/><path fill="#8d6c9f" d="M43.67 44.11c.24-.68 0-1.61-1.2-2.17a1 1 0 00-1 1.75c-2 1.55-13 3.9-23.76 1.19a4.49 4.49 0 01-.87-.34c.84-.67 3.66-1.35 4.36-1a1 1 0 001.15-1.64c-1.44-1-4.9-.07-6.31.77-1.23.74-1.41 1.54-1.34 2.09.17 1.33 1.88 1.84 2.49 2a45.8 45.8 0 0011 1.29c7.99.05 14.74-1.82 15.48-3.94z"/><path fill="#8d6c9f" d="M21.39 35.94a1.66 1.66 0 00-.6 1.83c.24.76 1.11 1.36 2.39 1.79a1.91 1.91 0 00-.85 1.16 1.74 1.74 0 00.73 1.75c1.08.88 3.58 1.53 6.53 1.53A19 19 0 0037 42.57a1 1 0 00-.79-1.84c-4.88 2.09-10.34 1.21-11.68.35a5.14 5.14 0 011-.36 9.59 9.59 0 012.38-.36 1 1 0 00.15 0h1a29.89 29.89 0 008.17-1.13 1 1 0 00-.56-1.92c-6.37 1.87-12.49.85-13.8 0a5.21 5.21 0 011.25-.56 10.63 10.63 0 012.49-.46A49.7 49.7 0 0038.09 35a1 1 0 00-.51-2 44 44 0 01-10.92 1.3H26.36a28.28 28.28 0 01-5.79-.51 14.56 14.56 0 015-1 1 1 0 000-2 15.78 15.78 0 00-6.73 1.62c-1.26.78-1 1.72-.87 2 .34.73 1.62 1.23 3.42 1.53z"/><path fill="#8d6c9f" d="M39.93 31a1 1 0 10.66 1.89 2.82 2.82 0 012.84.38 1.59 1.59 0 01.57 1.62c-.32 1.38-2.21 2.69-5.07 3.51a1 1 0 00.27 2 1 1 0 00.27 0c5-1.42 6.18-3.73 6.47-5a3.59 3.59 0 00-1.14-3.52 4.82 4.82 0 00-4.87-.88z"/><path fill="#ed7899" d="M28.55 31.87a1 1 0 101.18-1.62c-3.46-2.53-4.5-4.75-3.38-7.17a13.67 13.67 0 014.2-4.33c2.61-2 5.57-4.28 4.4-8.89a1 1 0 00-1.94.49c.81 3.18-.79 4.59-3.68 6.81a15.42 15.42 0 00-4.78 5c-2.33 5.08 2.45 8.56 4 9.71z"/><path fill="#8d6c9f" d="M43.72 45.17a1 1 0 00-1.07.92c-.12 1.54-6.87 3.35-17.19 2.69a1 1 0 00-1.06.93 1 1 0 00.93 1.06c.22 0 1.89.12 4.17.12 5.59 0 14.83-.61 15.14-4.65a1 1 0 00-.92-1.07z"/></svg>