<svg xmlns="http://www.w3.org/2000/svg" viewBox="0 0 64 64" width="64px" height="64px"><path fill="#fff7f0" d="M31 3A28 28 0 1 0 31 59A28 28 0 1 0 31 3Z" transform="rotate(-83.33 31 31)"/><path fill="#faefde" d="M31,53a22.38,22.38,0,0,1-2.59-.15A22,22,0,0,1,31,9a22.38,22.38,0,0,1,2.59.15A22,22,0,0,1,31,53Z"/><path fill="#8d6c9f" d="M53.75,13A29,29,0,1,0,8.25,49,28.81,28.81,0,0,0,27.63,59.8a29.53,29.53,0,0,0,3.43.2A29,29,0,0,0,53.75,13Zm4.07,21.12A27,27,0,0,1,4.18,27.86,27,27,0,0,1,30.95,4a27.39,27.39,0,0,1,3.19.19A27,27,0,0,1,57.82,34.14Z"/><path fill="#8d6c9f" d="M10 29.55l2 .23h.12a1 1 0 0 0 .11-2l-2-.23a1 1 0 1 0-.23 2zM13.19 33.74a1 1 0 0 0-1.13-.84l-2 .29a1 1 0 0 0 .14 2h.15l2-.29A1 1 0 0 0 13.19 33.74zM15.26 20.21a1 1 0 1 0 1.19-1.6l-1.6-1.19A1 1 0 1 0 13.65 19zM13.2 37.86l-1.84.79a1 1 0 1 0 .79 1.84L14 39.7a1 1 0 1 0-.79-1.84zM11.15 24l1.86.74a1 1 0 0 0 .74-1.86l-1.86-.74A1 1 0 0 0 11.15 24zM49.47 19.54a1 1 0 0 0-.35 1.37 20.89 20.89 0 0 1 1.06 2A1 1 0 1 0 52 22.11a23.06 23.06 0 0 0-1.16-2.23A1 1 0 0 0 49.47 19.54zM51.52 26.87a21.1 21.1 0 0 1-.31 10.73 1 1 0 0 0 .68 1.24 1 1 0 0 0 .28 0 1 1 0 0 0 1-.72 23.1 23.1 0 0 0 .34-11.75 1 1 0 0 0-1.95.45z"/><path fill="#ed7899" d="M29.81 22.6a4.92 4.92 0 0 0-.48 4A1 1 0 1 0 31.25 26a3 3 0 0 1 .29-2.4c1.41-2.45 6-4.06 7.61-4.47a1 1 0 0 0-.49-1.94C38.39 17.25 31.93 18.91 29.81 22.6zM31.54 33.11a1 1 0 0 0 1.38-.29 3.55 3.55 0 0 0-.3-4.53 1 1 0 1 0-1.51 1.31 1.56 1.56 0 0 1 .14 2.12A1 1 0 0 0 31.54 33.11z"/><path fill="#8d6c9f" d="M43.67,44.11c.24-.68,0-1.61-1.2-2.17a1,1,0,0,0-1,1.75c-2,1.55-13,3.9-23.76,1.19a4.49,4.49,0,0,1-.87-.34c.84-.67,3.66-1.35,4.36-1a1,1,0,0,0,1.15-1.64c-1.44-1-4.9-.07-6.31.77-1.23.74-1.41,1.54-1.34,2.09.17,1.33,1.88,1.84,2.49,2a45.8,45.8,0,0,0,11,1.29C36.18,48.1,42.93,46.23,43.67,44.11Z"/><path fill="#8d6c9f" d="M21.39,35.94a1.66,1.66,0,0,0-.6,1.83c.24.76,1.11,1.36,2.39,1.79a1.91,1.91,0,0,0-.85,1.16,1.74,1.74,0,0,0,.73,1.75c1.08.88,3.58,1.53,6.53,1.53A19,19,0,0,0,37,42.57a1,1,0,0,0-.79-1.84c-4.88,2.09-10.34,1.21-11.68.35a5.14,5.14,0,0,1,1-.36,9.59,9.59,0,0,1,2.38-.36,1,1,0,0,0,.15,0l1,0a29.89,29.89,0,0,0,8.17-1.13,1,1,0,0,0-.56-1.92c-6.37,1.87-12.49.85-13.8,0a5.21,5.21,0,0,1,1.25-.56,10.63,10.63,0,0,1,2.49-.46h0A49.7,49.7,0,0,0,38.09,35,1,1,0,0,0,37.58,33,44,44,0,0,1,26.66,34.3l-.07,0h-.23a28.28,28.28,0,0,1-5.79-.51,14.56,14.56,0,0,1,5-1,1,1,0,0,0,0-2,15.78,15.78,0,0,0-6.73,1.62c-1.26.78-1,1.72-.87,2C18.31,35.14,19.59,35.64,21.39,35.94Z"/><path fill="#8d6c9f" d="M39.93,31a1,1,0,1,0,.66,1.89,2.82,2.82,0,0,1,2.84.38A1.59,1.59,0,0,1,44,34.89c-.32,1.38-2.21,2.69-5.07,3.51a1,1,0,0,0,.27,2,1,1,0,0,0,.27,0c5-1.42,6.18-3.73,6.47-5a3.59,3.59,0,0,0-1.14-3.52A4.82,4.82,0,0,0,39.93,31Z"/><path fill="#ed7899" d="M28.55,31.87a1,1,0,1,0,1.18-1.62c-3.46-2.53-4.5-4.75-3.38-7.17a13.67,13.67,0,0,1,4.2-4.33c2.61-2,5.57-4.28,4.4-8.89a1,1,0,0,0-1.94.49c.81,3.18-.79,4.59-3.68,6.81a15.42,15.42,0,0,0-4.78,5C22.22,27.24,27,30.72,28.55,31.87Z"/><path fill="#8d6c9f" d="M43.72,45.17a1,1,0,0,0-1.07.92c-.12,1.54-6.87,3.35-17.19,2.69a1,1,0,0,0-1.06.93,1,1,0,0,0,.93,1.06c.22,0,1.89.12,4.17.12,5.59,0,14.83-.61,15.14-4.65A1,1,0,0,0,43.72,45.17Z"/></svg>