<svg width="585.918" height="585.918" xmlns="http://www.w3.org/2000/svg">

 <g>
  <title>background</title>
  <rect fill="none" id="canvas_background" height="402" width="582" y="-1" x="-1"/>
 </g>
 <g>
  <title>Layer 1</title>
  <g id="svg_1">
   <path fill="#1d2731" id="svg_2" d="m268.35,253.019c-6.622,0.118 -11.095,0.826 -13.418,1.503l0,41.334c2.754,0.64 6.156,0.861 10.849,0.892c17.525,0.111 28.539,-8.543 28.539,-23.197c-0.001,-13.175 -9.474,-20.861 -25.97,-20.532z"/>
   <path fill="#1d2731" id="svg_3" d="m537.115,48.979l-177.39,0c-0.787,0 -1.553,0.077 -2.329,0.124l0,-49.103l-346.22,46.206l0,492.311l346.22,47.402l0,-50.583c0.776,0.052 1.542,0.114 2.329,0.114l177.39,0c20.756,0 37.627,-16.888 37.627,-37.627l0,-411.221c0,-20.743 -16.871,-37.623 -37.627,-37.623zm-439.04,266.914c0,36.175 -15.854,47.985 -40.654,46.716c-5.743,-0.294 -13.242,-1.771 -18.079,-3.822l2.742,-22.194c3.402,1.391 7.788,2.457 12.702,2.624c10.596,0.384 17.291,-4.755 17.291,-24.204l0,-78.534l25.999,-0.858l0,80.272l-0.001,0zm52.523,51.292c-14.208,-0.729 -27.969,-5.259 -34.765,-9.585l5.533,-23.858c7.392,4.267 18.867,8.708 30.909,9.139c13.163,0.473 20.21,-5.013 20.21,-13.712c0,-8.294 -6.1,-13.144 -21.323,-19.087c-20.588,-7.81 -33.723,-19.773 -33.723,-38.47c0,-21.942 17.316,-39.336 46.87,-40.355c14.52,-0.499 25.378,2.323 33.253,5.688l-6.688,24.774c-5.268,-2.515 -14.541,-6.121 -27.129,-5.874c-12.402,0.231 -18.332,6.176 -18.332,12.971c0,8.347 7.058,12.014 23.455,18.465c22.979,8.827 34.037,21.379 34.037,40.492c0,22.745 -17.104,41.209 -52.307,39.412zm163.648,-60.241c-11.707,10.325 -28.738,14.683 -48.245,14.283c-4.273,-0.089 -8.105,-0.379 -11.069,-0.867l0,50.059l-31.338,-1.563l0,-135.549c9.617,-1.953 23.352,-3.645 43.048,-4.307c20.399,-0.693 35.237,2.651 45.337,10.058c9.785,7.074 16.431,19.066 16.431,33.37c-0.001,14.305 -5.052,26.405 -14.164,34.516zm238.994,190.879c0,8.892 -7.232,16.127 -16.125,16.127l-177.39,0c-0.797,0 -1.563,-0.111 -2.329,-0.231l0,-131.446c12.072,1.669 28.859,2.646 51.969,2.646c64.21,0 92.394,-11.779 97.019,-16.746c4.631,-5.008 -1.438,-8.935 -1.438,-8.935s2.138,2.504 -0.691,5.355c-2.856,2.839 -28.908,9.967 -70.653,12.104c-28.992,1.501 -59.69,-0.977 -76.215,-4.415l0,-11.984c5.575,-1.533 10.949,-2.478 10.949,-2.478c-0.943,0.116 -5.417,0.283 -10.949,0.787l0,-58.642c9.266,4.573 28.462,7.229 57.512,6.211c50.782,-1.817 56.758,-11.381 62.059,-15.977c-29.418,8.013 -107.528,7.499 -108.09,1.606c-0.52,-5.885 24.079,-10.706 24.079,-10.706s-23.838,0.021 -35.549,4.729l0,-215.106c0.766,-0.112 1.532,-0.242 2.329,-0.242l177.39,0c8.893,0 16.125,7.236 16.125,16.126l0,411.217l-0.002,0z"/>
   <path fill="#d9b310" id="svg_4" d="m452.357,179.983c12.818,-20.874 -1.617,-41.191 -1.617,-41.191s3.212,14.982 -5.343,30.493c-8.557,15.515 -40.163,24.625 -52.452,51.363c-12.283,26.759 27.291,57.263 27.291,57.263s-14.452,-27.84 -13.922,-48.174c0.395,-14.535 33.156,-28.897 46.043,-49.754z"/>
   <path fill="#d9b310" id="svg_5" d="m474.3,193.368c0,0 -49.229,18.721 -49.229,40.115c0,21.413 13.375,28.363 15.518,35.313c2.142,6.966 -3.737,18.733 -3.737,18.733s19.264,-13.368 16.031,-28.904c-3.213,-15.519 -18.194,-20.33 -9.627,-35.843c5.721,-10.391 31.044,-29.414 31.044,-29.414z"/>
   <path fill="#1d2731" id="svg_6" d="m484.453,282.184c0,0 21.941,0 24.073,13.376c2.132,13.368 -27.811,33.157 -27.811,33.157s47.16,-9.495 42.771,-33.68c-5.343,-29.424 -39.033,-12.853 -39.033,-12.853z"/>
   <path fill="#1d2731" id="svg_7" d="m379.559,317.479c-2.104,-3.744 3.77,-5.874 3.77,-5.874c-26.783,6.436 -12.152,17.644 19.218,19.812c26.889,1.826 56.94,-8.042 56.94,-8.042l9.261,-7.481c0,0 -21.198,2.945 -37.827,4.814c-22.28,2.503 -49.215,0.524 -51.362,-3.229z"/>
   <path fill="#1d2731" id="svg_8" d="m388.692,343.186c-1.092,-2.505 1.056,-3.916 1.056,-3.916s-12.132,0.335 -12.836,6.761c-0.712,6.388 3.771,9.627 33.786,8.925c35.733,-0.852 41.69,-5.103 45.37,-8.201l8.705,-6.562c-23.356,3.03 -25.161,3.854 -38.4,4.23c-13.307,0.389 -36.625,1.234 -37.681,-1.237z"/>
   <path fill="#1d2731" id="svg_9" d="m481.418,389.191c-28.188,5.716 -113.754,2.121 -113.754,2.121s55.611,13.19 119.104,2.141c30.347,-5.279 32.121,-19.983 32.121,-19.983s-9.297,10.005 -37.471,15.721z"/>
  </g>
  <g id="svg_10"/>
  <g id="svg_11"/>
  <g id="svg_12"/>
  <g id="svg_13"/>
  <g id="svg_14"/>
  <g id="svg_15"/>
  <g id="svg_16"/>
  <g id="svg_17"/>
  <g id="svg_18"/>
  <g id="svg_19"/>
  <g id="svg_20"/>
  <g id="svg_21"/>
  <g id="svg_22"/>
  <g id="svg_23"/>
  <g id="svg_24"/>
 </g>
</svg>