<?xml version="1.0"?>
<svg xmlns="http://www.w3.org/2000/svg" id="Layer_1" data-name="Layer 1" viewBox="0 0 64 64"><title>Dusk Part 2</title><rect x="3" y="23" width="6" height="22" rx="3" ry="3" style="fill:#72caaf;"/><rect x="55" y="23" width="6" height="22" rx="3" ry="3" style="fill:#72caaf;"/><path d="M49,25H15a2,2,0,0,0-2,2V49a2,2,0,0,0,2,2h2a2,2,0,0,1,2,2v8a2,2,0,0,0,2,2h4a2,2,0,0,0,2-2V53a2,2,0,0,1,2-2h6a2,2,0,0,1,2,2v8a2,2,0,0,0,2,2h4a2,2,0,0,0,2-2V53a2,2,0,0,1,2-2h2a2,2,0,0,0,2-2V27A2,2,0,0,0,49,25Z" style="fill:#72caaf;"/><path d="M49,47H15a2,2,0,0,0-2,2h0a2,2,0,0,0,2,2h2a2,2,0,0,1,2,2v8a2,2,0,0,0,2,2h4a2,2,0,0,0,2-2V53a2,2,0,0,1,2-2h6a2,2,0,0,1,2,2v8a2,2,0,0,0,2,2h4a2,2,0,0,0,2-2V53a2,2,0,0,1,2-2h2a2,2,0,0,0,2-2h0A2,2,0,0,0,49,47Z" style="fill:#5dbc9d;"/><path d="M15,25H49a2,2,0,0,1,2,2v0a3,3,0,0,1-3,3H16a3,3,0,0,1-3-3v0A2,2,0,0,1,15,25Z" style="fill:#97e0bb;"/><path d="M32,3.42A19.27,19.27,0,0,1,51,19.29a1.11,1.11,0,0,1-.24.91,1.05,1.05,0,0,1-.82.38H14.07a1.05,1.05,0,0,1-.82-.38,1.11,1.11,0,0,1-.24-.91A19.27,19.27,0,0,1,32,3.42Z" style="fill:#72caaf;"/><circle cx="24" cy="13" r="2" style="fill:#f9dd8f;"/><circle cx="40" cy="13" r="2" style="fill:#f9dd8f;"/><path d="M22,32a1,1,0,0,0,1-1V29a1,1,0,0,0-2,0v2A1,1,0,0,0,22,32Z" style="fill:#8d6c9f;"/><path d="M27,32a1,1,0,0,0,1-1V29a1,1,0,0,0-2,0v2A1,1,0,0,0,27,32Z" style="fill:#8d6c9f;"/><path d="M32,32a1,1,0,0,0,1-1V29a1,1,0,0,0-2,0v2A1,1,0,0,0,32,32Z" style="fill:#8d6c9f;"/><path d="M37,32a1,1,0,0,0,1-1V29a1,1,0,0,0-2,0v2A1,1,0,0,0,37,32Z" style="fill:#8d6c9f;"/><path d="M43,31V29a1,1,0,0,0-2,0v2a1,1,0,0,0,2,0Z" style="fill:#8d6c9f;"/><path d="M47,28a1,1,0,0,0-1,1v2a1,1,0,0,0,2,0V29A1,1,0,0,0,47,28Z" style="fill:#8d6c9f;"/><path d="M17,32a1,1,0,0,0,1-1V29a1,1,0,0,0-2,0v2A1,1,0,0,0,17,32Z" style="fill:#8d6c9f;"/><path d="M6,22a4,4,0,0,0-4,4V42a4,4,0,0,0,8,0V26A4,4,0,0,0,6,22ZM8,42a2,2,0,0,1-4,0V26a2,2,0,0,1,4,0Z" style="fill:#8d6c9f;"/><path d="M58,22a4,4,0,0,0-4,4V42a4,4,0,0,0,8,0V26A4,4,0,0,0,58,22Zm2,20a2,2,0,0,1-4,0V26a2,2,0,0,1,4,0Z" style="fill:#8d6c9f;"/><path d="M15.29,22H48.71A3,3,0,0,0,51,20.93a3,3,0,0,0,.66-2.49,19.92,19.92,0,0,0-7-11.93l2.24-4a1,1,0,1,0-1.75-1L43,5.32a19.91,19.91,0,0,0-22,0L18.87,1.51a1,1,0,1,0-1.75,1l2.24,4a19.92,19.92,0,0,0-7,11.93A3,3,0,0,0,13,20.93,3,3,0,0,0,15.29,22ZM32,4A18,18,0,0,1,49.69,18.79a1,1,0,0,1-.22.85,1,1,0,0,1-.76.36H15.29a1,1,0,0,1-.76-.36,1,1,0,0,1-.22-.85A18,18,0,0,1,32,4Z" style="fill:#8d6c9f;"/><path d="M24,16a3,3,0,1,0-3-3A3,3,0,0,0,24,16Zm0-4.31A1.31,1.31,0,1,1,22.69,13,1.32,1.32,0,0,1,24,11.69Z" style="fill:#8d6c9f;"/><path d="M40,16a3,3,0,1,0-3-3A3,3,0,0,0,40,16Zm0-4.25A1.25,1.25,0,1,1,38.75,13,1.25,1.25,0,0,1,40,11.75Z" style="fill:#8d6c9f;"/><path d="M49,24H15a3,3,0,0,0-3,3V49a3,3,0,0,0,3,3h3v7a5,5,0,0,0,10,0V52h8v7a5,5,0,0,0,10,0V52h3a3,3,0,0,0,3-3V27A3,3,0,0,0,49,24Zm1,25a1,1,0,0,1-1,1H45a1,1,0,0,0-1,1v8a3,3,0,0,1-6,0V51a1,1,0,0,0-1-1H27a1,1,0,0,0-1,1v8a3,3,0,0,1-6,0V51a1,1,0,0,0-1-1H15a1,1,0,0,1-1-1V27a1,1,0,0,1,1-1H49a1,1,0,0,1,1,1Z" style="fill:#8d6c9f;"/><path d="M39,46H17a1,1,0,0,0,0,2H39a1,1,0,0,0,0-2Z" style="fill:#8d6c9f;"/><path d="M47,46H43a1,1,0,0,0,0,2h4a1,1,0,0,0,0-2Z" style="fill:#8d6c9f;"/></svg>
