<?xml version="1.0"?>
<svg xmlns="http://www.w3.org/2000/svg" id="Layer_1" data-name="Layer 1" viewBox="0 0 64 64"><title>Icons8 RSL Colored Part 10</title><rect x="6" y="13" width="52" height="42" rx="1" ry="1" style="fill:#efd8be;"/><path d="M10,50H54a4,4,0,0,1,4,4v1a0,0,0,0,1,0,0H6a0,0,0,0,1,0,0V54A4,4,0,0,1,10,50Z" style="fill:#cda1a7;"/><polygon points="58 13 7 13 15 7 51 7 58 13" style="fill:#faefde;"/><path d="M36,24V13.65a4,4,0,0,0-.21-1.26l-1.34-4A2,2,0,0,0,32.56,7H29.44a2,2,0,0,0-1.9,1.37l-1.34,4A4,4,0,0,0,26,13.65V24a1,1,0,0,0,1,1h8A1,1,0,0,0,36,24Z" style="fill:#ed7899;"/><path d="M12,31h8a0,0,0,0,1,0,0v4a4,4,0,0,1-4,4h0a4,4,0,0,1-4-4V31A0,0,0,0,1,12,31Z" style="fill:#85cbf8;"/><path d="M26,37H38a6,6,0,0,0-6-6h0a6,6,0,0,0-6,6h0" style="fill:#85cbf8;"/><path d="M15,48.06a1,1,0,0,0-1,1v2a1,1,0,0,0,2,0v-2A1,1,0,0,0,15,48.06Z" style="fill:#8d6c9f;"/><path d="M10,48.06a1,1,0,0,0-1,1v2a1,1,0,0,0,2,0v-2A1,1,0,0,0,10,48.06Z" style="fill:#8d6c9f;"/><path d="M20,48.06a1,1,0,0,0-1,1v2a1,1,0,0,0,2,0v-2A1,1,0,0,0,20,48.06Z" style="fill:#8d6c9f;"/><path d="M25,48.06a1,1,0,0,0-1,1v2a1,1,0,0,0,2,0v-2A1,1,0,0,0,25,48.06Z" style="fill:#8d6c9f;"/><path d="M30,48.06a1,1,0,0,0-1,1v2a1,1,0,0,0,2,0v-2A1,1,0,0,0,30,48.06Z" style="fill:#8d6c9f;"/><path d="M35,48.06a1,1,0,0,0-1,1v2a1,1,0,0,0,2,0v-2A1,1,0,0,0,35,48.06Z" style="fill:#8d6c9f;"/><path d="M40,48.06a1,1,0,0,0-1,1v2a1,1,0,0,0,2,0v-2A1,1,0,0,0,40,48.06Z" style="fill:#8d6c9f;"/><path d="M45,48.06a1,1,0,0,0-1,1v2a1,1,0,0,0,2,0v-2A1,1,0,0,0,45,48.06Z" style="fill:#8d6c9f;"/><path d="M50,48.06a1,1,0,0,0-1,1v2a1,1,0,0,0,2,0v-2A1,1,0,0,0,50,48.06Z" style="fill:#8d6c9f;"/><path d="M55,48.06a1,1,0,0,0-1,1v2a1,1,0,0,0,2,0v-2A1,1,0,0,0,55,48.06Z" style="fill:#8d6c9f;"/><path d="M52,12.06H48a1,1,0,0,0,0,2h4a1,1,0,0,0,0-2Z" style="fill:#8d6c9f;"/><path d="M57,11,51.67,7h0a5,5,0,0,0-3-1H15.33a5,5,0,0,0-3,1L7,11a5,5,0,0,0-2,4V53a3,3,0,0,0,3,3H56a3,3,0,0,0,3-3V15A5,5,0,0,0,57,11ZM32.56,8a1,1,0,0,1,1,.68l1.13,3.38.21.64a3.09,3.09,0,0,1,.15.95V24H27V13.65a3.09,3.09,0,0,1,.15-.95l.21-.64,1.13-3.38a1,1,0,0,1,1-.68Zm-19,.6a3,3,0,0,1,1.8-.6H26.62l0,0-1.34,4H8.92ZM57,53a1,1,0,0,1-1,1H8a1,1,0,0,1-1-1V15a3,3,0,0,1,.17-.94H25V24a2,2,0,0,0,2,2h8a2,2,0,0,0,2-2V14.06h7a1,1,0,0,0,0-2H36.74L35.4,8l0,0H48.67a3,3,0,0,1,1.8.6l5.33,4A3,3,0,0,1,57,15Z" style="fill:#8d6c9f;"/><path d="M20,30H12a1,1,0,0,0-1,1v4a5,5,0,0,0,4,4.9V44H14a1,1,0,0,0,0,2h4a1,1,0,0,0,0-2H17V39.9A5,5,0,0,0,21,35V31A1,1,0,0,0,20,30Zm-1,5a3,3,0,0,1-6,0V32h6Z" style="fill:#8d6c9f;"/><path d="M32,30a7,7,0,0,0-7,7,1,1,0,0,0,1,1h5v5a1,1,0,0,1-2,0,1,1,0,0,0-2,0,3,3,0,0,0,6,0V38h5a1,1,0,0,0,1-1A7,7,0,0,0,32,30Zm-4.9,6a5,5,0,0,1,9.8,0Z" style="fill:#8d6c9f;"/></svg>
