<svg viewBox="0 0 36.5 40" xmlns="http://www.w3.org/2000/svg"><switch><path d="m36.5 19.7s-.6-.8-.8-1.7c-.1-.9.4-.6.4-.6s-.2-1.3-1.1-2.4-1.9-2.4-2.3-4.1-1.2-2.8-1.8-3.4c-.6-.7-.8-2.1-1.1-2.6s-.4-3.2-2.6-4.4-6.2.1-7.4 1-2.3 3.3-3.8 4.3-2.6 1-3.8 3-1.4 3.1-1.4 4.3c0 0-.8.1-.9-.4-.1-.4.3-2.1.4-2.5 0 0 .3.2.2.4 0 0 .7-1.4.3-2.3 0 0 .3.1.4.2 0 0 .3-1.4.3-2.3s-.3-1.6-.9-2c0 0 .4-.6-.1-1.2 0 0-.2-.5-.8-1.1-.6-.5-1.1-.9-1.6-.8l.2-.4s-.5.1-.6.3c0 0-.3-.2-.3-.6 0 0-.4.1-.5.4 0 0-1.1-.4-1.5.8 0 0 .2.1.2.2 0 0-.1.3-.8.4-.6.1-2.5 0-3.1.2-.6.3-.8.4-.8.7 0 0-.3.1-.4.8-.1 0-.5.1-.5.6 0 .4.3.3.3.3s-.3.7.6.7c0 0 .1.4.9.4s1.5.1 1.8.6c0 0-.3 1-1.3 1.9 0 0 .3.1.4 0 0 0-.9.8-1.1 1.9 0 0 .3-.3.5-.3 0 0-1.1 3.2.4 6.4 0 0 .1-.3.2-.4 0 0-.1 1.1.6 1.9 0 0 .1-.4.3-.6 0 0 1 1.8 2.1 2.6 1 .8 2.6 1.2 2.9 2.1 0 0 .6-.6.6-1 0 0 .1.4.1.8l.8-.4c.2-.2 1.1-.8 1.2.2s-.9 2.9.1 5.3c0 0-.3.4-.3 1s.4.9.4 1.1-.2.8-.2 1.3.4 1.3.1 3.2c-.4 1.8-.6 2.3-.9 2.6s-1.2.9-1 1.8c0 0-2.3.3-2.3 1.1s1.2 1 2.5 1c1.4 0 1.7-.3 1.8-.8s-.3-.6 0-.9.6-.6.6-1.9c-.1-1.3.6-2.4.6-2.4s-.1-1 .3-1.6 1.3-1.9.7-3.9c0 0 .2.1.4.1 0 0-.4-1.1.3-2.4s1.1-3.9 1.1-3.9 1.6.1 2.3 0c0 0-1.5 3.2-1.4 5.6 0 0-.4.4-.4.8s.3.9.6 1.3c.4.4 1.6 1.1 2.3 1.9s1.2 1.8 1.4 2c0 0-.6.4-.4 1.1 0 0-.6.2-.6.8 0 0-.9 0-1.4.4s-.8 1-.3 1.2c.4.2 2.1.2 2.6.2.6 0 1.2-.4 1.3-.7s-.2-1-.2-1 .3.1.4-.4c0 0 .6 2.3 1.6 2.3 0 0 .1 0 .1-.3 0 0 .4.1.7-.1.3-.3.8-3.4-1.1-3.4 0 0 .1-.3-.3-.6s3.1-4.6 3.5-5c0 0-.5-3.9.5-5.8s1.8-3.2 1.8-3.2.2 4.3 2.1 7.5c0 0 .4.5.3 1.1s-.3.9-.3 1.7.6 2.8 0 4.9c-.1.4-1.2 1.8-.8 2.8 0 0-.9.5-.9 1.2s.4.8.7.8.4-.3.6-.3.4.4 1.1.4 1.3-.6 1.3-.9-.6-.9-.6-.9.4-.4.4-.8-.6-1.2-.6-2.1.2-2.8.6-3.6c.8-1.6.6-2.9.3-3.2 0 0 .3-1 .3-2.1s-.8-3.9-.1-6.8c0 0 .8-1.2 1-3.1 0 0 1.5 3.1.4 5.1-1.1 2.1-.9 2.1-.9 2.8 0 .6.3 1.6.3 1.6l1-1s0-.7.5-1.3c.5-.5.9-1.9.6-2.3 0 0 .3.2.4.3 0 0 .2-.7-.1-1.6-.3.1 0-.1.4.1zm-13.5 10.1c-.4.7-1.7 2.8-1.7 2.8s-1.3-.8-1.8-1.6c-.4-.9-.8-1.4-.9-1.5 0 0 .6-.8.7-1.5 0 0 .3 0 .4.5.8-1 1.3-2.1 1.5-3.3 0 0 .2.2.4.3 0 0 0-.8.3-1.4s.9-1.3 1-2.4h.4s-.3 2.5 0 4.6c.3 2 .2 2.8-.3 3.5z" fill="#003e67"/></switch></svg>