<svg xmlns="http://www.w3.org/2000/svg" width="64" height="64"><path fill="#b5c4e0" d="M32 14a31 18.174 0 100 36.348A31 18.174 0 1032 14z"/><path fill="#ced9ed" d="M32 14C14.879 14 1 22.137 1 32.174s13.879 18.174 31 18.174 31-8.137 31-18.174S49.121 14 32 14zm0 31.348c-15.322 0-26-6.942-26-13.174C6 25.943 16.678 19 32 19s26 6.943 26 13.174-10.678 13.174-26 13.174z"/><path fill="#8d6c9e" d="M42.435 26.435l-2.733 14.826h3.566l.71-4.043h2.219c4.645 0 7.172-1.076 8.117-5.062.813-3.425-1.264-5.72-4.69-5.72h-7.189zm4.351 8.087h-2.305l1.018-5.391h2.778c2.302 0 2.786 1.038 2.666 2.193-.309 2.973-2.163 3.198-4.157 3.198zM14.13 26.435l-2.733 14.826h3.566l.71-4.043h2.219c4.645 0 7.172-1.076 8.117-5.062.813-3.425-1.264-5.72-4.69-5.72H14.13zm4.351 8.087h-2.305l1.018-5.391h2.778c2.302 0 2.786 1.038 2.666 2.193-.309 2.973-2.162 3.198-4.157 3.198zm20.83-7.107c-.762-.698-2.104-.98-4.105-.98h-3.153l1.124-5.391H29.64l-3.379 16.174h3.538l1.706-8.087h2.828c.902 0 1.497.151 1.775.449.276.301.337.867.177 1.686l-1.291 5.952h3.593l1.399-6.44c.3-1.544.073-2.676-.675-3.363z"/><path fill="#8d6c9f" d="M32 51.348c-17.645 0-32-8.602-32-19.174S14.355 13 32 13s32 8.602 32 19.174-14.355 19.174-32 19.174zM32 15C15.458 15 2 22.704 2 32.174s13.458 17.174 30 17.174 30-7.704 30-17.174S48.542 15 32 15zm26.693 35.667c-.33 0-.653-.163-.845-.463l-1.074-1.687a1 1 0 111.688-1.074l1.074 1.687a1 1 0 01-.843 1.537zm-4.247 2.337c-.375 0-.734-.212-.905-.573l-.854-1.809a1 1 0 011.809-.853l.854 1.809a1 1 0 01-.904 1.426zm-4.477 1.813c-.414 0-.802-.26-.945-.673l-.654-1.891a1 1 0 011.89-.654l.654 1.891a1 1 0 01-.945 1.327zm-4.625 1.354c-.451 0-.86-.308-.971-.766l-.47-1.944a.999.999 0 111.943-.469l.47 1.944a.999.999 0 01-.972 1.235zm-4.723.922a1 1 0 01-.988-.853l-.296-1.979a1 1 0 011.979-.295l.296 1.979a1 1 0 01-.991 1.148zm-4.78.503a1 1 0 01-.997-.936l-.129-1.996a1.002 1.002 0 01.934-1.063 1.012 1.012 0 011.063.934l.129 1.996a1.002 1.002 0 01-1 1.065z"/><path fill="#8d6c9f" d="M21.862 21.161a1.001 1.001 0 01-.241-1.971 48.682 48.682 0 014.224-.845 1 1 0 01.308 1.976c-1.4.218-2.762.49-4.049.81a.96.96 0 01-.242.03zM6.999 29.997a.999.999 0 01-.877-1.476c.109-.2 2.767-4.925 11.424-8.091a1 1 0 11.686 1.878c-7.884 2.883-10.334 7.133-10.357 7.175a1.001 1.001 0 01-.876.514z"/></svg>