<?xml version="1.0" encoding="UTF-8"?>
<!-- Generator: Adobe Illustrator 23.0.4, SVG Export Plug-In . SVG Version: 6.00 Build 0)  -->
<svg version="1.1" id="Layer_1" xmlns="http://www.w3.org/2000/svg" xmlns:xlink="http://www.w3.org/1999/xlink" x="0px" y="0px" viewBox="0 0 64 64" style="enable-background:new 0 0 64 64;" xml:space="preserve">
<style type="text/css">
	.st0{fill:#2671BE;}
	.st1{fill:#FFFFFF;}
</style>
<path class="st0" d="M59.2,11.4c-0.9-1-2.2-1.4-3.4-1.4H16.1c-0.9,0-2,0.1-2.9,0.9s-1.2,1.7-1.4,2.6C9.3,25.2,6.7,36.9,4.1,48.7l0,0  c-0.3,1.2-0.1,2.6,0.6,3.7c0.9,1,2.2,1.6,3.5,1.6H48c1,0,2.1-0.4,2.9-1.1s1.1-1.6,1.2-2.5l0,0c2.6-11.8,5.2-23.6,7.7-35.4  C60.1,13.9,60,12.5,59.2,11.4z"/>
<path class="st1" d="M23.1,16c-1.7-0.1-3,1.2-3.1,2.9c0,0.8,0.3,1.6,0.8,2.2l9.7,10.3L15.2,42.6c-1.4,0.9-1.7,2.8-0.8,4.2  s2.8,1.7,4.2,0.8c0.1,0,0.1-0.1,0.2-0.1l18-13.2c1.3-1,1.6-2.9,0.6-4.2c-0.1-0.1-0.1-0.2-0.2-0.3L25.2,17C24.6,16.3,23.9,16,23.1,16  z"/>
<path class="st1" d="M31,42c-1.7,0-3,1.3-3,3s1.3,3,3,3h0.1h8c1.7,0,3-1.3,3-3s-1.3-3-3-3H39H31z"/>
</svg>