<svg xmlns="http://www.w3.org/2000/svg" width="64" height="64"><path fill="#85cbf8" d="M32 4c-9.927 0-13 4.709-13 7.764V17h13v4H11.764C7.818 21 4 23.855 4 32s3.818 11 7.764 11h7.509v-5.909c0-2.8 2.291-5.091 5.091-5.091h15.273c2.8 0 5.364-2.291 5.364-5.091V11.764C45 8.582 41.927 4 32 4z"/><path fill="#f9dd8f" d="M32 60c9.927 0 12.727-4.709 12.727-7.764V47H32v-4h20.236C56.182 43 60 40.145 60 32s-3.818-11-7.764-11H45v5.909c0 2.8-2.564 5.091-5.364 5.091H24.364C21.564 32 19 34.291 19 37.091v15.145C19 55.291 22.073 60 32 60z"/><path fill="#8d6c9e" d="M26.5 9a2.5 2.5 0 100 5 2.5 2.5 0 100-5zm12 41a2.5 2.5 0 100 5 2.5 2.5 0 100-5z"/><path fill="#ace3ff" d="M4 32c0 8.145 3.818 11 7.764 11h6.299a5 5 0 00-5-5h-1.299C9.726 38 9 34.9 9 32s.726-6 2.754-6l16.283.031h.01a5 5 0 005-4.99c0-.014-.004-.027-.004-.041H11.764C7.818 21 4 23.855 4 32z"/><path fill="#efc88e" d="M60.047 32c0-8.145-3.818-11-7.764-11h-6.299a5 5 0 005 5h1.299c2.038 0 2.764 3.1 2.764 6s-.726 6-2.754 6l-16.283-.031H36a5 5 0 00-5 4.99c0 .014.004.027.004.041h21.279c3.946 0 7.764-2.855 7.764-11z"/><path fill="#8d6c9f" d="M20 44h-8.236C9.708 44 3 43.135 3 32s6.708-12 8.764-12H31v-2H18v-6.236C18 8.732 20.926 3 32 3c11.052 0 14 5.509 14 8.764V26.91c0 3.301-2.914 6.09-6.363 6.09H24.364C22.039 33 20 34.912 20 37.091V44zm-8.236-22C7.465 22 5 25.645 5 32s2.465 10 6.764 10H18v-4.909C18 33.789 20.914 31 24.364 31h15.273C41.961 31 44 29.088 44 26.909V11.764C44 9.251 41.473 5 32 5c-9.492 0-12 4.424-12 6.764V16h13v6H11.764z"/><path fill="#8d6c9e" d="M32 61c-11.074 0-14-5.732-14-8.764V37.091C18 33.789 20.914 31 24.364 31h15.273C41.961 31 44 29.088 44 26.909V20h8.236C54.292 20 61 20.865 61 32s-6.708 12-8.764 12H33v2h13v6.236C46 55.268 43.074 61 32 61zm-7.636-28C22.039 33 20 34.912 20 37.091v15.146C20 54.576 22.508 59 32 59s12-4.424 12-6.764V48H31v-6h21.236C56.535 42 59 38.355 59 32s-2.465-10-6.764-10H46v4.909C46 30.211 43.086 33 39.637 33H24.364z"/><path fill="#8d6c9f" d="M37.652 40a1 1 0 01-1-1v-2a1 1 0 112 0v2a1 1 0 01-1 1zm4.566 0a1 1 0 01-1-1v-2a1 1 0 112 0v2a1 1 0 01-1 1zm4.564 0a1 1 0 01-1-1v-2a1 1 0 112 0v2a1 1 0 01-1 1zm4.566 0a1 1 0 01-1-1v-2a1 1 0 112 0v2a1 1 0 01-1 1zM15.652 28.083a1 1 0 01-1-1v-2a1 1 0 012 0v2a1 1 0 01-1 1zm4.565 0a1 1 0 01-1-1v-2a1 1 0 012 0v2a1 1 0 01-1 1zm4.566 0a1 1 0 01-1-1v-2a1 1 0 012 0v2a1 1 0 01-1 1zm4.565 0a1 1 0 01-1-1v-2a1 1 0 012 0v2a1 1 0 01-1 1z"/></svg>