<svg xmlns="http://www.w3.org/2000/svg" height="64" width="64" viewBox="0 0 160 160"><path fill="#d84e4e" d="M144.272 47.912l-4.767 91.597-89.344 4.767z" stroke-width="3.687"/><path fill="#c74343" d="M142.178 52.698l-4.424 85.06-82.97 4.424 87.394-89.484m4.189-9.568L45.54 146.367l95.723-5.107z" stroke-width="3.687"/><path fill="#e26666" d="M138.226 139.416L96.44 95.578l47.84-46.697-4.768 90.535z" stroke-width="3.687"/><path fill="#c74343" d="M142.19 53.494l-4.359 82.836-38.799-40.704 43.157-42.132m4.178-9.229L93.848 95.53l43.585 45.73h3.827z" stroke-width="3.687"/><path fill="#ed7e7e" d="M41.467 144.523c-8.152 0-14.593-2.304-19.14-6.85-16.05-16.05-3.233-54.978 28.568-86.778C72.74 29.049 98.66 15.477 118.533 15.477c8.152 0 14.593 2.304 19.14 6.85 16.05 16.05 3.233 54.978-28.568 86.778-21.845 21.846-47.765 35.418-67.638 35.418z" stroke-width="3.687"/><path fill="#c74343" d="M118.537 17.32c7.643 0 13.642 2.124 17.83 6.313 15.07 15.069 1.988 53.613-28.567 84.167-21.514 21.514-46.928 34.88-66.333 34.88-7.647 0-13.646-2.124-17.834-6.313C8.563 121.298 21.645 82.754 52.2 52.2c21.51-21.514 46.928-34.88 66.337-34.88m-.004-3.687c-19.589 0-46.099 13.115-68.944 35.96-32.567 32.568-45.357 72.587-28.563 89.381 5.014 5.014 12.1 7.393 20.44 7.393 19.59 0 46.1-13.115 68.945-35.96 32.567-32.568 45.357-72.587 28.563-89.381-5.014-5.014-12.1-7.393-20.44-7.393z" stroke-width="3.687"/><path fill="#f7a3a3" d="M28.938 94.276L15.477 114.47V80.512l14.936-24.894L55.581 30.45l28.56-14.973h32.191l-13.83 13.568 35.13 14.052-45.151 17.365 14.14 45.952-46.159-17.75-17.273 48.367z"/><path fill="#c74343" d="M111.82 17.32l-8.592 8.43-4.033 3.955 5.246 2.098 28.143 11.257-39.16 15.061-3.21 1.235 1.013 3.29 12.517 40.682-40.852-15.714-3.525-1.357-1.272 3.558-14.844 41.56-11.37-34.112-2.386-7.153-4.181 6.271-7.993 11.998V81.021l14.556-24.26 24.806-24.807 27.911-14.633h27.225m9.022-3.688H83.687L54.475 28.95 28.949 54.475 13.633 80v40.557l14.749-22.122L43.13 142.68 61.565 91.06l47.931 18.435-14.748-47.931L142.68 43.13l-36.87-14.748z"/><g><path fill="#ed7e7e" d="M15.857 79.827L29.86 55.319l25.422-25.422 28.272-14.136 20.061 13.373-10.46 31.38-32.457 28.851-31.594 7.02z"/><path fill="#c74343" d="M83.422 17.888l18 11.998-9.86 29.577-31.73 28.206-30.005 6.67L18.08 79.653l13.259-23.206L56.377 31.41l27.045-13.52m.265-4.256L54.191 28.382 28.38 54.19 13.634 80l14.749 18.435 33.183-7.374 33.183-29.496 11.061-33.183z"/></g></svg>