<?xml version="1.0" encoding="UTF-8"?>
<svg xmlns="http://www.w3.org/2000/svg" id="Layer_1" data-name="Layer 1" viewBox="0 0 64 64"><title>Icons8 RSL Colored Part 10</title><path d="M22.24,4.94H51a3,3,0,0,1,3,3v48a3,3,0,0,1-3,3H13a3,3,0,0,1-3-3V17.18a3,3,0,0,1,.88-2.12l9.24-9.24A3,3,0,0,1,22.24,4.94Z" style="fill:#faefde;"/><polygon points="10 59 9.85 49.54 53.34 6.06 54 29 24 59 10 59" style="fill:#fff7f0;"/><polygon points="9.85 39.15 44.06 4.94 49.81 5.19 10 45 9.85 39.15" style="fill:#fff7f0;"/><polygon points="9.85 33.15 38 5 41 5 9.85 36.15 9.85 33.15" style="fill:#fff7f0;"/><polygon points="44.5 13 45.74 15.26 48 16.5 45.74 17.74 44.5 20 43.26 17.74 41 16.5 43.26 15.26 44.5 13" style="fill:#fff;"/><polygon points="29.42 11 30.27 12.56 31.84 13.42 30.27 14.27 29.42 15.84 28.56 14.27 27 13.42 28.56 12.56 29.42 11" style="fill:#fff;"/><polygon points="15.65 42 16.23 43.06 17.3 43.65 16.23 44.23 15.65 45.3 15.06 44.23 14 43.65 15.06 43.06 15.65 42" style="fill:#fff;"/><polygon points="22 5 22 17 10 17 22 5" style="fill:#bbdef9;"/><path d="M52,4H22.66a5,5,0,0,0-3.54,1.46l-8.66,8.66A5,5,0,0,0,9,17.66V57a3,3,0,0,0,3,3H52a3,3,0,0,0,3-3V7A3,3,0,0,0,52,4ZM20.54,6.88A3,3,0,0,1,21,6.5V15a1,1,0,0,1-1,1H11.5a3,3,0,0,1,.38-.46ZM53,57a1,1,0,0,1-1,1H12a1,1,0,0,1-1-1V18h9a3,3,0,0,0,3-3V6H52a1,1,0,0,1,1,1Z" style="fill:#8d6c9f;"/><path d="M14,50a1,1,0,0,0-1,1v2a1,1,0,0,0,2,0V51A1,1,0,0,0,14,50Z" style="fill:#8d6c9f;"/><path d="M19,50a1,1,0,0,0-1,1v2a1,1,0,0,0,2,0V51A1,1,0,0,0,19,50Z" style="fill:#8d6c9f;"/><path d="M24,50a1,1,0,0,0-1,1v2a1,1,0,0,0,2,0V51A1,1,0,0,0,24,50Z" style="fill:#8d6c9f;"/><path d="M29,50a1,1,0,0,0-1,1v2a1,1,0,0,0,2,0V51A1,1,0,0,0,29,50Z" style="fill:#8d6c9f;"/><path d="M34,50a1,1,0,0,0-1,1v2a1,1,0,0,0,2,0V51A1,1,0,0,0,34,50Z" style="fill:#8d6c9f;"/><path d="M39,50a1,1,0,0,0-1,1v2a1,1,0,0,0,2,0V51A1,1,0,0,0,39,50Z" style="fill:#8d6c9f;"/><path d="M44,50a1,1,0,0,0-1,1v2a1,1,0,0,0,2,0V51A1,1,0,0,0,44,50Z" style="fill:#8d6c9f;"/><path d="M49,50a1,1,0,0,0-1,1v2a1,1,0,0,0,2,0V51A1,1,0,0,0,49,50Z" style="fill:#8d6c9f;"/><path d="M40.71,24.29a1,1,0,0,0-1.41,1.41L44.59,31l-5.29,5.29a1,1,0,1,0,1.41,1.41l6-6a1,1,0,0,0,0-1.41Z" style="fill:#8d6c9f;"/><path d="M26.71,24.29a1,1,0,0,0-1.41,0l-6,6a1,1,0,0,0,0,1.41l6,6a1,1,0,0,0,1.41-1.41L21.41,31l5.29-5.29A1,1,0,0,0,26.71,24.29Z" style="fill:#8d6c9f;"/><path d="M36.24,18a1,1,0,0,0-1.21.73l-6,24a1,1,0,0,0,1.94.49l6-24A1,1,0,0,0,36.24,18Z" style="fill:#8d6c9f;"/></svg>