<?xml version="1.0" encoding="UTF-8" standalone="no"?>
<svg
   xmlns:dc="http://purl.org/dc/elements/1.1/"
   xmlns:cc="http://creativecommons.org/ns#"
   xmlns:rdf="http://www.w3.org/1999/02/22-rdf-syntax-ns#"
   xmlns:svg="http://www.w3.org/2000/svg"
   xmlns="http://www.w3.org/2000/svg"
   xmlns:sodipodi="http://sodipodi.sourceforge.net/DTD/sodipodi-0.dtd"
   xmlns:inkscape="http://www.inkscape.org/namespaces/inkscape"
   inkscape:version="1.0 (4035a4f, 2020-05-01)"
   sodipodi:docname="ruby.svg"
   id="svg1487"
   version="1.1"
   height="64"
   width="64"
   viewBox="0 0 160 160">
  <metadata
     id="metadata1493">
    <rdf:RDF>
      <cc:Work
         rdf:about="">
        <dc:format>image/svg+xml</dc:format>
        <dc:type
           rdf:resource="http://purl.org/dc/dcmitype/StillImage" />
        <dc:title></dc:title>
      </cc:Work>
    </rdf:RDF>
  </metadata>
  <defs
     id="defs1491" />
  <sodipodi:namedview
     inkscape:current-layer="svg1487"
     inkscape:window-maximized="1"
     inkscape:window-y="23"
     inkscape:window-x="0"
     inkscape:cy="7.9521674"
     inkscape:cx="12.986547"
     inkscape:zoom="3.6957378"
     showgrid="false"
     id="namedview1489"
     inkscape:window-height="855"
     inkscape:window-width="1440"
     inkscape:pageshadow="2"
     inkscape:pageopacity="0"
     guidetolerance="10"
     gridtolerance="10"
     objecttolerance="10"
     borderopacity="1"
     bordercolor="#666666"
     pagecolor="#ffffff" />
  <g
     transform="translate(11.633475,11.633475)"
     id="g2657">
    <path
       fill="#d84e4e"
       d="m 132.63882,36.278311 -4.76733,91.596869 -89.344091,4.76733 z"
       id="path1463"
       style="stroke-width:3.68703" />
    <path
       fill="#c74343"
       d="m 130.54459,41.064075 -4.42444,85.059765 -82.969217,4.42443 87.393657,-89.484195 M 134.73305,31.496234 33.907551,134.73305 129.6302,129.62652 Z"
       id="path1465"
       style="stroke-width:3.68703" />
    <path
       fill="#e26666"
       d="M 126.59209,127.783 84.80699,83.944225 132.64619,37.248 l -4.76732,90.535 z"
       id="path1467"
       style="stroke-width:3.68703" />
    <path
       fill="#c74343"
       d="M 130.55565,41.860473 126.19758,124.69696 87.398972,83.992156 130.55565,41.860473 m 4.1774,-9.228634 -52.518042,51.264455 43.584372,45.730226 h 3.82714 z"
       id="path1469"
       style="stroke-width:3.68703" />
    <path
       fill="#ed7e7e"
       d="m 29.833384,132.88954 c -8.152022,0 -14.593262,-2.30439 -19.139369,-6.8505 C -5.3556234,109.9894 7.4604903,71.061745 39.261118,39.261118 61.106766,17.415469 87.026582,3.8435146 106.89967,3.8435146 c 8.15202,0 14.59326,2.3043933 19.13937,6.8505004 16.04964,16.049638 3.23352,54.977293 -28.567105,86.77792 C 75.626287,119.31758 49.706471,132.88954 29.833384,132.88954 Z"
       id="path1471"
       style="stroke-width:3.68703" />
    <path
       fill="#c74343"
       d="m 106.90336,5.6870293 v 0 c 7.64321,0 13.642,2.1237288 17.83047,6.3121937 15.06889,15.068889 1.98731,53.613093 -28.567103,84.167504 -21.513816,21.513813 -46.928508,34.879293 -66.333343,34.879293 -7.646899,0 -13.645695,-2.12373 -17.834161,-6.31219 C -3.0696652,109.66494 10.011915,71.120737 40.566326,40.566326 62.076455,19.05251 87.494834,5.6870293 106.90336,5.6870293 M 106.89967,2 C 87.310483,2 60.800743,15.114763 37.955909,37.959596 5.3883799,70.527126 -7.4019246,110.54614 9.3924936,127.34056 c 5.0143594,5.01436 12.1008304,7.39249 20.4408904,7.39249 19.589186,0 46.098927,-13.11476 68.94376,-35.959593 C 131.34467,66.205927 144.13498,26.186912 127.34056,9.3924936 122.3262,4.3781339 115.23973,2 106.89967,2 Z"
       id="path1473"
       style="stroke-width:3.68703" />
    <g
       id="g1479"
       transform="matrix(3.6870293,0,0,3.6870293,-5.3740585,-5.3740585)">
      <path
         fill="#f7a3a3"
         d="M 6.151,23.872 2.5,29.349 v -9.21 L 6.551,13.387 13.377,6.561 21.123,2.5 h 8.731 l -3.751,3.68 9.528,3.811 -12.246,4.71 3.835,12.463 -12.519,-4.814 -4.685,13.118 z"
         id="path1475" />
      <path
         fill="#c74343"
         d="m 28.63,3 -2.33,2.286 -1.094,1.073 1.423,0.569 7.633,3.053 -10.621,4.085 -0.871,0.335 0.275,0.892 L 26.44,26.327 15.36,22.065 14.404,21.697 14.059,22.662 10.033,33.934 6.949,24.682 6.302,22.742 5.168,24.443 3,27.697 v -7.42 L 6.948,13.697 13.676,6.969 21.246,3 H 28.63 M 31.077,2 H 21 L 13.077,6.154 6.154,13.077 2,20 V 31 L 6,25 10,37 15,23 28,28 24,15 37,10 27,6 Z"
         id="path1477" />
    </g>
    <g
       id="g1485"
       transform="matrix(3.6870293,0,0,3.6870293,-5.3740585,-5.3740585)">
      <path
         fill="#ed7e7e"
         d="m 2.603,19.953 3.798,-6.647 6.895,-6.895 7.668,-3.834 5.441,3.627 -2.837,8.511 -8.803,7.825 -8.569,1.904 z"
         id="path1481" />
      <path
         fill="#c74343"
         d="M 20.928,3.154 25.81,6.408 23.136,14.43 14.53,22.08 6.392,23.889 3.206,19.906 6.802,13.612 13.593,6.821 20.928,3.154 M 21,2 l -8,4 -7,7 -4,7 4,5 9,-2 9,-8 3,-9 z"
         id="path1483" />
    </g>
  </g>
</svg>
