<?xml version="1.0" encoding="UTF-8"?>
<svg xmlns="http://www.w3.org/2000/svg" id="Layer_1" data-name="Layer 1" viewBox="0 0 64 64"><title>Icons8 RSL Colored Part 8</title><rect x="5" y="9" width="54" height="10" style="fill:#ced8ed;"/><rect x="5" y="19" width="54" height="36" style="fill:#8b8e98;"/><path d="M55,18H51a1,1,0,0,0,0,2h4a1,1,0,0,0,0-2Z" style="fill:#8d6c9f;"/><path d="M57,8H7a3,3,0,0,0-3,3V53a3,3,0,0,0,3,3H57a3,3,0,0,0,3-3V11A3,3,0,0,0,57,8Zm1,45a1,1,0,0,1-1,1H7a1,1,0,0,1-1-1V20H47a1,1,0,0,0,0-2H6V11a1,1,0,0,1,1-1H57a1,1,0,0,1,1,1Z" style="fill:#8d6c9f;"/><path d="M20,12a1,1,0,0,0-1,1v2a1,1,0,0,0,2,0V13A1,1,0,0,0,20,12Z" style="fill:#8d6c9f;"/><path d="M15,12a1,1,0,0,0-1,1v2a1,1,0,0,0,2,0V13A1,1,0,0,0,15,12Z" style="fill:#8d6c9f;"/><path d="M10,12a1,1,0,0,0-1,1v2a1,1,0,0,0,2,0V13A1,1,0,0,0,10,12Z" style="fill:#8d6c9f;"/><path d="M35,12a1,1,0,0,0-1,1v2a1,1,0,0,0,2,0V13A1,1,0,0,0,35,12Z" style="fill:#8d6c9f;"/><path d="M40,12a1,1,0,0,0-1,1v2a1,1,0,0,0,2,0V13A1,1,0,0,0,40,12Z" style="fill:#8d6c9f;"/><path d="M45,12a1,1,0,0,0-1,1v2a1,1,0,0,0,2,0V13A1,1,0,0,0,45,12Z" style="fill:#8d6c9f;"/><path d="M51,15V13a1,1,0,0,0-2,0v2a1,1,0,0,0,2,0Z" style="fill:#8d6c9f;"/><path d="M55,12a1,1,0,0,0-1,1v2a1,1,0,0,0,2,0V13A1,1,0,0,0,55,12Z" style="fill:#8d6c9f;"/><path d="M25,12a1,1,0,0,0-1,1v2a1,1,0,0,0,2,0V13A1,1,0,0,0,25,12Z" style="fill:#8d6c9f;"/><path d="M30,12a1,1,0,0,0-1,1v2a1,1,0,0,0,2,0V13A1,1,0,0,0,30,12Z" style="fill:#8d6c9f;"/><path d="M26.71,35.29l-7-7a1,1,0,0,0-1.41,1.41L24.59,36l-6.29,6.29a1,1,0,1,0,1.41,1.41l7-7A1,1,0,0,0,26.71,35.29Z" style="fill:#faefde;"/><path d="M45,42H27a1,1,0,0,0,0,2H45a1,1,0,0,0,0-2Z" style="fill:#faefde;"/></svg>