<svg xmlns="http://www.w3.org/2000/svg" viewBox="0 0 288 288"><title>sql-dev-new</title><path d="M126,112.07c-35.35,0-64-4.94-64-11V220c0,6.09,28.65,11,64,11s64-4.94,64-11V101C190,107.13,161.35,112.07,126,112.07Z" fill="#d1d1d1"/><path d="M62,101V220c0,6.09,28.65,11,64,11V112.07C90.65,112.07,62,107.13,62,101Z" fill="#adadad"/><path d="M181,106.68V225.61c5.71-1.65,9-3.58,9-5.64V101C190,103.1,186.72,105,181,106.68Z" fill="#adadad"/><ellipse cx="126" cy="101.03" rx="64" ry="11.03" fill="#939699"/><path d="M62,175.82c0,6.09,28.65,11,64,11s64-4.94,64-11v9c0,6.09-28.65,11-64,11s-64-4.94-64-11Z" fill="#939699"/><path d="M62,136.18c0,6.09,28.65,11,64,11s64-4.94,64-11v9c0,6.09-28.65,11-64,11s-64-4.94-64-11Z" fill="#939699"/><circle cx="185" cy="200" r="38" fill="#ecedf0"/><circle cx="185" cy="200" r="33.31" fill="#3faa00"/><polygon points="173.27 216.52 204.24 198.64 173.27 180.76 173.27 216.52" fill="#fff"/></svg>