<svg xmlns="http://www.w3.org/2000/svg" xmlns:xlink="http://www.w3.org/1999/xlink" viewBox="0 0 45 66" fill="#fff" fill-rule="evenodd" stroke="#000" stroke-linecap="round" stroke-linejoin="round"><use xlink:href="#A" x="1" y="1"/><symbol id="A" overflow="visible"><g stroke="none" fill-rule="nonzero"><path d="M15.284 62.468l26.088.816-1.63-32.204 2.446-29.452-12.026.612-5.6-2.24L0 1.322l1.2 29.044L0 63.792l15.286-1.324" fill="#f14729"/><path d="M24.26 43.54l-2.726.744 1.486-3.592 1.486-10.034-1.86-.372 2.23-3.096 2.8-10.44-4.884 1.024s2.574-4.714 5.308-7.786l-3.574-2.744s-11.546 5.072-8.452 21.548l-2.4-.416 2.28 17.27-1.93.496s1.976 4.034 4.744 5.946c.252.174-3.468-13.5.496-27.128l.372.868s-3.16 14.524 0 26.26c0 0 .146.28 1.724.092 0 0 2.86-5.388 2.86-8.64" fill="#1e5cb3"/><path d="M20.504 23.732s-1.672 7.454-1.2 19.54c.134 3.3.477 6.59 1.024 9.846.316 2.536.528 3.456 1.348 6.512l-.048 1.972s-6.574-21-1.138-37.87m4.04-6.46s1.48-.736 3.6-1.004c0 0 2.316 4.246-3.384 11.496 0 0 3.4-7.592 2.6-9.972 0 0-.9-.56-2.812-.52m-.684 12.744s1.328.308 1.966-.208c0 0-1.256 4.9-.926 7.596s-2.046 4.4-2.046 4.4 2.024-2.56 1.388-4.646c-.44-1.446.052-5.144.608-6.32 0 0-.52-.072-.988-.844m-1.316 12.914s2.194-.26 2.424-1.37c0 0 .268 6.628-2.8 9.36 0 0 2.326-3.628 1.96-7.4l-1.606-.608m-6.17 2.796s-.708.792-2.83-.956c0 0 .676 4.456 4.88 6.494 0 0-2.892-2.2-3.67-4.532 0 0 1-.3 1.624-1.008m-.68-1.686s-2.87-7.286-2.256-17.132c0 0 .67 1.784 2.826 2.408 0 0-1.016.208-1.608.12 0 0-1.5 4.156 1.04 14.606m12.056-33.86s-1.076-7.906-7.806.1c-5.36 6.366-4.72 11.772-4.392 14.788.084.772-1-8.054 4.874-13.86s7.2-1.352 7.324-1.014"/><path d="M17.82 3.396s-5.28-1.508-6.96 15.996c0 0-1.296-5.4 2.06-13.044s4.904-2.952 4.904-2.952m-6.554-1.28S8.576 6.168 9.2 10.482c0 0-2.04-8.124 2.08-8.366m19.824 11.36s3.186-1.174-1.376 10.68c0 0 2.36-3.464 3.846-8.908.954-3.494-2.47-1.774-2.47-1.774m5.15-.92s2.252 2.04.656 4.734c0 0 4.006-4.208-.656-4.734" fill="#fff200"/></g></symbol></svg>