<?xml version="1.0" encoding="UTF-8" standalone="no"?>
<svg
   xmlns:dc="http://purl.org/dc/elements/1.1/"
   xmlns:cc="http://creativecommons.org/ns#"
   xmlns:rdf="http://www.w3.org/1999/02/22-rdf-syntax-ns#"
   xmlns:svg="http://www.w3.org/2000/svg"
   xmlns="http://www.w3.org/2000/svg"
   xmlns:xlink="http://www.w3.org/1999/xlink"
   xmlns:sodipodi="http://sodipodi.sourceforge.net/DTD/sodipodi-0.dtd"
   xmlns:inkscape="http://www.inkscape.org/namespaces/inkscape"
   sodipodi:docname="favicon.svg"
   inkscape:version="1.0 (4035a4f, 2020-05-01)"
   id="svg8"
   version="1.1"
   viewBox="0 0 101.9147 104.24513"
   height="104.24513mm"
   width="101.9147mm">
  <defs
     id="defs2">
    <clipPath
       clipPathUnits="userSpaceOnUse"
       id="clipPath3338">
      <path
         d="M 0,0 H 3000 V 30000 H 0 Z"
         id="path3336" />
    </clipPath>
    <linearGradient
       x1="0"
       y1="0"
       x2="1"
       y2="0"
       gradientUnits="userSpaceOnUse"
       gradientTransform="matrix(-0.00131134,30000,30000,0.00131134,1500,0)"
       spreadMethod="pad"
       id="linearGradient3346">
      <stop
         style="stop-opacity:1;stop-color:#9ba5d9"
         offset="0"
         id="stop3342" />
      <stop
         style="stop-opacity:1;stop-color:#95e0e7"
         offset="1"
         id="stop3344" />
    </linearGradient>
    <clipPath
       clipPathUnits="userSpaceOnUse"
       id="clipPath3764">
      <path
         d="m 5418.34,13623.8 h 5399.96 c 497.1,0 900,-403 900,-900 0,-497.2 -402.9,-900 -900,-900 H 5418.34 c -497.05,0 -900,402.8 -900,900 0,497 402.95,900 900,900 z"
         id="path3762" />
    </clipPath>
    <linearGradient
       x1="0"
       y1="0"
       x2="1"
       y2="0"
       gradientUnits="userSpaceOnUse"
       gradientTransform="matrix(7200,0,0,-7200,4518.34,12723.8)"
       spreadMethod="pad"
       id="linearGradient3770">
      <stop
         style="stop-opacity:1;stop-color:#4659c1"
         offset="0"
         id="stop3766" />
      <stop
         style="stop-opacity:1;stop-color:#3ad0de"
         offset="1"
         id="stop3768" />
    </linearGradient>
    <clipPath
       clipPathUnits="userSpaceOnUse"
       id="clipPath4236">
      <path
         d="m 43241.1,3000 c -1815.3,0 -3373.1,847.4 -4606.6,1682.3 -1515.3,1025.8 -2796.1,1540.8 -4218.9,1540.8 -737.7,0 -1513.5,-138.5 -2380,-415.9 -2684.3,-859.6 -3955,-2071.7 -6253.8,-2071.7 -410.4,0 -853.7,38.6 -1343.5,124.8 -2322.8,408.7 -4092.9,3260.6 -3967.8,5380.8 153.9,2606.9 984.8,3618.9 4054.6,6314.9 2689.1,2361.7 2592.8,3652.5 1939.1,5278.2 -489.7,1217.8 -1215.5,2651 346,3680 1020.8,672.7 2758,985.8 4924.4,985.8 1882.8,0 4089.9,-236.6 6431.5,-679.2 5035.9,-951.8 9032.3,-4216.9 11202,-7391.1 C 51971.2,13621.3 51299.8,8143.9 48489.4,5461.1 46576,3634.6 44812.2,3000 43241.1,3000 M 27348.9,22373.4 v -8346 h 13894.9 v 4883.7 l 39.6,12.9 c 120.2,-122.8 257.6,-228.7 408.4,-313.8 l -23.5,-433.4 c 115.1,-52.5 235.5,-95.3 360.1,-127.7 l 254.7,351.5 c 99.3,-16.7 201.3,-25.5 305.3,-25.5 70.9,0 140.9,4.2 209.7,12.1 l 235.8,-364.6 c 126.4,25.7 248.8,62.1 366.4,108.3 l -0.5,434 c 155.3,77.2 298,175.8 424.4,292 l 404.7,-156.2 c 86,94 164.1,195.3 233,303.1 l -255.3,350.6 c 79,150.7 137.6,313.8 172.1,485.7 l 418.9,111.5 c 9.2,81.9 14,165.2 14,249.6 0,44.5 -1.4,88.7 -4,132.6 l -412.5,133.4 c -25.3,173.9 -75.2,339.9 -146,494.2 l 273.5,336.6 c -63.3,111.3 -135.8,216.6 -216.6,314.9 l -412.6,-134.6 c -120.2,122.8 -257.6,228.8 -408.4,313.9 l 23.5,433.4 c -115.1,52.4 -235.5,95.3 -360.1,127.6 l -254.7,-351.5 c -99.3,16.7 -201.2,25.6 -305.3,25.6 -70.9,0 -140.8,-4.2 -209.6,-12.1 l -235.9,364.5 c -126.3,-25.7 -248.8,-62.1 -366.4,-108.3 l 0.6,-434 c -155.3,-77.1 -298.1,-175.7 -424.4,-291.9 l -108.9,42 v 785.9 H 27348.9 m 15239.5,-3044.2 c -481.6,0 -872,390.4 -872,872 0,481.6 390.4,872 872,872 481.6,0 872,-390.4 872,-872 0,-481.6 -390.4,-872 -872,-872"
         id="path4234" />
    </clipPath>
    <clipPath
       clipPathUnits="userSpaceOnUse"
       id="clipPath4242">
      <path
         d="M 20345.4,3000 H 32766 V 25500 H 20345.4 Z"
         id="path4240" />
    </clipPath>
    <linearGradient
       x1="0"
       y1="0"
       x2="1"
       y2="0"
       gradientUnits="userSpaceOnUse"
       gradientTransform="matrix(19945.1,19945.1,19945.1,-19945.1,24966.4,2344.2)"
       spreadMethod="pad"
       id="linearGradient4250">
      <stop
         style="stop-opacity:1;stop-color:#9ba5d9"
         offset="0"
         id="stop4246" />
      <stop
         style="stop-opacity:1;stop-color:#95e0e7"
         offset="1"
         id="stop4248" />
    </linearGradient>
    <clipPath
       clipPathUnits="userSpaceOnUse"
       id="clipPath4264">
      <path
         d="m 43033.9,18022.6 -235.8,364.6 c -68.8,-7.9 -138.8,-12.1 -209.7,-12.1 -104,0 -206,8.8 -305.3,25.5 l -254.7,-351.5 c -124.6,32.4 -245,75.2 -360.1,127.7 l 23.5,433.4 c -150.8,85.1 -288.2,191 -408.4,313.8 l -39.6,-12.9 v 2676.4 l 108.9,-42 c 126.3,116.2 269.1,214.8 424.4,291.9 l -0.6,434 c 117.6,46.2 240.1,82.6 366.4,108.3 l 235.9,-364.5 c 68.8,7.9 138.7,12.1 209.6,12.1 104.1,0 206,-8.9 305.3,-25.6 l 254.7,351.5 c 124.6,-32.3 245,-75.2 360.1,-127.6 l -23.5,-433.4 c 150.8,-85.1 288.2,-191.1 408.4,-313.9 l 412.6,134.6 c 80.8,-98.3 153.3,-203.6 216.6,-314.9 l -273.5,-336.6 c 70.8,-154.3 120.7,-320.3 146,-494.2 l 412.5,-133.4 c 2.6,-43.9 4,-88.1 4,-132.6 0,-84.4 -4.8,-167.7 -14,-249.6 l -418.9,-111.5 c -34.5,-171.9 -93.1,-335 -172.1,-485.7 l 255.3,-350.6 c -68.9,-107.8 -147,-209.1 -233,-303.1 l -404.7,156.2 c -126.4,-116.2 -269.1,-214.8 -424.4,-292 l 0.5,-434 c -117.6,-46.2 -240,-82.6 -366.4,-108.3 m -445.5,3050.6 c -481.6,0 -872,-390.4 -872,-872 0,-481.6 390.4,-872 872,-872 481.6,0 872,390.4 872,872 0,481.6 -390.4,872 -872,872"
         id="path4262" />
    </clipPath>
    <linearGradient
       x1="0"
       y1="0"
       x2="1"
       y2="0"
       gradientUnits="userSpaceOnUse"
       gradientTransform="matrix(19945.1,19945.1,19945.1,-19945.1,24966.4,2344.2)"
       spreadMethod="pad"
       id="linearGradient4272">
      <stop
         style="stop-opacity:1;stop-color:#9db7ec"
         offset="0"
         id="stop4268" />
      <stop
         style="stop-opacity:1;stop-color:#9ad4f3"
         offset="1"
         id="stop4270" />
    </linearGradient>
    <clipPath
       clipPathUnits="userSpaceOnUse"
       id="clipPath4294">
      <path
         d="M 41243.8,14027.4 H 27348.9 v 8346 h 13894.9 v -785.9 l -145.6,56.1 v 526.1 H 28025.8 v -7661.8 h 13072.4 v 4355.7 l 145.6,47.5 v -4883.7"
         id="path4292" />
    </clipPath>
    <linearGradient
       x1="0"
       y1="0"
       x2="1"
       y2="0"
       gradientUnits="userSpaceOnUse"
       gradientTransform="matrix(19945.1,19945.1,19945.1,-19945.1,24966.4,2344.2)"
       spreadMethod="pad"
       id="linearGradient4302">
      <stop
         style="stop-opacity:1;stop-color:#9db7ec"
         offset="0"
         id="stop4298" />
      <stop
         style="stop-opacity:1;stop-color:#9ad4f3"
         offset="1"
         id="stop4300" />
    </linearGradient>
    <clipPath
       clipPathUnits="userSpaceOnUse"
       id="clipPath4312">
      <path
         d="m 41098.2,18863.6 v 2780 l 145.6,-56.1 v -2676.4 l -145.6,-47.5"
         id="path4310" />
    </clipPath>
    <linearGradient
       x1="0"
       y1="0"
       x2="1"
       y2="0"
       gradientUnits="userSpaceOnUse"
       gradientTransform="matrix(19945.1,19945.1,19945.1,-19945.1,24966.4,2344.2)"
       spreadMethod="pad"
       id="linearGradient4320">
      <stop
         style="stop-opacity:1;stop-color:#9ec0f6"
         offset="0"
         id="stop4316" />
      <stop
         style="stop-opacity:1;stop-color:#9ccef9"
         offset="1"
         id="stop4318" />
    </linearGradient>
    <clipPath
       clipPathUnits="userSpaceOnUse"
       id="clipPath4870">
      <path
         d="m 21847.1,18790.2 c -373.9,0 -677,303.1 -677,677 0,373.9 303.1,677 677,677 373.9,0 677,-303.1 677,-677 0,-373.9 -303.1,-677 -677,-677 m 0,1955 c -705.8,0 -1278,-572.1 -1278,-1278 0,-705.8 572.2,-1278 1278,-1278 705.8,0 1278,572.2 1278,1278 0,705.9 -572.2,1278 -1278,1278"
         id="path4868" />
    </clipPath>
    <linearGradient
       spreadMethod="pad"
       y2="0"
       x2="1"
       y1="0"
       x1="0"
       gradientTransform="matrix(-6250.6181,-3087.4623,-3095.174,6163.362,-915.81501,2158.7572)"
       gradientUnits="userSpaceOnUse"
       id="linearGradient934"
       xlink:href="#linearGradient4272"
       inkscape:collect="always" />
  </defs>
  <sodipodi:namedview
     inkscape:snap-global="false"
     fit-margin-bottom="0"
     fit-margin-right="0"
     fit-margin-left="0"
     fit-margin-top="0"
     inkscape:window-maximized="0"
     inkscape:window-y="23"
     inkscape:window-x="0"
     inkscape:window-height="855"
     inkscape:window-width="1252"
     showgrid="false"
     inkscape:document-rotation="0"
     inkscape:current-layer="layer1"
     inkscape:document-units="mm"
     inkscape:cy="317.9668"
     inkscape:cx="189.14063"
     inkscape:zoom="0.5"
     inkscape:pageshadow="2"
     inkscape:pageopacity="0"
     borderopacity="1.0"
     bordercolor="#666666"
     pagecolor="#ffffff"
     id="base" />
  <metadata
     id="metadata5">
    <rdf:RDF>
      <cc:Work
         rdf:about="">
        <dc:format>image/svg+xml</dc:format>
        <dc:type
           rdf:resource="http://purl.org/dc/dcmitype/StillImage" />
        <dc:title></dc:title>
      </cc:Work>
    </rdf:RDF>
  </metadata>
  <g
     transform="translate(8.5038647,476.77037)"
     id="layer1"
     inkscape:groupmode="layer"
     inkscape:label="Layer 1">
    <path
       sodipodi:nodetypes="ccccsccccccccccsccccccccccccccccsccccccccccscccccccsscsscs"
       transform="matrix(0.26458333,0,0,0.26458333,-196.84999,-495.29999)"
       d="m 903.85938,70.033203 v 0.0293 c -6.75049,0.117182 -13.53031,0.563503 -20.32618,1.376953 l -9.61328,37.367184 c -6.08343,1.26444 -12.15459,2.8719 -18.19922,4.86133 -8.87951,2.92244 -17.31612,6.52709 -25.29297,10.7207 L 798.61719,101.875 c -9.6822,6.22261 -18.71058,13.21809 -27.01953,20.86914 l 14.46289,35.9043 c -10.38994,11.40544 -19.05767,24.19644 -25.76172,37.92773 l -39.03906,0.21875 c -4.06092,10.55535 -7.21467,21.48109 -9.40039,32.64453 l 32.99609,20.7168 c -1.58034,15.00098 -1.07049,30.40371 1.77734,45.78125 l -31.30273,22.82422 c 1.0282,3.77835 2.18337,7.54385 3.46484,11.30078 2.42847,7.11953 5.22194,14.01378 8.375,20.66016 l 38.91406,-2.34571 c 7.87493,13.53733 17.55865,25.65211 28.64258,36.14453 l -11.67773,36.73829 c 8.98226,7.15763 18.55014,13.5139 28.58789,19.02929 l 29.99414,-24.52539 c 10.33829,3.75543 16.56616,9.32434 32.02464,11.47961 l 10.99098,33.87 c 12.75961,4.32052 24.98818,3.43368 39.61524,0 l 10.36458,-33.87 c 15.45848,-2.15527 18.55432,-5.21856 32.65104,-11.47961 l 29.99414,24.52539 c 10.03772,-5.51539 19.60562,-11.87166 28.58792,-19.02929 l -11.6778,-36.73829 c 11.084,-10.49242 20.7677,-22.60717 28.6426,-36.14453 l 38.9141,2.34571 c 3.153,-6.64638 5.9465,-13.54066 8.375,-20.66016 1.2815,-3.75696 2.4366,-7.52243 3.4648,-11.30078 l -31.3027,-22.82422 c 2.8478,-15.37754 3.3577,-30.78027 1.7773,-45.78125 l 32.9961,-20.7168 c -2.1857,-11.16344 -5.3394,-22.08921 -9.4004,-32.64453 l -39.039,-0.21875 c -6.7041,-13.73129 -15.3718,-26.52229 -25.7617,-37.92773 l 14.4628,-35.9043 c -8.3089,-7.65105 -17.3373,-14.64653 -27.0195,-20.86914 l -31.81053,22.51367 c -7.97685,-4.19361 -16.41346,-7.79826 -25.29297,-10.7207 -6.04463,-1.98943 -12.11579,-3.59689 -18.19922,-4.86133 L 925.375,71.439453 C 918.57914,70.625999 911.79931,70.179645 905.04883,70.0625 v -0.0293 c -0.19835,0.0023 -0.3973,0.01277 -0.59571,0.01563 -0.19775,-0.0028 -0.39605,-0.01337 -0.59374,-0.01563 z m 0.59374,120.238277 c 7.08118,0.31056 14.23104,1.5566 21.28126,3.87696 41.04724,13.50954 63.08308,57.39243 49.22656,98.01562 -10.61897,31.13165 -39.24048,51.28536 -70.50782,52.9375 -31.26657,-1.65289 -59.88711,-21.80648 -70.50585,-52.9375 -13.85652,-40.62319 8.17931,-84.50608 49.22656,-98.01562 7.04956,-2.32016 14.19875,-3.56627 21.27929,-3.87696 z"
       style="fill:url(#linearGradient934);fill-opacity:1;fill-rule:nonzero;stroke:none;stroke-width:0.245831"
       id="path904" />
    <g
       transform="matrix(-0.06110118,0.0201097,-0.02062976,-0.06048031,1157.5375,-289.65105)"
       id="g914">
      <path
         id="path912"
         style="fill:#ffffff;fill-opacity:1;fill-rule:nonzero;stroke:none"
         d="m 16155.2,7083.23 c -3.7,0 -7.5,1.26 -10.6,3.84 -7,5.87 -8,16.31 -2.1,23.36 80.2,96.43 124.3,218.72 124.3,344.37 0,60.17 -9.8,119.24 -29.2,175.59 -3,8.65 1.6,18.09 10.3,21.07 8.6,2.98 18,-1.62 21,-10.28 20.6,-59.82 31.1,-122.53 31.1,-186.38 0,-133.36 -46.9,-263.22 -132,-365.59 -3.3,-3.95 -8,-5.98 -12.8,-5.98" />
    </g>
    <g
       transform="matrix(-0.06045269,0.01989627,-0.02041081,-0.05983842,1157.5375,-289.65105)"
       id="g918">
      <path
         id="path916"
         style="fill:#ffffff;fill-opacity:1;fill-rule:nonzero;stroke:none"
         d="m 16281.5,7926.9 c -4.2,0 -8.3,1.5 -11.5,4.55 -54.5,51.29 -117.6,90.16 -187.6,115.55 -8.7,3.15 -13.1,12.76 -10,21.46 3.2,8.71 12.8,13.19 21.5,10.04 74.2,-26.95 141.2,-68.21 199.1,-122.65 6.7,-6.34 7,-16.95 0.7,-23.69 -3.3,-3.5 -7.8,-5.26 -12.2,-5.26" />
    </g>
    <g
       transform="matrix(-0.05901886,0.01942436,-0.0199267,-0.05841915,1157.5375,-289.65105)"
       id="g922">
      <path
         id="path920"
         style="fill:#ffffff;fill-opacity:1;fill-rule:nonzero;stroke:none"
         d="m 16141.6,8258.32 c -7.6,0 -14.6,5.19 -16.6,12.97 -2.3,9.19 3.3,18.52 12.4,20.84 47.3,11.93 96.2,17.98 145.4,17.98 9.5,0 17.2,-7.68 17.2,-17.16 0,-9.48 -7.7,-17.16 -17.2,-17.16 -46.3,0 -92.4,-5.7 -137,-16.94 -1.4,-0.36 -2.8,-0.53 -4.2,-0.53" />
    </g>
    <g
       style="font-style:normal;font-variant:normal;font-weight:normal;font-stretch:normal;font-size:102.658px;line-height:1.25;font-family:'Signatra DEMO';-inkscape-font-specification:'Signatra DEMO, Normal';font-variant-ligatures:normal;font-variant-caps:normal;font-variant-numeric:normal;font-variant-east-asian:normal;fill:#000000;fill-opacity:1;stroke:none;stroke-width:1.565;stroke-miterlimit:4;stroke-dasharray:none;stroke-opacity:1"
       id="text839"
       transform="rotate(-4.1085637,-403.36355,-2045.4163)"
       aria-label="Tools" />
    <g
       aria-label="Analysis"
       transform="matrix(0.78211267,-0.08379327,0.08379327,0.78211267,26.383285,-51.35435)"
       id="g966"
       style="font-style:normal;font-variant:normal;font-weight:normal;font-stretch:normal;font-size:102.658px;line-height:1.25;font-family:'Signatra DEMO';-inkscape-font-specification:'Signatra DEMO, Normal';font-variant-ligatures:normal;font-variant-caps:normal;font-variant-numeric:normal;font-variant-east-asian:normal;fill:#000000;fill-opacity:1;stroke:none;stroke-width:0.264583" />
  </g>
</svg>
