<svg xmlns="http://www.w3.org/2000/svg" xmlns:xlink="http://www.w3.org/1999/xlink" viewBox="0 0 101.915 104.245" height="393.997" width="385.189"><defs><linearGradient x1="0" y1="0" x2="1" y2="0" gradientUnits="userSpaceOnUse" gradientTransform="scale(28206.6 -28206.6) rotate(-45 .342 -1.11)" spreadMethod="pad" id="a"><stop offset="0" stop-color="#9db7ec"/><stop offset="1" stop-color="#9ad4f3"/></linearGradient><linearGradient spreadMethod="pad" y2="0" x2="1" y1="0" x1="0" gradientTransform="matrix(-6250.6181 -3087.4623 -3095.174 6163.362 -915.815 2158.757)" gradientUnits="userSpaceOnUse" id="b" xlink:href="#a"/></defs><path transform="matrix(.26458 0 0 .26458 -188.346 -18.53)" d="M903.86 70.033v.03c-6.751.117-13.53.563-20.327 1.376l-9.613 37.368a166.616 166.616 0 00-18.2 4.861 165.482 165.482 0 00-25.292 10.72l-31.81-22.513a197.593 197.593 0 00-27.02 20.87l14.463 35.903a161.685 161.685 0 00-25.762 37.928l-39.04.219a195.613 195.613 0 00-9.4 32.644l32.996 20.717a159.467 159.467 0 001.778 45.781l-31.303 22.825a187.51 187.51 0 003.465 11.3 195.217 195.217 0 008.375 20.66l38.914-2.345a161.717 161.717 0 0028.643 36.144l-11.678 36.739a201.77 201.77 0 0028.588 19.03l29.994-24.526c10.338 3.755 16.566 9.324 32.025 11.48l10.99 33.87c12.76 4.32 24.989 3.433 39.616 0l10.364-33.87c15.459-2.156 18.555-5.22 32.651-11.48l29.994 24.525a201.775 201.775 0 0028.588-19.03l-11.677-36.738a161.713 161.713 0 0028.642-36.144l38.914 2.346a195.239 195.239 0 008.375-20.66 187.495 187.495 0 003.465-11.301l-31.303-22.825a159.466 159.466 0 001.778-45.78l32.996-20.718a195.602 195.602 0 00-9.4-32.644l-39.04-.219a161.687 161.687 0 00-25.761-37.928l14.463-35.904a197.59 197.59 0 00-27.02-20.869l-31.81 22.514a165.482 165.482 0 00-25.293-10.721 166.616 166.616 0 00-18.2-4.861l-9.613-37.368a200.156 200.156 0 00-20.326-1.376v-.03c-.199.002-.397.013-.596.016-.198-.003-.396-.014-.594-.016zm.593 120.238a79.025 79.025 0 0121.281 3.877c41.048 13.51 63.083 57.393 49.227 98.016-10.619 31.132-39.24 51.285-70.508 52.938-31.266-1.653-59.887-21.807-70.506-52.938-13.856-40.623 8.18-84.506 49.227-98.016a79.024 79.024 0 0121.28-3.877z" fill="url(#b)"/><path d="M32.814 83.6a1.053 1.053 0 00.215-1.9C26.14 77.48 20.922 70.97 18.33 63.37a34.004 34.004 0 01-1.838-11.207 1.066 1.066 0 00-1.064-1.067 1.054 1.054 0 00-1.071 1.044A36.092 36.092 0 0016.3 64.04c2.752 8.065 8.296 14.976 15.608 19.456.283.173.612.201.905.105M19.986 36.727c.254-.083.472-.255.603-.5a34.035 34.035 0 018.982-10.648 1.048 1.048 0 00.167-1.483 1.082 1.082 0 00-1.505-.173 36.209 36.209 0 00-9.533 11.3 1.059 1.059 0 00.442 1.432c.27.144.578.16.844.072M48.821 18.216c.449-.148.759-.587.722-1.08a1.075 1.075 0 00-1.147-.977c-3.03.222-6.036.818-8.94 1.774a1.05 1.05 0 00-.673 1.336c.189.554.796.853 1.357.669a35.22 35.22 0 018.423-1.672c.09-.006.176-.023.258-.05" fill="#fff"/></svg>