<?xml version="1.0" encoding="UTF-8"?>
<svg width="2514" height="332" version="1.1" viewBox="0 0 2514 332" xml:space="preserve" xmlns="http://www.w3.org/2000/svg"><g transform="matrix(1.33 0 0 -1.33 94.8 4340)"><g transform="translate(0 -33.5)" fill-opacity="0" stroke="#000" stroke-miterlimit="5.6" stroke-width="11.2"><path d="m-9.87 3237h132l18-162h-168z"/><g><path d="m-39.2 3095h-26.3v-33.3"/><path d="m-31.4 3164h-26.3v-33.3"/><path d="m-26.1 3226h-26.3v-33.3"/></g><g transform="translate(9)"><path d="m144 3095h26.3v-33.3"/><path d="m137 3164h26.3v-33.3"/><path d="m131 3226h26.3v-33.3"/></g><path d="m20.2 3252 3.39 26-33 4.29"/><path d="m94 3252-3.39 26 33 4.29"/><path d="m-28.2 3074h169l-0.397-28.7h-168z"/><ellipse transform="scale(1,-1)" cx="56.4" cy="-3161" rx="38.5" ry="26.7"/></g><g><g><path d="m346 3107h-18.9l-4.16 18.4h-27.4l-3.99-18.4h-18.9l28.5 113h16.5zm-37 86.2-11.1-53.1h22.2z" style="font-variant-caps:normal;font-variant-east-asian:normal;font-variant-ligatures:normal;font-variant-numeric:normal"/><path d="m389 3107h-16.1v116l55.9-71.1v67.5h16.3v-116l-56 72z" style="font-variant-caps:normal;font-variant-east-asian:normal;font-variant-ligatures:normal;font-variant-numeric:normal"/><path d="m545 3107h-18.9l-4.16 18.4h-27.4l-3.99-18.4h-18.9l28.5 113h16.5zm-37 86.2-11.1-53.1h22.2z" style="font-variant-caps:normal;font-variant-east-asian:normal;font-variant-ligatures:normal;font-variant-numeric:normal"/><path d="m590 3122h30.4v-15.1h-47.9v113h17.4z" style="font-variant-caps:normal;font-variant-east-asian:normal;font-variant-ligatures:normal;font-variant-numeric:normal"/><path d="m679 3149v-41.8h-18.2v41.6l-25.7 71.1h18.9l16.3-50.5 16.8 50.5h18z" style="font-variant-caps:normal;font-variant-east-asian:normal;font-variant-ligatures:normal;font-variant-numeric:normal"/><path d="m761 3178q5.9-2.43 10.9-5.73 5.03-3.12 8.5-7.63 3.64-4.34 5.55-10.1 1.91-5.55 1.91-13 0-7.11-2.95-13.7-2.95-6.59-7.98-11.6-4.86-4.86-11.5-7.81-6.59-2.95-13.9-2.95-3.99 0-7.98 0.694-3.99 0.52-7.46 1.56t-6.42 2.26q-2.78 1.21-4.34 2.26v21.5q1.21-1.91 3.82-3.99 2.6-1.91 5.9-3.82 3.47-1.74 7.29-2.95 3.82-1.04 7.46-1.04 8.33 0 13.4 4.86 5.03 5.03 6.25 12.5 1.21 8.5-3.99 13.7-5.03 5.38-13.9 9.37-4.51 2.08-8.85 4.68-4.16 2.6-7.46 6.25-3.12 3.82-5.21 8.68-1.91 4.86-1.91 11.3 0 7.29 2.78 12.7 2.78 5.38 6.94 8.68 4.34 3.47 9.37 5.21 5.03 1.74 9.37 1.74 3.99 0 7.46-0.52 3.64-0.347 6.42-0.868 3.12-0.694 6.07-1.56v-20.8q-1.91 2.26-4.51 4.16-2.26 1.56-5.73 2.78-3.47 1.39-7.98 1.39-3.47 0-5.9-1.21-2.43-1.21-3.99-3.12-1.56-1.74-2.26-3.99-0.694-2.08-0.694-3.99 0-3.99 2.26-7.11 2.43-2.95 5.38-4.86 3.3-2.26 7.81-3.82z" style="font-variant-caps:normal;font-variant-east-asian:normal;font-variant-ligatures:normal;font-variant-numeric:normal"/><path d="m819 3220h17.5v-113h-17.5z" style="font-variant-caps:normal;font-variant-east-asian:normal;font-variant-ligatures:normal;font-variant-numeric:normal"/><path d="m902 3178q5.9-2.43 10.9-5.73 5.03-3.12 8.5-7.63 3.64-4.34 5.55-10.1 1.91-5.55 1.91-13 0-7.11-2.95-13.7-2.95-6.59-7.98-11.6-4.86-4.86-11.5-7.81-6.59-2.95-13.9-2.95-3.99 0-7.98 0.694-3.99 0.52-7.46 1.56t-6.42 2.26q-2.78 1.21-4.34 2.26v21.5q1.21-1.91 3.82-3.99 2.6-1.91 5.9-3.82 3.47-1.74 7.29-2.95 3.82-1.04 7.46-1.04 8.33 0 13.4 4.86 5.03 5.03 6.25 12.5 1.21 8.5-3.99 13.7-5.03 5.38-13.9 9.37-4.51 2.08-8.85 4.68-4.16 2.6-7.46 6.25-3.12 3.82-5.21 8.68-1.91 4.86-1.91 11.3 0 7.29 2.78 12.7 2.78 5.38 6.94 8.68 4.34 3.47 9.37 5.21 5.03 1.74 9.37 1.74 3.99 0 7.46-0.52 3.64-0.347 6.42-0.868 3.12-0.694 6.07-1.56v-20.8q-1.91 2.26-4.51 4.16-2.26 1.56-5.73 2.78-3.47 1.39-7.98 1.39-3.47 0-5.9-1.21-2.43-1.21-3.99-3.12-1.56-1.74-2.26-3.99-0.694-2.08-0.694-3.99 0-3.99 2.26-7.11 2.43-2.95 5.38-4.86 3.3-2.26 7.81-3.82z" style="font-variant-caps:normal;font-variant-east-asian:normal;font-variant-ligatures:normal;font-variant-numeric:normal"/><path d="m989 3171v-13.5l-34-0.174v13.5z" style="font-variant-caps:normal;font-variant-east-asian:normal;font-variant-ligatures:normal;font-variant-numeric:normal"/><path d="m1047 3205v-98h-17.2v98h-18.7v14.9h54.7v-14.9z" style="font-variant-caps:normal;font-variant-east-asian:normal;font-variant-ligatures:normal;font-variant-numeric:normal"/><path d="m1199 3164q0-12-4.51-22.6-4.51-10.6-12.5-18.6-7.81-7.81-18.4-12.3-10.6-4.51-22.6-4.51t-22.6 4.51q-10.6 4.51-18.4 12.3-7.81 7.98-12.5 18.6-4.51 10.6-4.51 22.6 0 12 4.51 22.6 4.68 10.6 12.5 18.4 7.81 7.98 18.4 12.5 10.6 4.68 22.6 4.68t22.6-4.68q10.6-4.51 18.4-12.5 7.98-7.81 12.5-18.4 4.51-10.6 4.51-22.6zm-18.4 0.174q0 9.37-3.12 17-3.12 7.81-8.5 13.4-5.38 5.73-12.7 8.85-7.29 3.12-15.4 3.12t-15.4-3.12q-7.11-3.12-12.5-8.85-5.38-5.55-8.5-13.4-3.12-7.63-3.12-17 0-9.72 3.47-17.5 3.64-7.81 9.37-13.4 5.73-5.55 13-8.68 7.29-2.95 14.7-2.95 7.29 0 14.2 2.95 7.11 3.12 12.5 8.68 5.38 5.55 8.68 13.4 3.3 7.81 3.3 17.5z" style="font-variant-caps:normal;font-variant-east-asian:normal;font-variant-ligatures:normal;font-variant-numeric:normal"/><path d="m1333 3164q0-12-4.51-22.6-4.51-10.6-12.5-18.6-7.81-7.81-18.4-12.3-10.6-4.51-22.6-4.51-12 0-22.6 4.51-10.6 4.51-18.4 12.3-7.81 7.98-12.5 18.6-4.51 10.6-4.51 22.6 0 12 4.51 22.6 4.68 10.6 12.5 18.4 7.81 7.98 18.4 12.5 10.6 4.68 22.6 4.68 12 0 22.6-4.68 10.6-4.51 18.4-12.5 7.98-7.81 12.5-18.4 4.51-10.6 4.51-22.6zm-18.4 0.174q0 9.37-3.12 17-3.12 7.81-8.5 13.4-5.38 5.73-12.7 8.85-7.29 3.12-15.4 3.12t-15.4-3.12q-7.11-3.12-12.5-8.85-5.38-5.55-8.5-13.4-3.12-7.63-3.12-17 0-9.72 3.47-17.5 3.64-7.81 9.37-13.4 5.73-5.55 13-8.68 7.29-2.95 14.7-2.95 7.29 0 14.2 2.95 7.11 3.12 12.5 8.68 5.38 5.55 8.68 13.4 3.3 7.81 3.3 17.5z" style="font-variant-caps:normal;font-variant-east-asian:normal;font-variant-ligatures:normal;font-variant-numeric:normal"/><path d="m1378 3122h30.4v-15.1h-47.9v113h17.4z" style="font-variant-caps:normal;font-variant-east-asian:normal;font-variant-ligatures:normal;font-variant-numeric:normal"/><path d="m1463 3178q5.9-2.43 10.9-5.73 5.03-3.12 8.5-7.63 3.64-4.34 5.55-10.1 1.91-5.55 1.91-13 0-7.11-2.95-13.7-2.95-6.59-7.98-11.6-4.86-4.86-11.5-7.81-6.59-2.95-13.9-2.95-3.99 0-7.98 0.694-3.99 0.52-7.46 1.56t-6.42 2.26q-2.78 1.21-4.34 2.26v21.5q1.21-1.91 3.82-3.99 2.6-1.91 5.9-3.82 3.47-1.74 7.29-2.95 3.82-1.04 7.46-1.04 8.33 0 13.4 4.86 5.03 5.03 6.25 12.5 1.21 8.5-3.99 13.7-5.03 5.38-13.9 9.37-4.51 2.08-8.85 4.68-4.16 2.6-7.46 6.25-3.12 3.82-5.21 8.68-1.91 4.86-1.91 11.3 0 7.29 2.78 12.7 2.78 5.38 6.94 8.68 4.34 3.47 9.37 5.21 5.03 1.74 9.37 1.74 3.99 0 7.46-0.52 3.64-0.347 6.42-0.868 3.12-0.694 6.07-1.56v-20.8q-1.91 2.26-4.51 4.16-2.26 1.56-5.73 2.78-3.47 1.39-7.98 1.39-3.47 0-5.9-1.21-2.43-1.21-3.99-3.12-1.56-1.74-2.26-3.99-0.694-2.08-0.694-3.99 0-3.99 2.26-7.11 2.43-2.95 5.38-4.86 3.3-2.26 7.81-3.82z" style="font-variant-caps:normal;font-variant-east-asian:normal;font-variant-ligatures:normal;font-variant-numeric:normal"/></g><g fill-opacity=".5"><path d="m1516 3126h16.8v-18.4h-16.8z" style="font-variant-caps:normal;font-variant-east-asian:normal;font-variant-ligatures:normal;font-variant-numeric:normal"/><path d="m1583 3122q8.33 0 15.6 2.95 7.29 2.95 12.7 8.33 5.38 5.38 8.5 13 3.12 7.63 3.12 17.2 0 9.37-3.12 17-3.12 7.63-8.5 12.8-5.21 5.38-12.5 8.33-7.29 2.95-15.6 2.95h-2.6v-82.6zm0.347 97.7q11.8 0 22.2-3.82 10.6-3.82 18.4-11.1 7.98-7.29 12.5-17.7 4.68-10.4 4.68-23.6 0-12.8-4.68-23.4-4.51-10.4-12.5-17.9-7.81-7.29-18.4-11.3-10.6-3.99-22.4-3.99h-20v113z" style="font-variant-caps:normal;font-variant-east-asian:normal;font-variant-ligatures:normal;font-variant-numeric:normal"/><path d="m1668 3220h48.9v-14.9h-31.6v-46h31.6v-15.1h-31.6v-21.9h33.7v-15.1h-51z" style="font-variant-caps:normal;font-variant-east-asian:normal;font-variant-ligatures:normal;font-variant-numeric:normal"/><path d="m1786 3107h-17l-26.9 113h18l17.9-84.3 18.2 84.3h17.4z" style="font-variant-caps:normal;font-variant-east-asian:normal;font-variant-ligatures:normal;font-variant-numeric:normal"/></g><g transform="matrix(1 0 0 -1 0 33.1)" aria-label="Linters, Tools, and Services to Improve Code Quality"><path d="m383-3007h9.8v4.87h-15.5v-36.4h5.6z" style="font-variant-caps:normal;font-variant-east-asian:normal;font-variant-ligatures:normal;font-variant-numeric:normal"/><path d="m399-3026h5.71v23.5h-5.71zm2.86-5.38q-1.51 0-2.63-1.01-1.12-1.06-1.12-2.74 0-1.62 1.12-2.63 1.12-1.06 2.63-1.06t2.63 1.06q1.12 1.01 1.12 2.63 0 1.68-1.12 2.74-1.12 1.01-2.63 1.01z" style="font-variant-caps:normal;font-variant-east-asian:normal;font-variant-ligatures:normal;font-variant-numeric:normal"/><path d="m412-3026h5.66l-0.112 4.37q1.12-2.35 3.19-3.58 2.07-1.29 4.76-1.23 3.86 0 6.33 2.63 2.46 2.58 2.46 7.39v13.9h-5.66l0.112-13.5q-0.168-2.52-1.29-3.86-1.12-1.4-3.7-1.62-2.8 0-4.48 1.68-1.62 1.68-1.74 4.54l0.112 12.8h-5.66z" style="font-variant-caps:normal;font-variant-east-asian:normal;font-variant-ligatures:normal;font-variant-numeric:normal"/><path d="m450-3e3q-1.68 0-3.08-0.448-1.34-0.448-2.35-1.46-0.952-1.01-1.51-2.63-0.504-1.62-0.504-3.98v-10.8h-3.53v-4.76h3.53v-12.3h5.77l-0.448 12.3h6.61v4.76h-6.55l0.168 10.9q0.112 2.02 0.728 2.74t1.74 0.728q1.01 0 1.68-0.336 0.672-0.392 1.12-0.952l3.02 3.75q-1.23 1.06-2.69 1.79-1.4 0.672-3.7 0.672z" style="font-variant-caps:normal;font-variant-east-asian:normal;font-variant-ligatures:normal;font-variant-numeric:normal"/><path d="m479-3016q-0.392-2.41-1.9-3.98t-4.48-1.68q-2.74 0-4.59 1.46t-2.41 4.31zm-13.3 3.7q0.616 2.8 2.46 4.31t5.1 1.51q2.35 0 3.98-0.784 1.68-0.784 2.86-1.74l3.3 3.47q-1.79 1.62-4.2 2.74-2.35 1.06-5.88 1.06-3.02 0-5.49-0.896-2.46-0.952-4.2-2.58-1.68-1.62-2.63-3.86-0.952-2.3-0.952-4.93t0.952-4.87q1.01-2.24 2.69-3.86 1.68-1.68 3.98-2.58 2.3-0.952 4.93-0.952 3.02 0 5.32 1.06 2.35 1.06 3.92 2.97 1.57 1.85 2.3 4.48 0.784 2.58 0.616 5.21z" style="font-variant-caps:normal;font-variant-east-asian:normal;font-variant-ligatures:normal;font-variant-numeric:normal"/><path d="m490-3026h5.66l-0.168 4.42q1.29-2.58 3.14-3.81t3.81-1.12q1.29 0.112 2.18 0.448t1.68 0.672l-1.9 4.93q-0.672-0.448-1.34-0.672-0.616-0.224-1.74-0.224-2.52 0.224-4.09 1.85t-1.79 5.6l0.224 11.4h-5.66z" style="font-variant-caps:normal;font-variant-east-asian:normal;font-variant-ligatures:normal;font-variant-numeric:normal"/><path d="m520-3e3q-4.03 0-6.72-1.46-2.63-1.51-3.81-3.42l3.98-2.8q1.01 1.68 2.58 2.52 1.62 0.784 3.64 0.784 2.13-0.056 3.08-0.784 1.01-0.728 1.01-1.9 0-0.728-0.336-1.18-0.28-0.448-1.01-0.84-0.672-0.392-1.74-0.672-1.06-0.336-2.58-0.616-1.29-0.336-2.58-0.84-1.23-0.56-2.24-1.4-0.952-0.84-1.57-2.02-0.56-1.23-0.56-2.97t0.672-3.02q0.672-1.34 1.79-2.18 1.12-0.896 2.63-1.29 1.57-0.448 3.3-0.448 2.86 0 4.82 1.06 2.02 1.01 3.36 2.46l-3.42 3.58q-0.728-1.29-1.96-2.02-1.18-0.728-3.02-0.784-2.41 0.224-2.86 2.35 0 0.672 0.224 1.12t0.784 0.784 1.51 0.672 2.41 0.672q1.4 0.336 2.69 0.784 1.34 0.448 2.46 1.29 1.18 0.84 1.85 2.13 0.728 1.23 0.728 3.08 0 1.51-0.504 2.86-0.448 1.34-1.57 2.35-1.06 0.952-2.8 1.57-1.74 0.56-4.26 0.56z" style="font-variant-caps:normal;font-variant-east-asian:normal;font-variant-ligatures:normal;font-variant-numeric:normal"/><path d="m537-3009h5.15l0.056 5.99-3.19 7h-2.02z" style="font-variant-caps:normal;font-variant-east-asian:normal;font-variant-ligatures:normal;font-variant-numeric:normal"/><path d="m591-3034v31.6h-5.54v-31.6h-6.05v-4.82h17.6v4.82z" style="font-variant-caps:normal;font-variant-east-asian:normal;font-variant-ligatures:normal;font-variant-numeric:normal"/><path d="m614-3007q3.14-0.336 4.76-2.18 1.62-1.9 1.85-5.21 0.056-3.25-1.68-5.21-1.68-1.96-4.93-2.13-3.19 0.112-5.04 2.13-1.85 1.96-1.85 5.21 0.112 3.25 1.96 5.26 1.85 1.96 4.93 2.13zm0 4.87q-2.69 0-4.98-0.896-2.3-0.952-4.03-2.58-1.74-1.68-2.74-3.92-0.952-2.24-0.952-4.87t0.952-4.87q1.01-2.24 2.74-3.86 1.74-1.68 4.03-2.58 2.3-0.952 4.98-0.952t4.98 0.952q2.35 0.896 4.03 2.58 1.68 1.62 2.63 3.86 1.01 2.24 1.01 4.87t-1.01 4.87q-0.952 2.24-2.63 3.92-1.68 1.62-4.03 2.58-2.3 0.896-4.98 0.896z" style="font-variant-caps:normal;font-variant-east-asian:normal;font-variant-ligatures:normal;font-variant-numeric:normal"/><path d="m644-3007q3.14-0.336 4.76-2.18 1.62-1.9 1.85-5.21 0.056-3.25-1.68-5.21-1.68-1.96-4.93-2.13-3.19 0.112-5.04 2.13-1.85 1.96-1.85 5.21 0.112 3.25 1.96 5.26 1.85 1.96 4.93 2.13zm0 4.87q-2.69 0-4.98-0.896-2.3-0.952-4.03-2.58-1.74-1.68-2.74-3.92-0.952-2.24-0.952-4.87t0.952-4.87q1.01-2.24 2.74-3.86 1.74-1.68 4.03-2.58 2.3-0.952 4.98-0.952t4.98 0.952q2.35 0.896 4.03 2.58 1.68 1.62 2.63 3.86 1.01 2.24 1.01 4.87t-1.01 4.87q-0.952 2.24-2.63 3.92-1.68 1.62-4.03 2.58-2.3 0.896-4.98 0.896z" style="font-variant-caps:normal;font-variant-east-asian:normal;font-variant-ligatures:normal;font-variant-numeric:normal"/><path d="m663-3043h5.66v40.4h-5.66z" style="font-variant-caps:normal;font-variant-east-asian:normal;font-variant-ligatures:normal;font-variant-numeric:normal"/><path d="m685-3e3q-4.03 0-6.72-1.46-2.63-1.51-3.81-3.42l3.98-2.8q1.01 1.68 2.58 2.52 1.62 0.784 3.64 0.784 2.13-0.056 3.08-0.784 1.01-0.728 1.01-1.9 0-0.728-0.336-1.18-0.28-0.448-1.01-0.84-0.672-0.392-1.74-0.672-1.06-0.336-2.58-0.616-1.29-0.336-2.58-0.84-1.23-0.56-2.24-1.4-0.952-0.84-1.57-2.02-0.56-1.23-0.56-2.97t0.672-3.02q0.672-1.34 1.79-2.18 1.12-0.896 2.63-1.29 1.57-0.448 3.3-0.448 2.86 0 4.82 1.06 2.02 1.01 3.36 2.46l-3.42 3.58q-0.728-1.29-1.96-2.02-1.18-0.728-3.02-0.784-2.41 0.224-2.86 2.35 0 0.672 0.224 1.12t0.784 0.784 1.51 0.672 2.41 0.672q1.4 0.336 2.69 0.784 1.34 0.448 2.46 1.29 1.18 0.84 1.85 2.13 0.728 1.23 0.728 3.08 0 1.51-0.504 2.86-0.448 1.34-1.57 2.35-1.06 0.952-2.8 1.57-1.74 0.56-4.26 0.56z" style="font-variant-caps:normal;font-variant-east-asian:normal;font-variant-ligatures:normal;font-variant-numeric:normal"/><path d="m702-3009h5.15l0.056 5.99-3.19 7h-2.02z" style="font-variant-caps:normal;font-variant-east-asian:normal;font-variant-ligatures:normal;font-variant-numeric:normal"/><path d="m753-3013q-1.85 0-2.97 0.728-1.12 0.672-1.12 2.24 0 3.08 4.48 3.08 2.52 0 4.09-1.12t1.57-3.08v-1.85zm6.05-3.58q0-3.19-1.23-4.42-1.18-1.23-3.47-1.23-2.35 0-3.81 0.84-1.4 0.84-2.35 1.68l-3.25-3.02q1.57-1.85 3.81-3.02 2.3-1.18 6.05-1.18 2.13 0 3.92 0.616 1.85 0.616 3.14 1.85 1.34 1.23 2.07 3.19 0.784 1.9 0.784 4.48v13.9h-5.66l0.112-3.36q-1.23 1.9-2.97 2.91-1.74 0.952-4.37 0.952-1.74 0-3.3-0.448-1.51-0.392-2.69-1.29-1.12-0.896-1.79-2.3-0.672-1.46-0.672-3.42 0-1.85 0.672-3.14 0.728-1.34 1.96-2.18 1.23-0.896 2.91-1.29 1.68-0.448 3.7-0.448z" style="font-variant-caps:normal;font-variant-east-asian:normal;font-variant-ligatures:normal;font-variant-numeric:normal"/><path d="m772-3026h5.66l-0.112 4.37q1.12-2.35 3.19-3.58 2.07-1.29 4.76-1.23 3.86 0 6.33 2.63 2.46 2.58 2.46 7.39v13.9h-5.66l0.112-13.5q-0.168-2.52-1.29-3.86-1.12-1.4-3.7-1.62-2.8 0-4.48 1.68-1.62 1.68-1.74 4.54l0.112 12.8h-5.66z" style="font-variant-caps:normal;font-variant-east-asian:normal;font-variant-ligatures:normal;font-variant-numeric:normal"/><path d="m812-3007q3.14 0 4.98-1.96 1.85-2.02 1.85-5.38 0-3.19-1.85-5.15-1.85-2.02-4.98-2.02-3.08 0-4.87 2.02-1.79 1.96-1.9 5.15 0.112 3.36 1.9 5.38 1.79 1.96 4.87 1.96zm-1.46 4.98q-2.3 0-4.31-0.896-2.02-0.952-3.53-2.58-1.46-1.68-2.35-3.92-0.84-2.24-0.896-4.93 0.056-2.69 0.896-4.93 0.896-2.24 2.35-3.86 1.51-1.62 3.47-2.52 2.02-0.896 4.26-0.896 3.14 0 5.04 1.29 1.96 1.29 3.3 3.3l-0.336-21h5.88v40.4h-5.71l0.168-4.26q-1.12 2.13-3.19 3.47-2.07 1.29-5.04 1.29z" style="font-variant-caps:normal;font-variant-east-asian:normal;font-variant-ligatures:normal;font-variant-numeric:normal"/><path d="m872-3025q1.9 0.784 3.53 1.85 1.62 1.01 2.74 2.46 1.18 1.4 1.79 3.25 0.616 1.79 0.616 4.2 0 2.3-0.952 4.42t-2.58 3.75q-1.57 1.57-3.7 2.52t-4.48 0.952q-1.29 0-2.58-0.224-1.29-0.168-2.41-0.504t-2.07-0.728q-0.896-0.392-1.4-0.728v-6.94q0.392 0.616 1.23 1.29 0.84 0.616 1.9 1.23 1.12 0.56 2.35 0.952 1.23 0.336 2.41 0.336 2.69 0 4.31-1.57 1.62-1.62 2.02-4.03 0.392-2.74-1.29-4.42-1.62-1.74-4.48-3.02-1.46-0.672-2.86-1.51-1.34-0.84-2.41-2.02-1.01-1.23-1.68-2.8-0.616-1.57-0.616-3.64 0-2.35 0.896-4.09t2.24-2.8q1.4-1.12 3.02-1.68t3.02-0.56q1.29 0 2.41 0.168 1.18 0.112 2.07 0.28 1.01 0.224 1.96 0.504v6.72q-0.616-0.728-1.46-1.34-0.728-0.504-1.85-0.896-1.12-0.448-2.58-0.448-1.12 0-1.9 0.392t-1.29 1.01q-0.504 0.56-0.728 1.29-0.224 0.672-0.224 1.29 0 1.29 0.728 2.3 0.784 0.952 1.74 1.57 1.06 0.728 2.52 1.23z" style="font-variant-caps:normal;font-variant-east-asian:normal;font-variant-ligatures:normal;font-variant-numeric:normal"/><path d="m906-3016q-0.392-2.41-1.9-3.98t-4.48-1.68q-2.74 0-4.59 1.46t-2.41 4.31zm-13.3 3.7q0.616 2.8 2.46 4.31t5.1 1.51q2.35 0 3.98-0.784 1.68-0.784 2.86-1.74l3.3 3.47q-1.79 1.62-4.2 2.74-2.35 1.06-5.88 1.06-3.02 0-5.49-0.896-2.46-0.952-4.2-2.58-1.68-1.62-2.63-3.86-0.952-2.3-0.952-4.93t0.952-4.87q1.01-2.24 2.69-3.86 1.68-1.68 3.98-2.58 2.3-0.952 4.93-0.952 3.02 0 5.32 1.06 2.35 1.06 3.92 2.97 1.57 1.85 2.3 4.48 0.784 2.58 0.616 5.21z" style="font-variant-caps:normal;font-variant-east-asian:normal;font-variant-ligatures:normal;font-variant-numeric:normal"/><path d="m917-3026h5.66l-0.168 4.42q1.29-2.58 3.14-3.81t3.81-1.12q1.29 0.112 2.18 0.448t1.68 0.672l-1.9 4.93q-0.672-0.448-1.34-0.672-0.616-0.224-1.74-0.224-2.52 0.224-4.09 1.85t-1.79 5.6l0.224 11.4h-5.66z" style="font-variant-caps:normal;font-variant-east-asian:normal;font-variant-ligatures:normal;font-variant-numeric:normal"/><path d="m936-3026h6.27l6.38 15.5 6.27-15.5h5.77l-11.9 24h-0.728z" style="font-variant-caps:normal;font-variant-east-asian:normal;font-variant-ligatures:normal;font-variant-numeric:normal"/><path d="m965-3026h5.71v23.5h-5.71zm2.86-5.38q-1.51 0-2.63-1.01-1.12-1.06-1.12-2.74 0-1.62 1.12-2.63 1.12-1.06 2.63-1.06t2.63 1.06q1.12 1.01 1.12 2.63 0 1.68-1.12 2.74-1.12 1.01-2.63 1.01z" style="font-variant-caps:normal;font-variant-east-asian:normal;font-variant-ligatures:normal;font-variant-numeric:normal"/><path d="m989-3e3q-2.69 0-4.98-0.896-2.3-0.952-3.98-2.58t-2.63-3.86q-0.952-2.3-0.952-4.93t0.952-4.87 2.63-3.86q1.68-1.68 3.98-2.58 2.3-0.952 4.98-0.952 3.36 0 5.6 1.18t3.92 3.3l-4.03 2.74q-0.84-0.728-2.3-1.46-1.4-0.784-3.19-0.784-3.19 0-4.98 2.07-1.74 2.02-1.74 5.21t1.74 5.26q1.79 2.02 4.98 2.02 2.13 0 3.47-0.728 1.34-0.784 2.3-1.57l3.86 3.02q-1.74 1.96-3.98 3.14-2.24 1.12-5.66 1.12z" style="font-variant-caps:normal;font-variant-east-asian:normal;font-variant-ligatures:normal;font-variant-numeric:normal"/><path d="m1022-3016q-0.392-2.41-1.9-3.98t-4.48-1.68q-2.74 0-4.59 1.46t-2.41 4.31zm-13.3 3.7q0.616 2.8 2.46 4.31t5.1 1.51q2.35 0 3.98-0.784 1.68-0.784 2.86-1.74l3.3 3.47q-1.79 1.62-4.2 2.74-2.35 1.06-5.88 1.06-3.02 0-5.49-0.896-2.46-0.952-4.2-2.58-1.68-1.62-2.63-3.86-0.952-2.3-0.952-4.93t0.952-4.87q1.01-2.24 2.69-3.86 1.68-1.68 3.98-2.58 2.3-0.952 4.93-0.952 3.02 0 5.32 1.06 2.35 1.06 3.92 2.97 1.57 1.85 2.3 4.48 0.784 2.58 0.616 5.21z" style="font-variant-caps:normal;font-variant-east-asian:normal;font-variant-ligatures:normal;font-variant-numeric:normal"/><path d="m1042-3e3q-4.03 0-6.72-1.46-2.63-1.51-3.81-3.42l3.98-2.8q1.01 1.68 2.58 2.52 1.62 0.784 3.64 0.784 2.13-0.056 3.08-0.784 1.01-0.728 1.01-1.9 0-0.728-0.336-1.18-0.28-0.448-1.01-0.84-0.672-0.392-1.74-0.672-1.06-0.336-2.58-0.616-1.29-0.336-2.58-0.84-1.23-0.56-2.24-1.4-0.952-0.84-1.57-2.02-0.56-1.23-0.56-2.97t0.672-3.02q0.672-1.34 1.79-2.18 1.12-0.896 2.63-1.29 1.57-0.448 3.3-0.448 2.86 0 4.82 1.06 2.02 1.01 3.36 2.46l-3.42 3.58q-0.728-1.29-1.96-2.02-1.18-0.728-3.02-0.784-2.41 0.224-2.86 2.35 0 0.672 0.224 1.12t0.784 0.784 1.51 0.672 2.41 0.672q1.4 0.336 2.69 0.784 1.34 0.448 2.46 1.29 1.18 0.84 1.85 2.13 0.728 1.23 0.728 3.08 0 1.51-0.504 2.86-0.448 1.34-1.57 2.35-1.06 0.952-2.8 1.57-1.74 0.56-4.26 0.56z" style="font-variant-caps:normal;font-variant-east-asian:normal;font-variant-ligatures:normal;font-variant-numeric:normal"/><path d="m1094-3e3q-1.68 0-3.08-0.448-1.34-0.448-2.35-1.46-0.952-1.01-1.51-2.63-0.504-1.62-0.504-3.98v-10.8h-3.53v-4.76h3.53v-12.3h5.77l-0.448 12.3h6.61v4.76h-6.55l0.168 10.9q0.112 2.02 0.728 2.74t1.74 0.728q1.01 0 1.68-0.336 0.672-0.392 1.12-0.952l3.02 3.75q-1.23 1.06-2.69 1.79-1.4 0.672-3.7 0.672z" style="font-variant-caps:normal;font-variant-east-asian:normal;font-variant-ligatures:normal;font-variant-numeric:normal"/><path d="m1117-3007q3.14-0.336 4.76-2.18 1.62-1.9 1.85-5.21 0.056-3.25-1.68-5.21-1.68-1.96-4.93-2.13-3.19 0.112-5.04 2.13-1.85 1.96-1.85 5.21 0.112 3.25 1.96 5.26 1.85 1.96 4.93 2.13zm0 4.87q-2.69 0-4.98-0.896-2.3-0.952-4.03-2.58-1.74-1.68-2.74-3.92-0.952-2.24-0.952-4.87t0.952-4.87q1.01-2.24 2.74-3.86 1.74-1.68 4.03-2.58 2.3-0.952 4.98-0.952t4.98 0.952q2.35 0.896 4.03 2.58 1.68 1.62 2.63 3.86 1.01 2.24 1.01 4.87t-1.01 4.87q-0.952 2.24-2.63 3.92-1.68 1.62-4.03 2.58-2.3 0.896-4.98 0.896z" style="font-variant-caps:normal;font-variant-east-asian:normal;font-variant-ligatures:normal;font-variant-numeric:normal"/><path d="m1166-3039h5.66v36.4h-5.66z" style="font-variant-caps:normal;font-variant-east-asian:normal;font-variant-ligatures:normal;font-variant-numeric:normal"/><path d="m1181-3026h5.66l-0.168 4.03q2.02-4.54 6.61-4.54 2.58 0 4.26 1.18t2.58 3.3q1.34-2.13 3.58-3.47t4.98-1.18q4.2 0.168 6.5 2.74 2.35 2.58 2.35 7.11v14.3h-5.66l0.112-13.8q0-2.46-1.06-3.75-1.01-1.29-3.47-1.29-2.52 0-3.92 1.51-1.34 1.46-1.34 4.42v12.9h-5.66l0.112-13.8q-0.056-2.46-1.12-3.7-1.06-1.29-3.36-1.34-2.52 0-3.98 1.46t-1.4 4.48l0.056 12.9h-5.66z" style="font-variant-caps:normal;font-variant-east-asian:normal;font-variant-ligatures:normal;font-variant-numeric:normal"/><path d="m1236-3007q2.97-0.168 4.76-2.13 1.79-2.02 1.79-5.38 0-3.19-1.79-5.15-1.79-2.02-4.87-2.02-3.02 0-4.82 2.02-1.79 1.96-2.02 5.15 0 3.36 1.85 5.38 1.85 1.96 5.1 2.13zm-12.4-19.2h5.82l-0.168 4.37q1.01-2.18 3.08-3.53 2.13-1.34 5.15-1.34 2.24 0 4.26 0.896t3.47 2.52 2.3 3.86q0.896 2.24 0.896 4.93t-0.896 4.93q-0.84 2.24-2.35 3.92-1.46 1.62-3.47 2.58-2.02 0.896-4.31 0.896-2.97 0-5.04-1.29-2.02-1.29-3.14-3.25l0.168 15.9h-5.77z" style="font-variant-caps:normal;font-variant-east-asian:normal;font-variant-ligatures:normal;font-variant-numeric:normal"/><path d="m1255-3026h5.66l-0.168 4.42q1.29-2.58 3.14-3.81t3.81-1.12q1.29 0.112 2.18 0.448t1.68 0.672l-1.9 4.93q-0.672-0.448-1.34-0.672-0.616-0.224-1.74-0.224-2.52 0.224-4.09 1.85t-1.79 5.6l0.224 11.4h-5.66z" style="font-variant-caps:normal;font-variant-east-asian:normal;font-variant-ligatures:normal;font-variant-numeric:normal"/><path d="m1287-3007q3.14-0.336 4.76-2.18 1.62-1.9 1.85-5.21 0.056-3.25-1.68-5.21-1.68-1.96-4.93-2.13-3.19 0.112-5.04 2.13-1.85 1.96-1.85 5.21 0.112 3.25 1.96 5.26 1.85 1.96 4.93 2.13zm0 4.87q-2.69 0-4.98-0.896-2.3-0.952-4.03-2.58-1.74-1.68-2.74-3.92-0.952-2.24-0.952-4.87t0.952-4.87q1.01-2.24 2.74-3.86 1.74-1.68 4.03-2.58 2.3-0.952 4.98-0.952t4.98 0.952q2.35 0.896 4.03 2.58 1.68 1.62 2.63 3.86 1.01 2.24 1.01 4.87t-1.01 4.87q-0.952 2.24-2.63 3.92-1.68 1.62-4.03 2.58-2.3 0.896-4.98 0.896z" style="font-variant-caps:normal;font-variant-east-asian:normal;font-variant-ligatures:normal;font-variant-numeric:normal"/><path d="m1303-3026h6.27l6.38 15.5 6.27-15.5h5.77l-11.9 24h-0.728z" style="font-variant-caps:normal;font-variant-east-asian:normal;font-variant-ligatures:normal;font-variant-numeric:normal"/><path d="m1350-3016q-0.392-2.41-1.9-3.98t-4.48-1.68q-2.74 0-4.59 1.46t-2.41 4.31zm-13.3 3.7q0.616 2.8 2.46 4.31t5.1 1.51q2.35 0 3.98-0.784 1.68-0.784 2.86-1.74l3.3 3.47q-1.79 1.62-4.2 2.74-2.35 1.06-5.88 1.06-3.02 0-5.49-0.896-2.46-0.952-4.2-2.58-1.68-1.62-2.63-3.86-0.952-2.3-0.952-4.93t0.952-4.87q1.01-2.24 2.69-3.86 1.68-1.68 3.98-2.58 2.3-0.952 4.93-0.952 3.02 0 5.32 1.06 2.35 1.06 3.92 2.97 1.57 1.85 2.3 4.48 0.784 2.58 0.616 5.21z" style="font-variant-caps:normal;font-variant-east-asian:normal;font-variant-ligatures:normal;font-variant-numeric:normal"/><path d="m1409-3040q1.01 0 2.07 0.168t2.02 0.392 1.74 0.504q0.784 0.224 1.18 0.448v5.99q-0.672-0.56-1.57-0.952-0.896-0.448-1.85-0.728-0.952-0.336-1.9-0.504t-1.74-0.168q-2.63 0-5.04 1.01-2.41 0.952-4.26 2.8-1.79 1.79-2.86 4.31-1.06 2.46-1.06 5.49 0 3.14 1.12 5.66t2.97 4.31q1.85 1.74 4.14 2.69 2.35 0.952 4.7 0.952 2.46 0 4.26-0.56 1.79-0.616 3.81-1.96v6.05q-1.62 0.896-3.86 1.23t-4.7 0.336q-3.3 0-6.61-1.29t-5.94-3.7q-2.58-2.41-4.2-5.88t-1.62-7.9q0-3.98 1.4-7.39 1.46-3.42 3.98-5.94 2.58-2.52 6.1-3.92 3.53-1.46 7.73-1.46z" style="font-variant-caps:normal;font-variant-east-asian:normal;font-variant-ligatures:normal;font-variant-numeric:normal"/><path d="m1434-3007q3.14-0.336 4.76-2.18 1.62-1.9 1.85-5.21 0.056-3.25-1.68-5.21-1.68-1.96-4.93-2.13-3.19 0.112-5.04 2.13-1.85 1.96-1.85 5.21 0.112 3.25 1.96 5.26 1.85 1.96 4.93 2.13zm0 4.87q-2.69 0-4.98-0.896-2.3-0.952-4.03-2.58-1.74-1.68-2.74-3.92-0.952-2.24-0.952-4.87t0.952-4.87q1.01-2.24 2.74-3.86 1.74-1.68 4.03-2.58 2.3-0.952 4.98-0.952t4.98 0.952q2.35 0.896 4.03 2.58 1.68 1.62 2.63 3.86 1.01 2.24 1.01 4.87t-1.01 4.87q-0.952 2.24-2.63 3.92-1.68 1.62-4.03 2.58-2.3 0.896-4.98 0.896z" style="font-variant-caps:normal;font-variant-east-asian:normal;font-variant-ligatures:normal;font-variant-numeric:normal"/><path d="m1464-3007q3.14 0 4.98-1.96 1.85-2.02 1.85-5.38 0-3.19-1.85-5.15-1.85-2.02-4.98-2.02-3.08 0-4.87 2.02-1.79 1.96-1.9 5.15 0.112 3.36 1.9 5.38 1.79 1.96 4.87 1.96zm-1.46 4.98q-2.3 0-4.31-0.896-2.02-0.952-3.53-2.58-1.46-1.68-2.35-3.92-0.84-2.24-0.896-4.93 0.056-2.69 0.896-4.93 0.896-2.24 2.35-3.86 1.51-1.62 3.47-2.52 2.02-0.896 4.26-0.896 3.14 0 5.04 1.29 1.96 1.29 3.3 3.3l-0.336-21h5.88v40.4h-5.71l0.168-4.26q-1.12 2.13-3.19 3.47-2.07 1.29-5.04 1.29z" style="font-variant-caps:normal;font-variant-east-asian:normal;font-variant-ligatures:normal;font-variant-numeric:normal"/><path d="m1502-3016q-0.392-2.41-1.9-3.98t-4.48-1.68q-2.74 0-4.59 1.46t-2.41 4.31zm-13.3 3.7q0.616 2.8 2.46 4.31t5.1 1.51q2.35 0 3.98-0.784 1.68-0.784 2.86-1.74l3.3 3.47q-1.79 1.62-4.2 2.74-2.35 1.06-5.88 1.06-3.02 0-5.49-0.896-2.46-0.952-4.2-2.58-1.68-1.62-2.63-3.86-0.952-2.3-0.952-4.93t0.952-4.87q1.01-2.24 2.69-3.86 1.68-1.68 3.98-2.58 2.3-0.952 4.93-0.952 3.02 0 5.32 1.06 2.35 1.06 3.92 2.97 1.57 1.85 2.3 4.48 0.784 2.58 0.616 5.21z" style="font-variant-caps:normal;font-variant-east-asian:normal;font-variant-ligatures:normal;font-variant-numeric:normal"/><path d="m1578-3021q0 3.14-1.01 5.99-0.952 2.8-2.69 5.15t-4.14 4.14q-2.41 1.74-5.21 2.63l8.51 7.28h-7.67l-6.61-6.5q-3.92 0-7.39-1.46-3.42-1.46-5.99-3.98-2.52-2.58-4.03-5.99-1.46-3.42-1.46-7.28t1.46-7.28q1.51-3.42 4.03-5.94 2.58-2.52 5.99-3.98 3.47-1.51 7.39-1.51t7.34 1.51q3.42 1.46 5.94 3.98 2.58 2.52 4.03 5.94 1.51 3.42 1.51 7.28zm-5.94-0.056q0-3.02-1.06-5.49-1.01-2.52-2.8-4.31-1.74-1.85-4.09-2.86t-4.98-1.01q-2.69 0-5.04 1.01-2.3 1.01-4.09 2.86-1.74 1.79-2.74 4.31t-1.01 5.54q0 3.14 1.12 5.66 1.18 2.52 3.02 4.31 1.9 1.74 4.26 2.74 2.35 0.952 4.76 0.952t4.65-0.952q2.3-1.01 4.03-2.8 1.79-1.79 2.86-4.31 1.12-2.52 1.12-5.66z" style="font-variant-caps:normal;font-variant-east-asian:normal;font-variant-ligatures:normal;font-variant-numeric:normal"/><path d="m1594-3e3q-3.86 0-6.33-2.58-2.41-2.63-2.41-7.45v-14h5.66l-0.168 13.6q0.056 2.52 1.29 3.92t3.75 1.4q2.8 0 4.37-1.62 1.62-1.62 1.74-4.48l-0.112-12.8h5.66v23.5h-5.71l0.224-4.31q-1.18 2.3-3.25 3.58-2.02 1.23-4.7 1.23z" style="font-variant-caps:normal;font-variant-east-asian:normal;font-variant-ligatures:normal;font-variant-numeric:normal"/><path d="m1622-3013q-1.85 0-2.97 0.728-1.12 0.672-1.12 2.24 0 3.08 4.48 3.08 2.52 0 4.09-1.12t1.57-3.08v-1.85zm6.05-3.58q0-3.19-1.23-4.42-1.18-1.23-3.47-1.23-2.35 0-3.81 0.84-1.4 0.84-2.35 1.68l-3.25-3.02q1.57-1.85 3.81-3.02 2.3-1.18 6.05-1.18 2.13 0 3.92 0.616 1.85 0.616 3.14 1.85 1.34 1.23 2.07 3.19 0.784 1.9 0.784 4.48v13.9h-5.66l0.112-3.36q-1.23 1.9-2.97 2.91-1.74 0.952-4.37 0.952-1.74 0-3.3-0.448-1.51-0.392-2.69-1.29-1.12-0.896-1.79-2.3-0.672-1.46-0.672-3.42 0-1.85 0.672-3.14 0.728-1.34 1.96-2.18 1.23-0.896 2.91-1.29 1.68-0.448 3.7-0.448z" style="font-variant-caps:normal;font-variant-east-asian:normal;font-variant-ligatures:normal;font-variant-numeric:normal"/><path d="m1641-3043h5.66v40.4h-5.66z" style="font-variant-caps:normal;font-variant-east-asian:normal;font-variant-ligatures:normal;font-variant-numeric:normal"/><path d="m1654-3026h5.71v23.5h-5.71zm2.86-5.38q-1.51 0-2.63-1.01-1.12-1.06-1.12-2.74 0-1.62 1.12-2.63 1.12-1.06 2.63-1.06t2.63 1.06q1.12 1.01 1.12 2.63 0 1.68-1.12 2.74-1.12 1.01-2.63 1.01z" style="font-variant-caps:normal;font-variant-east-asian:normal;font-variant-ligatures:normal;font-variant-numeric:normal"/><path d="m1677-3e3q-1.68 0-3.08-0.448-1.34-0.448-2.35-1.46-0.952-1.01-1.51-2.63-0.504-1.62-0.504-3.98v-10.8h-3.53v-4.76h3.53v-12.3h5.77l-0.448 12.3h6.61v4.76h-6.55l0.168 10.9q0.112 2.02 0.728 2.74t1.74 0.728q1.01 0 1.68-0.336 0.672-0.392 1.12-0.952l3.02 3.75q-1.23 1.06-2.69 1.79-1.4 0.672-3.7 0.672z" style="font-variant-caps:normal;font-variant-east-asian:normal;font-variant-ligatures:normal;font-variant-numeric:normal"/><path d="m1695-3e3 -9.91-21.2h6.27l6.27 16.6 6.33-16.6h5.88l-15.4 35.4h-5.82z" style="font-variant-caps:normal;font-variant-east-asian:normal;font-variant-ligatures:normal;font-variant-numeric:normal"/></g></g></g></svg>
