<?xml version="1.0" encoding="UTF-8" standalone="no"?>
<svg
   xmlns:dc="http://purl.org/dc/elements/1.1/"
   xmlns:cc="http://creativecommons.org/ns#"
   xmlns:rdf="http://www.w3.org/1999/02/22-rdf-syntax-ns#"
   xmlns:svg="http://www.w3.org/2000/svg"
   xmlns="http://www.w3.org/2000/svg"
   xmlns:sodipodi="http://sodipodi.sourceforge.net/DTD/sodipodi-0.dtd"
   xmlns:inkscape="http://www.inkscape.org/namespaces/inkscape"
   sodipodi:docname="logo_black.svg"
   inkscape:version="1.0 (4035a4f, 2020-05-01)"
   id="svg8"
   version="1.1"
   viewBox="0 0 503.76666 196.84999"
   height="196.84999mm"
   width="503.76666mm">
  <defs
     id="defs2" />
  <sodipodi:namedview
     inkscape:snap-global="false"
     fit-margin-bottom="0"
     fit-margin-right="0"
     fit-margin-left="0"
     fit-margin-top="0"
     inkscape:window-maximized="0"
     inkscape:window-y="23"
     inkscape:window-x="0"
     inkscape:window-height="855"
     inkscape:window-width="1252"
     showgrid="false"
     inkscape:document-rotation="0"
     inkscape:current-layer="layer1"
     inkscape:document-units="mm"
     inkscape:cy="328"
     inkscape:cx="984"
     inkscape:zoom="0.47284483"
     inkscape:pageshadow="2"
     inkscape:pageopacity="0.0"
     borderopacity="1.0"
     bordercolor="#666666"
     pagecolor="#ffffff"
     id="base" />
  <metadata
     id="metadata5">
    <rdf:RDF>
      <cc:Work
         rdf:about="">
        <dc:format>image/svg+xml</dc:format>
        <dc:type
           rdf:resource="http://purl.org/dc/dcmitype/StillImage" />
        <dc:title></dc:title>
      </cc:Work>
    </rdf:RDF>
  </metadata>
  <g
     transform="translate(196.84999,495.29999)"
     id="layer1"
     inkscape:groupmode="layer"
     inkscape:label="Layer 1">
    <g
       transform="matrix(0.78561324,0.03915828,-0.03915828,0.78561324,-52.168439,-97.609767)"
       id="g1169">
      <g
         aria-label="Analysis"
         transform="rotate(-8.9686787,-121.16463,99.47803)"
         id="text835"
         style="font-style:normal;font-variant:normal;font-weight:normal;font-stretch:normal;font-size:102.658px;line-height:1.25;font-family:'Signatra DEMO';-inkscape-font-specification:'Signatra DEMO, Normal';font-variant-ligatures:normal;font-variant-caps:normal;font-variant-numeric:normal;font-variant-east-asian:normal;fill:#000000;fill-opacity:1;stroke:none;stroke-width:0.264583">
        <path
           d="m -90.714601,-397.41611 c 0,1.43721 1.642528,6.57011 2.874424,7.0834 1.231896,0.61595 2.874424,1.02658 4.927584,1.12924 -2.977082,4.10632 -6.878086,9.5472 -9.855168,13.65352 -0.718606,1.12923 -2.463792,3.49037 -1.437212,4.82492 1.334554,1.53987 7.802008,5.1329 9.033904,4.10632 0.205316,-0.10266 0.205316,-0.30797 0.307974,-0.51329 0.205316,-1.64253 0.718606,-2.46379 1.437212,-3.901 3.07974,-5.44088 7.494034,-12.62694 11.29238,-18.37578 5.543531,-0.61595 10.984405,-1.95051 16.630595,-2.25848 -1.231896,7.69935 -2.155818,14.78275 -2.155818,19.71034 0.102658,2.25847 4.311636,4.51695 6.775428,4.51695 0.923922,0 1.231896,-0.41063 1.231896,-1.2319 0,-9.85517 8.109982,-47.63331 14.166803,-58.51506 0.410632,-0.7186 0.821264,-1.12923 1.334554,-1.74518 0.102658,-0.10266 0.205316,-0.30798 0.205316,-0.51329 0,-1.53987 -6.980743,-4.20898 -9.033903,-4.20898 -0.410632,0 -1.02658,0.51329 -1.642528,1.53987 -1.334554,-0.92392 -2.669108,-1.53987 -3.59303,-0.51329 -9.75251,11.08706 -19.607678,23.50868 -29.257529,36.23827 h -0.102658 c -4.10632,0 -8.417956,-0.92392 -12.113644,-2.46379 -0.307974,-0.10266 -0.51329,-0.10266 -0.718606,0.10266 -0.205316,0.30797 -0.307974,0.82126 -0.307974,1.33455 z m 33.774481,-0.10266 c -3.387714,0 -6.775428,0.30798 -10.163142,0.61595 5.851506,-8.62327 12.216302,-17.14388 18.47844,-24.94589 -2.05316,6.87809 -4.208978,16.01465 -5.851506,24.84323 -0.718606,-0.30797 -1.53987,-0.51329 -2.463792,-0.51329 z"
           style="font-style:normal;font-variant:normal;font-weight:normal;font-stretch:normal;font-size:102.658px;font-family:'Signatra DEMO';-inkscape-font-specification:'Signatra DEMO, Normal';font-variant-ligatures:normal;font-variant-caps:normal;font-variant-numeric:normal;font-variant-east-asian:normal;stroke-width:0.264583"
           id="path845" />
        <path
           d="m -43.190365,-372.36756 c 0,2.15582 4.003662,4.92759 6.467454,4.92759 0.615948,0 1.231896,-0.10266 1.231896,-1.12924 0.51329,-6.98074 9.136562,-26.38311 16.014647,-33.77448 -3.079739,8.62327 -5.851505,20.73691 -6.878085,29.46284 -0.307974,2.66911 2.361134,5.44088 5.954164,5.44088 8.828587,0 17.759833,-22.99539 20.42894095,-29.87348 0.61594799,-1.74519 -1.95050195,-2.77177 -2.66910795,-1.02658 -2.6691079,6.98074 -7.391376,18.99173 -13.653514,25.25387 -1.02658,1.02658 -1.745186,0.82126 -1.437212,-0.71861 1.231896,-7.18606 4.003662,-18.27312 7.18606,-27.10171 0.410632,-0.92392 0.7186062,-1.74518 1.1292382,-2.56645 0.205316,-0.41063 0.307974,-0.7186 0.307974,-1.12924 0,-1.9505 -5.4408742,-3.79834 -6.8780862,-3.79834 -0.718606,0 -1.437212,0.20531 -1.950502,0.7186 -4.927583,4.10632 -10.368457,13.85883 -14.064145,21.7635 1.334554,-5.54353 3.182398,-11.39504 5.030242,-16.32262 0.410632,-1.02658 1.53987,-2.36114 0.51329,-3.1824 -1.231896,-1.12924 -4.61961,-2.97708 -6.67277,-2.97708 -0.51329,0 -1.129238,0.51329 -1.437212,1.33455 -4.311636,9.85517 -7.69935,23.91931 -8.623272,34.6984 z"
           style="font-style:normal;font-variant:normal;font-weight:normal;font-stretch:normal;font-size:102.658px;font-family:'Signatra DEMO';-inkscape-font-specification:'Signatra DEMO, Normal';font-variant-ligatures:normal;font-variant-caps:normal;font-variant-numeric:normal;font-variant-east-asian:normal;stroke-width:0.264583"
           id="path847" />
        <path
           d="m 8.7577933,-374.42072 c -0.307974,3.28506 2.0531597,6.98075 5.6461897,6.98075 8.828588,0 17.349202,-22.99539 20.01831,-29.87348 0.615948,-1.74519 -1.950502,-2.77177 -2.669108,-1.02658 -2.669108,6.98074 -6.980744,18.99173 -13.242882,25.25387 -0.821264,0.82126 -1.745186,0.82126 -1.437212,-0.71861 1.334554,-7.49403 3.901004,-19.40236 7.288718,-28.43626 0.410632,-1.02658 1.642528,-2.36114 0.51329,-3.1824 -1.231896,-1.12924 -4.61961,-2.97708 -6.570112,-2.97708 -0.615948,0 -1.129238,0.51329 -1.53987,1.33455 -0.102658,0.41063 -0.307974,1.02658 -0.51329,1.33456 -3.695688,-1.84785 -7.3913757,-4.31164 -10.5737736,-2.4638 -10.1631417,5.44088 -15.9119894,23.20071 -14.5774356,34.39043 0.410632,3.69569 2.6691079,6.3648 6.7754278,6.3648 4.6196099,0 8.5206138,-5.33822 11.4976957,-11.60036 0,0.30798 0,0.51329 -0.102658,0.71861 -0.205316,1.33455 -0.307974,2.56645 -0.51329,3.901 z m -7.90466576,1.64253 c -1.64252795,0 -1.43721196,-3.69569 -1.33455396,-4.82492 0.61594798,-8.82859 6.05682182,-26.48577 13.14022342,-26.48577 1.129238,0 1.950502,0.51329 2.463792,1.33456 -0.410632,0.82126 -0.718606,1.74518 -1.02658,2.6691 -1.53987,4.82493 -8.3152976,27.30703 -13.24288146,27.30703 z"
           style="font-style:normal;font-variant:normal;font-weight:normal;font-stretch:normal;font-size:102.658px;font-family:'Signatra DEMO';-inkscape-font-specification:'Signatra DEMO, Normal';font-variant-ligatures:normal;font-variant-caps:normal;font-variant-numeric:normal;font-variant-east-asian:normal;stroke-width:0.264583"
           id="path849" />
        <path
           d="m 25.587282,-377.50046 c -0.307974,4.00367 -0.410632,10.06049 5.235557,10.06049 8.828588,0 17.759834,-22.99539 20.428942,-29.87348 0.718606,-1.74519 -1.950502,-2.77177 -2.669108,-1.02658 -2.56645,6.77543 -7.083402,18.37578 -13.037566,24.74058 -1.53987,1.53987 -1.950502,1.12924 -1.745186,-1.12924 1.847844,-14.47478 8.520614,-43.21902 13.653514,-52.45824 0.410632,-0.7186 0.821264,-1.12923 1.334554,-1.74518 0.102658,-0.10266 0.205316,-0.30798 0.205316,-0.51329 0,-1.53987 -6.980744,-4.20898 -8.931246,-4.20898 -4.003662,0 -12.832249,36.34093 -14.474777,56.15392 z"
           style="font-style:normal;font-variant:normal;font-weight:normal;font-stretch:normal;font-size:102.658px;font-family:'Signatra DEMO';-inkscape-font-specification:'Signatra DEMO, Normal';font-variant-ligatures:normal;font-variant-caps:normal;font-variant-numeric:normal;font-variant-east-asian:normal;stroke-width:0.264583"
           id="path851" />
        <path
           d="m 69.633982,-407.06596 c -1.129238,2.46379 -1.950502,4.92759 -2.669108,7.49403 -0.102658,0.51329 -0.307974,1.02658 -0.410632,1.53987 -2.463792,7.18606 -8.828588,25.25387 -13.242882,25.25387 -1.231896,0 -1.950502,-1.33455 -1.437212,-3.69569 1.53987,-7.49403 4.208978,-17.75983 7.288718,-25.76715 0.307974,-1.02658 1.53987,-2.36114 0.410632,-3.1824 -1.231896,-1.12924 -4.61961,-2.97708 -6.570112,-2.97708 -0.51329,0 -1.129238,0.51329 -1.53987,1.33455 -3.490372,8.10998 -6.364796,19.09439 -7.904665,28.74424 -0.102658,1.33455 -0.307974,2.56645 -0.51329,3.901 -0.307974,2.97709 3.387713,6.98075 7.288717,6.98075 4.61961,0 8.417956,-5.23556 11.395038,-11.4977 -0.718606,3.07974 -1.334554,6.05682 -2.05316,9.03391 -4.414294,3.07974 -10.2658,5.8515 -14.064146,10.16314 -3.079739,3.59303 -4.824925,9.44453 -1.847843,13.55085 1.539869,2.15582 4.106319,3.28506 6.570111,3.28506 8.109982,0 11.497696,-4.61961 13.85883,-11.39504 2.361134,-6.36479 4.10632,-13.03756 5.64619,-19.71033 6.775428,-5.64619 13.448197,-13.03757 17.349201,-23.40603 0.718606,-1.64253 -1.950502,-2.66911 -2.56645,-0.92392 -3.285056,8.3153 -8.212639,14.57744 -13.653513,19.60768 l 0.205316,-0.92392 c 1.437212,-6.3648 3.387714,-13.96149 5.543532,-21.14755 0.307974,-0.92392 0.615948,-1.74519 1.02658,-2.56645 0.410632,-0.71861 0.615948,-1.53987 0,-2.05316 -1.334554,-1.12924 -4.61961,-2.97708 -6.67277,-2.97708 -0.51329,0 -1.129238,0.51329 -1.437212,1.33455 z m -20.223626,59.33632 c -1.950502,0 -3.07974,-2.05316 -3.182398,-3.79834 -0.410632,-6.57011 7.596692,-10.88175 12.216302,-14.06415 -1.334554,4.61961 -2.669108,8.93125 -3.901004,12.52428 -1.334554,3.69569 -3.387714,5.33821 -5.1329,5.33821 z"
           style="font-style:normal;font-variant:normal;font-weight:normal;font-stretch:normal;font-size:102.658px;font-family:'Signatra DEMO';-inkscape-font-specification:'Signatra DEMO, Normal';font-variant-ligatures:normal;font-variant-caps:normal;font-variant-numeric:normal;font-variant-east-asian:normal;stroke-width:0.264583"
           id="path853" />
        <path
           d="m 82.655508,-366.82402 c 7.904666,0 17.657172,-5.44088 16.42528,-14.47478 6.056822,-3.28506 10.163142,-8.3153 12.729592,-16.11731 0.51329,-1.74518 -2.15582,-2.66911 -2.66911,-0.92392 -2.05316,6.15948 -5.33821,11.08706 -10.984404,14.26946 -2.155818,-4.61961 -7.69935,-8.52061 -7.69935,-13.96149 0,-1.84784 1.129238,-6.26213 3.695688,-6.26213 1.129238,0 1.642528,1.02658 1.642528,2.25847 0,1.9505 -1.437212,4.72227 -3.182398,4.72227 -0.102658,0.10266 -0.205316,0.20532 -0.205316,0.41063 0,1.02658 3.182398,2.56645 5.440874,2.56645 1.437212,0 3.695688,-3.79834 3.695688,-5.95416 0,-3.69569 -4.722268,-8.93125 -8.417956,-8.93125 -5.64619,0 -11.29238,3.90101 -11.29238,10.47112 0,7.90466 7.083402,11.70301 8.007324,17.86249 -1.950502,0.41063 -4.311636,0.41063 -6.570112,0.71861 -2.874423,0.30797 -5.543531,1.23189 -7.083401,3.79834 -2.669108,4.10632 -0.102658,9.5472 6.467453,9.5472 z m 7.083402,-11.08707 c -0.821264,2.77177 -3.387714,5.64619 -6.262138,6.67277 -4.824925,1.64253 -6.262137,-4.72227 -1.745186,-5.8515 2.361134,-0.61595 5.851506,-0.30798 8.007324,-0.82127 z"
           style="font-style:normal;font-variant:normal;font-weight:normal;font-stretch:normal;font-size:102.658px;font-family:'Signatra DEMO';-inkscape-font-specification:'Signatra DEMO, Normal';font-variant-ligatures:normal;font-variant-caps:normal;font-variant-numeric:normal;font-variant-east-asian:normal;stroke-width:0.264583"
           id="path855" />
        <path
           d="m 102.67862,-374.42072 c -0.30797,3.28506 2.05316,6.98075 5.64619,6.98075 8.82859,0 17.75984,-22.99539 20.42895,-29.87348 0.61594,-1.74519 -1.95051,-2.77177 -2.66911,-1.02658 -2.66911,6.98074 -7.39138,18.99173 -13.65352,25.25387 -0.82126,0.82126 -1.74518,0.82126 -1.43721,-0.71861 1.33456,-7.49403 4.31164,-19.40236 7.80201,-28.43626 0.30797,-1.02658 1.53987,-2.36114 0.41063,-3.1824 -1.23189,-1.12924 -4.61961,-2.97708 -6.57011,-2.97708 -0.61595,0 -1.12924,0.51329 -1.53987,1.33455 -3.49037,8.10998 -6.3648,19.09439 -7.90467,28.74424 -0.20531,1.33455 -0.30797,2.56645 -0.51329,3.901 z m 16.52794,-52.45823 c -1.33455,2.46379 -6.77543,15.80933 -0.92392,15.60401 2.46379,-0.10265 8.00732,-8.41795 9.85517,-11.49769 1.12924,-1.84785 1.12924,-3.1824 -0.41063,-4.20898 -1.95051,-1.33455 -4.92759,-2.66911 -6.05683,-2.77177 -0.7186,0 -1.53987,1.02658 -2.46379,2.87443 z"
           style="font-style:normal;font-variant:normal;font-weight:normal;font-stretch:normal;font-size:102.658px;font-family:'Signatra DEMO';-inkscape-font-specification:'Signatra DEMO, Normal';font-variant-ligatures:normal;font-variant-caps:normal;font-variant-numeric:normal;font-variant-east-asian:normal;stroke-width:0.264583"
           id="path857" />
        <path
           d="m 125.36284,-366.82402 c 7.90467,0 17.65718,-5.44088 16.42528,-14.47478 6.05683,-3.28506 10.16315,-8.3153 12.7296,-16.11731 0.51329,-1.74518 -2.15582,-2.66911 -2.66911,-0.92392 -2.05316,6.15948 -5.33822,11.08706 -10.98441,14.26946 -2.15582,-4.61961 -7.69935,-8.52061 -7.69935,-13.96149 0,-1.84784 1.12924,-6.26213 3.69569,-6.26213 1.12924,0 1.64253,1.02658 1.64253,2.25847 0,1.9505 -1.43721,4.72227 -3.1824,4.72227 -0.10266,0.10266 -0.20532,0.20532 -0.20532,0.41063 0,1.02658 3.1824,2.56645 5.44088,2.56645 1.43721,0 3.69569,-3.79834 3.69569,-5.95416 0,-3.69569 -4.72227,-8.93125 -8.41796,-8.93125 -5.64619,0 -11.29238,3.90101 -11.29238,10.47112 0,7.90466 7.0834,11.70301 8.00732,17.86249 -1.9505,0.41063 -4.31163,0.41063 -6.57011,0.71861 -2.87442,0.30797 -5.54353,1.23189 -7.0834,3.79834 -2.66911,4.10632 -0.10266,9.5472 6.46745,9.5472 z m 7.08341,-11.08707 c -0.82127,2.77177 -3.38772,5.64619 -6.26214,6.67277 -4.82493,1.64253 -6.26214,-4.72227 -1.74519,-5.8515 2.36114,-0.61595 5.85151,-0.30798 8.00733,-0.82127 z"
           style="font-style:normal;font-variant:normal;font-weight:normal;font-stretch:normal;font-size:102.658px;font-family:'Signatra DEMO';-inkscape-font-specification:'Signatra DEMO, Normal';font-variant-ligatures:normal;font-variant-caps:normal;font-variant-numeric:normal;font-variant-east-asian:normal;stroke-width:0.264583"
           id="path859" />
      </g>
      <g
         aria-label="-"
         transform="rotate(-3.8688633,-270.11776,242.673)"
         id="text889"
         style="font-style:normal;font-variant:normal;font-weight:normal;font-stretch:normal;font-size:102.658px;line-height:1.25;font-family:'Signatra DEMO';-inkscape-font-specification:'Signatra DEMO, Normal';font-variant-ligatures:normal;font-variant-caps:normal;font-variant-numeric:normal;font-variant-east-asian:normal;fill:#000000;fill-opacity:1;stroke:none;stroke-width:0.264583">
        <path
           d="m 127.63524,-401.75882 c 7.49403,-0.41063 15.09072,-1.23189 22.58476,-0.82126 0.82126,0.10266 1.23189,-0.10266 1.33455,-1.02658 0.30797,-2.46379 -1.43721,-6.15948 -3.49037,-6.26214 -6.05682,-0.20531 -13.03757,0.30798 -19.29971,0.61595 -1.74518,0.10266 -3.69568,0.10266 -4.82492,-0.30797 -0.51329,-0.20532 -1.02658,-0.20532 -0.92392,0.82126 0.10265,1.33455 0.51329,3.07974 0.92392,4.51695 0.82126,2.36113 2.25847,2.56645 3.69569,2.46379 z"
           style="font-style:normal;font-variant:normal;font-weight:normal;font-stretch:normal;font-size:102.658px;font-family:'Signatra DEMO';-inkscape-font-specification:'Signatra DEMO, Normal';font-variant-ligatures:normal;font-variant-caps:normal;font-variant-numeric:normal;font-variant-east-asian:normal;stroke-width:0.264583"
           id="path891" />
      </g>
    </g>
    <g
       transform="rotate(4.860115,372.32917,-332.03446)"
       id="g1197">
      <path
         style="fill:#ffffff;fill-opacity:1;stroke:none;stroke-width:0.264583px;stroke-linecap:butt;stroke-linejoin:miter;stroke-opacity:1"
         d="m -7.407354,-376.49016 c 20.734135,-13.44168 51.272819,-16.09266 56.554417,-17.13789 l 1.790749,4.91516 -57.4655516,16.4824 z"
         id="path894"
         sodipodi:nodetypes="ccccc" />
      <g
         aria-label="Tools"
         transform="rotate(-8.9686787,-393.27819,-528.18804)"
         id="text839"
         style="font-style:normal;font-variant:normal;font-weight:normal;font-stretch:normal;font-size:102.658px;line-height:1.25;font-family:'Signatra DEMO';-inkscape-font-specification:'Signatra DEMO, Normal';font-variant-ligatures:normal;font-variant-caps:normal;font-variant-numeric:normal;font-variant-east-asian:normal;fill:#000000;fill-opacity:1;stroke:none;stroke-width:1.565;stroke-miterlimit:4;stroke-dasharray:none;stroke-opacity:1">
        <path
           d="m 19.55669,-321.85993 c -14.4747773,-0.92392 -32.131953,-0.41063 -47.325336,3.59303 -2.669108,0.61595 -4.208978,1.43721 -4.311636,2.25847 -0.205316,1.95051 1.53987,8.93125 3.07974,9.03391 0.102658,0.10266 0.307974,0 0.51329,-0.10266 0.51329,-0.41063 1.02658,-0.82126 1.745186,-1.02658 4.516952,-1.84784 9.957825,-2.56645 19.6076771,-3.901 -2.258476,6.26213 -3.9010041,12.52427 -5.2355581,18.88907 -2.669108,12.11364 -4.722268,25.25387 -4.722268,32.95322 0,2.25847 4.208978,4.51695 6.775428,4.51695 0.8212641,0 1.2318961,-0.41064 1.2318961,-1.2319 0,-7.28872 4.3116359,-29.66816 9.13656178,-45.37483 0.82126398,-2.66911 1.74518592,-4.92759 2.56644992,-6.67277 1.129238,-2.25848 1.745186,-2.87443 -0.821264,-4.10632 6.5701119,-0.71861 13.6535132,-1.2319 20.0183092,-0.82127 0.821264,0 1.231896,-0.20531 1.334554,-1.12924 0.205316,-2.36113 -1.437212,-6.77542 -3.59303,-6.87808 z"
           style="font-style:normal;font-variant:normal;font-weight:normal;font-stretch:normal;font-size:102.658px;font-family:'Signatra DEMO';-inkscape-font-specification:'Signatra DEMO, Normal';font-variant-ligatures:normal;font-variant-caps:normal;font-variant-numeric:normal;font-variant-east-asian:normal;stroke:none;stroke-width:1.565;stroke-miterlimit:4;stroke-dasharray:none;stroke-opacity:1"
           id="path862" />
        <path
           d="m 17.213199,-262.83158 c -2.56645,-5.54353 0.307974,-20.12097 6.15948,-26.58842 3.695688,-4.00367 7.391376,-3.59303 7.391376,3.18239 0,6.57012 -2.874424,16.52794 -6.570112,21.86616 -2.258476,0.7186 -3.695688,1.12924 -5.954164,1.33455 -0.410632,0 -0.718606,0.10266 -1.02658,0.20532 z m 4.10632,-33.56917 c -8.623272,4.51695 -13.8588295,17.86249 -13.8588295,28.02564 0,5.33821 4.4142935,12.72959 11.8056695,12.72959 6.056822,0 11.497696,-4.51695 15.296042,-10.77909 7.18606,-4.51695 12.729591,-11.08707 16.014647,-19.09439 0.615948,-1.74519 -1.950502,-2.77177 -2.669108,-1.12924 -2.258476,5.74885 -6.056821,10.77909 -10.573773,14.78275 1.950502,-4.61961 2.977082,-9.75251 2.977082,-14.37212 0,-4.61961 -5.338216,-9.0339 -11.703012,-9.0339 -2.05316,-1.43721 -5.030242,-2.25848 -7.288718,-1.12924 z"
           style="font-style:normal;font-variant:normal;font-weight:normal;font-stretch:normal;font-size:102.658px;font-family:'Signatra DEMO';-inkscape-font-specification:'Signatra DEMO, Normal';font-variant-ligatures:normal;font-variant-caps:normal;font-variant-numeric:normal;font-variant-east-asian:normal;stroke:none;stroke-width:1.565;stroke-miterlimit:4;stroke-dasharray:none;stroke-opacity:1"
           id="path864" />
        <path
           d="m 51.098358,-262.83158 c -2.56645,-5.54353 0.307974,-20.12097 6.15948,-26.58842 3.695688,-4.00367 7.391375,-3.59303 7.391375,3.18239 0,6.57012 -2.874423,16.52794 -6.570111,21.86616 -2.258476,0.7186 -3.695688,1.12924 -5.954164,1.33455 -0.410632,0 -0.718606,0.10266 -1.02658,0.20532 z m 4.10632,-33.56917 c -8.623272,4.51695 -13.85883,17.86249 -13.85883,28.02564 0,5.33821 4.414294,12.72959 11.80567,12.72959 6.056822,0 11.497695,-4.51695 15.296041,-10.77909 7.18606,-4.51695 12.729592,-11.08707 16.014648,-19.09439 0.615948,-1.74519 -1.950502,-2.77177 -2.669108,-1.12924 -2.258476,5.74885 -6.056822,10.77909 -10.573774,14.78275 1.950502,-4.61961 2.977082,-9.75251 2.977082,-14.37212 0,-4.61961 -5.338216,-9.0339 -11.703012,-9.0339 -2.053159,-1.43721 -5.030241,-2.25848 -7.288717,-1.12924 z"
           style="font-style:normal;font-variant:normal;font-weight:normal;font-stretch:normal;font-size:102.658px;font-family:'Signatra DEMO';-inkscape-font-specification:'Signatra DEMO, Normal';font-variant-ligatures:normal;font-variant-caps:normal;font-variant-numeric:normal;font-variant-east-asian:normal;stroke:none;stroke-width:1.565;stroke-miterlimit:4;stroke-dasharray:none;stroke-opacity:1"
           id="path866" />
        <path
           d="m 75.436326,-265.70601 c -0.307974,4.00367 -0.410632,10.06049 5.235558,10.06049 8.828588,0 17.759834,-22.99539 20.428946,-29.87348 0.7186,-1.74519 -1.950506,-2.77177 -2.669112,-1.02658 -2.56645,6.77543 -7.083402,18.37578 -13.037566,24.74058 -1.53987,1.53987 -1.950502,1.12924 -1.745186,-1.12924 1.847844,-14.47478 8.520614,-43.21902 13.653514,-52.45824 0.410632,-0.7186 0.821264,-1.12924 1.334554,-1.74518 0.102658,-0.10266 0.205316,-0.30798 0.205316,-0.51329 0,-1.53987 -6.980744,-4.20898 -8.931246,-4.20898 -4.003662,0 -12.83225,36.34093 -14.474778,56.15392 z"
           style="font-style:normal;font-variant:normal;font-weight:normal;font-stretch:normal;font-size:102.658px;font-family:'Signatra DEMO';-inkscape-font-specification:'Signatra DEMO, Normal';font-variant-ligatures:normal;font-variant-caps:normal;font-variant-numeric:normal;font-variant-east-asian:normal;stroke:none;stroke-width:1.565;stroke-miterlimit:4;stroke-dasharray:none;stroke-opacity:1"
           id="path868" />
        <path
           d="m 97.616866,-255.02958 c 7.904664,0 17.657174,-5.44087 16.425284,-14.47477 6.05682,-3.28506 10.16314,-8.3153 12.72959,-16.11731 0.51329,-1.74518 -2.15582,-2.66911 -2.66911,-0.92392 -2.05316,6.15948 -5.33822,11.08706 -10.98441,14.26946 -2.15581,-4.61961 -7.69935,-8.52061 -7.69935,-13.96149 0,-1.84784 1.12924,-6.26213 3.69569,-6.26213 1.12924,0 1.64253,1.02658 1.64253,2.25847 0,1.9505 -1.43721,4.72227 -3.1824,4.72227 -0.10266,0.10266 -0.20531,0.20532 -0.20531,0.41063 0,1.02658 3.18239,2.56645 5.44087,2.56645 1.43721,0 3.69569,-3.79834 3.69569,-5.95416 0,-3.69569 -4.72227,-8.93125 -8.41796,-8.93125 -5.64619,0 -11.292378,3.90101 -11.292378,10.47112 0,7.90466 7.083398,11.70301 8.007328,17.86249 -1.95051,0.41063 -4.31164,0.41063 -6.570116,0.71861 -2.874424,0.30797 -5.543532,1.23189 -7.083402,3.79834 -2.669108,4.10632 -0.102658,9.54719 6.467454,9.54719 z m 7.083404,-11.08706 c -0.82127,2.77177 -3.38772,5.64619 -6.26214,6.67277 -4.824926,1.64253 -6.262138,-4.72227 -1.745186,-5.8515 2.361134,-0.61595 5.851506,-0.30798 8.007326,-0.82127 z"
           style="font-style:normal;font-variant:normal;font-weight:normal;font-stretch:normal;font-size:102.658px;font-family:'Signatra DEMO';-inkscape-font-specification:'Signatra DEMO, Normal';font-variant-ligatures:normal;font-variant-caps:normal;font-variant-numeric:normal;font-variant-east-asian:normal;stroke:none;stroke-width:1.565;stroke-miterlimit:4;stroke-dasharray:none;stroke-opacity:1"
           id="path870" />
      </g>
      <g
         aria-label=".dev"
         transform="rotate(-8.9686787,-710.77479,-1329.0446)"
         id="text843"
         style="font-style:normal;font-variant:normal;font-weight:normal;font-stretch:normal;font-size:102.658px;line-height:1.25;font-family:'Signatra DEMO';-inkscape-font-specification:'Signatra DEMO, Normal';font-variant-ligatures:normal;font-variant-caps:normal;font-variant-numeric:normal;font-variant-east-asian:normal;fill:#000000;fill-opacity:1;stroke:none;stroke-width:0.264583">
        <path
           d="m 3.1131821,-222.45812 c 0,-3.38771 -2.66910794,-5.03024 -6.6727698,-5.1329 -3.5930299,-0.10266 -6.7754283,11.90833 -0.205316,12.11365 4.72226785,0.10265 6.8780858,-5.23556 6.8780858,-6.98075 z"
           style="font-style:normal;font-variant:normal;font-weight:normal;font-stretch:normal;font-size:102.658px;font-family:'Signatra DEMO';-inkscape-font-specification:'Signatra DEMO, Normal';font-variant-ligatures:normal;font-variant-caps:normal;font-variant-numeric:normal;font-variant-east-asian:normal;stroke-width:0.264583"
           id="path873" />
        <path
           d="m 27.624383,-225.64052 c -0.307974,4.00367 -0.51329,10.06049 5.235558,10.06049 8.828588,0 17.759833,-22.99539 20.428941,-29.87348 0.615948,-1.74519 -1.950502,-2.77177 -2.669108,-1.02658 -2.56645,6.77543 -7.186059,18.37578 -13.140223,24.74058 -1.437212,1.53987 -1.950502,1.12924 -1.642528,-1.12924 1.847844,-14.47478 8.520614,-43.21902 13.653513,-52.45824 0.307974,-0.7186 0.821264,-1.12923 1.231896,-1.74518 0.205316,-0.10266 0.307974,-0.30798 0.307974,-0.51329 0,-1.53987 -6.980743,-4.20898 -9.033903,-4.20898 -2.361134,0 -6.467454,12.93491 -9.649852,27.615 -2.874424,-1.43721 -6.775428,-4.00366 -10.060484,-2.15582 -9.547194,5.1329 -14.4747774,21.35287 -13.9614874,32.43993 0.205316,4.41429 2.3611344,8.3153 7.4940334,8.3153 5.030242,0 9.033904,-5.54353 11.908328,-11.70301 0,0.61594 -0.102658,1.12923 -0.102658,1.64252 z m 1.642528,-26.58842 c 1.02658,0 1.847844,0.71861 2.258476,1.64253 -0.821264,4.10632 -1.642528,8.21264 -2.258476,12.11364 -1.745186,5.03025 -4.003662,10.47112 -6.364796,13.96149 -1.437212,2.25848 -2.771766,3.28506 -3.798346,3.28506 -1.53987,0 -2.361134,-2.15582 -2.05316,-5.64619 0.923922,-9.03391 5.440874,-25.35653 12.216302,-25.35653 z"
           style="font-style:normal;font-variant:normal;font-weight:normal;font-stretch:normal;font-size:102.658px;font-family:'Signatra DEMO';-inkscape-font-specification:'Signatra DEMO, Normal';font-variant-ligatures:normal;font-variant-caps:normal;font-variant-numeric:normal;font-variant-east-asian:normal;stroke-width:0.264583"
           id="path875" />
        <path
           d="m 57.765734,-215.58003 c 11.600354,0 19.812993,-19.813 23.508681,-29.87348 0.718606,-1.74519 -1.950502,-2.87442 -2.56645,-1.12924 -3.490372,9.34188 -10.984405,26.17779 -19.299703,26.17779 -4.722268,0 -6.364796,-4.41429 -6.15948,-9.85517 7.904666,0 19.094387,-7.39137 19.094387,-16.93857 0,-4.51695 -6.878085,-9.75251 -10.779089,-9.75251 -14.680094,0 -28.538923,41.37118 -3.798346,41.37118 z m 4.10632,-35.2117 c 1.53987,-1.23189 3.285056,-0.51329 3.285056,1.64253 0,8.21264 -6.15948,16.52794 -11.703012,16.52794 0.821264,-6.98074 4.311636,-15.09073 8.417956,-18.17047 z"
           style="font-style:normal;font-variant:normal;font-weight:normal;font-stretch:normal;font-size:102.658px;font-family:'Signatra DEMO';-inkscape-font-specification:'Signatra DEMO, Normal';font-variant-ligatures:normal;font-variant-caps:normal;font-variant-numeric:normal;font-variant-east-asian:normal;stroke-width:0.264583"
           id="path877" />
        <path
           d="m 101.52852,-255.92463 c -1.2319,-0.7186 -2.566452,-0.92392 -3.490374,0.51329 -3.695688,5.33822 -4.927584,10.16315 -5.030242,13.85883 -2.874424,5.74885 -7.288718,15.09073 -10.984406,20.01831 -0.718606,0.92393 -1.02658,0.61595 -0.923922,-0.30797 0.410632,-7.28872 2.874424,-21.45552 5.030242,-29.5655 0.205316,-0.92393 1.231896,-2.4638 0.102658,-3.1824 -1.334554,-0.92392 -4.516952,-2.05316 -6.570112,-2.05316 -0.923922,0 -1.437212,0.61595 -1.745186,1.53987 -2.771766,9.75251 -4.10632,23.09805 -4.10632,33.67182 0,3.28506 5.748848,5.85151 8.828588,5.85151 1.53987,0 3.07974,-1.33456 4.003662,-2.56645 3.285056,-4.00366 6.775428,-9.64985 9.957826,-15.29604 1.334554,0.82126 2.977082,1.02658 4.824926,0.7186 4.00366,-0.7186 7.80201,-4.61961 12.11364,-12.62693 0.92393,-1.64253 -1.53987,-2.97708 -2.46379,-1.33456 -3.901,7.18606 -6.87808,10.57378 -10.16314,11.18973 -1.129238,0.20531 -2.155818,0 -2.977082,-0.41064 2.566452,-4.72226 4.824922,-9.44453 6.467452,-13.24288 0.92392,-2.25847 -0.41063,-5.33821 -2.87442,-6.77543 z"
           style="font-style:normal;font-variant:normal;font-weight:normal;font-stretch:normal;font-size:102.658px;font-family:'Signatra DEMO';-inkscape-font-specification:'Signatra DEMO, Normal';font-variant-ligatures:normal;font-variant-caps:normal;font-variant-numeric:normal;font-variant-east-asian:normal;stroke-width:0.264583"
           id="path879" />
      </g>
    </g>
  </g>
</svg>
