<svg xmlns="http://www.w3.org/2000/svg" width="1904" height="532.346" viewBox="0 0 503.767 140.85"><path d="M99.336 32.975c-2.19.35-4.318.885-6.375 1.59l-.007.14-.217.074-.332 7.274c-.405.212-.794.432-1.162.662a31.832 31.832 0 00-6.346 4.165l-6.814-2.905a38.581 38.581 0 00-4.236 5.018l4.102 6.124a30.922 30.922 0 00-3.333 8.164l-7.27 1.643a37.318 37.318 0 00-.471 6.5l6.965 2.523a30.49 30.49 0 002.113 8.502l-4.955 5.563a37.404 37.404 0 003.466 5.494l7.181-2.04A30.914 30.914 0 0088.306 97l-.763 7.18c.043.023.087.043.13.065l-.018.176a37.784 37.784 0 006.074 2.392l4.641-5.83a31.646 31.646 0 008.81.544l3.64 6.222.045-.008.08.134a38.366 38.366 0 006.368-1.62l.332-7.39a31.93 31.93 0 007.507-4.711c.05.02.1.031.148.032l6.59 2.847a38.581 38.581 0 004.26-4.998l-4.073-6.143a30.922 30.922 0 003.372-8.148l7.279-1.609a37.322 37.322 0 00.502-6.497l-6.953-2.557a30.49 30.49 0 00-2.072-8.511l4.982-5.54a37.404 37.404 0 00-3.44-5.51l-6.654 1.857v-.005l-.537.153a30.916 30.916 0 00-6.724-5.623l.777-7.36a37.778 37.778 0 00-6.062-2.422l-.11.136-.116-.036-4.534 5.69a31.646 31.646 0 00-8.724-.568zm6.761 22.716c8.07.49 14.252 7.286 13.878 15.356a14.84 14.84 0 01-.692 3.844c-2.063 6.208-8.087 10.589-14.965 10.312-8.257-.333-14.609-7.248-14.19-15.444.064-1.251.284-2.46.636-3.608 2.003-6.269 8.033-10.724 14.948-10.479.129.005.257.011.385.018z" fill="#9db7ec"/><g fill="#fff"><path d="M128.613 82.313a.76.76 0 01-.827-1.108 25.062 25.062 0 002.496-16.794 24.574 24.574 0 00-2.937-7.664.77.77 0 01.276-1.054.762.762 0 011.048.261 26.084 26.084 0 013.122 8.134c1.222 6.037.28 12.37-2.651 17.83a.782.782 0 01-.527.395M119.54 48.386a.754.754 0 01-.56-.094 24.596 24.596 0 00-9.485-3.371.757.757 0 01-.644-.865.782.782 0 01.876-.657 26.168 26.168 0 0110.067 3.58c.36.22.469.691.246 1.054a.784.784 0 01-.5.353M94.798 47.34a.763.763 0 01-.844-.412.777.777 0 01.36-1.028 26.987 26.987 0 016.226-2.15.759.759 0 01.907.589.779.779 0 01-.603.912 25.454 25.454 0 00-5.866 2.026.762.762 0 01-.18.062"/></g><g aria-label="analysis tools" style="line-height:1.25" font-weight="400" font-size="60.835" font-family="Rambla" fill="#c21296" stroke="#c21296" stroke-width=".915"><path d="M164.378 84.033q-3.338 0-5.34-1.952-1.952-1.95-1.952-5.237 0-2.157.924-3.646.925-1.49 2.414-2.208 2.67-1.284 5.597-1.284 2.927 0 5.443.257v-4.005q0-2.979-1.027-4.057-.976-1.13-3.8-1.13t-6.727 1.387l-1.078-3.235q1.489-.925 3.902-1.49 2.465-.564 4.263-.564 4.98 0 7.034 2.156 2.055 2.157 2.055 7.24v12.479q0 1.797 1.232 1.797.822 0 2.26-.462l.77 2.875q-1.746 1.13-4.52 1.13-2.772 0-4.005-2.619-1.13 1.079-3.183 1.849-2.003.719-4.262.719zm.975-3.646q3.235 0 6.111-1.849v-5.956q-1.232-.206-4.005-.206-6.008 0-6.06 4.006 0 4.005 3.954 4.005zM203.626 65.547v17.818h-4.622V65.803q0-2.362-.616-3.697t-2.516-1.335q-1.848 0-4.057 1.027-2.156.976-3.389 2.414v19.153h-4.621V57.382h3.851l.514 3.132q1.437-1.386 3.85-2.516 2.466-1.13 4.725-1.13 3.851 0 5.34 2.311 1.541 2.26 1.541 6.368zM216.029 84.033q-3.338 0-5.34-1.952-1.952-1.95-1.952-5.237 0-2.157.924-3.646.925-1.49 2.414-2.208 2.67-1.284 5.597-1.284 2.927 0 5.443.257v-4.005q0-2.979-1.027-4.057-.976-1.13-3.8-1.13t-6.727 1.387l-1.078-3.235q1.489-.925 3.902-1.49 2.465-.564 4.262-.564 4.981 0 7.035 2.156 2.054 2.157 2.054 7.24v12.479q0 1.797 1.233 1.797.821 0 2.26-.462l.77 2.875q-1.746 1.13-4.52 1.13-2.772 0-4.005-2.619-1.13 1.079-3.183 1.849-2.003.719-4.262.719zm.975-3.646q3.235 0 6.111-1.849v-5.956q-1.232-.206-4.005-.206-6.008 0-6.06 4.006 0 4.005 3.954 4.005zM235.507 47.42h4.673v30.708q0 2.002 1.849 2.002 1.437 0 3.03-.513l.77 3.389q-2.106 1.027-5.187 1.027-5.135 0-5.135-5.854z" style="-inkscape-font-specification:'Rambla, Normal';font-variant-ligatures:normal;font-variant-caps:normal;font-variant-numeric:normal;font-variant-east-asian:normal" stroke-width=".7723423500000001"/><path d="M247.719 90.708q2.824 0 4.57-1.592 1.797-1.591 3.132-5.648l-9.5-25.778 4.879-.308 6.727 21.105 6.059-21.105h4.827l-8.524 25.47q-2.003 6.059-4.673 8.678-2.619 2.67-6.83 2.67-1.694 0-3.491-.36l.564-3.286q.822.154 2.26.154zM272.254 78.641q3.389 1.49 6.213 1.49 2.824 0 4.108-1.028 1.335-1.078 1.335-2.619 0-1.592-1.284-2.67-1.232-1.078-3.03-1.694-1.796-.668-3.645-1.387-1.797-.719-3.081-2.26-1.232-1.591-1.232-3.953 0-3.492 2.464-5.546 2.465-2.105 6.676-2.105 4.21 0 6.778 1.489l-1.078 3.44q-2.979-1.027-5.495-1.027t-3.748.924q-1.233.925-1.233 2.517 0 1.54 1.284 2.567 1.284 1.027 3.081 1.643 1.849.617 3.646 1.387 1.797.719 3.08 2.26 1.285 1.54 1.285 3.85 0 3.39-2.516 5.752-2.517 2.362-7.19 2.362-2.156 0-4.364-.565-2.157-.565-3.235-1.335zM298.348 83.365h-4.673V57.587l4.673-.462zm-5.598-33.634q0-1.284.925-2.157.924-.924 2.208-.924 1.284 0 2.157.924.924.873.924 2.157t-.924 2.26q-.873.924-2.157.924t-2.208-.925q-.925-.975-.925-2.26zM304.849 78.641q3.39 1.49 6.213 1.49 2.825 0 4.108-1.028 1.336-1.078 1.336-2.619 0-1.592-1.284-2.67-1.233-1.078-3.03-1.694-1.797-.668-3.646-1.387-1.797-.719-3.08-2.26-1.233-1.591-1.233-3.953 0-3.492 2.465-5.546 2.464-2.105 6.675-2.105 4.21 0 6.778 1.489l-1.078 3.44q-2.978-1.027-5.494-1.027-2.517 0-3.749.924-1.232.925-1.232 2.517 0 1.54 1.283 2.567 1.284 1.027 3.081 1.643 1.849.617 3.646 1.387 1.797.719 3.081 2.26 1.284 1.54 1.284 3.85 0 3.39-2.516 5.752-2.516 2.362-7.19 2.362-2.156 0-4.364-.565-2.157-.565-3.235-1.335zM345.288 84.033q-4.005 0-5.289-1.643-1.284-1.695-1.284-5.752v-15.61l-5.083-.257.462-3.03 4.724-.359.462-6.162 4.16-.77v6.932h7.6l-.463 3.646h-7.189V77.1q0 1.078.051 1.643.103.513.565.975.514.411 2.157.411t3.286-.565l.873 3.44q-2.413 1.028-5.032 1.028zM372.259 80.746q-2.978 3.287-7.805 3.287t-7.703-3.235q-2.875-3.235-2.875-10.27 0-7.087 2.978-10.373 3.03-3.286 7.856-3.286 4.827 0 7.652 3.235 2.875 3.235 2.875 10.321 0 7.035-2.978 10.321zm-7.651-20.078q-6.008 0-6.008 9.808 0 9.757 5.956 9.757 2.465 0 4.211-2.31 1.746-2.312 1.746-7.703 0-5.392-1.54-7.446-1.49-2.106-4.365-2.106zM398.335 80.746q-2.978 3.287-7.805 3.287t-7.703-3.235q-2.875-3.235-2.875-10.27 0-7.087 2.978-10.373 3.03-3.286 7.857-3.286t7.65 3.235q2.876 3.235 2.876 10.321 0 7.035-2.978 10.321zm-7.651-20.078q-6.008 0-6.008 9.808 0 9.757 5.957 9.757 2.464 0 4.21-2.31 1.746-2.312 1.746-7.703 0-5.392-1.54-7.446-1.49-2.106-4.365-2.106zM407.209 47.42h4.673v30.708q0 2.002 1.848 2.002 1.438 0 3.03-.513l.77 3.389q-2.105 1.027-5.186 1.027-5.135 0-5.135-5.854zM420.387 78.641q3.389 1.49 6.213 1.49 2.824 0 4.108-1.028 1.335-1.078 1.335-2.619 0-1.592-1.284-2.67-1.232-1.078-3.03-1.694-1.796-.668-3.645-1.387-1.797-.719-3.081-2.26-1.232-1.591-1.232-3.953 0-3.492 2.464-5.546 2.465-2.105 6.676-2.105 4.21 0 6.778 1.489l-1.078 3.44q-2.979-1.027-5.495-1.027t-3.748.924q-1.233.925-1.233 2.517 0 1.54 1.284 2.567 1.284 1.027 3.081 1.643 1.849.617 3.646 1.387 1.797.719 3.08 2.26 1.285 1.54 1.285 3.85 0 3.39-2.517 5.752-2.516 2.362-7.189 2.362-2.156 0-4.364-.565-2.157-.565-3.235-1.335z" style="-inkscape-font-specification:'Rambla, Normal';font-variant-ligatures:normal;font-variant-caps:normal;font-variant-numeric:normal;font-variant-east-asian:normal" stroke-width=".7723423500000001"/></g></svg>