<?xml version="1.0" encoding="UTF-8" standalone="no"?>
<svg
   xmlns:dc="http://purl.org/dc/elements/1.1/"
   xmlns:cc="http://creativecommons.org/ns#"
   xmlns:rdf="http://www.w3.org/1999/02/22-rdf-syntax-ns#"
   xmlns:svg="http://www.w3.org/2000/svg"
   xmlns="http://www.w3.org/2000/svg"
   xmlns:sodipodi="http://sodipodi.sourceforge.net/DTD/sodipodi-0.dtd"
   xmlns:inkscape="http://www.inkscape.org/namespaces/inkscape"
   version="1.1"
   id="svg10"
   xml:space="preserve"
   width="2513.5574"
   height="331.84003"
   viewBox="0 0 2513.5573 331.84003"
   sodipodi:docname="logo_white.svg"
   inkscape:version="1.0 (4035a4f, 2020-05-01)"><metadata
     id="metadata16"><rdf:RDF><cc:Work
         rdf:about=""><dc:format>image/svg+xml</dc:format><dc:type
           rdf:resource="http://purl.org/dc/dcmitype/StillImage" /><dc:title></dc:title></cc:Work></rdf:RDF></metadata><defs
     id="defs14" /><sodipodi:namedview
     fit-margin-bottom="0"
     fit-margin-right="0"
     fit-margin-left="0"
     fit-margin-top="0"
     pagecolor="#1a7eb0"
     bordercolor="#666666"
     inkscape:document-rotation="0"
     borderopacity="1"
     objecttolerance="10"
     gridtolerance="10"
     guidetolerance="10"
     inkscape:pageopacity="0"
     inkscape:pageshadow="2"
     inkscape:window-width="1440"
     inkscape:window-height="855"
     id="namedview12"
     showgrid="false"
     inkscape:zoom="0.43458914"
     inkscape:cx="676.10362"
     inkscape:cy="119.78571"
     inkscape:window-x="0"
     inkscape:window-y="558"
     inkscape:window-maximized="1"
     inkscape:current-layer="g18"
     inkscape:snap-global="false" /><g
     id="g18"
     inkscape:groupmode="layer"
     inkscape:label="ink_ext_XXXXXX"
     transform="matrix(1.3333333,0,0,-1.3333333,94.820907,4339.8621)"><g
       id="g2141"
       transform="matrix(0.0864718,0.02329377,-0.02329377,0.0864718,-789.73047,1159.1866)"
       style="fill:#ffffff;fill-opacity:1;stroke-width:83.7481;stroke-miterlimit:5.6;stroke-dasharray:none" /><g
       id="g2149"
       transform="matrix(0.08518325,0.02294666,-0.02294666,0.08518325,-789.73047,1159.1866)"
       style="stroke-width:85.0149;stroke-miterlimit:5.6;stroke-dasharray:none" /><g
       id="g2153"
       transform="matrix(0.0839311,0.02260936,-0.02260936,0.0839311,-789.73047,1159.1866)"
       style="stroke-width:86.2832;stroke-miterlimit:5.6;stroke-dasharray:none" /><g
       id="g2157"
       transform="matrix(0.0839311,0.02260936,-0.02260936,0.0839311,-789.73047,1159.1866)"
       style="stroke-width:86.2832;stroke-miterlimit:5.6;stroke-dasharray:none" /><g
       style="fill:#000000;fill-opacity:0;stroke:#ffffff;stroke-opacity:1"
       id="g2687"
       transform="translate(0,-33.483642)"><path
         sodipodi:nodetypes="ccccc"
         d="M -9.8690345,3236.8796 H 122.59551 l 17.97932,-161.7543 H -27.848355 Z"
         style="fill:#000000;fill-opacity:0;stroke:#ffffff;stroke-width:11.25;stroke-miterlimit:5.6;stroke-dasharray:none;stroke-opacity:1"
         id="rect2584" /><g
         style="fill:#000000;fill-opacity:0;stroke:#ffffff;stroke-opacity:1"
         id="g2668"><path
           style="fill:#000000;fill-opacity:0;stroke:#ffffff;stroke-width:11.25;stroke-linecap:butt;stroke-linejoin:miter;stroke-miterlimit:5.6;stroke-dasharray:none;stroke-opacity:1"
           d="m -39.238364,3094.6232 h -26.252318 v -33.2529"
           id="path2589" /><path
           id="path2591"
           d="m -31.362669,3163.7542 h -26.252318 v -33.2529"
           style="fill:#000000;fill-opacity:0;stroke:#ffffff;stroke-width:11.25;stroke-linecap:butt;stroke-linejoin:miter;stroke-miterlimit:5.6;stroke-dasharray:none;stroke-opacity:1" /><path
           style="fill:#000000;fill-opacity:0;stroke:#ffffff;stroke-width:11.25;stroke-linecap:butt;stroke-linejoin:miter;stroke-miterlimit:5.6;stroke-dasharray:none;stroke-opacity:1"
           d="m -26.112206,3225.8847 h -26.252318 v -33.2529"
           id="path2593" /></g><g
         style="fill:#000000;fill-opacity:0;stroke:#ffffff;stroke-opacity:1"
         transform="translate(9)"
         id="g2663"><path
           id="path2589-0"
           d="m 144.46484,3094.6232 h 26.25232 v -33.2529"
           style="fill:#000000;fill-opacity:0;stroke:#ffffff;stroke-width:11.25;stroke-linecap:butt;stroke-linejoin:miter;stroke-miterlimit:5.6;stroke-dasharray:none;stroke-opacity:1" /><path
           style="fill:#000000;fill-opacity:0;stroke:#ffffff;stroke-width:11.25;stroke-linecap:butt;stroke-linejoin:miter;stroke-miterlimit:5.6;stroke-dasharray:none;stroke-opacity:1"
           d="m 136.58915,3163.7542 h 26.25232 v -33.2529"
           id="path2591-4" /><path
           id="path2593-6"
           d="M 131.33869,3225.8847 H 157.591 v -33.2529"
           style="fill:#000000;fill-opacity:0;stroke:#ffffff;stroke-width:11.25;stroke-linecap:butt;stroke-linejoin:miter;stroke-miterlimit:5.6;stroke-dasharray:none;stroke-opacity:1" /></g><path
         style="fill:#000000;fill-opacity:0;stroke:#ffffff;stroke-width:11.25;stroke-linecap:butt;stroke-linejoin:miter;stroke-miterlimit:5.6;stroke-dasharray:none;stroke-opacity:1"
         d="m 20.19894,3252.4767 3.389293,26.0326 -32.9746065,4.2931"
         id="path2650" /><path
         id="path2652"
         d="m 93.980026,3252.4767 -3.389293,26.0326 32.974607,4.2931"
         style="fill:#000000;fill-opacity:0;stroke:#ffffff;stroke-width:11.25;stroke-linecap:butt;stroke-linejoin:miter;stroke-miterlimit:5.6;stroke-dasharray:none;stroke-opacity:1" /><path
         id="path2656"
         style="fill:#000000;fill-opacity:0;stroke:#ffffff;stroke-width:11.25;stroke-miterlimit:5.6;stroke-dasharray:none;stroke-opacity:1"
         d="M -28.245655,3073.8679 H 140.97213 l -0.3973,-28.7426 H -27.848355 Z"
         sodipodi:nodetypes="ccccc" /><ellipse
         ry="26.689854"
         rx="38.503395"
         transform="scale(1,-1)"
         cy="-3160.5024"
         cx="56.363239"
         id="path2658"
         style="fill:#000000;fill-opacity:0;stroke:#ffffff;stroke-width:11.25;stroke-miterlimit:5.6;stroke-dasharray:none;stroke-opacity:1" /></g><g
       id="g2921"
       transform="translate(0,33.100631)"><g
         style="font-style:normal;font-variant:normal;font-weight:normal;font-stretch:normal;font-size:173.504px;line-height:1.25;font-family:'Modern M';-inkscape-font-specification:'Modern M, Normal';font-variant-ligatures:normal;font-variant-caps:normal;font-variant-numeric:normal;font-variant-east-asian:normal;fill:#ffffff;fill-opacity:1;stroke:none;stroke-width:4.33759"
         id="text2672"
         transform="scale(1,-1)"
         aria-label="ANALYSIS-TOOLS.DEV"><path
           id="path862"
           style="font-style:normal;font-variant:normal;font-weight:normal;font-stretch:normal;font-size:173.504px;font-family:'Modern M';-inkscape-font-specification:'Modern M, Normal';font-variant-ligatures:normal;font-variant-caps:normal;font-variant-numeric:normal;font-variant-east-asian:normal;fill:#ffffff;fill-opacity:1;stroke-width:4.33759"
           d="m 346.23562,-3074.0679 h -18.91193 l -4.1641,-18.3914 h -27.41363 l -3.99059,18.3914 h -18.91194 l 28.45466,-112.7776 h 16.48288 z m -36.95635,-86.2315 -11.10425,53.0923 h 22.20851 z" /><path
           id="path864"
           style="font-style:normal;font-variant:normal;font-weight:normal;font-stretch:normal;font-size:173.504px;font-family:'Modern M';-inkscape-font-specification:'Modern M, Normal';font-variant-ligatures:normal;font-variant-caps:normal;font-variant-numeric:normal;font-variant-east-asian:normal;fill:#ffffff;fill-opacity:1;stroke-width:4.33759"
           d="m 389.17515,-3074.0679 h -16.13587 v -116.4212 l 55.86828,71.1367 v -67.4931 h 16.30938 v 116.4212 l -56.04179,-72.0041 z" /><path
           id="path866"
           style="font-style:normal;font-variant:normal;font-weight:normal;font-stretch:normal;font-size:173.504px;font-family:'Modern M';-inkscape-font-specification:'Modern M, Normal';font-variant-ligatures:normal;font-variant-caps:normal;font-variant-numeric:normal;font-variant-east-asian:normal;fill:#ffffff;fill-opacity:1;stroke-width:4.33759"
           d="m 545.49412,-3074.0679 h -18.91193 l -4.1641,-18.3914 h -27.41363 l -3.99059,18.3914 h -18.91194 l 28.45466,-112.7776 h 16.48288 z m -36.95635,-86.2315 -11.10426,53.0923 h 22.20852 z" /><path
           id="path868"
           style="font-style:normal;font-variant:normal;font-weight:normal;font-stretch:normal;font-size:173.504px;font-family:'Modern M';-inkscape-font-specification:'Modern M, Normal';font-variant-ligatures:normal;font-variant-caps:normal;font-variant-numeric:normal;font-variant-east-asian:normal;fill:#ffffff;fill-opacity:1;stroke-width:4.33759"
           d="m 589.82169,-3089.1627 h 30.3632 v 15.0948 h -47.88711 v -112.7776 h 17.3504 z" /><path
           id="path870"
           style="font-style:normal;font-variant:normal;font-weight:normal;font-stretch:normal;font-size:173.504px;font-family:'Modern M';-inkscape-font-specification:'Modern M, Normal';font-variant-ligatures:normal;font-variant-caps:normal;font-variant-numeric:normal;font-variant-east-asian:normal;fill:#ffffff;fill-opacity:1;stroke-width:4.33759"
           d="m 678.99733,-3115.8823 v 41.8144 h -18.21792 v -41.6409 l -25.67859,-71.1367 h 18.91193 l 16.30938,50.4897 16.82989,-50.4897 h 18.04441 z" /><path
           id="path872"
           style="font-style:normal;font-variant:normal;font-weight:normal;font-stretch:normal;font-size:173.504px;font-family:'Modern M';-inkscape-font-specification:'Modern M, Normal';font-variant-ligatures:normal;font-variant-caps:normal;font-variant-numeric:normal;font-variant-east-asian:normal;fill:#ffffff;fill-opacity:1;stroke-width:4.33759"
           d="m 761.40357,-3145.031 q 5.89914,2.429 10.93075,5.7256 5.03162,3.1231 8.5017,7.6342 3.64358,4.3376 5.55213,10.0632 1.90854,5.5522 1.90854,13.0128 0,7.1137 -2.94957,13.7068 -2.94956,6.5932 -7.98118,11.6248 -4.85811,4.8581 -11.45126,7.8077 -6.59316,2.9496 -13.88032,2.9496 -3.9906,0 -7.98119,-0.6941 -3.99059,-0.5205 -7.46067,-1.5615 -3.47008,-1.041 -6.41965,-2.2555 -2.77606,-1.2146 -4.3376,-2.2556 v -21.5145 q 1.21453,1.9086 3.81709,3.9906 2.60256,1.9085 5.89914,3.8171 3.47008,1.735 7.28716,2.9496 3.81709,1.041 7.46068,1.041 8.32819,0 13.3598,-4.8581 5.03162,-5.0316 6.24615,-12.4923 1.21453,-8.5017 -3.99059,-13.7068 -5.03162,-5.3787 -13.88032,-9.3692 -4.51111,-2.0821 -8.84871,-4.6847 -4.16409,-2.6025 -7.46067,-6.2461 -3.12307,-3.8171 -5.20512,-8.6752 -1.90854,-4.8581 -1.90854,-11.2778 0,-7.2871 2.77606,-12.6657 2.77606,-5.3787 6.94016,-8.6752 4.3376,-3.4701 9.36922,-5.2052 5.03161,-1.735 9.36921,-1.735 3.99059,0 7.46067,0.5205 3.64359,0.347 6.41965,0.8675 3.12307,0.694 6.07264,1.5616 v 20.8204 q -1.90854,-2.2555 -4.5111,-4.1641 -2.25555,-1.5615 -5.72563,-2.776 -3.47008,-1.3881 -7.98119,-1.3881 -3.47008,0 -5.89913,1.2146 -2.42906,1.2145 -3.9906,3.123 -1.56153,1.7351 -2.25555,3.9906 -0.69401,2.0821 -0.69401,3.9906 0,3.9906 2.25555,7.1137 2.42905,2.9496 5.37862,4.8581 3.29658,2.2556 7.80768,3.8171 z" /><path
           id="path874"
           style="font-style:normal;font-variant:normal;font-weight:normal;font-stretch:normal;font-size:173.504px;font-family:'Modern M';-inkscape-font-specification:'Modern M, Normal';font-variant-ligatures:normal;font-variant-caps:normal;font-variant-numeric:normal;font-variant-east-asian:normal;fill:#ffffff;fill-opacity:1;stroke-width:4.33759"
           d="m 818.65988,-3186.8455 h 17.5239 v 112.7776 h -17.5239 z" /><path
           id="path876"
           style="font-style:normal;font-variant:normal;font-weight:normal;font-stretch:normal;font-size:173.504px;font-family:'Modern M';-inkscape-font-specification:'Modern M, Normal';font-variant-ligatures:normal;font-variant-caps:normal;font-variant-numeric:normal;font-variant-east-asian:normal;fill:#ffffff;fill-opacity:1;stroke-width:4.33759"
           d="m 902.03672,-3145.031 q 5.89914,2.429 10.93075,5.7256 5.03162,3.1231 8.5017,7.6342 3.64358,4.3376 5.55213,10.0632 1.90854,5.5522 1.90854,13.0128 0,7.1137 -2.94957,13.7068 -2.94957,6.5932 -7.98118,11.6248 -4.85811,4.8581 -11.45127,7.8077 -6.59315,2.9496 -13.88032,2.9496 -3.99059,0 -7.98118,-0.6941 -3.99059,-0.5205 -7.46067,-1.5615 -3.47008,-1.041 -6.41965,-2.2555 -2.77606,-1.2146 -4.3376,-2.2556 v -21.5145 q 1.21453,1.9086 3.81709,3.9906 2.60256,1.9085 5.89913,3.8171 3.47008,1.735 7.28717,2.9496 3.81709,1.041 7.46067,1.041 8.3282,0 13.35981,-4.8581 5.03162,-5.0316 6.24615,-12.4923 1.21452,-8.5017 -3.9906,-13.7068 -5.03161,-5.3787 -13.88032,-9.3692 -4.5111,-2.0821 -8.8487,-4.6847 -4.1641,-2.6025 -7.46067,-6.2461 -3.12307,-3.8171 -5.20512,-8.6752 -1.90855,-4.8581 -1.90855,-11.2778 0,-7.2871 2.77607,-12.6657 2.77606,-5.3787 6.94016,-8.6752 4.3376,-3.4701 9.36921,-5.2052 5.03162,-1.735 9.36922,-1.735 3.99059,0 7.46067,0.5205 3.64359,0.347 6.41965,0.8675 3.12307,0.694 6.07264,1.5616 v 20.8204 q -1.90854,-2.2555 -4.5111,-4.1641 -2.25556,-1.5615 -5.72564,-2.776 -3.47008,-1.3881 -7.98118,-1.3881 -3.47008,0 -5.89914,1.2146 -2.42905,1.2145 -3.99059,3.123 -1.56153,1.7351 -2.25555,3.9906 -0.69402,2.0821 -0.69402,3.9906 0,3.9906 2.25556,7.1137 2.42905,2.9496 5.37862,4.8581 3.29658,2.2556 7.80768,3.8171 z" /><path
           id="path878"
           style="font-style:normal;font-variant:normal;font-weight:normal;font-stretch:normal;font-size:173.504px;font-family:'Modern M';-inkscape-font-specification:'Modern M, Normal';font-variant-ligatures:normal;font-variant-caps:normal;font-variant-numeric:normal;font-variant-east-asian:normal;fill:#ffffff;fill-opacity:1;stroke-width:4.33759"
           d="m 989.30918,-3138.2644 v 13.5334 l -34.00678,0.1735 v -13.5333 z" /><path
           id="path880"
           style="font-style:normal;font-variant:normal;font-weight:normal;font-stretch:normal;font-size:173.504px;font-family:'Modern M';-inkscape-font-specification:'Modern M, Normal';font-variant-ligatures:normal;font-variant-caps:normal;font-variant-numeric:normal;font-variant-east-asian:normal;fill:#ffffff;fill-opacity:1;stroke-width:4.33759"
           d="m 1047.1511,-3172.0976 v 98.0297 h -17.1769 v -98.0297 h -18.7384 v -14.9214 h 54.6537 v 14.9214 z" /><path
           id="path882"
           style="font-style:normal;font-variant:normal;font-weight:normal;font-stretch:normal;font-size:173.504px;font-family:'Modern M';-inkscape-font-specification:'Modern M, Normal';font-variant-ligatures:normal;font-variant-caps:normal;font-variant-numeric:normal;font-variant-east-asian:normal;fill:#ffffff;fill-opacity:1;stroke-width:4.33759"
           d="m 1198.8451,-3130.4567 q 0,11.9718 -4.5111,22.5555 -4.5111,10.5838 -12.4922,18.565 -7.8077,7.8077 -18.3915,12.3188 -10.5837,4.5111 -22.5555,4.5111 -11.9718,0 -22.5555,-4.5111 -10.5838,-4.5111 -18.3914,-12.3188 -7.8077,-7.9812 -12.4923,-18.565 -4.5111,-10.5837 -4.5111,-22.5555 0,-11.9717 4.5111,-22.5555 4.6846,-10.5837 12.4923,-18.3914 7.8076,-7.9812 18.3914,-12.4923 10.5837,-4.6846 22.5555,-4.6846 11.9718,0 22.5555,4.6846 10.5838,4.5111 18.3915,12.4923 7.9811,7.8077 12.4922,18.3914 4.5111,10.5838 4.5111,22.5555 z m -18.3914,-0.1735 q 0,-9.3692 -3.1231,-17.0034 -3.123,-7.8076 -8.5016,-13.3598 -5.3787,-5.7256 -12.6658,-8.8487 -7.2872,-3.123 -15.4419,-3.123 -8.1547,0 -15.4419,3.123 -7.1136,3.1231 -12.4922,8.8487 -5.3787,5.5522 -8.5017,13.3598 -3.1231,7.6342 -3.1231,17.0034 0,9.7162 3.4701,17.5239 3.6436,7.8077 9.3692,13.3598 5.7256,5.5522 13.0128,8.6752 7.2872,2.9496 14.7478,2.9496 7.2872,0 14.2274,-2.9496 7.1136,-3.123 12.4922,-8.6752 5.3787,-5.5521 8.6752,-13.3598 3.2966,-7.8077 3.2966,-17.5239 z" /><path
           id="path884"
           style="font-style:normal;font-variant:normal;font-weight:normal;font-stretch:normal;font-size:173.504px;font-family:'Modern M';-inkscape-font-specification:'Modern M, Normal';font-variant-ligatures:normal;font-variant-caps:normal;font-variant-numeric:normal;font-variant-east-asian:normal;fill:#ffffff;fill-opacity:1;stroke-width:4.33759"
           d="m 1333.3785,-3130.4567 q 0,11.9718 -4.5111,22.5555 -4.5111,10.5838 -12.4923,18.565 -7.8077,7.8077 -18.3914,12.3188 -10.5838,4.5111 -22.5556,4.5111 -11.9717,0 -22.5555,-4.5111 -10.5837,-4.5111 -18.3914,-12.3188 -7.8077,-7.9812 -12.4923,-18.565 -4.5111,-10.5837 -4.5111,-22.5555 0,-11.9717 4.5111,-22.5555 4.6846,-10.5837 12.4923,-18.3914 7.8077,-7.9812 18.3914,-12.4923 10.5838,-4.6846 22.5555,-4.6846 11.9718,0 22.5556,4.6846 10.5837,4.5111 18.3914,12.4923 7.9812,7.8077 12.4923,18.3914 4.5111,10.5838 4.5111,22.5555 z m -18.3915,-0.1735 q 0,-9.3692 -3.123,-17.0034 -3.1231,-7.8076 -8.5017,-13.3598 -5.3786,-5.7256 -12.6658,-8.8487 -7.2872,-3.123 -15.4419,-3.123 -8.1547,0 -15.4418,3.123 -7.1137,3.1231 -12.4923,8.8487 -5.3786,5.5522 -8.5017,13.3598 -3.1231,7.6342 -3.1231,17.0034 0,9.7162 3.4701,17.5239 3.6436,7.8077 9.3692,13.3598 5.7256,5.5522 13.0128,8.6752 7.2872,2.9496 14.7479,2.9496 7.2871,0 14.2273,-2.9496 7.1136,-3.123 12.4923,-8.6752 5.3786,-5.5521 8.6752,-13.3598 3.2965,-7.8077 3.2965,-17.5239 z" /><path
           id="path886"
           style="font-style:normal;font-variant:normal;font-weight:normal;font-stretch:normal;font-size:173.504px;font-family:'Modern M';-inkscape-font-specification:'Modern M, Normal';font-variant-ligatures:normal;font-variant-caps:normal;font-variant-numeric:normal;font-variant-east-asian:normal;fill:#ffffff;fill-opacity:1;stroke-width:4.33759"
           d="m 1378.3839,-3089.1627 h 30.3632 v 15.0948 h -47.8872 v -112.7776 h 17.3504 z" /><path
           id="path888"
           style="font-style:normal;font-variant:normal;font-weight:normal;font-stretch:normal;font-size:173.504px;font-family:'Modern M';-inkscape-font-specification:'Modern M, Normal';font-variant-ligatures:normal;font-variant-caps:normal;font-variant-numeric:normal;font-variant-east-asian:normal;fill:#ffffff;fill-opacity:1;stroke-width:4.33759"
           d="m 1462.8748,-3145.031 q 5.8991,2.429 10.9307,5.7256 5.0317,3.1231 8.5017,7.6342 3.6436,4.3376 5.5522,10.0632 1.9085,5.5522 1.9085,13.0128 0,7.1137 -2.9496,13.7068 -2.9495,6.5932 -7.9811,11.6248 -4.8582,4.8581 -11.4513,7.8077 -6.5932,2.9496 -13.8803,2.9496 -3.9906,0 -7.9812,-0.6941 -3.9906,-0.5205 -7.4607,-1.5615 -3.4701,-1.041 -6.4196,-2.2555 -2.7761,-1.2146 -4.3376,-2.2556 v -21.5145 q 1.2145,1.9086 3.8171,3.9906 2.6025,1.9085 5.8991,3.8171 3.4701,1.735 7.2872,2.9496 3.8171,1.041 7.4606,1.041 8.3282,0 13.3598,-4.8581 5.0317,-5.0316 6.2462,-12.4923 1.2145,-8.5017 -3.9906,-13.7068 -5.0316,-5.3787 -13.8803,-9.3692 -4.5111,-2.0821 -8.8487,-4.6847 -4.1641,-2.6025 -7.4607,-6.2461 -3.1231,-3.8171 -5.2051,-8.6752 -1.9086,-4.8581 -1.9086,-11.2778 0,-7.2871 2.7761,-12.6657 2.7761,-5.3787 6.9402,-8.6752 4.3376,-3.4701 9.3692,-5.2052 5.0316,-1.735 9.3692,-1.735 3.9906,0 7.4607,0.5205 3.6435,0.347 6.4196,0.8675 3.1231,0.694 6.0727,1.5616 v 20.8204 q -1.9086,-2.2555 -4.5112,-4.1641 -2.2555,-1.5615 -5.7256,-2.776 -3.4701,-1.3881 -7.9812,-1.3881 -3.47,0 -5.8991,1.2146 -2.4291,1.2145 -3.9906,3.123 -1.5615,1.7351 -2.2555,3.9906 -0.6941,2.0821 -0.6941,3.9906 0,3.9906 2.2556,7.1137 2.429,2.9496 5.3786,4.8581 3.2966,2.2556 7.8077,3.8171 z" /><path
           id="path890"
           style="fill:#ffffff;fill-opacity:0.5"
           d="m 1516.3141,-3092.4593 h 16.8299 v 18.3914 h -16.8299 z" /><path
           id="path892"
           style="fill:#ffffff;fill-opacity:0.5"
           d="m 1583.2866,-3089.1627 q 8.3282,0 15.6154,-2.9496 7.2871,-2.9496 12.6658,-8.3282 5.3786,-5.3786 8.5017,-13.0128 3.123,-7.6342 3.123,-17.1769 0,-9.3692 -3.123,-17.0034 -3.1231,-7.6341 -8.5017,-12.8393 -5.2051,-5.3786 -12.4923,-8.3282 -7.2872,-2.9495 -15.6154,-2.9495 h -2.6025 v 82.5879 z m 0.347,-97.6828 q 11.7983,0 22.2085,3.8171 10.5838,3.8171 18.3915,11.1043 7.9811,7.2871 12.4923,17.6974 4.6846,10.4102 4.6846,23.5965 0,12.8393 -4.6846,23.4231 -4.5112,10.4102 -12.4923,17.8709 -7.8077,7.2871 -18.3915,11.2777 -10.5837,3.9906 -22.382,3.9906 h -19.9529 v -112.7776 z" /><path
           id="path894"
           style="fill:#ffffff;fill-opacity:0.5"
           d="m 1668.0461,-3187.019 h 48.9281 v 14.9214 h -31.5777 v 45.9785 h 31.5777 v 15.0949 h -31.5777 v 21.8615 h 33.6597 v 15.0948 h -51.0101 z" /><path
           id="path896"
           style="fill:#ffffff;fill-opacity:0.5"
           d="m 1786.4652,-3074.0679 h -17.0034 l -26.8931,-112.7776 h 18.0444 l 17.8709,84.323 18.2179,-84.323 h 17.3504 z" /></g><g
         style="font-style:normal;font-weight:normal;font-size:30px;line-height:1.25;font-family:sans-serif;fill:#000000;fill-opacity:1;stroke:none;stroke-width:0.75"
         id="text2899"
         transform="scale(1,-1)"
         aria-label="Linters, Tools, and Services to Improve Code Quality"><path
           id="path899"
           style="font-style:normal;font-variant:normal;font-weight:normal;font-stretch:normal;font-size:56px;font-family:'Modern M';-inkscape-font-specification:'Modern M, Normal';font-variant-ligatures:normal;font-variant-caps:normal;font-variant-numeric:normal;font-variant-east-asian:normal;fill:#ffffff;fill-opacity:1;stroke-width:0.75"
           d="m 383.05126,-3007.467 h 9.8 v 4.872 h -15.456 v -36.4 h 5.6 z" /><path
           id="path901"
           style="font-style:normal;font-variant:normal;font-weight:normal;font-stretch:normal;font-size:56px;font-family:'Modern M';-inkscape-font-specification:'Modern M, Normal';font-variant-ligatures:normal;font-variant-caps:normal;font-variant-numeric:normal;font-variant-east-asian:normal;fill:#ffffff;fill-opacity:1;stroke-width:0.75"
           d="m 398.67351,-3026.115 h 5.712 v 23.52 h -5.712 z m 2.856,-5.376 q -1.512,0 -2.632,-1.008 -1.12,-1.064 -1.12,-2.744 0,-1.624 1.12,-2.632 1.12,-1.064 2.632,-1.064 1.512,0 2.632,1.064 1.12,1.008 1.12,2.632 0,1.68 -1.12,2.744 -1.12,1.008 -2.632,1.008 z" /><path
           id="path903"
           style="font-style:normal;font-variant:normal;font-weight:normal;font-stretch:normal;font-size:56px;font-family:'Modern M';-inkscape-font-specification:'Modern M, Normal';font-variant-ligatures:normal;font-variant-caps:normal;font-variant-numeric:normal;font-variant-east-asian:normal;fill:#ffffff;fill-opacity:1;stroke-width:0.75"
           d="m 411.73988,-3026.115 h 5.656 l -0.112,4.368 q 1.12,-2.352 3.192,-3.584 2.072,-1.288 4.76,-1.232 3.864,0 6.328,2.632 2.464,2.576 2.464,7.392 v 13.944 h -5.656 l 0.112,-13.496 q -0.168,-2.52 -1.288,-3.864 -1.12,-1.4 -3.696,-1.624 -2.8,0 -4.48,1.68 -1.624,1.68 -1.736,4.536 l 0.112,12.768 h -5.656 z" /><path
           id="path905"
           style="font-style:normal;font-variant:normal;font-weight:normal;font-stretch:normal;font-size:56px;font-family:'Modern M';-inkscape-font-specification:'Modern M, Normal';font-variant-ligatures:normal;font-variant-caps:normal;font-variant-numeric:normal;font-variant-east-asian:normal;fill:#ffffff;fill-opacity:1;stroke-width:0.75"
           d="m 450.18301,-3002.035 q -1.68,0 -3.08,-0.448 -1.344,-0.448 -2.352,-1.456 -0.952,-1.008 -1.512,-2.632 -0.504,-1.624 -0.504,-3.976 v -10.808 h -3.528 v -4.76 h 3.528 v -12.264 h 5.768 l -0.448,12.264 h 6.608 v 4.76 h -6.552 l 0.168,10.92 q 0.112,2.016 0.728,2.744 0.616,0.728 1.736,0.728 1.008,0 1.68,-0.336 0.672,-0.392 1.12,-0.952 l 3.024,3.752 q -1.232,1.064 -2.688,1.792 -1.4,0.672 -3.696,0.672 z" /><path
           id="path907"
           style="font-style:normal;font-variant:normal;font-weight:normal;font-stretch:normal;font-size:56px;font-family:'Modern M';-inkscape-font-specification:'Modern M, Normal';font-variant-ligatures:normal;font-variant-caps:normal;font-variant-numeric:normal;font-variant-east-asian:normal;fill:#ffffff;fill-opacity:1;stroke-width:0.75"
           d="m 478.76663,-3016.371 q -0.392,-2.408 -1.904,-3.976 -1.512,-1.568 -4.48,-1.68 -2.744,0 -4.592,1.456 -1.848,1.456 -2.408,4.312 z m -13.328,3.696 q 0.616,2.8 2.464,4.312 1.848,1.512 5.096,1.512 2.352,0 3.976,-0.784 1.68,-0.784 2.856,-1.736 l 3.304,3.472 q -1.792,1.624 -4.2,2.744 -2.352,1.064 -5.88,1.064 -3.024,0 -5.488,-0.896 -2.464,-0.952 -4.2,-2.576 -1.68,-1.624 -2.632,-3.864 -0.952,-2.296 -0.952,-4.928 0,-2.632 0.952,-4.872 1.008,-2.24 2.688,-3.864 1.68,-1.68 3.976,-2.576 2.296,-0.952 4.928,-0.952 3.024,0 5.32,1.064 2.352,1.064 3.92,2.968 1.568,1.848 2.296,4.48 0.784,2.576 0.616,5.208 z" /><path
           id="path909"
           style="font-style:normal;font-variant:normal;font-weight:normal;font-stretch:normal;font-size:56px;font-family:'Modern M';-inkscape-font-specification:'Modern M, Normal';font-variant-ligatures:normal;font-variant-caps:normal;font-variant-numeric:normal;font-variant-east-asian:normal;fill:#ffffff;fill-opacity:1;stroke-width:0.75"
           d="m 490.48988,-3026.115 h 5.656 l -0.168,4.424 q 1.288,-2.576 3.136,-3.808 1.848,-1.232 3.808,-1.12 1.288,0.112 2.184,0.448 0.896,0.336 1.68,0.672 l -1.904,4.928 q -0.672,-0.448 -1.344,-0.672 -0.616,-0.224 -1.736,-0.224 -2.52,0.224 -4.088,1.848 -1.568,1.624 -1.792,5.6 l 0.224,11.424 h -5.656 z" /><path
           id="path911"
           style="font-style:normal;font-variant:normal;font-weight:normal;font-stretch:normal;font-size:56px;font-family:'Modern M';-inkscape-font-specification:'Modern M, Normal';font-variant-ligatures:normal;font-variant-caps:normal;font-variant-numeric:normal;font-variant-east-asian:normal;fill:#ffffff;fill-opacity:1;stroke-width:0.75"
           d="m 519.78051,-3002.091 q -4.032,0 -6.72,-1.456 -2.632,-1.512 -3.808,-3.416 l 3.976,-2.8 q 1.008,1.68 2.576,2.52 1.624,0.784 3.64,0.784 2.128,-0.056 3.08,-0.784 1.008,-0.728 1.008,-1.904 0,-0.728 -0.336,-1.176 -0.28,-0.448 -1.008,-0.84 -0.672,-0.392 -1.736,-0.672 -1.064,-0.336 -2.576,-0.616 -1.288,-0.336 -2.576,-0.84 -1.232,-0.56 -2.24,-1.4 -0.952,-0.84 -1.568,-2.016 -0.56,-1.232 -0.56,-2.968 0,-1.736 0.672,-3.024 0.672,-1.344 1.792,-2.184 1.12,-0.896 2.632,-1.288 1.568,-0.448 3.304,-0.448 2.856,0 4.816,1.064 2.016,1.008 3.36,2.464 l -3.416,3.584 q -0.728,-1.288 -1.96,-2.016 -1.176,-0.728 -3.024,-0.784 -2.408,0.224 -2.856,2.352 0,0.672 0.224,1.12 0.224,0.448 0.784,0.784 0.56,0.336 1.512,0.672 0.952,0.336 2.408,0.672 1.4,0.336 2.688,0.784 1.344,0.448 2.464,1.288 1.176,0.84 1.848,2.128 0.728,1.232 0.728,3.08 0,1.512 -0.504,2.856 -0.448,1.344 -1.568,2.352 -1.064,0.952 -2.8,1.568 -1.736,0.56 -4.256,0.56 z" /><path
           id="path913"
           style="font-style:normal;font-variant:normal;font-weight:normal;font-stretch:normal;font-size:56px;font-family:'Modern M';-inkscape-font-specification:'Modern M, Normal';font-variant-ligatures:normal;font-variant-caps:normal;font-variant-numeric:normal;font-variant-east-asian:normal;fill:#ffffff;fill-opacity:1;stroke-width:0.75"
           d="m 537.08801,-3008.587 h 5.152 l 0.056,5.992 -3.192,7 h -2.016 z" /><path
           id="path915"
           style="font-style:normal;font-variant:normal;font-weight:normal;font-stretch:normal;font-size:56px;font-family:'Modern M';-inkscape-font-specification:'Modern M, Normal';font-variant-ligatures:normal;font-variant-caps:normal;font-variant-numeric:normal;font-variant-east-asian:normal;fill:#ffffff;fill-opacity:1;stroke-width:0.75"
           d="m 590.59601,-3034.235 v 31.64 h -5.544 v -31.64 h -6.048 v -4.816 h 17.64 v 4.816 z" /><path
           id="path917"
           style="font-style:normal;font-variant:normal;font-weight:normal;font-stretch:normal;font-size:56px;font-family:'Modern M';-inkscape-font-specification:'Modern M, Normal';font-variant-ligatures:normal;font-variant-caps:normal;font-variant-numeric:normal;font-variant-east-asian:normal;fill:#ffffff;fill-opacity:1;stroke-width:0.75"
           d="m 614.24463,-3006.963 q 3.136,-0.336 4.76,-2.184 1.624,-1.904 1.848,-5.208 0.056,-3.248 -1.68,-5.208 -1.68,-1.96 -4.928,-2.128 -3.192,0.112 -5.04,2.128 -1.848,1.96 -1.848,5.208 0.112,3.248 1.96,5.264 1.848,1.96 4.928,2.128 z m 0,4.872 q -2.688,0 -4.984,-0.896 -2.296,-0.952 -4.032,-2.576 -1.736,-1.68 -2.744,-3.92 -0.952,-2.24 -0.952,-4.872 0,-2.632 0.952,-4.872 1.008,-2.24 2.744,-3.864 1.736,-1.68 4.032,-2.576 2.296,-0.952 4.984,-0.952 2.688,0 4.984,0.952 2.352,0.896 4.032,2.576 1.68,1.624 2.632,3.864 1.008,2.24 1.008,4.872 0,2.632 -1.008,4.872 -0.952,2.24 -2.632,3.92 -1.68,1.624 -4.032,2.576 -2.296,0.896 -4.984,0.896 z" /><path
           id="path919"
           style="font-style:normal;font-variant:normal;font-weight:normal;font-stretch:normal;font-size:56px;font-family:'Modern M';-inkscape-font-specification:'Modern M, Normal';font-variant-ligatures:normal;font-variant-caps:normal;font-variant-numeric:normal;font-variant-east-asian:normal;fill:#ffffff;fill-opacity:1;stroke-width:0.75"
           d="m 644.43213,-3006.963 q 3.136,-0.336 4.76,-2.184 1.624,-1.904 1.848,-5.208 0.056,-3.248 -1.68,-5.208 -1.68,-1.96 -4.928,-2.128 -3.192,0.112 -5.04,2.128 -1.848,1.96 -1.848,5.208 0.112,3.248 1.96,5.264 1.848,1.96 4.928,2.128 z m 0,4.872 q -2.688,0 -4.984,-0.896 -2.296,-0.952 -4.032,-2.576 -1.736,-1.68 -2.744,-3.92 -0.952,-2.24 -0.952,-4.872 0,-2.632 0.952,-4.872 1.008,-2.24 2.744,-3.864 1.736,-1.68 4.032,-2.576 2.296,-0.952 4.984,-0.952 2.688,0 4.984,0.952 2.352,0.896 4.032,2.576 1.68,1.624 2.632,3.864 1.008,2.24 1.008,4.872 0,2.632 -1.008,4.872 -0.952,2.24 -2.632,3.92 -1.68,1.624 -4.032,2.576 -2.296,0.896 -4.984,0.896 z" /><path
           id="path921"
           style="font-style:normal;font-variant:normal;font-weight:normal;font-stretch:normal;font-size:56px;font-family:'Modern M';-inkscape-font-specification:'Modern M, Normal';font-variant-ligatures:normal;font-variant-caps:normal;font-variant-numeric:normal;font-variant-east-asian:normal;fill:#ffffff;fill-opacity:1;stroke-width:0.75"
           d="m 663.30763,-3043.027 h 5.656 v 40.432 h -5.656 z" /><path
           id="path923"
           style="font-style:normal;font-variant:normal;font-weight:normal;font-stretch:normal;font-size:56px;font-family:'Modern M';-inkscape-font-specification:'Modern M, Normal';font-variant-ligatures:normal;font-variant-caps:normal;font-variant-numeric:normal;font-variant-east-asian:normal;fill:#ffffff;fill-opacity:1;stroke-width:0.75"
           d="m 684.71801,-3002.091 q -4.032,0 -6.72,-1.456 -2.632,-1.512 -3.808,-3.416 l 3.976,-2.8 q 1.008,1.68 2.576,2.52 1.624,0.784 3.64,0.784 2.128,-0.056 3.08,-0.784 1.008,-0.728 1.008,-1.904 0,-0.728 -0.336,-1.176 -0.28,-0.448 -1.008,-0.84 -0.672,-0.392 -1.736,-0.672 -1.064,-0.336 -2.576,-0.616 -1.288,-0.336 -2.576,-0.84 -1.232,-0.56 -2.24,-1.4 -0.952,-0.84 -1.568,-2.016 -0.56,-1.232 -0.56,-2.968 0,-1.736 0.672,-3.024 0.672,-1.344 1.792,-2.184 1.12,-0.896 2.632,-1.288 1.568,-0.448 3.304,-0.448 2.856,0 4.816,1.064 2.016,1.008 3.36,2.464 l -3.416,3.584 q -0.728,-1.288 -1.96,-2.016 -1.176,-0.728 -3.024,-0.784 -2.408,0.224 -2.856,2.352 0,0.672 0.224,1.12 0.224,0.448 0.784,0.784 0.56,0.336 1.512,0.672 0.952,0.336 2.408,0.672 1.4,0.336 2.688,0.784 1.344,0.448 2.464,1.288 1.176,0.84 1.848,2.128 0.728,1.232 0.728,3.08 0,1.512 -0.504,2.856 -0.448,1.344 -1.568,2.352 -1.064,0.952 -2.8,1.568 -1.736,0.56 -4.256,0.56 z" /><path
           id="path925"
           style="font-style:normal;font-variant:normal;font-weight:normal;font-stretch:normal;font-size:56px;font-family:'Modern M';-inkscape-font-specification:'Modern M, Normal';font-variant-ligatures:normal;font-variant-caps:normal;font-variant-numeric:normal;font-variant-east-asian:normal;fill:#ffffff;fill-opacity:1;stroke-width:0.75"
           d="m 702.02551,-3008.587 h 5.152 l 0.056,5.992 -3.192,7 h -2.016 z" /><path
           id="path927"
           style="font-style:normal;font-variant:normal;font-weight:normal;font-stretch:normal;font-size:56px;font-family:'Modern M';-inkscape-font-specification:'Modern M, Normal';font-variant-ligatures:normal;font-variant-caps:normal;font-variant-numeric:normal;font-variant-east-asian:normal;fill:#ffffff;fill-opacity:1;stroke-width:0.75"
           d="m 753.18151,-3012.675 q -1.848,0 -2.968,0.728 -1.12,0.672 -1.12,2.24 0,3.08 4.48,3.08 2.52,0 4.088,-1.12 1.568,-1.12 1.568,-3.08 v -1.848 z m 6.048,-3.584 q 0,-3.192 -1.232,-4.424 -1.176,-1.232 -3.472,-1.232 -2.352,0 -3.808,0.84 -1.4,0.84 -2.352,1.68 l -3.248,-3.024 q 1.568,-1.848 3.808,-3.024 2.296,-1.176 6.048,-1.176 2.128,0 3.92,0.616 1.848,0.616 3.136,1.848 1.344,1.232 2.072,3.192 0.784,1.904 0.784,4.48 v 13.888 h -5.656 l 0.112,-3.36 q -1.232,1.904 -2.968,2.912 -1.736,0.952 -4.368,0.952 -1.736,0 -3.304,-0.448 -1.512,-0.392 -2.688,-1.288 -1.12,-0.896 -1.792,-2.296 -0.672,-1.456 -0.672,-3.416 0,-1.848 0.672,-3.136 0.728,-1.344 1.96,-2.184 1.232,-0.896 2.912,-1.288 1.68,-0.448 3.696,-0.448 z" /><path
           id="path929"
           style="font-style:normal;font-variant:normal;font-weight:normal;font-stretch:normal;font-size:56px;font-family:'Modern M';-inkscape-font-specification:'Modern M, Normal';font-variant-ligatures:normal;font-variant-caps:normal;font-variant-numeric:normal;font-variant-east-asian:normal;fill:#ffffff;fill-opacity:1;stroke-width:0.75"
           d="m 771.80238,-3026.115 h 5.656 l -0.112,4.368 q 1.12,-2.352 3.192,-3.584 2.072,-1.288 4.76,-1.232 3.864,0 6.328,2.632 2.464,2.576 2.464,7.392 v 13.944 h -5.656 l 0.112,-13.496 q -0.168,-2.52 -1.288,-3.864 -1.12,-1.4 -3.696,-1.624 -2.8,0 -4.48,1.68 -1.624,1.68 -1.736,4.536 l 0.112,12.768 h -5.656 z" /><path
           id="path931"
           style="font-style:normal;font-variant:normal;font-weight:normal;font-stretch:normal;font-size:56px;font-family:'Modern M';-inkscape-font-specification:'Modern M, Normal';font-variant-ligatures:normal;font-variant-caps:normal;font-variant-numeric:normal;font-variant-east-asian:normal;fill:#ffffff;fill-opacity:1;stroke-width:0.75"
           d="m 812.37351,-3007.075 q 3.136,0 4.984,-1.96 1.848,-2.016 1.848,-5.376 0,-3.192 -1.848,-5.152 -1.848,-2.016 -4.984,-2.016 -3.08,0 -4.872,2.016 -1.792,1.96 -1.904,5.152 0.112,3.36 1.904,5.376 1.792,1.96 4.872,1.96 z m -1.456,4.984 q -2.296,0 -4.312,-0.896 -2.016,-0.952 -3.528,-2.576 -1.456,-1.68 -2.352,-3.92 -0.84,-2.24 -0.896,-4.928 0.056,-2.688 0.896,-4.928 0.896,-2.24 2.352,-3.864 1.512,-1.624 3.472,-2.52 2.016,-0.896 4.256,-0.896 3.136,0 5.04,1.288 1.96,1.288 3.304,3.304 l -0.336,-21 h 5.88 v 40.432 h -5.712 l 0.168,-4.256 q -1.12,2.128 -3.192,3.472 -2.072,1.288 -5.04,1.288 z" /><path
           id="path933"
           style="font-style:normal;font-variant:normal;font-weight:normal;font-stretch:normal;font-size:56px;font-family:'Modern M';-inkscape-font-specification:'Modern M, Normal';font-variant-ligatures:normal;font-variant-caps:normal;font-variant-numeric:normal;font-variant-east-asian:normal;fill:#ffffff;fill-opacity:1;stroke-width:0.75"
           d="m 871.66526,-3025.499 q 1.904,0.784 3.528,1.848 1.624,1.008 2.744,2.464 1.176,1.4 1.792,3.248 0.616,1.792 0.616,4.2 0,2.296 -0.952,4.424 -0.952,2.128 -2.576,3.752 -1.568,1.568 -3.696,2.52 -2.128,0.952 -4.48,0.952 -1.288,0 -2.576,-0.224 -1.288,-0.168 -2.408,-0.504 -1.12,-0.336 -2.072,-0.728 -0.896,-0.392 -1.4,-0.728 v -6.944 q 0.392,0.616 1.232,1.288 0.84,0.616 1.904,1.232 1.12,0.56 2.352,0.952 1.232,0.336 2.408,0.336 2.688,0 4.312,-1.568 1.624,-1.624 2.016,-4.032 0.392,-2.744 -1.288,-4.424 -1.624,-1.736 -4.48,-3.024 -1.456,-0.672 -2.856,-1.512 -1.344,-0.84 -2.408,-2.016 -1.008,-1.232 -1.68,-2.8 -0.616,-1.568 -0.616,-3.64 0,-2.352 0.896,-4.088 0.896,-1.736 2.24,-2.8 1.4,-1.12 3.024,-1.68 1.624,-0.56 3.024,-0.56 1.288,0 2.408,0.168 1.176,0.112 2.072,0.28 1.008,0.224 1.96,0.504 v 6.72 q -0.616,-0.728 -1.456,-1.344 -0.728,-0.504 -1.848,-0.896 -1.12,-0.448 -2.576,-0.448 -1.12,0 -1.904,0.392 -0.784,0.392 -1.288,1.008 -0.504,0.56 -0.728,1.288 -0.224,0.672 -0.224,1.288 0,1.288 0.728,2.296 0.784,0.952 1.736,1.568 1.064,0.728 2.52,1.232 z" /><path
           id="path935"
           style="font-style:normal;font-variant:normal;font-weight:normal;font-stretch:normal;font-size:56px;font-family:'Modern M';-inkscape-font-specification:'Modern M, Normal';font-variant-ligatures:normal;font-variant-caps:normal;font-variant-numeric:normal;font-variant-east-asian:normal;fill:#ffffff;fill-opacity:1;stroke-width:0.75"
           d="m 905.65726,-3016.371 q -0.392,-2.408 -1.904,-3.976 -1.512,-1.568 -4.48,-1.68 -2.744,0 -4.592,1.456 -1.848,1.456 -2.408,4.312 z m -13.328,3.696 q 0.616,2.8 2.464,4.312 1.848,1.512 5.096,1.512 2.352,0 3.976,-0.784 1.68,-0.784 2.856,-1.736 l 3.304,3.472 q -1.792,1.624 -4.2,2.744 -2.352,1.064 -5.88,1.064 -3.024,0 -5.488,-0.896 -2.464,-0.952 -4.2,-2.576 -1.68,-1.624 -2.632,-3.864 -0.952,-2.296 -0.952,-4.928 0,-2.632 0.952,-4.872 1.008,-2.24 2.688,-3.864 1.68,-1.68 3.976,-2.576 2.296,-0.952 4.928,-0.952 3.024,0 5.32,1.064 2.352,1.064 3.92,2.968 1.568,1.848 2.296,4.48 0.784,2.576 0.616,5.208 z" /><path
           id="path937"
           style="font-style:normal;font-variant:normal;font-weight:normal;font-stretch:normal;font-size:56px;font-family:'Modern M';-inkscape-font-specification:'Modern M, Normal';font-variant-ligatures:normal;font-variant-caps:normal;font-variant-numeric:normal;font-variant-east-asian:normal;fill:#ffffff;fill-opacity:1;stroke-width:0.75"
           d="m 917.38051,-3026.115 h 5.656 l -0.168,4.424 q 1.288,-2.576 3.136,-3.808 1.848,-1.232 3.808,-1.12 1.288,0.112 2.184,0.448 0.896,0.336 1.68,0.672 l -1.904,4.928 q -0.672,-0.448 -1.344,-0.672 -0.616,-0.224 -1.736,-0.224 -2.52,0.224 -4.088,1.848 -1.568,1.624 -1.792,5.6 l 0.224,11.424 h -5.656 z" /><path
           id="path939"
           style="font-style:normal;font-variant:normal;font-weight:normal;font-stretch:normal;font-size:56px;font-family:'Modern M';-inkscape-font-specification:'Modern M, Normal';font-variant-ligatures:normal;font-variant-caps:normal;font-variant-numeric:normal;font-variant-east-asian:normal;fill:#ffffff;fill-opacity:1;stroke-width:0.75"
           d="m 935.63913,-3026.115 h 6.272 l 6.384,15.512 6.272,-15.512 h 5.768 l -11.928,24.024 h -0.728 z" /><path
           id="path941"
           style="font-style:normal;font-variant:normal;font-weight:normal;font-stretch:normal;font-size:56px;font-family:'Modern M';-inkscape-font-specification:'Modern M, Normal';font-variant-ligatures:normal;font-variant-caps:normal;font-variant-numeric:normal;font-variant-east-asian:normal;fill:#ffffff;fill-opacity:1;stroke-width:0.75"
           d="m 965.01726,-3026.115 h 5.712 v 23.52 h -5.712 z m 2.856,-5.376 q -1.512,0 -2.632,-1.008 -1.12,-1.064 -1.12,-2.744 0,-1.624 1.12,-2.632 1.12,-1.064 2.632,-1.064 1.512,0 2.632,1.064 1.12,1.008 1.12,2.632 0,1.68 -1.12,2.744 -1.12,1.008 -2.632,1.008 z" /><path
           id="path943"
           style="font-style:normal;font-variant:normal;font-weight:normal;font-stretch:normal;font-size:56px;font-family:'Modern M';-inkscape-font-specification:'Modern M, Normal';font-variant-ligatures:normal;font-variant-caps:normal;font-variant-numeric:normal;font-variant-east-asian:normal;fill:#ffffff;fill-opacity:1;stroke-width:0.75"
           d="m 989.45163,-3002.091 q -2.688,0 -4.984,-0.896 -2.296,-0.952 -3.976,-2.576 -1.68,-1.624 -2.632,-3.864 -0.952,-2.296 -0.952,-4.928 0,-2.632 0.952,-4.872 0.952,-2.24 2.632,-3.864 1.68,-1.68 3.976,-2.576 2.296,-0.952 4.984,-0.952 3.36,0 5.6,1.176 2.24,1.176 3.92,3.304 l -4.032,2.744 q -0.84,-0.728 -2.296,-1.456 -1.4,-0.784 -3.192,-0.784 -3.192,0 -4.984,2.072 -1.736,2.016 -1.736,5.208 0,3.192 1.736,5.264 1.792,2.016 4.984,2.016 2.128,0 3.472,-0.728 1.344,-0.784 2.296,-1.568 l 3.864,3.024 q -1.736,1.96 -3.976,3.136 -2.24,1.12 -5.656,1.12 z" /><path
           id="path945"
           style="font-style:normal;font-variant:normal;font-weight:normal;font-stretch:normal;font-size:56px;font-family:'Modern M';-inkscape-font-specification:'Modern M, Normal';font-variant-ligatures:normal;font-variant-caps:normal;font-variant-numeric:normal;font-variant-east-asian:normal;fill:#ffffff;fill-opacity:1;stroke-width:0.75"
           d="m 1022.251,-3016.371 q -0.392,-2.408 -1.904,-3.976 -1.512,-1.568 -4.48,-1.68 -2.744,0 -4.592,1.456 -1.848,1.456 -2.408,4.312 z m -13.328,3.696 q 0.616,2.8 2.464,4.312 1.848,1.512 5.096,1.512 2.352,0 3.976,-0.784 1.68,-0.784 2.856,-1.736 l 3.304,3.472 q -1.792,1.624 -4.2,2.744 -2.352,1.064 -5.88,1.064 -3.024,0 -5.488,-0.896 -2.464,-0.952 -4.2,-2.576 -1.68,-1.624 -2.632,-3.864 -0.952,-2.296 -0.952,-4.928 0,-2.632 0.952,-4.872 1.008,-2.24 2.688,-3.864 1.68,-1.68 3.976,-2.576 2.296,-0.952 4.928,-0.952 3.024,0 5.32,1.064 2.352,1.064 3.92,2.968 1.568,1.848 2.296,4.48 0.784,2.576 0.616,5.208 z" /><path
           id="path947"
           style="font-style:normal;font-variant:normal;font-weight:normal;font-stretch:normal;font-size:56px;font-family:'Modern M';-inkscape-font-specification:'Modern M, Normal';font-variant-ligatures:normal;font-variant-caps:normal;font-variant-numeric:normal;font-variant-east-asian:normal;fill:#ffffff;fill-opacity:1;stroke-width:0.75"
           d="m 1042.3743,-3002.091 q -4.032,0 -6.72,-1.456 -2.632,-1.512 -3.808,-3.416 l 3.976,-2.8 q 1.008,1.68 2.576,2.52 1.624,0.784 3.64,0.784 2.128,-0.056 3.08,-0.784 1.008,-0.728 1.008,-1.904 0,-0.728 -0.336,-1.176 -0.28,-0.448 -1.008,-0.84 -0.672,-0.392 -1.736,-0.672 -1.064,-0.336 -2.576,-0.616 -1.288,-0.336 -2.576,-0.84 -1.232,-0.56 -2.24,-1.4 -0.952,-0.84 -1.568,-2.016 -0.56,-1.232 -0.56,-2.968 0,-1.736 0.672,-3.024 0.672,-1.344 1.792,-2.184 1.12,-0.896 2.632,-1.288 1.568,-0.448 3.304,-0.448 2.856,0 4.816,1.064 2.016,1.008 3.36,2.464 l -3.416,3.584 q -0.728,-1.288 -1.96,-2.016 -1.176,-0.728 -3.024,-0.784 -2.408,0.224 -2.856,2.352 0,0.672 0.224,1.12 0.224,0.448 0.784,0.784 0.56,0.336 1.512,0.672 0.952,0.336 2.408,0.672 1.4,0.336 2.688,0.784 1.344,0.448 2.464,1.288 1.176,0.84 1.848,2.128 0.728,1.232 0.728,3.08 0,1.512 -0.504,2.856 -0.448,1.344 -1.568,2.352 -1.064,0.952 -2.8,1.568 -1.736,0.56 -4.256,0.56 z" /><path
           id="path949"
           style="font-style:normal;font-variant:normal;font-weight:normal;font-stretch:normal;font-size:56px;font-family:'Modern M';-inkscape-font-specification:'Modern M, Normal';font-variant-ligatures:normal;font-variant-caps:normal;font-variant-numeric:normal;font-variant-east-asian:normal;fill:#ffffff;fill-opacity:1;stroke-width:0.75"
           d="m 1094.4018,-3002.035 q -1.68,0 -3.08,-0.448 -1.344,-0.448 -2.352,-1.456 -0.952,-1.008 -1.512,-2.632 -0.504,-1.624 -0.504,-3.976 v -10.808 h -3.528 v -4.76 h 3.528 v -12.264 h 5.768 l -0.448,12.264 h 6.608 v 4.76 h -6.552 l 0.168,10.92 q 0.112,2.016 0.728,2.744 0.616,0.728 1.736,0.728 1.008,0 1.68,-0.336 0.672,-0.392 1.12,-0.952 l 3.024,3.752 q -1.232,1.064 -2.688,1.792 -1.4,0.672 -3.696,0.672 z" /><path
           id="path951"
           style="font-style:normal;font-variant:normal;font-weight:normal;font-stretch:normal;font-size:56px;font-family:'Modern M';-inkscape-font-specification:'Modern M, Normal';font-variant-ligatures:normal;font-variant-caps:normal;font-variant-numeric:normal;font-variant-east-asian:normal;fill:#ffffff;fill-opacity:1;stroke-width:0.75"
           d="m 1116.7134,-3006.963 q 3.136,-0.336 4.76,-2.184 1.624,-1.904 1.848,-5.208 0.056,-3.248 -1.68,-5.208 -1.68,-1.96 -4.928,-2.128 -3.192,0.112 -5.04,2.128 -1.848,1.96 -1.848,5.208 0.112,3.248 1.96,5.264 1.848,1.96 4.928,2.128 z m 0,4.872 q -2.688,0 -4.984,-0.896 -2.296,-0.952 -4.032,-2.576 -1.736,-1.68 -2.744,-3.92 -0.952,-2.24 -0.952,-4.872 0,-2.632 0.952,-4.872 1.008,-2.24 2.744,-3.864 1.736,-1.68 4.032,-2.576 2.296,-0.952 4.984,-0.952 2.688,0 4.984,0.952 2.352,0.896 4.032,2.576 1.68,1.624 2.632,3.864 1.008,2.24 1.008,4.872 0,2.632 -1.008,4.872 -0.952,2.24 -2.632,3.92 -1.68,1.624 -4.032,2.576 -2.296,0.896 -4.984,0.896 z" /><path
           id="path953"
           style="font-style:normal;font-variant:normal;font-weight:normal;font-stretch:normal;font-size:56px;font-family:'Modern M';-inkscape-font-specification:'Modern M, Normal';font-variant-ligatures:normal;font-variant-caps:normal;font-variant-numeric:normal;font-variant-east-asian:normal;fill:#ffffff;fill-opacity:1;stroke-width:0.75"
           d="m 1165.6609,-3038.995 h 5.656 v 36.4 h -5.656 z" /><path
           id="path955"
           style="font-style:normal;font-variant:normal;font-weight:normal;font-stretch:normal;font-size:56px;font-family:'Modern M';-inkscape-font-specification:'Modern M, Normal';font-variant-ligatures:normal;font-variant-caps:normal;font-variant-numeric:normal;font-variant-east-asian:normal;fill:#ffffff;fill-opacity:1;stroke-width:0.75"
           d="m 1180.7555,-3026.115 h 5.656 l -0.168,4.032 q 2.016,-4.536 6.608,-4.536 2.576,0 4.256,1.176 1.68,1.176 2.576,3.304 1.344,-2.128 3.584,-3.472 2.24,-1.344 4.984,-1.176 4.2,0.168 6.496,2.744 2.352,2.576 2.352,7.112 v 14.336 h -5.656 l 0.112,-13.776 q 0,-2.464 -1.064,-3.752 -1.008,-1.288 -3.472,-1.288 -2.52,0 -3.92,1.512 -1.344,1.456 -1.344,4.424 v 12.88 h -5.656 l 0.112,-13.776 q -0.056,-2.464 -1.12,-3.696 -1.064,-1.288 -3.36,-1.344 -2.52,0 -3.976,1.456 -1.456,1.456 -1.4,4.48 l 0.056,12.88 h -5.656 z" /><path
           id="path957"
           style="font-style:normal;font-variant:normal;font-weight:normal;font-stretch:normal;font-size:56px;font-family:'Modern M';-inkscape-font-specification:'Modern M, Normal';font-variant-ligatures:normal;font-variant-caps:normal;font-variant-numeric:normal;font-variant-east-asian:normal;fill:#ffffff;fill-opacity:1;stroke-width:0.75"
           d="m 1236.5,-3006.907 q 2.968,-0.168 4.76,-2.128 1.792,-2.016 1.792,-5.376 0,-3.192 -1.792,-5.152 -1.792,-2.016 -4.872,-2.016 -3.024,0 -4.816,2.016 -1.792,1.96 -2.016,5.152 0,3.36 1.848,5.376 1.848,1.96 5.096,2.128 z m -12.432,-19.208 h 5.824 l -0.168,4.368 q 1.008,-2.184 3.08,-3.528 2.128,-1.344 5.152,-1.344 2.24,0 4.256,0.896 2.016,0.896 3.472,2.52 1.456,1.624 2.296,3.864 0.896,2.24 0.896,4.928 0,2.688 -0.896,4.928 -0.84,2.24 -2.352,3.92 -1.456,1.624 -3.472,2.576 -2.016,0.896 -4.312,0.896 -2.968,0 -5.04,-1.288 -2.016,-1.288 -3.136,-3.248 l 0.168,15.904 h -5.768 z" /><path
           id="path959"
           style="font-style:normal;font-variant:normal;font-weight:normal;font-stretch:normal;font-size:56px;font-family:'Modern M';-inkscape-font-specification:'Modern M, Normal';font-variant-ligatures:normal;font-variant-caps:normal;font-variant-numeric:normal;font-variant-east-asian:normal;fill:#ffffff;fill-opacity:1;stroke-width:0.75"
           d="m 1254.9118,-3026.115 h 5.656 l -0.168,4.424 q 1.288,-2.576 3.136,-3.808 1.848,-1.232 3.808,-1.12 1.288,0.112 2.184,0.448 0.896,0.336 1.68,0.672 l -1.904,4.928 q -0.672,-0.448 -1.344,-0.672 -0.616,-0.224 -1.736,-0.224 -2.52,0.224 -4.088,1.848 -1.568,1.624 -1.792,5.6 l 0.224,11.424 h -5.656 z" /><path
           id="path961"
           style="font-style:normal;font-variant:normal;font-weight:normal;font-stretch:normal;font-size:56px;font-family:'Modern M';-inkscape-font-specification:'Modern M, Normal';font-variant-ligatures:normal;font-variant-caps:normal;font-variant-numeric:normal;font-variant-east-asian:normal;fill:#ffffff;fill-opacity:1;stroke-width:0.75"
           d="m 1287.3384,-3006.963 q 3.136,-0.336 4.76,-2.184 1.624,-1.904 1.848,-5.208 0.056,-3.248 -1.68,-5.208 -1.68,-1.96 -4.928,-2.128 -3.192,0.112 -5.04,2.128 -1.848,1.96 -1.848,5.208 0.112,3.248 1.96,5.264 1.848,1.96 4.928,2.128 z m 0,4.872 q -2.688,0 -4.984,-0.896 -2.296,-0.952 -4.032,-2.576 -1.736,-1.68 -2.744,-3.92 -0.952,-2.24 -0.952,-4.872 0,-2.632 0.952,-4.872 1.008,-2.24 2.744,-3.864 1.736,-1.68 4.032,-2.576 2.296,-0.952 4.984,-0.952 2.688,0 4.984,0.952 2.352,0.896 4.032,2.576 1.68,1.624 2.632,3.864 1.008,2.24 1.008,4.872 0,2.632 -1.008,4.872 -0.952,2.24 -2.632,3.92 -1.68,1.624 -4.032,2.576 -2.296,0.896 -4.984,0.896 z" /><path
           id="path963"
           style="font-style:normal;font-variant:normal;font-weight:normal;font-stretch:normal;font-size:56px;font-family:'Modern M';-inkscape-font-specification:'Modern M, Normal';font-variant-ligatures:normal;font-variant-caps:normal;font-variant-numeric:normal;font-variant-east-asian:normal;fill:#ffffff;fill-opacity:1;stroke-width:0.75"
           d="m 1303.3579,-3026.115 h 6.272 l 6.384,15.512 6.272,-15.512 h 5.768 l -11.928,24.024 h -0.728 z" /><path
           id="path965"
           style="font-style:normal;font-variant:normal;font-weight:normal;font-stretch:normal;font-size:56px;font-family:'Modern M';-inkscape-font-specification:'Modern M, Normal';font-variant-ligatures:normal;font-variant-caps:normal;font-variant-numeric:normal;font-variant-east-asian:normal;fill:#ffffff;fill-opacity:1;stroke-width:0.75"
           d="m 1350.376,-3016.371 q -0.392,-2.408 -1.904,-3.976 -1.512,-1.568 -4.48,-1.68 -2.744,0 -4.592,1.456 -1.848,1.456 -2.408,4.312 z m -13.328,3.696 q 0.616,2.8 2.464,4.312 1.848,1.512 5.096,1.512 2.352,0 3.976,-0.784 1.68,-0.784 2.856,-1.736 l 3.304,3.472 q -1.792,1.624 -4.2,2.744 -2.352,1.064 -5.88,1.064 -3.024,0 -5.488,-0.896 -2.464,-0.952 -4.2,-2.576 -1.68,-1.624 -2.632,-3.864 -0.952,-2.296 -0.952,-4.928 0,-2.632 0.952,-4.872 1.008,-2.24 2.688,-3.864 1.68,-1.68 3.976,-2.576 2.296,-0.952 4.928,-0.952 3.024,0 5.32,1.064 2.352,1.064 3.92,2.968 1.568,1.848 2.296,4.48 0.784,2.576 0.616,5.208 z" /><path
           id="path967"
           style="font-style:normal;font-variant:normal;font-weight:normal;font-stretch:normal;font-size:56px;font-family:'Modern M';-inkscape-font-specification:'Modern M, Normal';font-variant-ligatures:normal;font-variant-caps:normal;font-variant-numeric:normal;font-variant-east-asian:normal;fill:#ffffff;fill-opacity:1;stroke-width:0.75"
           d="m 1408.5793,-3039.555 q 1.008,0 2.072,0.168 1.064,0.168 2.016,0.392 0.952,0.224 1.736,0.504 0.784,0.224 1.176,0.448 v 5.992 q -0.672,-0.56 -1.568,-0.952 -0.896,-0.448 -1.848,-0.728 -0.952,-0.336 -1.904,-0.504 -0.952,-0.168 -1.736,-0.168 -2.632,0 -5.04,1.008 -2.408,0.952 -4.256,2.8 -1.792,1.792 -2.856,4.312 -1.064,2.464 -1.064,5.488 0,3.136 1.12,5.656 1.12,2.52 2.968,4.312 1.848,1.736 4.144,2.688 2.352,0.952 4.704,0.952 2.464,0 4.256,-0.56 1.792,-0.616 3.808,-1.96 v 6.048 q -1.624,0.896 -3.864,1.232 -2.24,0.336 -4.704,0.336 -3.304,0 -6.608,-1.288 -3.304,-1.288 -5.936,-3.696 -2.576,-2.408 -4.2,-5.88 -1.624,-3.472 -1.624,-7.896 0,-3.976 1.4,-7.392 1.456,-3.416 3.976,-5.936 2.576,-2.52 6.104,-3.92 3.528,-1.456 7.728,-1.456 z" /><path
           id="path969"
           style="font-style:normal;font-variant:normal;font-weight:normal;font-stretch:normal;font-size:56px;font-family:'Modern M';-inkscape-font-specification:'Modern M, Normal';font-variant-ligatures:normal;font-variant-caps:normal;font-variant-numeric:normal;font-variant-east-asian:normal;fill:#ffffff;fill-opacity:1;stroke-width:0.75"
           d="m 1434.229,-3006.963 q 3.136,-0.336 4.76,-2.184 1.624,-1.904 1.848,-5.208 0.056,-3.248 -1.68,-5.208 -1.68,-1.96 -4.928,-2.128 -3.192,0.112 -5.04,2.128 -1.848,1.96 -1.848,5.208 0.112,3.248 1.96,5.264 1.848,1.96 4.928,2.128 z m 0,4.872 q -2.688,0 -4.984,-0.896 -2.296,-0.952 -4.032,-2.576 -1.736,-1.68 -2.744,-3.92 -0.952,-2.24 -0.952,-4.872 0,-2.632 0.952,-4.872 1.008,-2.24 2.744,-3.864 1.736,-1.68 4.032,-2.576 2.296,-0.952 4.984,-0.952 2.688,0 4.984,0.952 2.352,0.896 4.032,2.576 1.68,1.624 2.632,3.864 1.008,2.24 1.008,4.872 0,2.632 -1.008,4.872 -0.952,2.24 -2.632,3.92 -1.68,1.624 -4.032,2.576 -2.296,0.896 -4.984,0.896 z" /><path
           id="path971"
           style="font-style:normal;font-variant:normal;font-weight:normal;font-stretch:normal;font-size:56px;font-family:'Modern M';-inkscape-font-specification:'Modern M, Normal';font-variant-ligatures:normal;font-variant-caps:normal;font-variant-numeric:normal;font-variant-east-asian:normal;fill:#ffffff;fill-opacity:1;stroke-width:0.75"
           d="m 1464.2485,-3007.075 q 3.136,0 4.984,-1.96 1.848,-2.016 1.848,-5.376 0,-3.192 -1.848,-5.152 -1.848,-2.016 -4.984,-2.016 -3.08,0 -4.872,2.016 -1.792,1.96 -1.904,5.152 0.112,3.36 1.904,5.376 1.792,1.96 4.872,1.96 z m -1.456,4.984 q -2.296,0 -4.312,-0.896 -2.016,-0.952 -3.528,-2.576 -1.456,-1.68 -2.352,-3.92 -0.84,-2.24 -0.896,-4.928 0.056,-2.688 0.896,-4.928 0.896,-2.24 2.352,-3.864 1.512,-1.624 3.472,-2.52 2.016,-0.896 4.256,-0.896 3.136,0 5.04,1.288 1.96,1.288 3.304,3.304 l -0.336,-21 h 5.88 v 40.432 h -5.712 l 0.168,-4.256 q -1.12,2.128 -3.192,3.472 -2.072,1.288 -5.04,1.288 z" /><path
           id="path973"
           style="font-style:normal;font-variant:normal;font-weight:normal;font-stretch:normal;font-size:56px;font-family:'Modern M';-inkscape-font-specification:'Modern M, Normal';font-variant-ligatures:normal;font-variant-caps:normal;font-variant-numeric:normal;font-variant-east-asian:normal;fill:#ffffff;fill-opacity:1;stroke-width:0.75"
           d="m 1501.5323,-3016.371 q -0.392,-2.408 -1.904,-3.976 -1.512,-1.568 -4.48,-1.68 -2.744,0 -4.592,1.456 -1.848,1.456 -2.408,4.312 z m -13.328,3.696 q 0.616,2.8 2.464,4.312 1.848,1.512 5.096,1.512 2.352,0 3.976,-0.784 1.68,-0.784 2.856,-1.736 l 3.304,3.472 q -1.792,1.624 -4.2,2.744 -2.352,1.064 -5.88,1.064 -3.024,0 -5.488,-0.896 -2.464,-0.952 -4.2,-2.576 -1.68,-1.624 -2.632,-3.864 -0.952,-2.296 -0.952,-4.928 0,-2.632 0.952,-4.872 1.008,-2.24 2.688,-3.864 1.68,-1.68 3.976,-2.576 2.296,-0.952 4.928,-0.952 3.024,0 5.32,1.064 2.352,1.064 3.92,2.968 1.568,1.848 2.296,4.48 0.784,2.576 0.616,5.208 z" /><path
           id="path975"
           style="font-style:normal;font-variant:normal;font-weight:normal;font-stretch:normal;font-size:56px;font-family:'Modern M';-inkscape-font-specification:'Modern M, Normal';font-variant-ligatures:normal;font-variant-caps:normal;font-variant-numeric:normal;font-variant-east-asian:normal;fill:#ffffff;fill-opacity:1;stroke-width:0.75"
           d="m 1578.3835,-3020.907 q 0,3.136 -1.008,5.992 -0.952,2.8 -2.688,5.152 -1.736,2.352 -4.144,4.144 -2.408,1.736 -5.208,2.632 l 8.512,7.28 h -7.672 l -6.608,-6.496 q -3.92,0 -7.392,-1.456 -3.416,-1.456 -5.992,-3.976 -2.52,-2.576 -4.032,-5.992 -1.456,-3.416 -1.456,-7.28 0,-3.864 1.456,-7.28 1.512,-3.416 4.032,-5.936 2.576,-2.52 5.992,-3.976 3.472,-1.512 7.392,-1.512 3.92,0 7.336,1.512 3.416,1.456 5.936,3.976 2.576,2.52 4.032,5.936 1.512,3.416 1.512,7.28 z m -5.936,-0.056 q 0,-3.024 -1.064,-5.488 -1.008,-2.52 -2.8,-4.312 -1.736,-1.848 -4.088,-2.856 -2.352,-1.008 -4.984,-1.008 -2.688,0 -5.04,1.008 -2.296,1.008 -4.088,2.856 -1.736,1.792 -2.744,4.312 -1.008,2.52 -1.008,5.544 0,3.136 1.12,5.656 1.176,2.52 3.024,4.312 1.904,1.736 4.256,2.744 2.352,0.952 4.76,0.952 2.408,0 4.648,-0.952 2.296,-1.008 4.032,-2.8 1.792,-1.792 2.856,-4.312 1.12,-2.52 1.12,-5.656 z" /><path
           id="path977"
           style="font-style:normal;font-variant:normal;font-weight:normal;font-stretch:normal;font-size:56px;font-family:'Modern M';-inkscape-font-specification:'Modern M, Normal';font-variant-ligatures:normal;font-variant-caps:normal;font-variant-numeric:normal;font-variant-east-asian:normal;fill:#ffffff;fill-opacity:1;stroke-width:0.75"
           d="m 1593.5175,-3002.091 q -3.864,0 -6.328,-2.576 -2.408,-2.632 -2.408,-7.448 v -14 h 5.656 l -0.168,13.552 q 0.056,2.52 1.288,3.92 1.232,1.4 3.752,1.4 2.8,0 4.368,-1.624 1.624,-1.624 1.736,-4.48 l -0.112,-12.768 h 5.656 v 23.52 h -5.712 l 0.224,-4.312 q -1.176,2.296 -3.248,3.584 -2.016,1.232 -4.704,1.232 z" /><path
           id="path979"
           style="font-style:normal;font-variant:normal;font-weight:normal;font-stretch:normal;font-size:56px;font-family:'Modern M';-inkscape-font-specification:'Modern M, Normal';font-variant-ligatures:normal;font-variant-caps:normal;font-variant-numeric:normal;font-variant-east-asian:normal;fill:#ffffff;fill-opacity:1;stroke-width:0.75"
           d="m 1622.2753,-3012.675 q -1.848,0 -2.968,0.728 -1.12,0.672 -1.12,2.24 0,3.08 4.48,3.08 2.52,0 4.088,-1.12 1.568,-1.12 1.568,-3.08 v -1.848 z m 6.048,-3.584 q 0,-3.192 -1.232,-4.424 -1.176,-1.232 -3.472,-1.232 -2.352,0 -3.808,0.84 -1.4,0.84 -2.352,1.68 l -3.248,-3.024 q 1.568,-1.848 3.808,-3.024 2.296,-1.176 6.048,-1.176 2.128,0 3.92,0.616 1.848,0.616 3.136,1.848 1.344,1.232 2.072,3.192 0.784,1.904 0.784,4.48 v 13.888 h -5.656 l 0.112,-3.36 q -1.232,1.904 -2.968,2.912 -1.736,0.952 -4.368,0.952 -1.736,0 -3.304,-0.448 -1.512,-0.392 -2.688,-1.288 -1.12,-0.896 -1.792,-2.296 -0.672,-1.456 -0.672,-3.416 0,-1.848 0.672,-3.136 0.728,-1.344 1.96,-2.184 1.232,-0.896 2.912,-1.288 1.68,-0.448 3.696,-0.448 z" /><path
           id="path981"
           style="font-style:normal;font-variant:normal;font-weight:normal;font-stretch:normal;font-size:56px;font-family:'Modern M';-inkscape-font-specification:'Modern M, Normal';font-variant-ligatures:normal;font-variant-caps:normal;font-variant-numeric:normal;font-variant-east-asian:normal;fill:#ffffff;fill-opacity:1;stroke-width:0.75"
           d="m 1641.1201,-3043.027 h 5.656 v 40.432 h -5.656 z" /><path
           id="path983"
           style="font-style:normal;font-variant:normal;font-weight:normal;font-stretch:normal;font-size:56px;font-family:'Modern M';-inkscape-font-specification:'Modern M, Normal';font-variant-ligatures:normal;font-variant-caps:normal;font-variant-numeric:normal;font-variant-east-asian:normal;fill:#ffffff;fill-opacity:1;stroke-width:0.75"
           d="m 1654.2985,-3026.115 h 5.712 v 23.52 h -5.712 z m 2.856,-5.376 q -1.512,0 -2.632,-1.008 -1.12,-1.064 -1.12,-2.744 0,-1.624 1.12,-2.632 1.12,-1.064 2.632,-1.064 1.512,0 2.632,1.064 1.12,1.008 1.12,2.632 0,1.68 -1.12,2.744 -1.12,1.008 -2.632,1.008 z" /><path
           id="path985"
           style="font-style:normal;font-variant:normal;font-weight:normal;font-stretch:normal;font-size:56px;font-family:'Modern M';-inkscape-font-specification:'Modern M, Normal';font-variant-ligatures:normal;font-variant-caps:normal;font-variant-numeric:normal;font-variant-east-asian:normal;fill:#ffffff;fill-opacity:1;stroke-width:0.75"
           d="m 1676.6049,-3002.035 q -1.68,0 -3.08,-0.448 -1.344,-0.448 -2.352,-1.456 -0.952,-1.008 -1.512,-2.632 -0.504,-1.624 -0.504,-3.976 v -10.808 h -3.528 v -4.76 h 3.528 v -12.264 h 5.768 l -0.448,12.264 h 6.608 v 4.76 h -6.552 l 0.168,10.92 q 0.112,2.016 0.728,2.744 0.616,0.728 1.736,0.728 1.008,0 1.68,-0.336 0.672,-0.392 1.12,-0.952 l 3.024,3.752 q -1.232,1.064 -2.688,1.792 -1.4,0.672 -3.696,0.672 z" /><path
           id="path987"
           style="font-style:normal;font-variant:normal;font-weight:normal;font-stretch:normal;font-size:56px;font-family:'Modern M';-inkscape-font-specification:'Modern M, Normal';font-variant-ligatures:normal;font-variant-caps:normal;font-variant-numeric:normal;font-variant-east-asian:normal;fill:#ffffff;fill-opacity:1;stroke-width:0.75"
           d="m 1694.6605,-3004.891 -9.912,-21.224 h 6.272 l 6.272,16.632 6.328,-16.632 h 5.88 l -15.4,35.392 h -5.824 z" /></g></g></g></svg>
